<svg xmlns="http://www.w3.org/2000/svg" width="233" height="68" viewBox="0 0 233 68">
  <defs>
    <style>
      .cls-1 {
        fill: #1e160f;
        fill-rule: evenodd;
      }
    </style>
  </defs>
  <path id="logo.svg" class="cls-1" d="M1571.37,100.135a1.025,1.025,0,0,0,1.26.329,25.155,25.155,0,0,0-3.21-2.979,20.187,20.187,0,0,1-4.87-5.685c-1.33-2.654-1.08-5.349.71-7.165,1.75-1.778,3.97-2.873,6.33-4.467-0.29.908-.46,1.4-0.61,1.887-0.99,3.264-1.79,6.554-.93,9.983,1.1,4.385,5,5.611,8.4,2.65a11.159,11.159,0,0,0,3.76-7.323,20.611,20.611,0,0,1,2.07-6.563,0.991,0.991,0,0,1,.45.887c1.19,5.486,4.59,8.78,10,10.008a20.9,20.9,0,0,0,6.78.464c9.51-.982,17.96-4.333,24.89-11.113a0.522,0.522,0,0,1,.59-0.215,25.692,25.692,0,0,0,1.01,2.412c1.59,2.985,4.26,3.441,6.77,1.174a10.554,10.554,0,0,0,2.51-3.749c3.04-6.974-.06-12.875-3.27-19.158-1.56,5.367-.14,10.447-0.54,15.469a9.594,9.594,0,0,0,.76-3.9c0.12-1.342.17-2.688,0.25-4.032a16.241,16.241,0,0,1,2.6,6.128c0.55,3.609-2.24,6.794-5.44,6.264-2.29-.378-3.19-1.981-2.36-4.091a12.744,12.744,0,0,0,.68-2.342,1.8,1.8,0,0,0-1.32-2.168c-1.21-.44-3.84.343-4.38,1.493a9.819,9.819,0,0,0-.92,3.345c-0.07.9,1.28,0.3,1.62,1.066a1.012,1.012,0,0,1-.21.4c-8.66,6.71-18.33,9.876-29.27,7.958-5.5-.966-8.87-4.395-9.68-10.087l-0.36-2.6q-0.69-4.976-1.37-9.951c-0.91,2.418-1.68,4.777-1.07,7.35a42.279,42.279,0,0,1,.65,4.506,4.587,4.587,0,0,1-.72,3.178c-0.57.853-.98,1.458-2.02,0.281-1.39-1.582-2.92-1.074-3.37.986a15.191,15.191,0,0,0-.29,2.609c-0.08,2,1.05,3.062,2.96,2.489,1.39-.417,1.38.241,1.26,1.133a6.012,6.012,0,0,1-4.06,4.865c-3.37,1.4-6.02-.162-6.35-3.8a14.358,14.358,0,0,1,3.04-10.151,10.282,10.282,0,0,0,2.18-6.913c-1.24,1.161-2.33,2.186-3.7,1.988-2.03-.294-2.26.836-2.16,2.292a2.913,2.913,0,0,1-1.97,3.265,7.209,7.209,0,0,0-1.34.818c-4.78,3.252-6.02,8.481-3.16,13.5A20.5,20.5,0,0,0,1571.37,100.135Zm-27.99-30.448c0.77-.882,1.28-2.627,3.13-1.606,0.28,0.154.46-.264,0.52-0.554,0.13-.568.28-1.133,0.36-1.709,0.09-.707.61-1.52-0.27-2.07-0.98-.6-1.72.076-2.31,0.668-1.32,1.317-2.55,2.724-3.79,4.121-7.42,8.385-16.15,14.636-27.44,16.546-5.22.882-10.36,0.635-15.18-1.832-3.31-1.693-5.52-4.246-5.84-8.137-0.15-1.889-.37-3.773-0.55-5.66a10.348,10.348,0,0,0-1.26,6.036c0.42,3.115,1.15,6.211.95,9.388-0.17,2.71-1.96,5.013-4.05,5.291-1.5.2-1.77-.111-1.24-1.548a14.887,14.887,0,0,0,1.1-7.541,16.8,16.8,0,0,0-2.32-6.37c-1.59,4.4-3.2,8.53-2.81,12.766,0.29,3.141-1.15,4.416-3.27,5.7-1.6.965-3.24,1.854-4.85,2.8-0.34.2-.92,0.161-0.96,0.9,3.04-.541,6.01-1.167,8.6-2.825,1.12-.712,1.9-1.2,3.06-0.011,0.72,0.744,1.85.513,2.81,0.093a7.086,7.086,0,0,0,2.94-2.666,16.506,16.506,0,0,0,2.44-7.331c0.37,0.28.56,0.392,0.72,0.546a18.72,18.72,0,0,0,13.75,5.469c6.8,0.058,12.91-2.22,18.7-5.565C1532.98,80.729,1538.37,75.428,1543.38,69.687ZM1484.4,88.417c-1.3-2.66-.77-5.2-0.09-7.9C1486.63,83.47,1486.66,85.963,1484.4,88.417ZM1679.24,70.2a0.84,0.84,0,0,0,.62-0.17c1.21-1.046.8-3.8-.68-4.478a15.673,15.673,0,0,1-2.71-1.179c-1.14-.823-1.26-0.186-1.56.713-0.31.946,0.04,2.024-.6,2.874a26.163,26.163,0,0,0-2.97,5.919,6.541,6.541,0,0,1-1.92,2.883,1.151,1.151,0,0,1-1.29.237c-0.64-.319-0.28-0.776-0.17-1.205a10.835,10.835,0,0,0,.51-3.1c-0.1-1.518-.9-2.169-2.3-1.758a5.463,5.463,0,0,0-1.86.936c-1.16.928-.94,2.441-1.37,3.685-0.32.955,0.69,0.9,1.1,1.286,0.69,0.66.79,1.2-.07,1.837a5.158,5.158,0,0,1-6.69-.438,1.484,1.484,0,0,0-2.38-.108A9.277,9.277,0,0,0,1652.27,82c-0.59,1.455-1.15,2.93-1.83,4.344a1.862,1.862,0,0,1-2.16,1.113,2.106,2.106,0,0,1-1.61-1.869,4.98,4.98,0,0,1,.63-3.37,15.44,15.44,0,0,1,4.85-5.355A8.513,8.513,0,0,0,1645.8,87.1c0.37,1.535.82,3.216,2.74,3.429s2.24-1.541,2.89-2.788c0.34-.669.53-1.419,0.84-2.11a23.591,23.591,0,0,1,1.38-2.819c0.72-1.158,1.55-1.637,2.75-.361a4.789,4.789,0,0,0,3.65,1.422c2.19-.025,3.69-1.233,5.01-2.807,0.28-.343.4-0.956,1.19-0.567,2.05,1,2.63.782,4-1.046,1.15-1.543,1.66-3.423,2.67-5.037l-0.02.007C1674.16,71.741,1675.73,69.52,1679.24,70.2ZM1465.86,83.547c0.2,0.287.4,0.58,0.62,0.85a3.718,3.718,0,0,0,5.42.8,8.369,8.369,0,0,0,2.7-3.155,4.9,4.9,0,0,1,1.44-2.146c0.55,1.125.91,2.305,2.3,2.27s1.97-1.111,2.52-2.152c0.41-.772.72-1.6,1.11-2.378a27.956,27.956,0,0,1,1.87-3.552c1.22-1.755,2.8-3.007,5.16-2.428a0.761,0.761,0,0,0,.8-0.071c1.2-1.053.85-3.857-.6-4.536-1-.469-2.08-0.785-3.02-1.345-0.73-.435-1.12-0.357-1.16.443-0.11,2.825-1.99,4.9-3,7.345a27.967,27.967,0,0,1-1.49,3.351c-0.8,1.379-2.11,1.364-2.9.082-1.09-1.775-1.11-1.774-2.14.143a12.154,12.154,0,0,0-.57,1.084c-1.63,3.625-6.33,5.375-8.43.531-0.53-1.227-1.44-1.126-2.43-.467a9.828,9.828,0,0,0-3.17,3.888c-0.66,1.237-1.27,2.5-2.02,3.68a1.946,1.946,0,0,1-2.22,1.037,2.23,2.23,0,0,1-1.54-2.132,5.236,5.236,0,0,1,1.31-3.7,15.53,15.53,0,0,1,5.27-4.433c-5.63.883-8.93,6.2-7.25,11.123a2.792,2.792,0,0,0,2.18,2.253c1.25,0.181,1.93-.719,2.47-1.624,0.89-1.5,1.62-3.1,2.53-4.592C1463.22,81.125,1464.16,81.113,1465.86,83.547Zm79.55,4.96c1.4,1.294,2.88,1,4.29-.018a9.692,9.692,0,0,0,3.24-4.676c2.13-5.665.9-14.249-2.78-19.487-1.02,2.9-1.47,9.511-.72,11.221,0.46-1.533.11-3.115,0.9-4.912a32.094,32.094,0,0,1,2.22,7.539,6.422,6.422,0,0,1-2.28,6.112c-0.86.682-1.98,1.2-2.9,0.591-0.82-.538.07-1.45,0.3-2.135,1.48-4.574.72-8.785-1.92-13.1-1.47,4.419-2.95,8.633-2.41,12.907,0.39,3.081-1.03,4.342-3.04,5.678-1.36.9-2.76,1.728-4.14,2.612a4.339,4.339,0,0,0-1.91,1.373c3.58-.755,6.88-1.614,9.68-3.757A0.944,0.944,0,0,1,1545.41,88.507Zm-0.32-13.264c1.48,2.339,2.61,4.334,1.34,6.775-0.23.443-.4,1.163-0.96,1.127-0.6-.039-0.57-0.773-0.7-1.253C1544.19,79.8,1544.5,77.734,1545.09,75.243Zm11.42,1.336a42.27,42.27,0,0,1-.19,6.262c1.57-3.6,1.13-7.426,1.27-11.209a21.518,21.518,0,0,1,2.04,5.171,9.231,9.231,0,0,1-2.16,8.777,22.334,22.334,0,0,1-7.08,5.311c-3.82,1.929-7.94,2.927-12.1,4a45.118,45.118,0,0,0,10.75-.431,13.907,13.907,0,0,0,7.19-3.715c6.89-6.828,7.43-19.337,1.1-26.912a11.9,11.9,0,0,0-1.15,6.277C1556.33,72.265,1556.39,74.424,1556.51,76.579Zm85.36-9.253a25.864,25.864,0,0,1,1.94,4.783,9.718,9.718,0,0,1-2.52,10.3,25.81,25.81,0,0,1-9.56,5.978c-2.93,1.127-5.99,1.813-9.06,2.67a62.935,62.935,0,0,0,8.9-.134c9.14-1.064,16.39-10.953,14.63-20.052-0.74-3.873-2.65-7.3-4.37-10.875-2.62,6.22.2,12.788-1.2,19.067C1642.41,75.469,1641.8,71.575,1641.87,67.326Zm31.03,7.1,0.04-.043c-0.01.012-.01,0.025-0.02,0.037s0.01,0,.01-0.005a0.042,0.042,0,0,0,.01-0.033S1672.9,74.426,1672.9,74.426Zm13.9,3.917c0.06-1.089-1.2-.064-1.84-0.351a12.275,12.275,0,0,0-1.67-.457c-2.63-.753-4.4.1-5.4,2.668a11.8,11.8,0,0,0-.72,3.585c-0.03.577,0.37,1.387-.51,1.652a2.153,2.153,0,0,1-2.37-.711,5.3,5.3,0,0,1-1.05-2.735,24.291,24.291,0,0,1,.17-6.969c0.05-.418.23-0.87-0.48-0.612l-0.57,2.507a21.066,21.066,0,0,0,.23,9.86c0.37,1.541,1.4,3.209,3.09,2.678,2.49-.786,3.2.295,3.65,2.3a1.57,1.57,0,0,0,.44.518,1.134,1.134,0,0,0,.1-0.231,1.441,1.441,0,0,0-.05-0.514c-1.1-2.339-.43-4.091,1.53-5.7,1.41-1.164,2.28-3,4.08-3.725C1687.33,81.348,1686.73,79.6,1686.8,78.343Zm-8.46,6.413c-0.09-2.926,1.28-4.053,3.75-3.26A9.512,9.512,0,0,1,1678.34,84.756Zm-5.44-10.33,0.02-.007c0.01-.012.01-0.025,0.02-0.037Zm-215.96-4.545a3.1,3.1,0,0,1,1.13.789c0.64,0.694,1.23.665,1.67-.11,0.76-1.348,1.58-.882,2.54-0.257,0.47,0.308.8,1.285,1.54,0.728a6.9,6.9,0,0,0,2.04-2.657c0-.765-1.27-1.929-2.3-2.319a0.842,0.842,0,0,0-1.25.51c-0.54,1.394-1.13,1.114-2.09.3-1.63-1.386-1.94-1.268-2.99.5-0.21.35-.39,0.718-0.63,1.047C1456.15,69.044,1456.04,69.53,1456.94,69.881ZM1651.61,70.6c0.69,0.275,1.24,1.636,2.05.29,0.85-1.413,1.68-.892,2.68-0.244,0.46,0.3.77,1.316,1.54,0.636a8.2,8.2,0,0,0,2.04-2.769,4.249,4.249,0,0,0-2.44-2.167c-0.88-.387-1.15.333-1.41,0.882-0.44.936-.82,0.775-1.52,0.192-2.08-1.718-2.13-1.6-3.62.61C1650.05,69.333,1650.19,70.029,1651.61,70.6ZM1473.69,91.535a2.076,2.076,0,0,0-3.84-.308,2.318,2.318,0,0,1-.38.347c-3.25-2.467-3.25-2.467-4.86.759a1,1,0,0,1-.1.147c-0.4.576-.22,0.907,0.39,1.2a5.69,5.69,0,0,1,1.42,1,0.73,0.73,0,0,0,1.29-.1c0.97-1.72,2.01-1.013,3.05-.136,0.5,0.428,1.01.962,1.54,0.134C1472.82,93.623,1474.32,92.975,1473.69,91.535Zm4.5-24.037a1.258,1.258,0,0,0,.69-1.627c-0.32-.846-0.99-0.236-1.46-0.041a80.6,80.6,0,0,0-9.21,4.611c-0.9.511-1.21,1.168-1.15,2.51A81.579,81.579,0,0,1,1478.19,67.5Zm197.62,24.222c-0.39-.029-2.61,2.711-2.39,3.134,0.54,1.037,1.75,1.373,2.63,2.072,0.27,0.219,2.35-2.16,2.44-2.773C1678.6,93.418,1676.81,91.794,1675.81,91.721ZM1577.34,64.97c-1.97,1.729-4.21,3.089-6.24,4.769a19.134,19.134,0,0,0,6.76-4.414c0.31-.314.59-1,1.04-0.794,1.11,0.5,1.01-.273.83-0.791a2.093,2.093,0,0,1,.03-1.334,1.236,1.236,0,0,0-.44-1.553c-0.67-.356-1.08.2-1.48,0.606-0.47.481-.89,1.111-0.21,1.653C1578.72,63.984,1577.96,64.426,1577.34,64.97Zm1.08-3.17c0.36-.117.46,0.2,0.62,0.479a0.709,0.709,0,0,1-.24.322,0.563,0.563,0,0,1-.6-0.449A0.438,0.438,0,0,1,1578.42,61.8Zm97.82,14.118c1.86-.94,3.64-1.906,5.47-2.737a1.6,1.6,0,0,0,.96-2.218C1677.28,73.033,1676.21,73.835,1676.24,75.918Zm-14.32,15.518c4.51-2.149,6.18-3.577,6.38-5.668-2.05,1.308-3.99,2.514-5.9,3.779A1.675,1.675,0,0,0,1661.92,91.436Zm-193.61-27.3c1.7,0.5,1.93,2,2.55,3.7a16.254,16.254,0,0,0,.94-3.887c0.09-.385.06-1.049,0.73-0.9,0.38,0.085.76,0.758,0.95-.15a1.1,1.1,0,0,0-.71-1.267c-0.58-.281-0.87.218-1.02,0.638-0.3.8-.51,1.639-0.77,2.531-0.65-.646-0.87-1.514-1.6-1.95-0.39-.238-0.81-0.547-1.22-0.024C1467.78,63.307,1467.7,63.955,1468.31,64.137Zm5.98,9.092c-0.68-.964-0.65-0.4-0.89.113-0.22.458-.34,1.068-1.04,0.963-0.76-.113-0.09-0.968-0.77-1.355-0.53,1.053-1.14,2.051-.32,3,0.79,0.923,1.55.151,2.24-.386a0.953,0.953,0,0,1,.33-0.041c1.66-.336,2.11-1.293,1.42-3.019C1474.69,72.463,1474.83,74,1474.29,73.229Zm90.97-9.113c1.74,0.5,1.96,2.085,2.61,3.637a11.818,11.818,0,0,0,.87-3.562c0.08-.458.05-1.258,0.73-1.15,0.48,0.077.9,0.691,1.01-.288a1.072,1.072,0,0,0-.69-1.113c-0.69-.292-0.95.285-1.11,0.764-0.26.708-.41,1.452-0.66,2.4-0.71-.65-0.97-1.6-1.76-2.03-0.45-.246-0.84-0.4-1.18.157C1564.79,63.4,1564.74,63.964,1565.26,64.115Zm118.04,52.694c0.12,0,.23.006,0.34,0,0.5-.027.97,1.364,1.44,0.126,0.31-.8,1.36-1.678.08-2.6-0.96-.693-1.53-0.167-2,0.572-0.53.836-.93,1.752-1.45,2.594-0.42.676,0.24,2.146-1.06,2.038-1.21-.1-0.77-1.486-1-2.3-0.53-1.855-.29-3.871-1.07-5.975-1.21,1.565-1.21,3.274-1.77,4.764a6.052,6.052,0,0,1-3.66,3.372,22.725,22.725,0,0,0-1.35-8.322,4.8,4.8,0,0,0-.65,3.86c0.39,1.281.55,2.629,0.9,3.924a1.351,1.351,0,0,1-.88,1.793c-1.51.716-2.99,1.5-4.59,2.317,3.75,1,9.92-.4,11.39-6.432,0.25,1.594.51,3.186,0.74,4.783,0.13,0.868.46,1.2,1.4,0.917,1.45-.438,2.94-0.716,4.41-1.1,2.08-.55,2.15-0.651,2.48-2.873C1683.53,118.632,1683.53,118.632,1683.3,116.809Zm-54.62,4.08c2.44-.412,3.14-1.39,3.53-3.914-2.44,1.528-5.38,1.227-8.26,2.2,0.38-1.47,1.03-2.5.9-3.692-0.16-1.443-.77-1.731-1.93-0.878a8.938,8.938,0,0,0-2.52,3.729,1.56,1.56,0,0,1-1.34,1.167c-1.45.119-2.89,0.32-4.34,0.428a4.575,4.575,0,0,1-3.15-.819c-1.08-.786-0.72-1.926-0.76-3-0.99,1.51-1.89,3.072-.98,4.865,0.88,1.726,2.6,1.79,4.27,1.727a21.836,21.836,0,0,0,5.68-.89,2.94,2.94,0,0,1,1.52-.292C1623.86,122.358,1626.25,121.3,1628.68,120.889Zm-6.09-2.468a0.546,0.546,0,0,1-.72-0.533,0.892,0.892,0,0,1,.82-0.954c0.46-.1.52,0.33,0.61,0.664A0.752,0.752,0,0,1,1622.59,118.421Zm35.81-10.036c0.25-.618,1.08-1.347-0.07-1.9-0.94-.449-1.42.149-1.72,0.929a3.983,3.983,0,0,1-1.95,2.108,8.179,8.179,0,0,0-3.79,5.362c0.78,0.375,1.57-.184,2.39.383-1.3.787-2.6,1.416-3.27,2.822-0.36.758-.33,2.218-1.43,2.023-1.05-.185-0.68-1.564-0.87-2.44a0.843,0.843,0,0,0-.34-0.227,2.929,2.929,0,0,0-.64.721,5.038,5.038,0,0,1-3.7,2.912,10.3,10.3,0,0,0-1.78.7c-0.44.22-1.13,0.381-.98,1.036a1.185,1.185,0,0,0,1.19.554c2.29,0.306,4.14-.3,5.04-2.964,0.64,2.271.97,2.661,2.02,2.642,1.25-.024,2.64-1.421,3.05-2.777,0.34-1.113-.77-0.824-1.31-1.376a8.223,8.223,0,0,0,4.69-4.194c0.62-1.376.68-2.208-1.16-2.62C1655.75,111.224,1657.57,110.4,1658.4,108.385Zm-169.52.969c2.13-1,4.21-2.142,6.29-3.256a3.263,3.263,0,0,0,1.87-3.075c-2.6,1.263-4.99,2.648-7.54,3.6-2.41.9-2.93,2.776-2.98,5.291a9.283,9.283,0,0,0,.52,2.782,1.857,1.857,0,0,1-1.43,2.678,82.393,82.393,0,0,1-13.58,2.463c-1.47.162-1.63-.974-1.77-2-0.31-2.324-.56-4.656-0.83-6.986l-0.42-.087a3.111,3.111,0,0,0-.36.823c-0.39,3.414.4,6.732,0.89,10.068,0.15,1.009,1.18.988,1.93,0.924a51.416,51.416,0,0,0,13.41-2.478c2.58-.94,3.65-2.67,3.47-5.515a12.9,12.9,0,0,0-.5-3.03A1.568,1.568,0,0,1,1488.88,109.354Zm180.44,8.029c0.18-.47.46-1.052-0.16-1.406a1.3,1.3,0,0,0-1.74.316,3.634,3.634,0,0,0-.47.926,4.475,4.475,0,0,1-4.35,2.165c-1.69-.258-1.39-1.769-1.57-2.9-0.26-1.643-.86-2.01-2.36-1.23a6.457,6.457,0,0,0-3.38,4.645c-0.17.775-.35,1.59,0.65,1.887a2.077,2.077,0,0,0,2.63-.748,3.645,3.645,0,0,0,.55-2.067c-0.83-.121-1.57.568-2.35-0.177a2.662,2.662,0,0,1,2.38-1.154c0.63,0.054.68,0.694,0.77,1.222,0.64,3.687.8,3.785,4.37,2.7a14.063,14.063,0,0,0,1.8-.663A6,6,0,0,0,1669.32,117.383Zm-80.06.9c-0.04-1.343-1.45-1.077-2.28-1.478a1.525,1.525,0,0,1-.17-0.06c-0.7-.419-1.26-0.763-0.09-1.408a2.656,2.656,0,0,0,1.16-2.828c-2.24.959-2.7,2.935-3.19,4.822-0.37,1.425.69,2.077,2.24,2.7-2.37.929-4.36,1.69-6.21,0.165-1.76-1.45-1.2-3.3-.46-5.107a7.166,7.166,0,0,0-1.88,4.83,3.591,3.591,0,0,0,3.96,3.886,8.794,8.794,0,0,0,5.32-1.966A4.274,4.274,0,0,0,1589.26,118.279Zm-52.16-9.768a3.023,3.023,0,0,0-.75,2.824c0.46,1.777-.5,2.728-1.99,2.732-3.21.01-6.38,2.455-9.65,0.144-0.52-.364-1.2.175-1.72,0.548a4.89,4.89,0,0,0-1.59,6.357c-4.15,1.358-6.05-.028-5.53-4.522a6.232,6.232,0,0,0-1.3,4.83,3.01,3.01,0,0,0,1.91,2.5c2.49,0.969,6.53-.563,7.8-2.933,0.68-1.26.85-2.232-.95-2.579-0.55-.106-1.49-0.226-0.95-1.125a1.113,1.113,0,0,1,1.82-.284c1.23,1.438,2.7.949,4.15,0.7,1.55-.263,3.1-0.517,4.63-0.887C1536.71,115.92,1538.45,112.44,1537.1,108.511Zm68.1,7.511c-1.08.454-2.14,1.186-3.2-.168-1.01-1.284-1.6-1.132-2.35.436-1.1,2.283-.98,2.573,1.41,3.3a1.656,1.656,0,0,1,.39.478c-2.27,1.484-4.99,1.823-7.57,3.3a18.224,18.224,0,0,0,4.19.139c1.63,0.012,2.94-.6,3.42-2.164,0.57-1.85,1.94-2.253,3.53-2.529,2.57-.445,3.51-2.362,4.2-4.477-0.11-.115-0.23-0.229-0.35-0.344a4.509,4.509,0,0,1-.42.735c-0.54.635-1.73,1.477-1.96,1.125C1605.69,114.656,1605.6,115.854,1605.2,116.022Zm36.76-5.68a4.251,4.251,0,0,0-.94,3.106c0.08,0.707.43,1.6-.62,1.925-0.94.291-1.92,1.008-2.84-.15-0.54-.672-1.13-0.548-1.5.213a19.766,19.766,0,0,0-.85,2.1,0.807,0.807,0,0,0,.67,1.161c0.45,0.131,1.25-.287,1.3.47,0.04,0.679-.79.767-1.29,0.988-2.05.919-4.13,1.778-6.45,2.764,4.69,1.086,7.62-.2,8.54-3.568a1.365,1.365,0,0,1,.7-0.92C1642.12,116.5,1643.04,114.205,1641.96,110.342Zm-79.48,3.193a5.55,5.55,0,0,0-.74,3.031c0.21,1.157.92,2.336-.48,3.3a6.765,6.765,0,0,1-3.37,1.3,2.812,2.812,0,0,1-3.29-2.961c-0.01-.463,0-0.926,0-1.761a6.3,6.3,0,0,0-1.19,3.864c0.06,2.777,2.06,4.21,4.75,3.464A7.25,7.25,0,0,0,1562.48,113.535Zm-11.34-6.316c-3.84,1.014-4.27,3.989-3.78,6.981,0.33,2.031-.44,2.54-2.06,2.773-1.01.145-2.22,0.112-2.73,1.106-0.8,1.527-2.19,1.871-3.6,2.373a5.029,5.029,0,0,0-2.95,1.84c2.3,0.317,4.45,1.047,5.89-1.518a2.513,2.513,0,0,1,1.83-.948c4.18-.981,5.47-2.794,4.71-7.062a1.955,1.955,0,0,1,1.5-2.613c2.14-.778,4.21-1.719,6.35-2.514a2.719,2.719,0,0,0,1.98-3.133A70.806,70.806,0,0,1,1551.14,107.219Zm24,11.488c0.33,1.729-1.13,1.474-2,1.705-1.18.315-.91-0.732-0.98-1.342-0.32-2.942-.82-5.864-1.04-8.877a5.367,5.367,0,0,0-.92,3.433c0.13,2.914.61,5.785,0.97,8.672,0.12,0.906.46,1.152,1.39,0.959,3.32-.7,4.82-3.775,3.3-7.269A4.788,4.788,0,0,0,1575.14,118.707Zm-7.59-3.1c-1.28-.138-0.98,1.447-1.38,2.266a0.969,0.969,0,0,0,.66,1.6c0.39,0.1,1.02-.4,1.15.332,0.14,0.7-.58.8-1,1.017-1.34.7-2.72,1.312-4.08,1.966a10.95,10.95,0,0,0-2.95,1.714,15.455,15.455,0,0,0,4.11-.177,5.627,5.627,0,0,0,5.01-5.929C1569.08,117.169,1568.89,115.751,1567.55,115.607Zm-102.1,2.856c0.54,1.546-.21,2.374-1.39,3.069-3.29,1.935-5.64.595-5.74-3.672a5.907,5.907,0,0,0-1.04,3.664c0.09,2.223,1.56,3.64,3.59,3.462,4.42-.388,7.21-5.605,5.12-9.648A3.121,3.121,0,0,0,1465.45,118.463Zm32.45-1.334c0.05,1.271-.97,1.23-1.78,1.412-1.14.259-1.05-.648-1.13-1.307-0.32-2.723-.61-5.45-0.94-8.4a3.959,3.959,0,0,0-.66,1.106c-0.54,3.64.25,7.188,0.82,10.747,0.16,0.971.94,0.619,1.51,0.513,2.75-.515,3.71-2.45,3.1-6.5A2.384,2.384,0,0,0,1497.9,117.129Zm94.64,2.842c-0.9.411-1.81,0.783-2.71,1.2a0.7,0.7,0,0,0-.47.677c0.03,0.371.36,0.38,0.65,0.44,3.71,0.8,6.17-1.133,6.29-5.286C1595.43,118.794,1593.95,119.329,1592.54,119.971Zm-84.59-4.6a9.94,9.94,0,0,0-1.27,4.741,2.223,2.223,0,0,0,1.3,2.313,2.737,2.737,0,0,0,2.88-.495,4.484,4.484,0,0,0,1.49-3.587,5.734,5.734,0,0,0-.97-3.114C1510.18,113.319,1509.03,113.354,1507.95,115.368Zm1.61,5.2c-1.27-.018-2.16-0.5-2.09-1.755,0.06-1.179.5-2.557,1.83-2.613,1.5-.061,1.99,1.443,2.18,2.626C1511.7,120.178,1510.42,120.3,1509.56,120.569Zm55.43-6.484c1.13-1.116,3.19-1.014,3.84-3.148a16.874,16.874,0,0,1-1.92.78,0.8,0.8,0,0,1-1.02-.42c-0.07-.569.41-0.506,0.86-0.41,0.83,0.179.58-.509,0.54-0.852a0.56,0.56,0,0,0-.89-0.47c-0.9.5-1.76,1.286-1.55,2.3C1565.01,112.612,1564.8,113.264,1564.99,114.085Zm10.78-3.647c-0.12-.49-0.68-0.424-1.01-0.139a0.758,0.758,0,0,0-.33,1.053c0.69,0.951.63,1.492-.29,2.123-0.37.25-.95,0.089-1.24,0.8a4.031,4.031,0,0,0,3.57-.624c0.47-.4.91-1.025,0.48-1.493A3.892,3.892,0,0,1,1575.77,110.438Zm62.63,15.022c-0.08-.667-0.97-0.268-1.5-0.22-1.6.145-1.96,1.316-2.16,2.683a5.5,5.5,0,0,0,2.58-.343C1638.3,127.384,1638.48,126.223,1638.4,125.46Zm-81.48-12.443c-0.91.176-1.32,1.3-1.52,2.118a2.363,2.363,0,0,0,1.69,1.223c0.76-.076.91-1.194,1.37-1.963C1558.11,113.758,1557.58,112.89,1556.92,113.017Zm-16.03,2.019c1.51-3.248.31-6.566,0.25-9.868C1539.46,108.436,1540.71,111.737,1540.89,115.036Zm78.1-4.864c-0.31.936,0.84,0.9,1.23,1.543a3.263,3.263,0,0,0,1.26-2.026,1.144,1.144,0,0,0-1.21-1.37C1619.32,108.371,1619.22,109.464,1618.99,110.172Zm-12.68,12.884c-0.93.083-1.04,1.168-1.26,1.888-0.28.926,0.86,0.885,1.24,1.519a3.059,3.059,0,0,0,1.25-2.045A1.158,1.158,0,0,0,1606.31,123.056Zm-2.13-11.522c0.92-.224,1.16-1.236,1.26-2.06,0.08-.735-0.69-0.965-1.32-1.285a3.153,3.153,0,0,0-1.2,2.183A1.3,1.3,0,0,0,1604.18,111.534Zm-128.84-.154c-1.65.1-2.83,0.707-2.79,2.814,1.54-.122,3.14.136,3.52-2.026C1476.19,111.488,1475.88,111.347,1475.34,111.38Zm58.87-5.386c1.55-.4,3.32.041,3.57-2.1a0.628,0.628,0,0,0-.77-0.816C1535.24,103.113,1534.29,103.965,1534.21,105.994Zm-74.51,9.419c-1.35,1.684.75,1.527,1.11,2.53,0.62-1.184,1.95-1.982.46-3.178C1460.33,114.009,1460.11,114.9,1459.7,115.413Zm67.69-6.86c1.32,1.052,1.29-.4,1.67-0.935a0.919,0.919,0,0,0-.21-1.426c-0.81-.445-1.3.26-1.76,0.73a20.918,20.918,0,0,0-1.49,1.832C1526.34,109.105,1526.79,108.069,1527.39,108.553ZM1497.6,123.8c-0.79-.492-1.29.233-1.75,0.706-0.53.542-.96,1.18-1.47,1.821,0.73,0.374,1.18-.708,1.78-0.153,1.13,1.043,1.18-.2,1.52-0.73S1498.28,124.229,1497.6,123.8Z" transform="translate(-1454 -60)"/>
</svg>
