<?xml version="1.0" encoding="utf-8"?>
<!-- Generator: Adobe Illustrator 19.2.1, SVG Export Plug-In . SVG Version: 6.00 Build 0)  -->
<svg version="1.1" id="logo.svg" xmlns="http://www.w3.org/2000/svg" xmlns:xlink="http://www.w3.org/1999/xlink" x="0px" y="0px"
	 viewBox="0 0 1164 292.1" style="enable-background:new 0 0 1164 292.1;" xml:space="preserve">
<g>
	<path d="M552.5,93.2c0.7,0.4,1.4,1.5,2.7,0.7c-2-2.5-4.6-4.3-6.8-6.3c-4-3.6-7.9-7.2-10.4-12.1c-2.8-5.6-2.3-11.4,1.5-15.2
		c3.7-3.8,8.5-6.1,13.5-9.5c-0.6,1.9-1,3-1.3,4c-2.1,6.9-3.8,13.9-2,21.2c2.4,9.3,10.7,11.9,17.9,5.6c4.6-4,7.4-9.5,8-15.6
		c0.7-4.9,2.2-9.6,4.4-13.9c0.8,0.4,0.8,1.2,1,1.9c2.6,11.7,9.8,18.6,21.3,21.3c4.7,1.1,9.6,1.4,14.5,1c20.3-2.1,38.3-9.2,53.1-23.6
		c0.3-0.4,0.8-0.6,1.3-0.5c0.6,1.7,1.4,3.5,2.2,5.1c3.4,6.3,9.1,7.3,14.4,2.5c2.3-2.2,4.2-5,5.4-8c6.5-14.8-0.1-27.3-7-40.7
		c-3.3,11.4-0.3,22.2-1.2,32.9c1.4-2.6,1.4-5.5,1.6-8.3c0.2-2.8,0.3-5.7,0.5-8.6c2.6,4.2,4.8,8.3,5.6,13c1.2,7.7-4.8,14.4-11.6,13.3
		c-4.9-0.8-6.8-4.2-5-8.7c0.6-1.6,1.1-3.3,1.4-5c0.4-2.3-0.7-3.8-2.8-4.6c-2.6-0.9-8.2,0.7-9.3,3.2c-1.1,2.2-1.7,4.6-2,7.1
		c-0.1,1.9,2.7,0.6,3.5,2.3c-0.1,0.3-0.2,0.6-0.4,0.9c-18.5,14.3-39.1,21-62.5,16.9c-11.8-2.1-18.9-9.3-20.7-21.4
		c-0.3-1.8-0.5-3.7-0.8-5.5c-1-7-2-14.1-2.9-21.1c-1.9,5.1-3.6,10.1-2.3,15.6c0.6,3.2,1.1,6.4,1.4,9.6c0.3,2.4-0.2,4.8-1.5,6.8
		c-1.2,1.8-2.1,3.1-4.3,0.6c-3-3.4-6.2-2.3-7.2,2.1c-0.4,1.8-0.6,3.7-0.6,5.5c-0.2,4.3,2.2,6.5,6.3,5.3c3-0.9,2.9,0.5,2.7,2.4
		c-0.7,5.2-4.1,8.4-8.7,10.3c-7.2,3-12.8-0.3-13.6-8.1c-0.7-7.8,1.6-15.5,6.5-21.6c3.3-4.2,4.9-9.4,4.7-14.7c-2.7,2.5-5,4.6-7.9,4.2
		c-4.3-0.6-4.8,1.8-4.6,4.9c0.2,3.4-1,5.7-4.2,6.9c-1,0.5-2,1.1-2.9,1.7c-10.2,6.9-12.8,18-6.7,28.7
		C540.5,84.4,546.1,89.3,552.5,93.2z M492.8,28.6c1.7-1.9,2.7-5.6,6.7-3.4c0.6,0.3,1-0.6,1.1-1.2c0.3-1.2,0.6-2.4,0.8-3.6
		c0.2-1.5,1.3-3.2-0.6-4.4c-2.1-1.3-3.7,0.2-4.9,1.4c-2.8,2.8-5.4,5.8-8.1,8.8c-15.8,17.8-34.5,31.1-58.6,35.1
		c-11.1,1.9-22.1,1.3-32.4-3.9c-7.1-3.6-11.8-9-12.4-17.3c-0.3-4-0.8-8-1.2-12c-2,4.1-3.3,8.2-2.7,12.8c0.9,6.6,2.5,13.2,2,19.9
		c-0.4,5.8-4.2,10.6-8.6,11.2c-3.2,0.4-3.8-0.2-2.6-3.3c1.9-5.2,3.2-10.5,2.3-16c-0.7-4.8-2.4-9.4-5-13.5c-3.4,9.4-6.8,18.1-6,27.1
		c0.6,6.7-2.5,9.4-7,12.1c-3.4,2.1-6.9,3.9-10.3,5.9c-0.8,0.4-2,0.3-2.1,1.9c6.5-1.1,12.8-2.5,18.4-6c2.4-1.5,4.1-2.6,6.5,0
		c1.5,1.6,4,1.1,6,0.2c2.6-1.2,4.8-3.2,6.3-5.7c3.1-4.5,4.4-9.7,5.2-15.6c0.5,0.4,1,0.7,1.5,1.2c8.1,8.1,18.1,11.5,29.4,11.6
		c14.5,0.1,27.6-4.7,39.9-11.8C470.6,52,482.1,40.8,492.8,28.6z M366.9,68.4c-2.8-5.6-1.6-11-0.2-16.8
		C371.7,57.8,371.7,63.1,366.9,68.4z M782.8,29.7c0.5,0.1,1-0.1,1.3-0.4c2.6-2.2,1.7-8.1-1.4-9.5c-1.9-0.9-4.1-1.3-5.8-2.5
		c-2.4-1.7-2.7-0.4-3.3,1.5c-0.7,2,0.1,4.3-1.3,6.1c-2.9,3.8-4.6,8.2-6.4,12.6c-0.9,2.3-2,4.6-4.1,6.1c-0.7,0.7-1.8,0.9-2.8,0.5
		c-1.3-0.7-0.6-1.6-0.4-2.6c0.5-2.2,1.2-4.3,1.1-6.6c-0.2-3.2-1.9-4.6-4.9-3.7c-1.4,0.4-2.8,1.1-4,2c-2.5,2-2,5.2-2.9,7.8
		c-0.7,2,1.5,1.9,2.3,2.7c1.5,1.4,1.7,2.6-0.2,3.9c-4.2,3.1-10.6,2.9-14.3-0.9c-1.9-1.9-3.3-1.7-5.1-0.2c-2.5,2.2-4.5,5-5.6,8.2
		c-1.3,3.1-2.5,6.2-3.9,9.2c-0.7,1.8-2.7,2.8-4.6,2.4c-2.1-0.5-3-2-3.4-4c-0.4-2.5,0.1-5,1.3-7.2c2.5-4.6,6.1-8.5,10.4-11.4
		c-9.7,2.2-15.8,11.9-13.6,21.7c0,0,0,0.1,0,0.1c0.8,3.3,1.8,6.8,5.8,7.3s4.8-3.3,6.2-5.9c0.7-1.4,1.1-3,1.8-4.5
		c0.8-2.1,1.8-4.1,2.9-6c1.5-2.5,3.3-3.5,5.9-0.8c2,2.1,4.9,3.2,7.8,3c4.7-0.1,7.9-2.6,10.7-6c0.6-0.7,0.9-2,2.6-1.2
		c4.4,2.1,5.6,1.7,8.5-2.2c2.5-3.3,3.5-7.3,5.7-10.7c0,0,0,0,0,0C771.9,32.9,775.3,28.2,782.8,29.7z M327.3,58
		c0.4,0.6,0.8,1.2,1.3,1.8c3.2,3.9,7.3,4.5,11.6,1.7c2.5-1.7,4.4-4,5.8-6.7c0.8-1.5,1.2-3.3,3.1-4.6c1.2,2.4,1.9,4.9,4.9,4.8
		c2.9-0.1,4.2-2.4,5.4-4.6c0.9-1.6,1.5-3.4,2.4-5.1c1.2-2.6,2.5-5.1,4-7.5c2.6-3.7,6-6.4,11-5.2c0.5,0.3,1.2,0.2,1.7-0.2
		c2.6-2.2,1.8-8.2-1.3-9.6c-2.1-1-4.4-1.7-6.4-2.9c-1.6-0.9-2.4-0.8-2.5,0.9c-0.2,6-4.3,10.4-6.4,15.6c-0.9,2.4-2,4.8-3.2,7.1
		c-1.7,2.9-4.5,2.9-6.2,0.2c-2.3-3.8-2.4-3.8-4.6,0.3c-0.4,0.8-0.9,1.5-1.2,2.3c-3.5,7.7-13.5,11.4-18,1.1c-1.1-2.6-3.1-2.4-5.2-1
		c-3.1,2.1-5.1,5.1-6.8,8.3c-1.4,2.6-2.7,5.3-4.3,7.8c-1,1.6-2.6,2.8-4.7,2.2c-2.2-0.6-3-2.4-3.3-4.5c-0.4-3.1,1.1-5.5,2.8-7.9
		c3-3.9,6.8-7.2,11.3-9.4c-12,1.9-19.1,13.2-15.5,23.6c0.8,2.3,1.9,4.4,4.7,4.8c2.7,0.4,4.1-1.5,5.3-3.4c1.9-3.2,3.5-6.6,5.4-9.8
		C321.7,52.9,323.7,52.8,327.3,58z M497.1,68.5c3,2.7,6.2,2.1,9.2,0c3.5-2.5,5.5-6.1,6.9-9.9c4.6-12,1.9-30.3-5.9-41.4
		c-2.2,6.2-3.2,20.2-1.5,23.8c1-3.3,0.3-6.6,1.9-10.4c2.2,5.8,4.2,10.7,4.8,16c0.5,5.1-0.7,9.6-4.9,13c-1.8,1.4-4.2,2.6-6.2,1.3
		c-1.7-1.1,0.2-3.1,0.6-4.5c3.2-9.7,1.6-18.7-4.1-27.8c-3.1,9.4-6.3,18.3-5.2,27.4c0.8,6.5-2.2,9.2-6.5,12.1
		c-2.9,1.9-5.9,3.7-8.8,5.5c-1.3,0.8-3,1.1-4.1,2.9c7.6-1.6,14.7-3.4,20.7-8C495.2,67.5,495.9,67.5,497.1,68.5z M496.4,40.4
		c3.2,5,5.6,9.2,2.9,14.4c-0.5,0.9-0.8,2.5-2.1,2.4c-1.3-0.1-1.2-1.6-1.5-2.7C494.5,50.1,495.2,45.7,496.4,40.4L496.4,40.4z
		 M520.8,43.2c0.2,4.4,0.1,8.9-0.4,13.3c3.4-7.6,2.4-15.8,2.7-23.8c1.9,3.5,3.4,7.1,4.3,11c1.8,7.1,0.1,13.2-4.6,18.6
		c-4.2,4.7-9.4,8.6-15.1,11.3c-8.2,4.1-16.9,6.2-25.8,8.5c7.7,0.3,15.3,0.7,22.9-0.9c5.8-1.1,11.1-3.8,15.3-7.9
		c14.7-14.5,15.9-41.1,2.3-57.2c-2,4.1-2.9,8.7-2.4,13.3C520.4,34.1,520.6,38.6,520.8,43.2L520.8,43.2z M703,23.6
		c1.7,3.2,3.1,6.6,4.2,10.2c2.6,8.4,0.7,15.6-5.4,21.9c-5.8,5.9-12.8,9.8-20.4,12.7c-6.3,2.4-12.8,3.8-19.3,5.7
		c6.3,0.2,12.7,0.4,19-0.3c19.5-2.3,35-23.3,31.3-42.6c-1.6-8.2-5.7-15.5-9.3-23.1c-5.6,13.2,0.4,27.2-2.6,40.5
		C704.2,40.9,702.9,32.6,703,23.6L703,23.6z M769.2,38.6L769.2,38.6C769.3,38.6,769.3,38.6,769.2,38.6L769.2,38.6
		C769.3,38.6,769.3,38.6,769.2,38.6C769.3,38.6,769.3,38.6,769.2,38.6L769.2,38.6z M798.9,47c0.1-2.3-2.6-0.1-3.9-0.7
		c-1.2-0.4-2.4-0.7-3.6-1c-5.6-1.6-9.4,0.2-11.5,5.7c-0.9,2.4-1.4,5-1.5,7.6c-0.1,1.2,0.8,2.9-1.1,3.5c-1.8,0.6-3.9,0-5.1-1.5
		c-1.3-1.7-2.1-3.7-2.2-5.8c-0.8-5-0.2-9.9,0.4-14.8c0.1-0.9,0.5-1.8-1-1.3c-0.4,1.8-0.8,3.5-1.2,5.3c-1.5,6.9-1.3,14.1,0.5,20.9
		c0.8,3.3,3,6.8,6.6,5.7c5.3-1.7,6.8,0.6,7.8,4.9c0.2,0.4,0.6,0.8,0.9,1.1c0.1-0.2,0.2-0.3,0.2-0.5c0-0.4,0-0.7-0.1-1.1
		c-2.3-5-0.9-8.7,3.3-12.1c3-2.5,4.9-6.4,8.7-7.9C800.1,53.3,798.8,49.6,798.9,47L798.9,47z M780.8,60.6c-0.2-6.2,2.7-8.6,8-6.9
		C786.9,56.6,784.1,59,780.8,60.6L780.8,60.6z M769.3,38.6C769.3,38.6,769.3,38.6,769.3,38.6C769.3,38.6,769.3,38.6,769.3,38.6
		L769.3,38.6z M697.3,128.7c0.2,0,0.5,0,0.7,0c1.1-0.1,2.1,2.9,3.1,0.3c0.7-1.7,2.9-3.6,0.2-5.5c-2.1-1.5-3.3-0.4-4.3,1.2
		c-1.1,1.8-2,3.7-3.1,5.5c-0.9,1.4,0.5,4.6-2.3,4.3c-2.6-0.2-1.6-3.2-2.1-4.9c-1.1-3.9-0.6-8.2-2.3-12.7c-2.6,3.3-2.6,7-3.8,10.1
		c-1.4,3.7-4.3,5.6-7.8,7.2c0.3-6.1-1-11.7-2.9-17.7c-1.5,2.9-2.3,5.3-1.4,8.2c0.8,2.7,1.2,5.6,1.9,8.3c0.5,1.9-0.1,3-1.9,3.8
		c-3.2,1.5-6.4,3.2-9.8,4.9c8,2.1,21.2-0.9,24.3-13.7c0.5,3.4,1.1,6.8,1.6,10.2c0.3,1.8,1,2.6,3,1.9c3.1-0.9,6.3-1.5,9.4-2.3
		c4.4-1.2,4.6-1.4,5.3-6.1C697.8,132.5,697.8,132.5,697.3,128.7L697.3,128.7z M580.7,137.3c5.2-0.9,6.7-3,7.6-8.3
		c-5.2,3.2-11.5,2.6-17.6,4.7c0.8-3.1,2.2-5.3,1.9-7.8c-0.3-3.1-1.6-3.7-4.1-1.9c-2.7,2-4,5-5.4,7.9c-0.6,1.3-1.2,2.3-2.9,2.5
		c-3.1,0.3-6.2,0.7-9.3,0.9c-2.4,0.3-4.8-0.4-6.7-1.7c-2.3-1.7-1.5-4.1-1.6-6.4c-2.1,3.2-4,6.5-2.1,10.3c1.9,3.7,5.6,3.8,9.1,3.7
		c4.1-0.1,8.2-0.7,12.1-1.9c1.1-0.3,2.3-0.9,3.2-0.6C570.5,140.4,575.6,138.2,580.7,137.3L580.7,137.3z M567.7,132.1
		c-0.6,0.2-1.3-0.1-1.5-0.7c0-0.1-0.1-0.3-0.1-0.4c-0.1-1,0.7-1.9,1.8-2c1-0.2,1.1,0.7,1.3,1.4C569.4,131.5,568.6,131.9,567.7,132.1
		L567.7,132.1z M644.2,110.8c0.5-1.3,2.3-2.9-0.1-4c-2-1-3,0.3-3.7,2c-0.8,2-2.3,3.6-4.2,4.5c-4.5,2.5-6.8,6.6-8.1,11.4
		c1.7,0.8,3.3-0.4,5.1,0.8c-2.8,1.7-5.5,3-7,6c-0.8,1.6-0.7,4.7-3.1,4.3c-2.2-0.4-1.4-3.3-1.8-5.2c-0.2-0.2-0.5-0.4-0.7-0.5
		c-0.5,0.4-1,0.9-1.4,1.5c-1.5,3.6-4.4,5.2-7.9,6.2c-1.3,0.4-2.6,0.9-3.8,1.5c-0.9,0.5-2.4,0.8-2.1,2.2c0.2,1,1.6,1.1,2.5,1.2
		c4.9,0.6,8.8-0.6,10.8-6.3c1.4,4.8,2.1,5.7,4.3,5.6c2.7-0.1,5.6-3,6.5-5.9c0.7-2.4-1.7-1.8-2.8-2.9c4.6-2,8-4.5,10-8.9
		c1.3-2.9,1.4-4.7-2.5-5.6C638.5,116.8,642.4,115,644.2,110.8L644.2,110.8z M538.3,178.4c3.4-1.6,6.7-3.4,9.9-5.1
		c1.9-0.9,3-2.8,2.9-4.8c-4.1,2-7.9,4.2-11.9,5.7c-3.8,1.4-4.6,4.4-4.7,8.3c0,1.5,0.3,3,0.8,4.4c0.7,2.2-0.1,3.6-2.3,4.2
		c-7,1.9-14.2,3.2-21.4,3.9c-2.3,0.3-2.6-1.5-2.8-3.1c-0.5-3.7-0.9-7.3-1.3-11c-0.2,0-0.4-0.1-0.7-0.1c-0.3,0.4-0.5,0.8-0.6,1.3
		c-0.6,5.4,0.6,10.6,1.4,15.8c0.2,1.6,1.8,1.6,3.1,1.5c7.2-0.6,14.3-1.4,21.2-3.9c4.1-1.5,5.8-4.2,5.5-8.7c-0.1-1.6-0.3-3.2-0.8-4.8
		C536.1,180.1,536.6,179.2,538.3,178.4L538.3,178.4z M667.5,129.9c0.4-1,1-2.2-0.4-3c-1.2-0.8-2.8-0.5-3.7,0.7c-0.4,0.6-0.8,1.3-1,2
		c-1.3,2.8-5.7,5.1-9.3,4.6c-3.6-0.5-2.9-3.8-3.3-6.2c-0.6-3.5-1.8-4.3-5-2.6c-3.8,2-6.5,5.6-7.2,9.9c-0.4,1.6-0.7,3.4,1.4,4
		s4.3,0.6,5.6-1.6c0.8-1.3,1.2-2.8,1.2-4.4c-1.8-0.3-3.3,1.2-5-0.4c1.1-1.7,3.1-2.6,5.1-2.4c1.3,0.1,1.5,1.5,1.7,2.6
		c1.4,7.8,1.7,8,9.3,5.7c1.3-0.4,2.6-0.8,3.8-1.4C663.8,135.9,666.3,133.2,667.5,129.9L667.5,129.9z M496.6,131.8
		c-0.1-2.9-3.1-2.3-4.9-3.1c-0.1,0-0.2-0.1-0.3-0.1c-1.5-0.9-2.7-1.6-0.2-3c2.1-1.2,2.7-3.3,2.5-6c-4.8,2-5.8,6.2-6.8,10.2
		c-0.8,3,1.5,4.4,4.8,5.7c-5.1,2-9.3,3.6-13.3,0.3c-3.8-3.1-2.6-7-1-10.8c-2.6,2.8-4,6.5-4,10.3c0,5.2,3.3,8.4,8.4,8.3
		c4.1-0.1,8.1-1.6,11.4-4.2C495.5,137.5,496.7,134.7,496.6,131.8L496.6,131.8z M614.4,177.1c-1.1,1.2-1.6,2.9-1.2,4.4
		c0.7,2.8-0.8,4.3-3.1,4.3c-5.1,0-10.1,3.9-15.3,0.2c-0.8-0.6-1.9,0.3-2.7,0.9c-3.3,2.2-4.4,6.5-2.5,10c-6.6,2.1-9.6,0-8.7-7.1
		c-1.8,2.7-2.5,5-2.1,7.6c0.2,1.8,1.4,3.3,3,3.9c3.9,1.5,10.3-0.9,12.3-4.6c1.1-2,1.3-3.5-1.5-4.1c-0.9-0.2-2.4-0.4-1.5-1.8
		c0.4-0.9,1.5-1.2,2.3-0.8c0.2,0.1,0.4,0.2,0.5,0.4c1.9,2.3,4.3,1.5,6.6,1.1c2.4-0.4,4.9-0.8,7.3-1.4
		C613.8,188.7,616.6,183.3,614.4,177.1L614.4,177.1z M530.6,127c-2.3,1-4.6,2.5-6.8-0.4c-2.2-2.7-3.4-2.4-5,0.9
		c-2.3,4.8-2.1,5.5,3,7c0.3,0.3,0.6,0.6,0.8,1c-4.9,3.2-10.7,3.9-16.2,7c3.5,0.7,6.2,0.3,8.9,0.3c3.5,0,6.3-1.3,7.3-4.6
		c1.2-3.9,4.1-4.8,7.5-5.4c5.5-0.9,7.5-5,9-9.5c-0.3-0.2-0.5-0.5-0.8-0.7c-0.2,0.5-0.5,1.1-0.9,1.6c-1.2,1.3-3.7,3.1-4.2,2.4
		C531.7,124.1,531.5,126.6,530.6,127L530.6,127z M609.1,114.9c-1.5,1.8-2.3,4.2-2,6.6c0.2,1.5,0.9,3.4-1.3,4.1
		c-2,0.6-4.1,2.1-6.1-0.3c-1.1-1.4-2.4-1.2-3.2,0.5c-0.7,1.5-1.3,2.9-1.8,4.5c-0.5,1.3,0.1,2.1,1.4,2.5c1,0.3,2.7-0.6,2.8,1
		c0.1,1.4-1.7,1.6-2.7,2.1c-4.4,2-8.8,3.8-13.8,5.9c10,2.3,16.3-0.4,18.2-7.6c0.2-0.8,0.7-1.6,1.5-2
		C609.4,128,611.4,123.1,609.1,114.9L609.1,114.9z M308.3,29c0.9,0.4,1.7,0.9,2.4,1.7c1.4,1.5,2.6,1.4,3.5-0.2
		c1.6-2.9,3.4-1.9,5.4-0.5c1,0.7,1.7,2.7,3.3,1.5c1.9-1.5,3.4-3.4,4.3-5.6c0-1.6-2.7-4.1-4.9-4.9c-1.3-0.5-2.2-0.1-2.7,1.1
		c-1.2,3-2.4,2.4-4.5,0.6c-3.5-2.9-4.2-2.7-6.4,1.1c-0.4,0.7-0.8,1.5-1.3,2.2C306.6,27.2,306.4,28.2,308.3,29z M723.8,30.5
		c1.4,0.6,2.6,3.5,4.4,0.6c1.8-3,3.6-1.9,5.7-0.5c1,0.6,1.6,2.8,3.3,1.4c1.9-1.6,3.3-3.6,4.4-5.9c-1.1-2.4-3-3.6-5.2-4.6
		c-1.9-0.8-2.4,0.7-3,1.9c-0.9,2-1.8,1.6-3.3,0.4c-4.4-3.7-4.5-3.4-7.7,1.3C720.5,27.8,720.8,29.3,723.8,30.5L723.8,30.5z M344,75
		c-1.7-3.9-5.8-4.1-8.2-0.7c-0.2,0.3-0.5,0.5-0.8,0.7c-6.9-5.2-6.9-5.2-10.4,1.6c-0.1,0.1-0.1,0.2-0.2,0.3c-0.9,1.2-0.5,1.9,0.8,2.6
		c1.1,0.5,2.1,1.3,3,2.1c1.1,1.1,2.1,0.9,2.8-0.2c2.1-3.7,4.3-2.2,6.5-0.3c1.1,0.9,2.2,2,3.3,0.3C342.2,79.4,345.4,78,344,75z
		 M439.4,121.7c-0.8,2.1-2,4.1-1.6,6.4c0.4,2.5,1.9,5-1,7c-2.1,1.6-4.6,2.5-7.2,2.8c-4.2,0.3-6.9-2.1-7-6.3c0-1,0-2,0-3.7
		c-1.7,2.4-2.6,5.3-2.5,8.2c0.1,5.9,4.4,8.9,10.1,7.4C439.3,141,443.9,130.1,439.4,121.7L439.4,121.7z M636.6,175.1
		c-6.1,1.6-6.7,6.3-6,11c0.5,3.2-0.7,4-3.3,4.4c-1.6,0.2-3.5,0.2-4.3,1.7c-1.3,2.4-3.5,2.9-5.7,3.7c-1.6,0.6-3.3,1-4.7,2.9
		c3.6,0.5,7,1.6,9.3-2.4c0.6-1,1.8-1.2,2.9-1.5c6.6-1.5,8.7-4.4,7.4-11.1c-0.4-2.4,0.3-3.4,2.4-4.1c3.4-1.2,6.7-2.7,10-3.9
		c2.1-0.8,3.3-2.1,3.1-4.9C643.9,172.3,640.4,174.1,636.6,175.1L636.6,175.1z M466.5,132.7c0.7,3.7-2.4,3.1-4.3,3.6
		c-2.5,0.7-1.9-1.6-2.1-2.9c-0.7-6.2-1.8-12.5-2.2-18.9c-1.5,2.1-2.2,4.7-2,7.3c0.3,6.2,1.3,12.3,2.1,18.4c0.2,1.9,1,2.4,3,2
		c7.1-1.5,10.3-8,7-15.4C467.2,129,466.1,130.6,466.5,132.7L466.5,132.7z M450.3,126.1c-2.7-0.3-2.1,3.1-2.9,4.8
		c-0.8,1.6-0.6,2.9,1.4,3.4c0.8,0.2,2.2-0.9,2.5,0.7c0.3,1.5-1.3,1.7-2.1,2.2c-2.9,1.5-5.8,2.8-8.7,4.2c-2.3,0.9-4.4,2.1-6.3,3.6
		c2.9,0.3,5.9,0.1,8.8-0.4c6.8-1.2,10.7-5.7,10.7-12.6C453.5,129.4,453.1,126.4,450.3,126.1L450.3,126.1z M353.6,23.9
		c1.4-0.6,2-2.1,1.5-3.5c-0.7-1.8-2.1-0.5-3.1-0.1c-6.8,2.8-13.3,6.1-19.7,9.8c-1.9,1.1-2.6,2.5-2.5,5.3
		C337.9,31,345.5,27,353.6,23.9z M775.5,75.4c-0.8-0.1-5.6,5.8-5.1,6.7c1.2,2.2,3.7,2.9,5.6,4.4c0.6,0.5,5-4.6,5.2-5.9
		C781.4,79,777.6,75.5,775.5,75.4z M501.3,192.7c0.8,2.4-0.3,3.7-2.2,4.8c-5.2,3-8.9,0.9-9.1-5.8c-1.2,1.7-1.7,3.7-1.6,5.8
		c0.1,3.5,2.5,5.7,5.7,5.4c7-0.6,11.4-8.8,8.1-15.2C501,189.2,500.6,191.1,501.3,192.7z M552.5,190.6c0.1,2-1.5,1.9-2.8,2.2
		c-1.8,0.4-1.7-1-1.8-2.1c-0.5-4.3-1-8.6-1.5-13.2c-0.4,0.5-0.8,1.1-1,1.7c-0.9,5.7,0.4,11.3,1.3,16.9c0.3,1.5,1.5,1,2.4,0.8
		c4.3-0.8,5.9-3.8,4.9-10.2C552.4,187.9,552.5,189.3,552.5,190.6L552.5,190.6z M503.6,135.4c-1.9,0.9-3.9,1.7-5.8,2.5
		c-0.6,0.2-1,0.8-1,1.4c0.1,0.8,0.8,0.8,1.4,0.9c7.9,1.7,13.2-2.4,13.4-11.2C509.8,132.9,506.6,134,503.6,135.4L503.6,135.4z
		 M568.4,187.9c-1.3,2.3-2,4.8-2,7.4c0,1.6,0.4,3,2.1,3.6c1.5,0.6,3.3,0.3,4.5-0.8c1.6-1.4,2.5-3.5,2.3-5.6c0-1.7-0.6-3.4-1.5-4.9
		C571.9,184.6,570.1,184.7,568.4,187.9L568.4,187.9z M570.9,196c-2,0-3.4-0.8-3.3-2.8c0.1-1.9,0.8-4,2.9-4.1
		c2.4-0.1,3.1,2.3,3.4,4.1C574.3,195.4,572.3,195.6,570.9,196L570.9,196z M565.3,18.6c-4.2,3.7-9,6.6-13.3,10.1
		c5.4-2.1,10.3-5.3,14.4-9.4c0.7-0.7,1.3-2.1,2.2-1.7c2.4,1.1,2.2-0.6,1.8-1.7c-0.3-0.9-0.3-1.9,0.1-2.8c0.3-1.2,0.4-2.6-0.9-3.3
		c-1.4-0.8-2.3,0.4-3.2,1.3c-1,1-1.9,2.4-0.5,3.5C568.2,16.5,566.6,17.4,565.3,18.6L565.3,18.6z M567.6,11.8c0.8-0.3,1,0.4,1.3,1
		c-0.1,0.3-0.3,0.5-0.5,0.7c-0.6,0.1-1.2-0.4-1.3-1C567.1,12.3,567.3,12,567.6,11.8L567.6,11.8z M776.4,41.8c4-2,7.8-4,11.7-5.8
		c2.3-1,2.7-2.6,2-4.7C778.6,35.7,776.3,37.4,776.4,41.8L776.4,41.8z M745.8,74.8c9.6-4.6,13.2-7.6,13.6-12c-4.4,2.8-8.5,5.3-12.6,8
		C745.4,71.7,745.5,73.2,745.8,74.8L745.8,74.8z M332.5,16.8c3.6,1.1,4.1,4.3,5.4,7.9c1.5-3.1,1.4-5.8,2-8.3
		c0.2-0.8,0.1-2.2,1.5-1.9c0.8,0.2,1.6,1.6,2-0.3c0.2-1.1-0.4-2.3-1.5-2.7c-1.3-0.6-1.9,0.5-2.2,1.4c-0.6,1.7-1.1,3.5-1.6,5.4
		c-1.4-1.4-1.8-3.2-3.4-4.1c-0.8-0.5-1.8-1.2-2.6-0.1C331.4,15,331.2,16.4,332.5,16.8L332.5,16.8z M345.3,36.1
		c-1.4-2-1.4-0.9-1.9,0.2c-0.5,1-0.7,2.3-2.2,2c-1.6-0.2-0.2-2.1-1.6-2.9c-1.1,2.2-2.4,4.4-0.7,6.4c1.7,2,3.3,0.3,4.8-0.8
		c0.2-0.1,0.5-0.1,0.7-0.1c3.5-0.7,4.5-2.7,3-6.4C346.2,34.5,346.5,37.7,345.3,36.1L345.3,36.1z M539.5,16.7
		c3.7,1.1,4.2,4.4,5.6,7.7c1.3-2.7,1.4-5.2,1.8-7.6c0.2-1,0.1-2.7,1.6-2.4c1,0.2,1.9,1.5,2.2-0.6c0.1-1-0.5-2-1.5-2.4
		c-1.4-0.6-2,0.6-2.4,1.6c-0.5,1.5-0.9,3.1-1.4,5.1c-1.5-1.4-2.1-3.4-3.8-4.3c-1-0.5-1.8-0.8-2.5,0.3
		C538.5,15.2,538.4,16.4,539.5,16.7z M444.8,122.9c2.4-2.4,6.8-2.2,8.2-6.7c-1.3,0.6-2.7,1.2-4.1,1.7c-0.8,0.2-2.1-0.1-2.2-0.9
		c-0.2-1.2,0.9-1.1,1.8-0.9c1.8,0.4,1.3-1.1,1.2-1.8c0-0.7-0.5-1.2-1.2-1.2c-0.3,0-0.5,0.1-0.7,0.2c-1.9,1.1-3.8,2.7-3.3,4.9
		C444.8,119.7,444.4,121.1,444.8,122.9z M467.8,115.1c-0.3-1-1.4-0.9-2.2-0.3c-0.6,0.5-1.4,1.3-0.7,2.2c1.5,2,1.3,3.2-0.6,4.5
		c-0.8,0.5-2,0.2-2.6,1.7c2.9,0.5,5.4,0.5,7.6-1.3c1-0.8,1.9-2.2,1-3.2C469.3,117.6,468.2,116.8,467.8,115.1z M601.5,147
		c-0.2-1.4-2.1-0.6-3.2-0.5c-3.4,0.3-4.2,2.8-4.6,5.7c2,0.5,3.8-0.4,5.5-0.7C601.3,151.1,601.7,148.7,601.5,147L601.5,147z
		 M427.6,120.6c-1.9,0.4-2.8,2.8-3.3,4.5c-0.2,0.6,2.4,2.7,3.6,2.6c1.6-0.2,1.9-2.5,2.9-4.2C430.1,122.2,429,120.3,427.6,120.6z
		 M620.4,187.3c2.4-5.1,0.5-10.3,0.4-15.5C618.2,177,620.1,182.2,620.4,187.3L620.4,187.3z M560.1,114.6c-0.7,2,1.8,1.9,2.6,3.3
		c1.4-1,2.4-2.6,2.7-4.3c0.3-1.3-0.6-2.6-1.9-2.9c-0.2,0-0.5-0.1-0.7,0C560.8,110.7,560.6,113.1,560.1,114.6L560.1,114.6z
		 M533,141.9c-2,0.2-2.2,2.5-2.7,4c-0.6,2,1.8,1.9,2.6,3.2c1.4-1,2.4-2.6,2.7-4.3c0.2-1.3-0.6-2.6-2-2.9
		C533.4,141.9,533.2,141.9,533,141.9L533,141.9z M528.5,117.5c2-0.5,2.5-2.6,2.7-4.4c0.2-1.6-1.5-2.1-2.8-2.7
		c-1.4,1.1-2.4,2.8-2.5,4.6C525.6,116.5,527.8,117.6,528.5,117.5L528.5,117.5z M516.9,181.6c-2.6,0.2-4.5,1.1-4.4,4.4
		c2.4-0.2,4.9,0.2,5.6-3.2C518.2,181.8,517.7,181.5,516.9,181.6z M609.9,173.1c2.4-0.6,5.2,0.1,5.6-3.3c0.1-1-0.3-1.3-1.2-1.3
		C611.5,168.6,610,169.9,609.9,173.1L609.9,173.1z M492.2,187.9c-2.1,2.6,1.2,2.4,1.8,4c1-1.9,3.1-3.1,0.7-5
		C493.2,185.7,492.8,187.1,492.2,187.9L492.2,187.9z M599.1,177.2c2.1,1.7,2-0.6,2.6-1.5c0.5-0.6,0.5-1.5,0-2
		c-0.1-0.1-0.2-0.2-0.3-0.2c-1.3-0.7-2,0.4-2.8,1.1c-0.8,0.9-1.6,1.9-2.3,2.9C597.4,178,598.1,176.4,599.1,177.2L599.1,177.2z"/>
	<path id="جامعہ_علوم_اسلامیہ_-_پوسٹ_بکس_نمبر_3465_جمشید_روڈ_کراچی_-_www.b" d="
		M113.8,263.1c0.5,0.1,1,0.3,1.5,0.6c0.4,0.5,0.8,1,1,1.6l4.9,12.8h0.6l4.4-9.7l3.8,9.7h0.7l5.1-13.1c0.3-1,1.1-1.8,2.1-2v-0.6h-4.8
		v0.6c0.4,0,0.9,0.1,1.3,0.3c0.2,0.1,0.3,0.3,0.3,0.6c0,0.5-0.1,1-0.3,1.4l-3.2,8.4l-3.5-8.7c-0.1-0.2-0.1-0.5-0.1-0.7
		c0-0.3,0.1-0.6,0.3-0.8c0.5-0.3,1.1-0.5,1.7-0.4v-0.6h-7.2v0.6c0.5,0,0.9,0.1,1.4,0.3c0.5,0.3,0.9,0.8,1.1,1.4l0.9,2.3l-3.3,7.1
		l-3.3-8.8c-0.2-0.4-0.3-0.8-0.3-1.3c0-0.3,0.1-0.5,0.3-0.7c0.4-0.2,0.8-0.3,1.2-0.3v-0.6h-6.4V263.1z M138.6,263.1
		c0.5,0.1,1,0.3,1.5,0.6c0.4,0.5,0.8,1,1,1.6l4.9,12.8h0.6l4.4-9.7l3.8,9.7h0.7l5.1-13.1c0.3-1,1.1-1.8,2.1-2v-0.6h-4.8v0.6
		c0.4,0,0.9,0.1,1.3,0.3c0.2,0.1,0.3,0.3,0.3,0.6c0,0.5-0.1,1-0.3,1.4l-3.2,8.4l-3.5-8.7c-0.1-0.2-0.1-0.5-0.1-0.7
		c0-0.3,0.1-0.6,0.3-0.8c0.5-0.3,1.1-0.5,1.7-0.4v-0.6h-7.2v0.6c0.5,0,0.9,0.1,1.4,0.3c0.5,0.3,0.9,0.8,1.1,1.4l0.9,2.3l-3.3,7.1
		l-3.3-8.8c-0.2-0.4-0.3-0.8-0.3-1.3c0-0.3,0.1-0.5,0.3-0.7c0.4-0.2,0.8-0.3,1.2-0.3v-0.6h-6.4L138.6,263.1L138.6,263.1z
		 M163.3,263.1c0.5,0.1,1,0.3,1.5,0.6c0.4,0.5,0.8,1,1,1.6l4.9,12.8h0.6l4.4-9.7l3.8,9.7h0.7l5.1-13.1c0.3-1,1.1-1.8,2.1-2v-0.6
		h-4.8v0.6c0.4,0,0.9,0.1,1.3,0.3c0.2,0.1,0.3,0.3,0.3,0.6c0,0.5-0.1,1-0.3,1.4l-3.2,8.4l-3.5-8.7c-0.1-0.2-0.1-0.5-0.1-0.7
		c0-0.3,0.1-0.6,0.3-0.8c0.5-0.3,1.1-0.5,1.7-0.4v-0.6h-7.2v0.6c0.5,0,0.9,0.1,1.4,0.3c0.5,0.3,0.9,0.8,1.1,1.4l0.9,2.3l-3.3,7.1
		l-3.3-8.8c-0.2-0.4-0.3-0.8-0.3-1.3c0-0.3,0.1-0.5,0.3-0.7c0.4-0.2,0.8-0.3,1.2-0.3v-0.6h-6.4L163.3,263.1L163.3,263.1z M191.3,275
		c-0.7,0.7-0.8,1.9,0,2.6s1.9,0.8,2.6,0s0.8-1.9,0-2.6c-0.4-0.4-0.8-0.6-1.3-0.6C192.1,274.5,191.6,274.7,191.3,275z M202.6,254
		h-0.8l-4.6,1.9l0.2,0.6c0.4-0.2,0.8-0.3,1.2-0.3c0.2,0,0.5,0.1,0.7,0.2c0.2,0.2,0.4,0.5,0.4,0.8c0.1,1.1,0.2,2.1,0.1,3.2v15.8
		c0.9,0.6,1.8,1.1,2.8,1.4c0.9,0.3,1.8,0.5,2.7,0.5c1.9,0,3.8-0.8,5.2-2.1c1.8-1.7,2.8-4.1,2.7-6.5c0.1-2-0.5-3.9-1.7-5.5
		c-1-1.2-2.5-2-4.1-2c-1.7,0-3.3,1-4.8,3.1L202.6,254L202.6,254z M204.3,264.8c1.6-0.9,3.7-0.4,4.7,1.1c1,1.3,1.4,2.9,1.3,4.5
		c0.1,1.7-0.3,3.4-1.3,4.8c-0.6,1-1.7,1.6-2.8,1.7c-0.6,0-1.3-0.1-1.8-0.4c-0.7-0.3-1.3-0.7-1.8-1.3v-9.1
		C203.1,265.6,203.6,265.2,204.3,264.8L204.3,264.8L204.3,264.8z M225.1,277.4c0.3,0.4,0.8,0.6,1.3,0.6c1.1,0,2.3-0.8,3.6-2.5v-0.9
		c-0.4,0.4-0.9,0.8-1.3,1.2c-0.1,0.1-0.3,0.1-0.5,0.1c-0.2,0-0.3-0.1-0.4-0.2c-0.2-0.2-0.2-0.4-0.3-0.7c-0.1-0.9-0.1-1.8-0.1-2.7
		v-5.2c0.1-1,0-2-0.3-2.9c-0.3-0.7-0.8-1.3-1.5-1.6c-1-0.5-2.2-0.7-3.3-0.7c-1.5-0.1-2.9,0.3-4.1,1.2c-0.9,0.6-1.4,1.6-1.5,2.6
		c0,0.4,0.1,0.8,0.4,1.2c0.3,0.3,0.6,0.4,1,0.4c0.4,0,0.8-0.1,1-0.4c0.3-0.3,0.4-0.7,0.4-1.2l0-1c0-0.5,0.2-1,0.6-1.3
		c0.5-0.4,1.1-0.6,1.7-0.6c0.8-0.1,1.6,0.3,2.1,0.9c0.6,0.9,0.8,2,0.7,3.1v0.6c-1.9,0.7-3.8,1.5-5.6,2.4c-1,0.5-1.8,1.2-2.4,2.1
		c-0.3,0.6-0.5,1.3-0.5,1.9c0,1,0.3,2.1,1,2.9c0.7,0.7,1.6,1.1,2.6,1.1c0.7,0,1.3-0.1,1.9-0.4c1-0.6,2-1.3,2.9-2.1
		C224.6,276.2,224.7,276.8,225.1,277.4z M221.3,276.1c-0.6,0-1.2-0.3-1.6-0.8c-0.5-0.5-0.7-1.3-0.7-2c0-0.6,0.2-1.2,0.6-1.8
		c0.5-0.6,1.1-1.2,1.9-1.5c1.1-0.5,2.1-1,3.2-1.4v5.8C223.7,275.3,222.5,275.9,221.3,276.1L221.3,276.1L221.3,276.1z M235.6,261.9
		h-0.7l-4.6,1.9l0.2,0.6c0.4-0.1,0.7-0.2,1.1-0.2c0.2,0,0.5,0.1,0.7,0.2c0.2,0.2,0.4,0.5,0.4,0.8c0.1,1.1,0.2,2.2,0.1,3.3v5.7
		c0.1,0.8-0.1,1.6-0.4,2.3c-0.4,0.4-1,0.7-1.6,0.6h-0.3v0.6h7.5V277c-0.6,0-1.1,0-1.7-0.2c-0.3-0.2-0.5-0.4-0.7-0.7
		c-0.2-0.6-0.2-1.3-0.2-1.9v-8c1-1.2,2.4-2,4-2.2c0.7-0.1,1.4,0.3,1.8,0.9c0.4,0.9,0.6,2,0.5,3v6.2c0,0.5,0,1-0.1,1.6
		c-0.1,0.4-0.3,0.7-0.6,1c-0.5,0.3-1,0.4-1.5,0.3h-0.3v0.6h7.5V277c-0.5,0-1,0-1.5-0.2c-0.3-0.1-0.5-0.4-0.6-0.6
		c-0.2-0.6-0.3-1.3-0.2-2v-6.5c0-1-0.1-2.1-0.4-3.1c-0.3-0.8-0.7-1.5-1.4-2.1c-0.6-0.4-1.4-0.6-2.2-0.6c-1.6,0-3.3,1.1-5.1,3.2
		L235.6,261.9L235.6,261.9z M256.4,262.5v0.6c0.7-0.1,1.4,0.1,2,0.5c0.4,0.5,0.6,1.1,0.5,1.8v8.6c-0.6,0.7-1.4,1.2-2.2,1.7
		c-0.5,0.3-1,0.4-1.6,0.4c-0.7,0-1.3-0.2-1.8-0.7c-0.5-0.4-0.7-1.4-0.7-2.8v-10.2h-5.3v0.6c0.6,0,1.1,0,1.7,0.2
		c0.3,0.1,0.5,0.4,0.7,0.6c0.2,0.5,0.3,1,0.2,1.5v6.8c0,1.1,0.1,2.2,0.4,3.3c0.2,0.8,0.7,1.4,1.3,1.9c0.6,0.5,1.4,0.8,2.2,0.7
		c0.8,0,1.5-0.2,2.2-0.5c1.1-0.7,2.1-1.6,3-2.7v3.2h0.8l4.5-1.9l-0.2-0.6c-0.4,0.2-0.8,0.3-1.2,0.3c-0.2,0-0.5-0.1-0.6-0.2
		c-0.2-0.2-0.4-0.5-0.4-0.8c-0.1-1.1-0.2-2.2-0.1-3.2v-9.2L256.4,262.5L256.4,262.5z M269.1,261.9l-4.6,1.9l0.2,0.6
		c0.4-0.1,0.8-0.2,1.2-0.2c0.3,0,0.5,0.1,0.7,0.2c0.2,0.2,0.4,0.5,0.4,0.7c0.1,1.1,0.1,2.1,0.1,3.2v5.9c0,0.5,0,1.1-0.1,1.6
		c-0.1,0.3-0.3,0.6-0.6,0.8c-0.5,0.3-1.1,0.4-1.7,0.4v0.6h7.8V277c-0.5,0-1.1-0.1-1.6-0.3c-0.3-0.2-0.6-0.4-0.8-0.7
		c-0.2-0.6-0.4-1.3-0.3-1.9v-7.3c0.4-0.8,0.9-1.6,1.6-2.3c0.2-0.2,0.4-0.3,0.6-0.3c0.4,0.1,0.8,0.3,1.1,0.6c0.4,0.3,0.8,0.5,1.3,0.6
		c0.4,0,0.8-0.2,1-0.4c0.3-0.3,0.4-0.7,0.4-1.1c0-0.5-0.2-1-0.6-1.3c-0.4-0.4-1-0.6-1.5-0.6c-1.3,0-2.7,1.1-3.9,3.4v-3.4
		L269.1,261.9L269.1,261.9z M279.5,254.4c-0.7,0.7-0.6,1.7,0,2.4c0.3,0.3,0.7,0.5,1.2,0.5c0.4,0,0.9-0.2,1.2-0.5
		c0.7-0.7,0.7-1.7,0-2.4c-0.3-0.3-0.7-0.5-1.2-0.5C280.3,253.9,279.9,254.1,279.5,254.4L279.5,254.4z M281.4,261.9l-4.6,1.9l0.2,0.6
		c0.4-0.1,0.7-0.2,1.1-0.2c0.2,0,0.5,0.1,0.7,0.2c0.2,0.2,0.3,0.5,0.4,0.8c0.1,1.1,0.2,2.1,0.1,3.2v5.9c0,0.6,0,1.3-0.2,1.9
		c-0.1,0.3-0.3,0.5-0.6,0.7c-0.5,0.2-1,0.3-1.5,0.2v0.6h7.4V277c-0.5,0-1,0-1.5-0.2c-0.3-0.2-0.5-0.4-0.6-0.7
		c-0.2-0.6-0.2-1.3-0.2-1.9v-12.2L281.4,261.9L281.4,261.9z M288.9,275c-0.7,0.7-0.8,1.9,0,2.6s1.9,0.8,2.6,0s0.8-1.9,0-2.6
		c-0.4-0.4-0.8-0.6-1.3-0.6C289.7,274.5,289.3,274.7,288.9,275L288.9,275z M309.5,268.2c0.1-1.7-0.5-3.3-1.7-4.5
		c-1.1-1.1-2.6-1.7-4.2-1.7c-1.9,0-3.8,0.8-5,2.2c-1.4,1.7-2.1,3.9-2,6.1c-0.1,2.1,0.6,4.2,2,5.8c1.2,1.4,2.9,2.2,4.7,2.1
		c1.6,0,3.2-0.7,4.2-1.9c1.1-1.2,1.8-2.6,2-4.2l-0.5-0.3c-0.3,1.1-1,2.1-1.8,2.8c-0.8,0.6-1.7,0.8-2.6,0.8c-1.5,0-3-0.7-3.9-1.9
		c-1.2-1.5-1.8-3.4-1.6-5.3L309.5,268.2L309.5,268.2z M300.2,264.2c0.6-0.7,1.5-1.1,2.5-1.1c0.6,0,1.2,0.2,1.7,0.5
		c0.5,0.4,1,0.9,1.2,1.5c0.2,0.7,0.3,1.4,0.3,2h-7C299,266.1,299.4,265.1,300.2,264.2L300.2,264.2z M322.7,278.2h0.8l4.5-1.9
		l-0.2-0.6c-0.4,0.2-0.8,0.3-1.2,0.3c-0.2,0-0.5-0.1-0.6-0.2c-0.2-0.2-0.4-0.5-0.4-0.8c-0.1-1.1-0.2-2.2-0.1-3.3V254h-0.8l-4.5,1.9
		l0.2,0.6c0.4-0.2,0.8-0.3,1.2-0.3c0.2,0,0.5,0.1,0.7,0.2c0.2,0.2,0.4,0.5,0.4,0.8c0.1,1.1,0.2,2.1,0.1,3.2v2.8
		c-0.9-0.9-2.1-1.3-3.3-1.3c-2.1,0-4.1,1-5.3,2.7c-1.3,1.7-2.1,3.8-2.1,6c-0.1,2,0.6,3.9,1.9,5.4c1.1,1.3,2.7,2.1,4.4,2.1
		c0.8,0,1.6-0.2,2.3-0.5c0.8-0.4,1.6-1,2.2-1.7L322.7,278.2L322.7,278.2z M319.8,276.3c-1.3-0.1-2.5-0.7-3.3-1.8
		c-1.1-1.5-1.6-3.3-1.5-5.1c-0.1-1.8,0.4-3.6,1.5-5.1c0.6-0.8,1.6-1.3,2.6-1.3c0.6,0,1.1,0.2,1.6,0.5c0.6,0.3,1,0.8,1.3,1.4
		c0.3,0.6,0.5,1.3,0.6,2.1v7.9C322,275.7,320.9,276.3,319.8,276.3L319.8,276.3L319.8,276.3z M337.2,262.5v0.6c0.7-0.1,1.4,0.1,2,0.5
		c0.4,0.5,0.6,1.1,0.5,1.8v8.6c-0.6,0.7-1.4,1.2-2.2,1.7c-0.5,0.3-1.1,0.4-1.6,0.4c-0.7,0-1.3-0.2-1.8-0.7c-0.5-0.4-0.7-1.4-0.7-2.8
		v-10.2H328v0.6c0.6-0.1,1.1,0,1.7,0.2c0.3,0.1,0.5,0.4,0.7,0.6c0.2,0.5,0.3,1,0.2,1.5v6.8c0,1.1,0.1,2.2,0.4,3.3
		c0.2,0.8,0.7,1.4,1.3,1.9c0.6,0.5,1.4,0.8,2.2,0.7c0.8,0,1.5-0.2,2.2-0.5c1.1-0.7,2.1-1.6,3-2.7v3.2h0.8l4.6-1.9l-0.2-0.6
		c-0.4,0.2-0.8,0.3-1.2,0.3c-0.2,0-0.5-0.1-0.6-0.2c-0.2-0.2-0.4-0.5-0.4-0.8c-0.1-1.1-0.2-2.2-0.1-3.2v-9.2L337.2,262.5
		L337.2,262.5z M348.5,275c-0.7,0.7-0.7,1.9,0,2.6c0.3,0.4,0.8,0.5,1.3,0.5c0.5,0,1-0.2,1.3-0.5c0.7-0.7,0.7-1.9,0-2.6
		C350.4,274.3,349.2,274.3,348.5,275L348.5,275z M354.7,266c0.3-0.1,0.7-0.2,1-0.2c0.3,0,0.6,0.1,0.8,0.2c0.2,0.2,0.3,0.4,0.4,0.6
		c0.1,0.6,0.2,1.2,0.1,1.9v14.4c0,0.7,0,1.4-0.2,2.1c-0.1,0.2-0.3,0.4-0.5,0.6c-0.5,0.3-1,0.4-1.6,0.4h-0.4v0.6h8v-0.6
		c-0.6,0-1.2,0-1.7-0.3c-0.3-0.1-0.5-0.4-0.7-0.7c-0.2-0.6-0.2-1.3-0.2-2v-4.6c0.4,0.4,0.9,0.8,1.5,1c0.7,0.2,1.4,0.4,2.1,0.3
		c1.8,0,3.5-0.7,4.7-2.1c1.5-1.8,2.3-4.2,2.3-6.5c0.1-2.1-0.6-4.1-1.9-5.7c-0.9-1.1-2.3-1.8-3.8-1.8c-0.9,0-1.8,0.3-2.5,0.8
		c-1,0.8-1.8,1.7-2.4,2.8v-3.6h-0.6l-4.7,1.9L354.7,266z M361.8,266.3c0.5-0.3,1-0.4,1.6-0.4c1,0,1.9,0.5,2.5,1.3
		c1.1,1.6,1.7,3.5,1.5,5.4c0.1,1.7-0.4,3.4-1.3,4.8c-0.6,0.8-1.6,1.3-2.7,1.3c-0.8,0-1.6-0.2-2.3-0.7c-0.6-0.4-1-1-1.1-1.7
		c-0.1-0.8-0.2-1.6-0.1-2.4v-5.7C360.4,267.4,361.1,266.8,361.8,266.3L361.8,266.3L361.8,266.3z M376.7,253.9l-4.5,1.9l0.3,0.6
		c0.3-0.1,0.7-0.2,1.1-0.3c0.2,0,0.5,0.1,0.7,0.2c0.2,0.2,0.3,0.5,0.4,0.8c0.1,1.1,0.2,2.1,0.1,3.2v13.9c0,0.6,0,1.3-0.3,1.9
		c-0.1,0.2-0.3,0.4-0.5,0.6c-0.6,0.2-1.1,0.3-1.7,0.3v0.6h7.8V277c-0.6,0-1.1,0-1.7-0.2c-0.3-0.1-0.5-0.4-0.6-0.7
		c-0.2-0.6-0.3-1.3-0.2-1.9v-5.1l4.7,6c0.3,0.3,0.6,0.8,0.7,1.2c0,0.2-0.1,0.4-0.2,0.5c-0.3,0.1-0.6,0.2-0.8,0.2v0.6h7.4V277
		c-0.5,0-1,0-1.5-0.2c-0.5-0.2-1-0.6-1.4-1c-0.8-0.8-1.5-1.7-2.2-2.6l-3.9-4.9l3.9-3.6c0.6-0.6,1.3-1,2-1.4c0.7-0.3,1.5-0.4,2.3-0.4
		v-0.5h-6.6v0.5c0.3,0,0.6,0.1,0.9,0.3c0.2,0.1,0.3,0.3,0.3,0.6c0,0.1,0,0.3-0.1,0.4c-0.4,0.5-0.9,1-1.4,1.4l-3.9,3.6v-15.2
		L376.7,253.9L376.7,253.9z M396.9,267h13.6l1.1-2.6h-13.5L396.9,267z M441,249.7c-2.5,0.1-4.2,1-5.1,2.8c-0.4,0.5-0.6,1.1-0.7,1.7
		c0.1,0.2,0.3,0.3,0.4,0.2c0.4-0.4,0.7-0.8,1.1-1.3c0.3-0.4,0.8-0.7,1.3-0.8c1.1-0.2,2.2-0.3,3.3-0.3c1.1,0,2.2,0.2,3.2,0.5
		c-0.1,0.3-0.3,0.5-0.6,0.8c-1.6,1.1-3.2,2.3-4.9,3.4c-1.6,1.1-2.9,2.7-3.6,4.6c-0.4,1.2-0.7,2.4-0.7,3.7c0,0.6,0.1,1.3,0.3,1.9
		c0.3,0.7,1,1.3,1.8,1.5c0.8,0.2,1.5,0.5,2.2,1c0.2,0.2,0.3,0.5,0.3,0.8c-0.1,0.5-0.2,1-0.3,1.5c-0.9,1.7-2.2,3.1-3.7,4.2
		c-1.5,1.2-3.4,1.8-5.3,1.8c-1.8,0.1-3.5-0.7-4.5-2.1c-0.8-1.5-1.3-3.2-1.2-5c0-1.7,0.3-3.4,0.7-5c0.1-0.5,0.6-2.1,1.4-4.7
		c0.1-0.3,0.1-0.6-0.1-0.8c-0.2,0-0.3,0-0.4,0.2c-0.6,1.2-1.2,3-2,5.3c-1,2.8-1.6,5.7-1.7,8.6c-0.1,2.1,0.5,4.2,1.6,6
		c1,1.6,2.8,2.6,4.8,2.5c0.6,0,1.2-0.1,1.8-0.2c2.6-0.8,4.9-2.4,6.5-4.6c1.7-2.1,2.9-4.6,3.5-7.2c0.3-1.1,0.4-2.2,0.4-3.3
		c0.1-1.1-0.3-2.2-0.9-3.1c-0.4-0.4-0.9-0.7-1.5-0.8c-0.6-0.1-1.1-0.4-1.5-0.7c-0.1-0.5-0.1-1.1,0.1-1.6c0.7-1.5,2.4-3,4.9-4.4
		c2.1-1.1,3.6-3,4.3-5.2c0-0.2,0.1-0.3,0.1-0.5c0.1-0.2,0.1-0.3,0.1-0.5c0-0.2-0.1-0.4-0.3-0.5l-0.4-0.2
		C444.1,249.6,442.6,249.6,441,249.7L441,249.7L441,249.7z M449.8,278.8c-0.8-0.6-2-1.5-3.5-2.8l-2.5,2.6c-1.2-0.8-2.3-1.6-3.3-2.5
		c-1,1-1.9,2.1-2.7,3.3c0.7,1.4,2,2.3,3.6,2.6l2.1-2.4c1,0.9,2.2,1.7,3.4,2.4C447.4,281.3,448.4,280.2,449.8,278.8L449.8,278.8
		L449.8,278.8z M447.2,284.9c-1.2-0.8-2.4-1.7-3.5-2.7c-0.2,0.2-1.1,1.3-2.8,3.2c0.7,1.3,2,2.3,3.5,2.6L447.2,284.9z M455.8,255.3
		c-0.9,1.8-1.7,3.7-2.3,5.6c-0.1,3,0,5.7,0.2,8.1c0,1.9-0.2,3.8-0.5,5.6c-0.1,0.3,0,0.6,0.2,0.8c0.1,0,0.2,0.1,0.3,0.1
		c0.3-0.1,0.5-0.4,0.6-0.6c1-2.1,1.6-4.4,1.7-6.7c0.1-1,0.1-2.8,0.1-5.3c0-2.2,0.1-3.9,0.2-5.2c0.1-1,0.2-1.7,0.3-2.2
		C456.3,255.2,456,255.1,455.8,255.3C455.8,255.2,455.8,255.3,455.8,255.3L455.8,255.3L455.8,255.3z M483.9,244.4
		c-1.8,0.7-3.4,1.7-4.8,3c-1.5,1.7-2.4,3.9-2.4,6.1v6.5c0,0.9-0.1,1.8-0.4,2.6c-0.6,0.9-1.5,1.5-2.6,1.6c-1.1,0.5-2.1,1.4-2.7,2.6
		c-0.6,1.1-1.2,2.3-1.8,3.4c-0.9,1.5-2.2,2.8-3.7,3.6c-1.5,0.7-3,1.5-4.6,2.2c-0.1,0.1-0.4,0.2-0.9,0.5c-0.3,0.1-0.6,0.4-0.8,0.7
		c0.1,0.1,0.3,0.3,0.5,0.3c2.8-0.3,5-0.5,6.4-0.7c0.4-0.1,0.8-0.4,1.1-0.8c0.3-0.4,0.5-0.7,0.8-1.1c0.7-1.4,1.4-2.8,2.2-4.2
		c0.7-1.4,2-2.5,3.4-2.9c0.9-0.1,1.6-0.6,2.1-1.4c0,0,0.4-0.8,1.3-2.4c0.7-2.2,1.1-4.5,1.1-6.7c0.1-2.3,0.2-4.6,0.3-6.9
		c0.2-0.8,0.8-1.5,1.5-2c0.2-0.1,0.9-0.5,2.3-1.1l6.9-3.2c0.6-0.4,1.1-0.9,1.5-1.5c0.7-0.9,1.1-1.4,1.2-1.6
		c-0.1-0.2-0.3-0.3-0.5-0.3l-1.2,0.8L483.9,244.4z M497.5,253.3c0,0.2,0,0.4,0,0.8v0.8c0,0.4,0,0.9-0.1,1.3c0,0.5-0.2,1-0.4,1.5
		c0,0.1-0.3,0.5-0.8,1.3c-0.2,0.3-0.5,0.6-0.8,0.7c-0.4,0.1-0.6,0.4-0.8,0.7c0.1,0.2,0.3,0.3,0.4,0.2c2.2-0.3,3.6-0.5,4.2-0.6
		c1.4-0.6,2.4-1.7,2.9-3.1c0.2-0.6,0-1.2-0.5-1.6c-0.6-0.4-1.3-0.4-1.9,0c-0.6,0.3-1,0.6-1.2,0.8c0.3-0.8,0.4-1.6,0.4-2.5
		c0-0.9,0-1.7,0-2.6c0-0.3,0-0.6,0.2-0.9h-0.3l-0.8,1.1C497.7,251.8,497.5,252.5,497.5,253.3L497.5,253.3L497.5,253.3z M500.3,257.9
		c-0.4,0.4-0.9,0.7-1.4,0.9c-0.6,0.2-1.2,0.3-1.8,0.5c0.4-0.6,0.8-1.2,1.3-1.7c0.4-0.6,1.1-0.8,1.8-0.7l0.3,0.2
		C500.6,257.4,500.5,257.7,500.3,257.9L500.3,257.9L500.3,257.9z M496.4,267.4l0.6,0.6c0.8,0.4,1.4,0.9,1.9,1.6
		c0.5,0.7,0.7,1.5,0.6,2.3c-0.1,0.7-0.6,1.3-1.3,1.6c-2.8,1.5-5,2.7-6.4,3.5c-0.1,0.1-0.1,0.1-0.1,0.2c0,0.1,0,0.1,0.1,0.2h0.7
		c0.1,0,1.2-0.2,3.4-0.6c1.1-0.1,2.2-0.7,2.9-1.6c0.6-1.2,1.2-2.4,1.8-3.6c0.6-1.2,1-2.5,1-3.8c0.1-1.8-0.8-3.5-2.2-4.4
		c-0.2-0.1-0.5-0.2-0.7-0.4c-0.2-0.2-0.5-0.3-0.7-0.3v0.1l0,0C497.4,264.3,496.9,265.9,496.4,267.4L496.4,267.4L496.4,267.4z
		 M512.3,267.3c0-1.3-0.3-2.5-0.9-3.7c-0.4-0.8-1.3-1.3-2.2-1.1c-0.5,0.2-1,0.7-1.2,1.2c-0.2,0.6-0.4,1.1-0.6,1.6
		c-0.2,0.5-0.4,0.9-0.6,1.4c-0.2,0.5-0.3,1-0.4,1.5c0,0.4,0.1,0.7,0.3,1c0.5,0.7,1.4,1.1,2.3,1c0.3,0,0.5,0,0.8-0.1
		c0.7,0.5,0.8,1.5,0.3,2.2c-1,0.9-2,1.7-3.1,2.4c-1.1,0.6-2.2,1.3-3.3,1.9c-0.3,0.1-0.5,0.3-0.6,0.6c0.1,0.2,0.3,0.3,0.5,0.2
		c1.1-0.3,1.9-0.5,2.4-0.7c0.7-0.2,1.4-0.4,2.1-0.5c0.7-0.1,1.4-0.6,1.7-1.2c1-1.7,1.8-3.5,2.2-5.4
		C512.2,268.9,512.3,268.1,512.3,267.3L512.3,267.3L512.3,267.3z M519,276.5c0.9-0.1,1.7-0.6,2.2-1.4c1.4-2.5,2.4-5.2,3.1-7.9
		c0.4-1.2,0.6-2.4,0.7-3.6c0-0.2-0.1-0.3-0.3-0.3c0,0-0.1,0-0.1,0c-0.2,0-0.5,0.1-0.6,0.3c-0.5,1.5-1.1,3-1.6,4.5
		c-0.5,1.5-1.3,2.8-2.3,4c-0.9,0.8-2,1.6-3,2.2c-1.1,0.7-2.1,1.3-3.2,2c-0.3,0.1-0.5,0.4-0.6,0.7c0.1,0.2,0.3,0.3,0.4,0.3
		c1.1-0.2,2-0.4,2.5-0.5C517.2,276.7,518.1,276.6,519,276.5L519,276.5L519,276.5z M544.2,266.2c-0.5,2-1.6,3.9-3,5.4
		c-1.9,1.7-4,3.2-6.2,4.3c-0.5,0.2-0.9,0.5-1.2,0.9c-0.3,0.4-0.3,0.6,0.1,0.7c3.5-0.7,5.8-1.2,7-1.5c0.8-0.3,1.4-0.9,1.7-1.7
		l1.4-3.2c0,0,0,0,0.1,0.1c0.1,0.1,0.1,0.3,0.1,0.5c0,1,0.4,1.9,0.9,2.7c0.7,0.8,1.7,1.3,2.8,1.2l1.4-1.5v-2.2l-0.7-0.7
		c-0.2-0.3-0.5-0.5-0.8-0.7c-0.3-0.1-0.5-0.2-0.8-0.3c-1.2-0.9-1.5-2.4-1.1-4.5l0.3-1.1c0.3-0.7,0.4-1.4,0.3-2.1
		c-0.2-0.1-0.4-0.2-0.7-0.1C545.1,263.5,544.6,264.9,544.2,266.2L544.2,266.2L544.2,266.2z M541.5,282.9c0.2,0.4,0.4,0.7,0.7,0.9
		c0.5,0.6,1.2,1.1,1.8,1.5c0.3,0.2,0.6,0.3,0.9,0.2c0.4-0.4,0.7-0.8,1.1-1.2c0.3-0.4,0.7-0.8,1.1-1.2c0.1,0,0.2,0.1,0.2,0.2
		c0.3,0.4,0.7,0.9,1.2,1.2c0.5,0.6,1.2,0.9,1.9,1.1c0.1,0,0.2,0,0.3-0.1c0.6-0.6,1.1-1.1,1.6-1.8l0.3-0.3c0.3-0.3,0.5-0.7,0.7-1
		c0-0.1,0-0.2,0-0.2c-0.9-0.7-1.8-1.4-2.7-2.2c-0.1-0.1-0.3-0.3-0.5-0.3c-0.7,0.6-1.3,1.3-1.9,2c-0.1,0.2-0.3,0.4-0.5,0.5
		c-1-0.6-2-1.4-2.8-2.2c-0.2-0.2-0.4-0.3-0.6-0.4c-0.2,0.1-0.4,0.3-0.6,0.5C542.9,281,542.2,281.9,541.5,282.9L541.5,282.9
		L541.5,282.9z M553.2,269.1c-1.1,1.1-2.7,1.7-4.3,1.5c-0.3,0-0.7-0.1-1-0.1v5c0.5,0,1-0.2,1.5-0.4c1.6-0.9,2.8-2.2,3.8-3.8l0.6-0.9
		c0.2-0.5,0.7-0.8,1.2-0.9c0.3,0.1,0.6,0.2,0.9,0.3c0.5,0.2,1,0.3,1.5,0.4c0.4-0.1,0.5-0.1,0.5-0.2c0.1-0.2,0.2-0.3,0.3-0.4l0.3-0.3
		v-0.8l-0.3-0.4c-0.3-0.3-0.8-0.5-1.2-0.6c-0.6-0.4-1.5-0.4-2.1,0.1C554.4,267.9,553.8,268.5,553.2,269.1L553.2,269.1L553.2,269.1z
		 M557.5,253.4l0.1,0.2c0.6,0.7,1.2,1.4,2,1.9c0.5,0.3,1,0.5,1.5,0.6l0.5-0.5c0.5-0.5,1-1,1.4-1.6c0.3-0.3,0.4-0.4,0.4-0.3
		c0.1,0.3,0.3,0.5,0.6,0.8c0.6,0.6,1.4,1.2,2.2,1.6c0.2,0.1,0.5,0.1,0.7,0.1l2.2-2.5c0.2-0.2,0.3-0.4,0.4-0.6c0-0.2-0.1-0.3-0.3-0.4
		c-0.9-0.6-1.7-1.3-2.5-2c-0.2-0.2-0.4-0.3-0.6-0.4l-1.9,2.1c-0.1,0.2-0.3,0.3-0.5,0.5l-2.9-2.4c-0.1-0.2-0.3-0.3-0.5-0.3
		c-0.5,0.5-1.1,1-1.5,1.6L557.5,253.4z M560.9,247.5c0.2,0.4,0.6,0.8,1,1.2c1,1,1.7,1.4,2.1,1.4c0.2-0.1,0.4-0.2,0.5-0.3
		c0.6-0.6,1.2-1.3,1.8-2c0.3-0.2,0.4-0.5,0.4-0.9l-0.5-0.4c-0.7-0.5-1.4-1.1-2-1.7c-0.1-0.2-0.3-0.3-0.5-0.4
		c-0.2,0.1-0.3,0.2-0.4,0.3C562.4,245.6,561.6,246.6,560.9,247.5L560.9,247.5L560.9,247.5z M567.1,262.4c-0.1-0.1-0.2-0.1-0.4-0.2
		c-0.5,0.5-1,1.1-1.5,1.8c-0.2,0.3-0.5,0.6-0.8,0.8c-0.5,0.2-1.1,0.1-1.6-0.2c-0.7-0.4-1.5-0.2-2,0.3c-0.2,0.1-0.6,0.6-1.5,1.4
		l-1.2,1.2v2.2l0.3-0.3c0.5-0.5,0.9-1,1.3-1.5c0.2-0.4,0.6-0.8,0.9-1.1c0.3-0.1,0.6-0.1,0.9,0c0.6,0.3,1.2,0.4,1.8,0.3
		c0.7-0.2,1.4-0.7,1.8-1.3l0.6-0.7c0.7,0.6,1.8,0.7,2.6,0.2c0.6-0.4,1-0.9,1.4-1.4l0.3-0.4c0.5,0.3,1.1,0.4,1.7,0.4
		c0.5,0.1,0.9-0.1,1.2-0.5l0.4-0.4v-0.8l-0.8-0.7l-0.6,0c-0.2,0-0.4,0-0.7-0.1c-0.1-0.1-0.2-0.3-0.1-0.5c0-0.5-0.1-0.6-0.4-0.4
		c-0.2,0.3-0.4,0.6-0.5,0.9c-0.3,0.6-0.6,1.1-1,1.6c-0.3,0.3-0.7,0.5-1.1,0.5c-0.4,0.1-0.8-0.1-0.9-0.5c0-0.1,0-0.2,0-0.3
		L567.1,262.4L567.1,262.4z M579.7,255c-0.1-0.1-0.2-0.3-0.3-0.4c-0.8,1-1.5,2.1-2,3.3l-0.4,0.7c-0.9,0.4-1.7,0.9-2.3,1.5
		c-0.6,0.6-1.4,1.1-2.2,1.5v1.1c0,0.6,0,0.9,0,1c0,0.1,0,0.1,0.1,0.1c0.8-0.7,1.6-1.3,2.6-1.8c0.5-0.2,1-0.2,1.4,0
		c0.5,0.2,1,0.4,1.5,0.7c0.4,0.3,0.9,0.4,1.3,0.4c0.3-0.2,0.6-0.4,0.8-0.8c0.4-0.6,0.8-1.2,1.1-1.9c0.2-0.4,0.3-0.8,0.2-1.2
		c-0.3-0.5-0.7-0.8-1.2-1c-0.6-0.1-1.1-0.6-1-1.3l0.8-0.8v-0.8L579.7,255z M580.6,268l-0.3,0.3c-0.3,0.3-0.6,0.6-0.8,1
		c0.5,0.7,1,1.3,1.7,1.8c0.4,0.4,0.9,0.6,1.5,0.5l0.5-0.5c0.7-0.7,1.3-1.3,1.7-1.8c0.1-0.1,0.2-0.3,0.3-0.4
		c-0.1-0.2-0.3-0.4-0.6-0.6c-0.8-0.6-1.4-1.1-1.9-1.5c-0.3-0.2-0.7-0.2-0.9,0C581.7,266.8,581.4,267.2,580.6,268L580.6,268
		L580.6,268z M579.4,250.5c-0.1,0.2-0.1,0.4,0.1,0.6c0.2,0.1,0.5,0.1,0.7-0.2c0,0,0,0,0,0c0.6-0.5,1.2-0.9,1.9-1.3l0.7,0
		c1.9-0.1,3.9,0.2,5.7,1c0,0.1-0.1,0.2-0.2,0.3c-1.7,1-3.4,1.8-5.1,2.6c-1.2,0.5-2.4,0.8-3.7,1.1v1.2c0,0.8,0,1.2,0,1.2
		c0.5-0.1,0.9-0.3,1.4-0.5l6.3-3.2c1.3-0.7,2.4-1.7,3.2-2.8c0.3-0.4,0.5-0.8,0.6-1.3c0-0.1,0-0.3-0.1-0.4c-0.3-0.2-0.6-0.4-0.9-0.4
		c-1.2-0.4-2.5-0.6-3.8-0.7c-1.3-0.2-2.6-0.1-3.9,0.4C581.1,248.5,580.1,249.4,579.4,250.5L579.4,250.5L579.4,250.5z M604.4,262.7
		c1.4,0,2.8-0.9,4.1-2.8h0.1c0.2,0.3,0.4,0.5,0.7,0.8c0.5,0.4,1.1,0.5,1.7,0.5c0.5,0,1-0.1,1.4-0.3c1.3-0.9,2.4-2,3.2-3.5
		c0.3-0.4,0.6-0.9,0.8-1.4c0.3-0.4,0.4-0.9,0.4-1.4c-0.1-0.2-0.2-0.3-0.4-0.2c-0.8,1.2-1.9,2.2-3.2,2.8c-0.8,0.2-1.6,0-2.3-0.4
		c-0.4-0.3-0.6-0.7-0.5-1.1c0.1-0.4,0-0.7-0.3-1c-0.2,0-0.4,0-0.5,0.1c-0.3,0.6-0.7,1.1-1.1,1.7c-0.7,0.8-1.6,1.3-2.7,1.4
		c-1,0-1.9-0.4-2.7-1.1c-0.8-0.6-1.4-1.4-1.8-2.4c-0.2,0-0.4,0-0.6,0.1c-0.8,1.4-1.5,2.9-2.1,4.4c0.2,2,0.4,3.6,0.6,4.6
		c0.3,3.2,0.4,6.5,0.2,9.7c0,0.3,0,0.6,0.1,0.9l0.3-0.1c0.8-1.4,1.4-2.5,1.8-3.2c0.3-1.4,0.5-2.8,0.6-4.2c0.1-1.5,0.1-2.9,0.2-4.4
		l0.1-0.1l0,0C603.3,262.5,603.8,262.7,604.4,262.7L604.4,262.7L604.4,262.7z M627.8,255.7c-0.6-0.6-1.5-0.9-2.3-0.8
		c-0.6,0-1.1,0.1-1.7,0.4c-1,0.4-1.8,1-2.3,1.9c-0.1,0.1-0.6,1.1-1.4,2.8c-0.7,1.5-1.1,3.2-1,4.9c0,1.1,0.1,2.1,0.2,3.2
		c0.2,1.7,0.3,2.7,0.3,3.1c0,1.2,0.2,2.5,0.4,3.7c0.1,0.1,0.2,0,0.2-0.1c0-0.1,0.1-0.1,0.2-0.2c0.7-2.4,1-3.7,1.1-3.9v-5
		c0-0.4,0-1.3-0.1-2.5c-0.1-0.8-0.1-1.5,0-2.3c0.1-0.8,0.7-1.3,1.4-1.5c0.3-0.1,0.6-0.2,1-0.2c0.8,0,1.6,0.3,2.2,0.8
		c0.7,0.5,1,1.3,1,2.1c0,0.7-0.2,1.5-0.4,2.2l-0.1,0.6c0,0.2,0,0.4,0.1,0.6c0.2,0.1,0.4,0.1,0.6-0.1c1.4-3.3,3.7-6.1,6.6-8.2
		c0.6-1.1,1-2.1,1.5-3.3c-0.2-0.1-0.4-0.2-0.6-0.1c-2.1,1.3-3.9,3.1-5.1,5.3h-0.1C629.3,257.7,628.8,256.5,627.8,255.7L627.8,255.7
		L627.8,255.7z M647.8,269.9c0-3.6,0.4-7.3,1.2-10.8c0.1-0.2,0.2-0.5,0.2-0.8c0-0.5-0.2-1-0.4-1.4c-0.2-0.4-0.5-0.8-0.7-1.3
		c-0.1-0.2-0.2-0.4-0.3-0.6c-0.1-0.2-0.2-0.3-0.4-0.3c-0.2,0.2-0.3,0.5-0.4,0.8c-1.1,2.1-2.3,3.3-3.6,3.5c-1.3,0.1-2.6-0.5-3.4-1.6
		c-0.6-0.8-1.1-1.7-1.6-2.5c-0.3-0.2-0.4-0.1-0.5,0.2c0,1,0.2,2,0.6,2.8c1.5,3.3,3.1,5.2,4.8,5.7c0.5,0.1,1.1,0.1,1.7,0
		c-0.2,3.6,0.4,7.1,1.8,10.4c0.1,0.4,0.5,0.7,0.9,0.8l0.3-0.3l-0.2-1.4l0,0C647.8,272,647.8,271,647.8,269.9L647.8,269.9
		L647.8,269.9z M655.2,263.7c-0.7,2.1-1.1,4.3-1.1,6.6c0,0.4,0,0.9,0,1.3c0.3,1.6,0.9,2.5,1.9,2.9c1.3,0.2,2.6-0.4,3.8-1.9
		c0,0,0.1,0.1,0.1,0.2c0,0.1,0.1,0.1,0.1,0.2c0.4,1.1,1.5,1.8,2.7,1.6c1.9-0.2,3-1,3.5-2.4c0.4-1.1,0.9-2.1,1.3-3.1
		c0.5-1,0.7-2.2,0.8-3.3c0-0.7-0.1-1.3-0.4-1.9c-0.8-1.7-1.8-3.4-3-4.8c-2.3-2.9-3.5-4.4-3.6-4.6l-0.3,0.1l-4.8,7.4l0,0L655.2,263.7
		z M664,263.7c1.2,1.5,2,3.3,2.3,5.2c-0.1,0.3-0.4,0.5-0.6,0.7c-0.1,0.1-0.4,0.2-0.9,0.4c-1.7,0-2.8-0.5-3.3-1.4
		c-0.1-0.3-0.2-0.6-0.2-0.9c0-0.3-0.2-0.6-0.4-0.8c-0.1,0-0.2,0-0.3,0.1c-0.1,0.1-0.1,0.2-0.2,0.3c-0.6,1.5-1.3,2.3-2.3,2.5
		c-0.6,0.1-1.2,0.1-1.7-0.1c-0.7-0.4-1.1-1.2-1-2c0.1-1.4,0.5-2.7,1.2-3.8c1.3-2.1,2.4-3.8,3.2-5L664,263.7z M706.9,244.2
		c0.2,0.1,0.4,0.3,0.6,0.4c0.2,0.1,0.4,0.2,0.7,0.2c1.1-1,1.8-1.8,2.3-2.3c0,0,0.2-0.2,0.4-0.5c0.2-0.2,0.3-0.4,0.2-0.6
		c-1.1-0.8-2.1-1.6-3-2.6l-0.3,0c-1,1-2,2.1-2.9,3.2v0.3C705.4,243,706.1,243.6,706.9,244.2L706.9,244.2L706.9,244.2z M712.4,246.8
		c-1.1,0.5-2,1.3-2.8,2.3c-2.3,2.6-4.1,5.6-5.2,8.9c-1,0.6-1.9,1.4-2.6,2.4c-0.1,0.1-0.2,0.4-0.6,1c-0.2,0.3-0.4,0.6-0.8,0.8
		c-0.5,0.1-1.1,0.2-1.6,0.2c-0.5,0-1.1,0-1.6-0.1c-0.9-0.1-1.4-0.1-1.6-0.2c-1,0.1-2,0.2-2.9,0.6c-1.8,1-3.4,2.6-4.3,4.5
		c-0.9,1.9-1.8,3.7-2.7,5.6c-1.7,3.4-5,6.8-9.9,10.3c-0.1,0-0.1,0.1-0.1,0.2c0,0.1,0,0.2,0.1,0.2c0.3,0.1,0.6,0,0.8-0.1
		c4.7-1.8,8.4-5.5,10.3-10.1c1-2.3,2.5-4.4,4.5-5.9c0.7-0.3,1.4-0.4,2.1-0.4c0.3,0,0.8,0,1.6,0.1c0.7,0.1,1.2,0.1,1.6,0.1
		c1.1,0.1,2.1-0.3,2.9-1c0.6-0.7,1.1-1.5,1.6-2.3c0.5-0.8,1.1-1.5,1.7-2.1c0.4-0.2,0.8-0.3,1.2-0.3c1,0.1,1.9,0.4,2.8,0.8
		c0.3,0.1,0.6,0,0.8-0.2c0.8-1.1,1.3-2.4,1.5-3.8c-0.1-0.3-0.3-0.6-0.6-0.8c-0.4-0.1-0.8-0.2-1.2-0.3c-0.4-0.1-0.8-0.4-0.9-0.8
		c0.7-2,2.3-3.9,5-5.6c0.6-1.6,1-2.7,1.3-3.5C712.8,246.9,712.6,246.8,712.4,246.8L712.4,246.8L712.4,246.8z M692.6,274.4
		c0.7,0.8,1.4,1.5,2.2,2.1c0.7,0.3,1,0.4,1,0.4c0.1,0,0.3-0.1,0.3-0.2l1.9-2c0.1-0.2,0.3-0.4,0.4-0.6c0.2-0.2,0.3-0.4,0.3-0.7
		c-1.4-1.1-2.5-2-3.2-2.6h-0.2l-2.7,3.2L692.6,274.4z M746.4,260.1c0,0,0.1,0,0.1,0c0.1,0,0.1,0,0.1,0c1.2,0,2.4-0.7,2.9-1.8
		c0.6,0.2,1.2,0.2,1.7,0c1.9-0.7,3.4-2.2,4.2-4c0.2,0.7,0.5,1.4,1,2c0.7,0.8,1.7,1.2,2.7,1c0.9-0.2,1.7-0.8,2.1-1.6
		c0.9-1.6,1.5-3.4,1.7-5.3c0.1-0.3,0-0.6-0.1-0.9c-0.2,0-0.3,0-0.5,0.1c-0.2,0.6-0.5,1.2-0.9,1.7c-0.6,0.6-1.5,1-2.4,0.9
		c-0.4,0-0.8-0.1-1.2-0.2c-1-0.5-1.7-1.5-1.9-2.6c-0.1-1.1-0.2-2.2-0.3-3.2c0-0.8,0.1-1.7,0.1-2.5c0-0.8,0.2-1.6,0.7-2.3l0.7-0.6
		c2.3-1,4.1-1.6,5.3-2c1.4-0.5,2.8-1,4.2-1.5c1.4-0.6,2.7-1.5,3.8-2.6c0.2-0.2,0.4-0.5,0.7-0.7c0.2-0.2,0.4-0.5,0.5-0.8
		c0-0.2-0.2-0.3-0.3-0.3c0,0-0.1,0-0.1,0c-0.5,0.3-1,0.6-1.4,0.9c-1.8,0.9-3.7,1.6-5.6,2.2c-1.9,0.6-3.8,1.3-5.6,2.1
		c-1,0.4-1.9,1-2.6,1.8c-0.7,0.8-1.2,1.8-1.4,2.9c-0.2,0.9-0.3,1.9-0.3,2.9c0,0.2,0.1,1.5,0.2,3.9c0.1,1.3,0,2.6-0.1,3.9
		c-0.7,1.4-1.5,2.2-2.4,2.5c-0.4-0.1-0.7-0.2-1.1-0.3c-0.2-0.3-0.3-0.6-0.3-0.9c0-0.2-0.1-0.3-0.3-0.2c-0.4,0.6-0.7,1.2-0.9,1.9
		c-0.6,0.8-1.1,1.1-1.5,1c-0.2,0-0.4-0.1-0.4-0.3c0,0,0,0,0,0c0,0.2,0,0,0-0.6c-0.1-0.2-0.3-0.2-0.4-0.2c-0.5,0.7-0.9,1.3-1.1,1.7
		c-0.5,0.5-1.2,0.8-1.9,0.9c-0.2,0-0.3,0-0.5,0c-0.2,0-0.4-0.1-0.5-0.3c0,0,0,0,0-0.1c0-0.2-0.1-0.4-0.2-0.6
		c-0.2-0.2-0.4-0.1-0.4,0.2c-0.7,1.8-0.9,3.7-0.6,5.6c0.1,2.4-0.4,4.8-1.4,6.9c-1,2.1-2.6,3.9-4.6,5.2c-1.7,1.2-3.7,1.8-5.8,1.7
		c-1.5,0.1-3-0.4-4.2-1.4c-1.3-1.2-2-2.9-1.8-4.6c0-0.9,0.1-1.8,0.3-2.7c0.7-2.5,1.2-4.3,1.6-5.5c-0.2-0.2-0.3-0.3-0.4-0.2
		c-0.2,0.2-0.4,0.4-0.6,0.7c-1.8,4.3-2.8,7.8-2.8,10.6c0,1.3,0.2,2.6,0.6,3.9c0.4,1.1,1,2.1,1.9,2.8c0.8,0.8,1.8,1.3,2.9,1.4
		c0.4,0.1,0.7,0.1,1.1,0.1c3.5,0,6.5-1.7,9.2-5.1c3.6-4.5,5.6-10,5.5-15.8l0.2,0C744.7,261.8,745.8,261.2,746.4,260.1L746.4,260.1
		L746.4,260.1z M758.8,267.3c0.3,0.2,0.7,0.1,0.9-0.2l2.5-2.8c0.1-0.2,0.1-0.3,0-0.4c-1.4-1.1-2.4-1.9-3-2.6l-0.3-0.1
		c-1.5,1.7-2.5,2.8-2.9,3.2l-0.1,0.2C756.6,265.8,757.6,266.7,758.8,267.3L758.8,267.3L758.8,267.3z M790.6,256.9
		c-0.4,0.5-0.7,1-1,1.5c-0.3,0.6-0.4,1.4-0.4,2.1c0,0.7,0,1.5-0.1,2.2c0,0.7-0.2,1.4-0.6,2c-0.1,0.2-0.6,0.8-1.3,1.7
		c-0.5,0-0.8,0.3-1,0.8c0,0.2,0.2,0.3,0.6,0.2c1.3-0.1,2.3-0.2,3-0.3c1.2,0.1,2.4-0.6,3-1.6c0.4-0.5,0.8-1,1-1.5
		c0.2-0.6,0-1.3-0.5-1.7c-0.6-0.4-1.4-0.4-1.9,0.1c-0.2,0.1-0.4,0.2-0.6,0.4c-0.2,0.2-0.4,0.3-0.6,0.4c0.3-1,0.5-1.9,0.5-2.9
		c0.1-1.7,0.2-2.7,0.2-3C790.7,256.9,790.6,256.9,790.6,256.9L790.6,256.9L790.6,256.9z M792,264.4c-0.3,0.5-0.8,0.9-1.4,1.1
		c-0.7,0.2-1.3,0.4-2,0.6l1.3-1.7c0.5-0.5,1.2-0.8,1.9-0.8l0.2,0.1C792.2,263.9,792.2,264.2,792,264.4L792,264.4L792,264.4z
		 M820.6,260.9c-0.1,0-0.2,0-0.3,0c-0.1,0-0.2,0.1-0.2,0.2c-0.6,2-1.4,3-2.4,3.2c-0.3,0-0.6-0.1-0.8-0.4c0-0.2,0-0.5,0-0.7
		c-0.1-0.1-0.3-0.2-0.4-0.2c-0.7,0.8-1.2,1.7-1.7,2.6c-0.2,0.3-0.5,0.5-0.9,0.5c-0.4-0.1-0.8-0.2-1.2-0.3c-0.4-0.2-0.9-0.1-1.3,0.1
		c-0.7,0.7-1.4,1.5-1.9,2.4c-0.5,0.9-1.2,1.7-2.1,2.3c-0.9,0.5-1.8,0.8-2.8,0.8c-0.4,0-0.8-0.1-1.2-0.2c0.8-1.7,1.2-2.8,1.3-3
		c0.1-0.2,0-0.4-0.1-0.6c-0.2,0-0.4,0.1-0.6,0.3c-0.6,1.4-1.7,2.4-3,3c-2.8,1.2-6.7,1.8-11.7,1.9c-5,0.1-8.6-0.3-11.1-1.2
		c-0.7-0.3-1.1-0.9-1.1-1.6v-2.1c0-0.2-0.2-0.4-0.4-0.4c0,0-0.1,0-0.1,0c-0.1,0.1-0.2,0.3-0.3,0.4c-0.4,1.6-0.6,3.1-0.6,4.7
		c0,0.7,0.1,1.3,0.2,2c0.3,1.3,1.3,2.1,3.2,2.5c2,0.4,4,0.5,6,0.5c2.4,0,4.9-0.2,7.3-0.6c4-0.7,6.8-1.7,8.6-2.9
		c0.4-0.3,0.8-0.6,1.2-1c0.6,0.6,1.5,0.9,2.3,0.8c0.4,0,0.9-0.1,1.3-0.3c1.7-0.6,3.5-2.4,5.3-5.2c0.2-0.1,0.4-0.2,0.6-0.2
		c0.3,0,0.6,0.1,0.9,0.2c0.3,0.1,0.6,0.1,1,0.1c0.6-0.1,1.1-0.4,1.5-0.8c0.2-0.2,0.5-0.7,1-1.4c0.2,0,0.3,0.1,0.5,0.2
		c0.1,0.1,0.3,0.1,0.5,0.2c0.6,0.1,1.2-0.1,1.7-0.4c1.5-1.3,2.4-3.2,2.5-5.2C820.7,261.1,820.6,261,820.6,260.9L820.6,260.9
		L820.6,260.9z M828.2,276.6c1.1-0.1,2-0.8,2.5-1.8c0.7-1.6,1.3-3.3,1.8-5c0-0.1,0-0.1,0-0.2c0-0.3,0.2-0.5,0.4-0.6
		c0.2-0.1,0.4-0.2,0.5-0.4c0.5-0.5,1-1.1,1.5-1.7c0.2-0.3,0.5-0.9,1.1-1.9c0.7-1.4,1.2-2.8,1.3-4.4c0.1-1.6,0.3-3.1,0.4-4.7
		c0-0.3,0-0.6,0.1-1c0.1-0.3,0.1-0.6,0.1-0.9l-0.3-0.1c-0.9,1.1-1.6,2.3-2.1,3.6c-0.2,1.6-0.2,3.2-0.1,4.8c0,1.6-0.9,3.1-2.4,3.8
		l-0.2,0.1c-0.1,0.1-0.2,0-0.2,0c0,0,0,0,0,0c-0.1-1-0.4-2-0.8-2.9c-0.4-0.7-1.1-1.2-2-1.2c-0.9,0.1-1.5,1.1-1.9,2.8
		c-0.2,0.5-0.4,1-0.6,1.5c-0.2,0.5-0.3,1-0.4,1.5c0,0.4,0.1,0.8,0.4,1.2c0.8,0.7,1.8,1,2.8,0.8c0.4,0.3,0.6,0.7,0.6,1.2
		c-0.1,0.9-0.7,1.6-1.5,1.9c-0.3,0.2-1.4,0.7-3.3,1.5c-1.1,0.5-2.2,1.1-3.2,1.7c-0.3,0.1-0.4,0.3-0.4,0.6c0.1,0.1,0.2,0.2,0.3,0.3
		l2.2-0.4l0,0C826,276.9,827.1,276.7,828.2,276.6L828.2,276.6L828.2,276.6z M826.6,283.4c0.3,0.3,0.7,0.6,1.1,0.9
		c0.4,0.3,0.8,0.5,1.3,0.6c0.9-0.8,1.7-1.6,2.4-2.4c0.6,0.8,1.3,1.6,2.2,2.1c0.4,0.4,0.9,0.6,1.4,0.5c1-0.9,1.8-1.9,2.6-3l0.1-0.4
		c-1.1-0.8-2.1-1.7-3-2.6l-0.3,0l-2.1,2.4l-0.2,0.1c-1.4-1.1-2.5-1.9-3.2-2.6l-0.3-0.2c-1.3,1.4-2.2,2.5-2.9,3.2v0.2
		C825.9,282.7,826.2,283.1,826.6,283.4L826.6,283.4L826.6,283.4z M829.4,289.5c0.1,0,0.4,0.3,1,0.8c0.3,0.3,0.7,0.5,1.2,0.4
		c1-0.9,1.9-1.8,2.7-2.9c0-0.2-0.1-0.4-0.3-0.5c-0.2-0.1-0.4-0.2-0.6-0.4c-0.9-0.7-1.6-1.3-2.1-1.7c-1.2,1.3-2.1,2.3-2.7,2.9l0,0.3
		C828.7,288.9,829,289.2,829.4,289.5L829.4,289.5L829.4,289.5z M848.2,267.1h13.6l1.1-2.6h-13.5L848.2,267.1z M883.8,282.3
		c0.2,0.4,0.4,0.7,0.7,0.9c0.5,0.6,1.2,1.1,1.8,1.5c0.3,0.2,0.6,0.3,0.9,0.2c0.4-0.4,0.8-0.8,1.1-1.2c0.3-0.4,0.7-0.8,1.1-1.2
		c0.1,0.1,0.2,0.1,0.2,0.2c0.3,0.4,0.7,0.9,1.2,1.2c0.5,0.6,1.2,0.9,1.9,1.1c0.1,0,0.2,0,0.3-0.1c0.5-0.6,1.1-1.1,1.5-1.8l0.3-0.3
		c0.3-0.3,0.5-0.7,0.7-1c0-0.1,0-0.2,0-0.2c-0.9-0.7-1.8-1.4-2.7-2.2c-0.1-0.1-0.3-0.3-0.5-0.3c-0.7,0.6-1.3,1.3-1.9,2
		c-0.1,0.2-0.3,0.4-0.5,0.5c-1-0.6-2-1.4-2.8-2.2c-0.2-0.2-0.4-0.3-0.6-0.4c-0.2,0.1-0.4,0.3-0.5,0.5
		C885.3,280.4,884.5,281.4,883.8,282.3L883.8,282.3L883.8,282.3z M899,265c-0.1,0.2-0.2,0.3-0.4,0.4c-0.5,0.4-1,0.9-1.4,1.4
		l-2.1,2.8c-0.4,0.6-1,1.1-1.7,1.5c-0.8,0.4-1.8,0.2-2.3-0.5c-0.2-0.2-0.4-0.3-0.7-0.3c-0.1,0.1-0.3,0.2-0.4,0.3
		c-0.9,1.2-2.1,2.1-3.5,2.6c-0.9,0.2-1.8,0.1-2.7-0.3c-0.8-0.4-1.6-0.6-2.4-0.7c-1.5,0.1-2.9,0.7-4,1.6c-1.7,1.4-3.1,3.3-4,5.3
		c0,0.2,0.1,0.3,0.3,0.3c0,0,0,0,0.1,0c0.4-0.2,0.8-0.5,1.1-0.9c0.5-0.6,1.1-1.1,1.7-1.6c1.4-0.7,3-0.7,4.3,0
		c1.1,0.5,2.4,0.6,3.5,0.1c1.4-0.6,2.8-1.4,3.9-2.5c0.7-0.7,1.3-1.4,1.9-2.1l0.3,0.3c0.5,0.8,1.6,1.1,2.5,0.8
		c0.9-0.7,1.8-1.5,2.5-2.5c0.6-0.7,1.2-1.4,1.9-2c0.3-0.2,0.7-0.4,1.1-0.4c0.8,0.1,1.5,0.2,2.2,0.5c0.4,0.2,0.9,0.2,1.4,0
		c0.4-0.3,0.8-0.7,1.1-1.2c0.5-0.6,0.9-1.4,1-2.2c0-0.1-0.1-0.2-0.1-0.2l-1.1-1.2c-0.6-0.6-1.2-1.3-1.7-2c-0.3-0.6-0.6-0.7-0.9-0.2
		C899.7,263.1,899.2,264,899,265L899,265L899,265z M920.5,274.3c0.4,0.2,0.8,0.2,1.2,0.2c1.1,0,2.1-0.4,2.8-1.2
		c0.8-0.8,1.5-1.8,1.9-2.8c0.4-1,0.8-2,1.3-3c0.2-0.4,0.5-0.6,0.9-0.6c0.3,0,0.5,0.1,0.8,0.2c0.3,0.1,0.6,0.1,0.8,0.2
		c0.7,0,1.5-0.8,2.6-2.3c0.2,0,0.4,0.1,0.5,0.2c0.2,0.1,0.4,0.2,0.7,0.2c0.5,0,1.1-0.2,1.5-0.5c0.9-0.9,1.6-2,1.9-3.2
		c0.1-0.4,0.2-0.7,0.2-1.1c0.1-0.3,0.1-0.7-0.1-1c-0.1-0.1-0.3,0-0.4,0.2c-0.3,1.1-0.5,1.8-0.6,2c-0.3,0.7-0.8,1.2-1.5,1.4
		c-0.4,0-0.9-0.2-1.1-0.6c0-0.1,0-0.3,0-0.4c-0.1-0.3-0.2-0.3-0.4-0.2c-0.6,0.7-1.1,1.6-1.5,2.4c-0.1,0.4-0.5,0.6-0.9,0.6
		c-0.3,0-0.6-0.1-0.9-0.2c-0.3-0.1-0.6-0.1-0.9-0.2c-0.8,0.1-1.4,0.5-1.8,1.2c-0.4,0.7-0.8,1.3-1.2,1.9c-0.8,0.9-1.8,1.6-3,1.9
		c-0.9,0.2-1.9,0-2.7-0.6l-0.1-0.1c-0.2-0.7-0.4-1.5-0.3-2.2c0,2.2,0,1.4,0.1-2.2l0.1-7.7l0.3-3.1c0-0.1,0-0.1,0-0.2
		c0-0.1-0.1-0.2-0.2-0.2c-0.2,0.2-0.3,0.3-0.4,0.5l-1.3,3.2c-0.4,1.1-0.5,2.3-0.5,3.5c0.1,2.9,0.1,5,0.1,6.5
		c0.1,3.2-0.3,5.4-0.9,6.7c-0.5,1-1.5,1.7-2.6,1.9c-1.1,0.2-2.2,0.2-3.3,0.1c-0.2,0-0.3-0.1-0.3-0.3c1-1.7,1.5-3.7,1.6-5.6
		c0-4.3,0-7.5,0-9.7c0-0.5,0.1-0.9,0.1-1.4c0.1-0.4,0-0.9-0.1-1.3c0-0.1-0.1,0-0.3,0.1c-0.3,0.9-0.7,1.7-1.1,2.6
		c-0.4,0.9-0.7,1.8-0.8,2.7c0,0.8,0,2,0.1,3.7s0.1,2.9,0.1,3.7c0,1.6-0.1,3.2-0.5,4.7c-0.1,0.2-0.2,0.5-0.4,0.7c-0.2,0-0.4,0-0.6,0
		c-0.2,0-0.3-0.1-0.5-0.1c-0.1,0-0.3,0-0.4,0.1c0.2,0.4,0.5,0.8,0.8,1.2c0.7,0.8,2.1,1.1,4.1,1c2.2-0.1,4.1-1.7,5.6-4.9
		C919.4,273.3,919.9,273.9,920.5,274.3L920.5,274.3L920.5,274.3z M943.9,255.3c-0.9,1.8-1.7,3.7-2.3,5.6c-0.1,3,0,5.7,0.2,8.1
		c0,1.9-0.2,3.8-0.5,5.6c-0.1,0.3,0,0.6,0.2,0.8c0.1,0.1,0.2,0.1,0.2,0.1c0.3-0.1,0.5-0.4,0.6-0.6c1-2.1,1.6-4.4,1.7-6.7
		c0.1-1,0.1-2.8,0.1-5.3c0-2.2,0.1-3.9,0.2-5.2c0.1-1,0.2-1.7,0.3-2.2C944.5,255.2,944.2,255.1,943.9,255.3
		C943.9,255.2,943.9,255.3,943.9,255.3L943.9,255.3L943.9,255.3z M970.6,259.6c-1.1-0.7-2.2-1.3-3.4-1.8c-0.9,1.4-1.7,2.7-2.3,4
		c-2.3,0.9-4.3,2.4-5.7,4.4c-1.2,1.5-2,3.3-2.3,5.2c-0.3,1.9-0.5,3.8-0.5,5.7c0.3,5,0.4,10,0.4,14.9c0.1,0.1,0.2,0.2,0.4,0.1
		c0.2-0.6,0.4-1.2,0.5-1.8c0.4-5.5,0.5-8.7,0.5-9.7c-0.1-1.9-0.1-3.3-0.1-4.2c0-1.1,0.1-2.3,0.1-3.4c0-1.1,0.1-2.2,0.3-3.3
		c0.3-1.3,1.5-2.4,3.6-3.2c1.1-0.5,2.2-0.9,3.4-1c1.2-0.2,2.3-0.5,3.4-0.9c0.5-0.4,0.8-0.6,0.9-0.7c0.4-0.3,0.7-0.7,0.9-1.2
		c0.3-0.4,0.4-0.9,0.6-1.4c0.1-0.2,0.1-0.5,0-0.7h0.1C971.1,260.2,970.8,259.9,970.6,259.6L970.6,259.6L970.6,259.6z M985.1,259.9
		L985.1,259.9c0,0.6,0,1.1,0.1,1.7c0.1,0.8,0.1,1.3,0.1,1.6c0,0.5,0,0.9-0.2,1.4c-0.2,0.8-0.8,1.5-1.6,1.7c-0.6,0.1-1,0.1-1,0.1
		c-0.1-1.2-0.5-2.3-1.1-3.3c-0.4-0.7-1.2-1.1-2-0.9c-0.6,0.1-1.1,0.5-1.3,1.1c-0.2,0.5-0.4,1.1-0.5,1.6c-0.1,0.5-0.3,1-0.5,1.5
		c-0.2,0.5-0.3,1-0.3,1.5c0,0.6,0.2,1.1,0.6,1.5c0.7,0.6,1.7,0.7,2.5,0.4c0.5,0.4,0.8,0.9,0.8,1.5c-0.2,0.7-0.6,1.4-1.3,1.7
		c-3.4,1.9-5.1,2.8-5.2,2.8c-0.6,0.3-1.1,0.7-1.6,1.2c-0.1,0.2,0,0.3,0.1,0.5c0.3,0.1,0.7,0,1,0c0.5-0.2,0.8-0.3,1-0.3
		s1-0.2,2.6-0.5c0.9-0.1,1.8-0.4,2.6-0.9c0.5-0.7,0.9-1.5,1.2-2.3c0.2-0.4,0.4-1.2,0.8-2.4c0.2-0.8,0.4-1.4,0.5-1.8
		c1.6-0.7,2.8-2,3.4-3.6l0-0.1l0.4,0.8c0.9,1.3,2.4,2.1,3.9,2c3,0,5.4-2.3,7.3-7c0.2-0.4,0.3-0.8,0.2-1.2c-0.1-0.2-0.3-0.1-0.4,0
		c-0.5,1.3-1.7,2.2-3.1,2.5c-0.7,0-1.4-0.3-1.8-0.9c-0.5-0.6-0.6-1.3-0.4-2c0.2-0.4,0.4-0.8,0.5-1c1-1.3,1.8-1.9,2.4-1.9
		c0.1,0,0.3,0,0.4,0.1c0.2,0.1,0.4,0.2,0.7,0.3c0.2,0.1,0.4,0.2,0.7,0.2c0.2,0,0.4-0.2,0.6-0.4c0.1-0.4,0.1-0.8-0.1-1.2
		c-0.2-0.3-0.5-0.5-0.8-0.6c-1.9-0.2-3.7,1-5.3,3.9c-0.1,0.1-0.1,0.2-0.2,0.3c-0.1,0.1-0.1,0.2-0.1,0.3c-0.6,1-1,2.1-1.4,3.2h-0.1
		c-1.3-0.4-2.2-1.5-2.2-2.9c0-0.1,0-0.2-0.1-0.3c0-0.1-0.1-0.1-0.1-0.2c-0.2-1.9-0.2-3.9-0.2-5.8c0-3.1,0.2-6.1,0.5-9.2
		c-0.1-0.2-0.2-0.2-0.4-0.2c-0.3,0.5-0.5,1-0.6,1.5c-0.6,1-0.9,2.9-0.9,5.8v7.2L985.1,259.9z M1031.4,268.4c-0.7,1-1.6,1.9-2.6,2.5
		c-0.7,0.4-1.5,0.6-2.3,0.7c-0.4,0-0.7-0.1-1.1-0.2c0.4-0.6,0.8-1.2,1.3-1.8c0.5-0.6,0.8-1.2,1-1.9c0.1-0.7-0.3-1.4-0.9-1.8
		c-1-0.5-2.1-0.7-3.2-0.7c-1.6,0-3.1,0.4-4.6,1.1c-0.8,0.4-1.1,0.8-1.1,1.2c0,0.1,0.1,0.2,0.2,0.3c1.7-0.2,3.3,0.7,4,2.3
		c0.3,0.8,0.5,1.4,0.7,1.7c-0.8,0.8-1.9,1.3-3,1.3c-0.7-0.1-1.5-0.2-2.2-0.5c-0.7-0.3-1.4-0.4-2.1-0.5c-1.8,0.1-3.5,1-4.7,2.4
		c-1.3,1.3-2.4,2.8-3.1,4.5c-0.1,0.2-0.1,0.4,0.1,0.6c0,0,0,0,0,0c0.2,0.1,0.3,0,0.5-0.1c1.4-1.7,2.6-2.8,3.5-3
		c0.3-0.1,0.6-0.1,0.9-0.1c0.6,0,1.2,0.1,1.7,0.3c0.5,0.2,1.1,0.4,1.6,0.5c0.3,0,0.5,0,0.8,0c2.4,0,4.7-1.5,6.8-4.5l0.4,0.1
		c0.7,0.5,1.6,0.8,2.5,0.7c1.4-0.2,2.6-0.9,3.5-2c1-1,2-1.9,3.1-2.8c0.3-0.2,0.7-0.3,1.1-0.3c0.5,0,1,0.1,1.4,0.3
		c0.8,0.3,1.3,0.5,1.4,0.5c0.5-0.1,0.9-0.3,1.2-0.7c0.3-0.4,0.7-0.8,1-1.2c0.2-0.3,0.3-0.6,0.5-0.8c0.2-0.3,0.2-0.6,0.2-0.9
		c-1.1-1.2-1.9-2.2-2.4-2.7c-0.1-0.1-0.2-0.3-0.5-0.8c-0.1-0.3-0.3-0.5-0.6-0.6c-0.4,0.4-0.8,1-1,1.5c-0.1,0.3-0.3,0.9-0.7,1.7
		l-0.9,0.6C1032.9,266.4,1032.1,267.4,1031.4,268.4L1031.4,268.4L1031.4,268.4z M1045.2,270c-0.2-1.1-0.3-2.3-0.3-3.4
		c-0.2-4.5,0-9.1,0.5-13.6c-0.1-0.1-0.2-0.2-0.3-0.2c-0.3,0.6-0.6,1.2-0.8,1.8c-0.6,1.1-0.9,2.3-0.9,3.6c0,1.2-0.1,2.5-0.1,3.8
		c0,0.9,0,2.2,0,3.7c-0.1,1.9-0.1,3.1-0.1,3.7c-0.1,2.2,0.3,4.5,1.2,6.5c0.6,1.2,1.8,1.8,3.1,1.7c1.8-0.2,3.4-0.9,4.7-2.1
		c1.4-1.2,2.6-2.6,3.7-4.1c1.1-1.4,2.2-2.8,3.5-4c0-0.1,0.1-0.2,0.1-0.2c0-0.1-0.1-0.2-0.2-0.3c-0.9-0.2-1.6-0.3-2.1-0.4
		c-0.7-0.2-1.5-0.4-2.2-0.7c-0.7-0.3-1.4-0.4-2.2-0.5c-0.7,0-1.3,0.2-1.9,0.6c-0.8,0.9-1.5,2-2.1,3.1l-1.5,3.4h-0.1
		C1046.3,272,1045.5,271.1,1045.2,270L1045.2,270L1045.2,270z M1048.8,272.6c0.2-0.8,0.4-1.5,0.8-2.2c0.3-0.6,0.6-1.1,0.9-1.7
		c0.3-0.6,0.9-1,1.5-1.1c1.4,0.3,2.8,0.7,4.2,1.3v0.1C1053.8,271.4,1051.4,272.6,1048.8,272.6L1048.8,272.6L1048.8,272.6z
		 M1052.6,283.5c-1.2-0.9-2.4-1.8-3.5-2.7c-0.2,0.2-1.1,1.2-2.7,3.1c0.9,1.2,2.2,2.2,3.6,2.7L1052.6,283.5z"/>
</g>
</svg>
