<?xml version="1.0" standalone="no"?>
<!DOCTYPE svg PUBLIC "-//W3C//DTD SVG 1.1//EN" "http://www.w3.org/Graphics/SVG/1.1/DTD/svg11.dtd" >
<svg xmlns="http://www.w3.org/2000/svg" xmlns:xlink="http://www.w3.org/1999/xlink" version="1.1">
<metadata>
Created by FontForge 20170731 at Wed Mar 18 13:03:31 2009
 By Aleksey,,,
(c) 2008 Microsoft Corporation. All Rights Reserved.
</metadata>
<defs>
<font id="ArabicTypesetting" horiz-adv-x="932" >
  <font-face 
    font-family="Arabic Typesetting"
    font-weight="400"
    font-stretch="normal"
    units-per-em="2048"
    panose-1="3 2 4 2 4 4 6 3 2 3"
    ascent="1638"
    descent="-410"
    x-height="571"
    cap-height="960"
    bbox="-565 -896 3070 1474"
    underline-thickness="20"
    underline-position="-430"
    unicode-range="U+0001-FEFC"
  />
<missing-glyph horiz-adv-x="684" 
d="M684 960v-960h-684v960h684zM627 57v846h-570v-846h570zM300 313l-2 22q0 74 22 117q7 13 21 30.5t36 39.5q43 43 55 64q12 22 12 48q0 50 -31 81q-30 33 -69 33q-45 0 -74.5 -30t-36.5 -97l-67 11q9 95 58.5 139t121.5 44q71 0 119 -49q48 -48 48 -126q0 -45 -16 -76
q-8 -16 -25 -36t-42 -45q-51 -48 -58 -76q-10 -19 -10 -94h-62zM293 156v90h76v-90h-76z" />
    <glyph glyph-name="ff" unicode="ff" horiz-adv-x="795" 
d="M625 503v-389q0 -25 5 -40t19 -22.5t39.5 -10.5t67.5 -4l-3 -37q-16 0 -38 0.5t-47 0.5t-51.5 0.5t-50.5 0.5q-39 0 -75 -1t-64 -1l-3 32q33 3 51.5 8.5t28 18.5t12 35.5t2.5 60.5v348h-271v-389q0 -25 4.5 -40t18 -22.5t38 -10.5t64.5 -4l-3 -37q-14 0 -35 0.5t-46 0.5
q-24 0 -50 0.5t-50 0.5q-39 0 -78 -1t-67 -1l-3 32q33 3 52.5 8.5t30 18.5t14 35.5t3.5 60.5v348h-95l-7 7l4 37l98 8v142q0 94 31.5 164.5t86.5 121.5q19 18 45 32t56 23.5t62 15t64 5.5q15 0 35 -3t40.5 -10t38 -18.5t27.5 -27.5q42 38 92.5 57t107.5 19q15 0 34.5 -3
t36.5 -10.5t29 -21t12 -33.5q0 -32 -16.5 -46t-47.5 -25q-25 23 -61 40.5t-72 17.5q-20 0 -38.5 -6.5t-32.5 -20.5q-17 -17 -26 -42t-13.5 -54t-5 -60.5t-0.5 -60.5v-191l166 1l8 -7l-3 -51h-171zM518 712q0 118 46 203q-37 32 -80 49.5t-88 17.5q-26 0 -50 -7.5t-41 -21.5
q-21 -15 -32.5 -38t-17.5 -50t-7 -56.5t-1 -57.5v-194l271 2v153z" />
    <glyph glyph-name="fi" unicode="fi" horiz-adv-x="750" 
d="M730 0q-32 0 -77 1t-93 1q-39 0 -73.5 -1t-62.5 -1l-2 32q33 3 52 8.5t28.5 18.5t12.5 35.5t3 60.5v263q0 28 -3.5 44.5t-13 25.5t-27.5 12t-46 3h-181v-389q0 -25 5 -40t18.5 -22.5t38 -10.5t63.5 -4l-3 -37q-12 0 -33 0.5t-46 0.5q-24 0 -51 0.5t-51 0.5q-39 0 -78 -1
t-67 -1l-3 32q33 3 52.5 8.5t30 18.5t14 35.5t3.5 60.5v348h-95l-7 7l4 38l98 8v151q0 94 31.5 164.5t86.5 121.5q19 18 45 32.5t56.5 24.5t63 15.5t63.5 5.5q18 0 43.5 -3.5t48.5 -12.5t39.5 -24t16.5 -39q0 -35 -21.5 -52.5t-54.5 -29.5q-17 15 -35.5 29t-39 25.5
t-43 18.5t-46.5 7q-26 0 -49 -6.5t-40 -20.5q-21 -15 -32.5 -38t-17.5 -50t-7 -56.5t-1 -57.5v-203l273 3q38 8 65.5 16t40.5 13l10 -8q-3 -25 -5 -53t-3 -55.5t-1.5 -52t-0.5 -42.5v-265q0 -24 3 -38.5t13.5 -22.5t31.5 -11t58 -5z" />
    <glyph glyph-name="ffi" unicode="ffi" horiz-adv-x="1128" 
d="M1108 0q-32 0 -77 1t-93 1q-39 0 -73.5 -1t-62.5 -1l-2 32q33 3 52 8.5t28.5 18.5t12.5 35.5t3 60.5v263q0 28 -3.5 44.5t-13 25.5t-27.5 12t-46 3h-181v-389q0 -25 5 -40t18.5 -22.5t38 -10.5t63.5 -4l-3 -37q-12 0 -33 0.5t-46 0.5q-24 0 -51 0.5t-51 0.5q-39 0 -78 -1
t-67 -1l-3 32q33 3 52.5 8.5t30 18.5t14 35.5t3.5 60.5v348h-271v-389q0 -25 4.5 -40t18 -22.5t38 -10.5t64.5 -4l-3 -37q-14 0 -35 0.5t-46 0.5q-24 0 -50 0.5t-50 0.5q-39 0 -78 -1t-67 -1l-3 32q33 3 52.5 8.5t30 18.5t14 35.5t3.5 60.5v348h-95l-7 7l4 36l98 5v146
q0 94 31.5 164.5t86.5 121.5q19 18 45 32t56 23.5t62 15t64 5.5q17 0 39 -3.5t43 -12t38.5 -22t25.5 -33.5l5 5q19 18 45 32.5t56.5 24.5t63 15.5t63.5 5.5q18 0 43.5 -3.5t48.5 -12.5t39.5 -24t16.5 -39q0 -35 -21.5 -52.5t-54.5 -29.5q-17 15 -35.5 29t-39 25.5t-43 18.5
t-46.5 7q-26 0 -49 -6.5t-40 -20.5q-21 -15 -32.5 -38t-17.5 -50t-7 -56.5t-1 -57.5v-203l273 3q38 8 65.5 16t40.5 13l10 -8q-3 -25 -5 -53t-3 -55.5t-1.5 -52t-0.5 -42.5v-265q0 -24 3 -38.5t13.5 -22.5t31.5 -11t58 -5l-2 -47v10zM518 707q0 60 13.5 110.5t36.5 92.5
q-35 35 -80.5 53.5t-91.5 18.5q-26 0 -50 -7.5t-41 -21.5q-21 -15 -32.5 -38t-17.5 -50t-7 -56.5t-1 -57.5v-198l271 4v150z" />
    <glyph glyph-name="ffl" unicode="ffl" horiz-adv-x="1129" 
d="M1016 1073q-4 -26 -7 -59.5t-4.5 -67.5t-2 -64t-0.5 -48v-720q0 -24 3 -38.5t14 -22.5t32 -11t58 -5l-2 -37q-32 0 -76.5 1t-92.5 1q-39 0 -73.5 -1t-62.5 -1l-3 32q31 3 50 8.5t29.5 18.5t14 35.5t3.5 60.5v771q-42 42 -80.5 55.5t-74.5 13.5q-20 0 -38.5 -6.5
t-32.5 -20.5q-17 -17 -26 -42t-13.5 -54t-5 -60.5t-0.5 -60.5v-192l165 2l8 -7l-3 -51h-170v-389q0 -25 5 -40t18.5 -22.5t38 -10.5t63.5 -4l-3 -37q-16 0 -37 0.5t-45 0.5t-49.5 0.5t-49.5 0.5q-39 0 -78 -1t-67 -1l-3 32q33 3 52.5 8.5t30 18.5t14 35.5t3.5 60.5v348h-271
v-389q0 -25 4.5 -40t18 -22.5t38 -10.5t64.5 -4l-3 -37q-14 0 -35 0.5t-46 0.5q-24 0 -50 0.5t-50 0.5q-39 0 -78 -1t-67 -1l-3 32q33 3 52.5 8.5t30 18.5t14 35.5t3.5 60.5v348h-95l-7 7l4 36l98 5v146q0 94 31.5 164.5t86.5 121.5q19 18 45 32t56 23.5t62 15t64 5.5
q15 0 35 -3t40.5 -10t38 -18.5t27.5 -27.5q42 38 92.5 57t107.5 19q18 0 42.5 -4.5t43.5 -17.5q29 8 53.5 14.5t39.5 12.5zM518 712q0 60 12 110.5t33 92.5q-37 32 -79.5 49.5t-87.5 17.5q-26 0 -50 -7.5t-41 -21.5q-21 -15 -32.5 -38t-17.5 -50t-7 -56.5t-1 -57.5v-198
l271 4v155z" />
    <glyph glyph-name="uniFC00" unicode="&#xfe8b;&#xfe9e;" horiz-adv-x="861" arabic-form="isolated" 
d="M524 183q-14 1 -43 3t-61 3.5t-61.5 2.5t-43.5 1q-62 0 -103 -2.5t-66 -5.5t-53 -8q-8 0 -10 1.5t-2 12.5t5.5 33.5t13.5 45.5q11 9 22 14q41 20 87.5 41.5t90.5 45.5t81 50.5t59 55.5q28 37 52.5 73.5t45.5 66t38 48t29 18.5q9 0 17 -12t14 -29.5t9.5 -35.5t3.5 -30
t-2.5 -31.5t-6.5 -38t-9.5 -32.5t-10.5 -14q-6 0 -10.5 18.5t-10.5 40t-14 40t-20 18.5q-8 0 -26.5 -24t-40.5 -56t-44 -63t-35 -46q-15 -17 -43 -38t-64 -44q24 -2 51.5 -3t54.5 -2.5t51 -2t42 -0.5q37 0 86.5 -0.5t94.5 -1t79 -1t40 -0.5t9 -8q-10 -32 -16.5 -50
t-20.5 -52q-27 -8 -51 -15t-60.5 -20.5t-87.5 -35.5q-34 -15 -74.5 -36.5t-81.5 -51t-80 -66.5t-68.5 -83t-47.5 -102t-18 -123q0 -77 27.5 -133t72.5 -95t102 -62.5t117 -37t117 -18t101 -4.5q45 0 101 4.5t109 9.5t95 9.5t59 4.5l8 -3q-48 -28 -84.5 -44.5t-80.5 -35
t-84.5 -34.5t-71.5 -27t-42 -13q-70 0 -140.5 5t-135.5 20t-121.5 42.5t-98 73.5t-65 111.5t-23.5 157.5q0 106 20.5 187t55.5 144.5t81.5 113.5t99.5 94q7 6 19 14.5t24.5 16.5t25.5 16t22 14zM602 1095q14 0 22 -14t8 -28q0 -21 -9 -37t-16 -16q-8 0 -15 11q-3 7 -11 9
t-16 2t-20.5 -5.5t-24 -13t-19.5 -16.5t-8 -16q0 -11 16 -18t36.5 -11t39 -6t24.5 -2q33 17 50.5 27t51.5 27q7 0 7 -10q-18 -47 -30 -68q-21 -15 -35 -22.5t-31 -16.5l-34 -18q-20 -11 -41 -23t-39 -22.5t-46 -24.5q-5 0 -5 10t9 20.5t20 20.5t29 28q-23 10 -36.5 18
t-25 20t-11.5 27q0 22 16 51t40 55t52 44t52 18zM572 -218l101 -69l-51 -105l-100 69z" />
    <glyph glyph-name="uniFC01" unicode="&#xfe8b;&#xfea2;" horiz-adv-x="861" arabic-form="isolated" 
d="M524 183q-14 1 -43 3t-61 3.5t-61.5 2.5t-43.5 1q-62 0 -103 -2.5t-66 -5.5t-53 -8q-8 0 -10 1.5t-2 12.5t5.5 33.5t13.5 45.5q11 9 22 14q41 20 87.5 41.5t90.5 45.5t81 50.5t59 55.5q28 37 52.5 73.5t45.5 66t38 48t29 18.5q9 0 17 -12t14 -29.5t9.5 -35.5t3.5 -30
t-2.5 -31.5t-6.5 -38t-9.5 -32.5t-10.5 -14q-6 0 -10.5 18.5t-10.5 40t-14 40t-20 18.5q-8 0 -26.5 -24t-40.5 -56t-44 -63t-35 -46q-15 -17 -43 -38t-64 -44q24 -2 51.5 -3t54.5 -2.5t51 -2t42 -0.5q37 0 86.5 -0.5t94.5 -1t79 -1t40 -0.5t9 -8q-10 -32 -16.5 -50
t-20.5 -52q-27 -8 -51 -15t-60.5 -20.5t-87.5 -35.5q-34 -15 -74.5 -36.5t-81.5 -51t-80 -66.5t-68.5 -83t-47.5 -102t-18 -123q0 -77 27.5 -133t72.5 -95t102 -62.5t117 -37t117 -18t101 -4.5q45 0 101 4.5t109 9.5t95 9.5t59 4.5l8 -3q-48 -28 -84.5 -44.5t-80.5 -35
t-84.5 -34.5t-71.5 -27t-42 -13q-70 0 -140.5 5t-135.5 20t-121.5 42.5t-98 73.5t-65 111.5t-23.5 157.5q0 106 20.5 187t55.5 144.5t81.5 113.5t99.5 94q7 6 19 14.5t24.5 16.5t25.5 16t22 14zM607 1114q14 0 22 -14t8 -28q0 -21 -9 -37t-16 -16q-8 0 -15 11q-3 7 -11 9
t-16 2t-20.5 -5.5t-24 -13t-19.5 -16.5t-8 -16q0 -11 16 -18t36.5 -11t39 -6t24.5 -2q33 17 50.5 27t51.5 27q7 0 7 -10q-18 -47 -30 -68q-21 -15 -35 -22.5t-31 -16.5l-34 -18q-20 -11 -41 -23t-39 -22.5t-46 -24.5q-5 0 -5 10t9 20.5t20 20.5t29 28q-23 10 -36.5 18
t-25 20t-11.5 27q0 22 16 51t40 55t52 44t52 18z" />
    <glyph glyph-name="uniFC02" unicode="&#xfe8b;&#xfee2;" horiz-adv-x="772" arabic-form="isolated" 
d="M771 511q0 -6 -2 -22.5t-5 -34.5t-9 -52q-2 -5 -8 -5l-6 4q-3 19 -15 29.5t-29.5 15.5t-38 6t-40.5 1q-39 0 -78.5 -10.5t-79 -28t-77.5 -40.5t-74 -50q35 -10 70 -27t62.5 -34t61.5 -49q0 -10 -4 -28.5t-9.5 -37.5t-21.5 -48q-4 -2 -29 -4t-60.5 -5.5t-77 -9t-78 -15
t-63.5 -23.5t-34 -34q-4 -11 -5.5 -19t-1.5 -24q0 -19 4.5 -60t11 -93.5t14.5 -111.5t14.5 -114.5t11 -102.5t4.5 -75q0 -18 -0.5 -38t-2 -37t-4.5 -28t-8 -11t-10 25t-10 58t-9.5 65.5t-7.5 48.5q-11 54 -19.5 113.5t-14.5 116.5t-9.5 106.5t-3.5 84.5q0 52 7.5 92
t18.5 69.5t24 47.5t25 27q18 15 41.5 23.5t44.5 13t50 10.5q-16 7 -27 9t-24 4t-23 2q-15 0 -23.5 -1.5t-14.5 -4t-10.5 -4t-9.5 -1.5q-7 0 -7 14q0 7 2 19t6.5 26t12.5 28t20 26q43 43 95.5 88.5t110 83t119.5 61.5t124 24q20 0 42.5 -1t42 -7t32 -18t12.5 -33zM655 1066
q14 0 22 -14t8 -28q0 -21 -9 -37t-16 -16q-8 0 -15 11q-3 7 -11 9t-16 2t-20.5 -5.5t-24 -13t-19.5 -16.5t-8 -16q0 -11 16 -18t36.5 -11t39 -6t24.5 -2q33 17 50.5 27t51.5 27q7 0 7 -10q-18 -47 -30 -68q-21 -15 -35 -22.5t-31 -16.5l-34 -18q-20 -11 -41 -23t-39 -22.5
t-46 -24.5q-5 0 -5 10t9 20.5t20 20.5t29 28q-23 10 -36.5 18t-25 20t-11.5 27q0 22 16 51t40 55t52 44t52 18z" />
    <glyph glyph-name="uniFC03" unicode="&#xfe8b;&#xfef0;" horiz-adv-x="987" arabic-form="isolated" 
d="M398 -233q78 0 155.5 23t145 54.5t119 65t78.5 55.5q13 11 21.5 26t9.5 21q-28 22 -46 28q-12 4 -34 7.5t-48.5 6.5t-54.5 5.5t-52.5 5t-42 4t-22.5 2.5q-12 1 -12 7q1 5 4.5 13.5t10 26t18.5 48.5q3 6 8 8q19 5 27.5 7.5t28.5 7.5q12 4 30.5 13t36.5 21t31.5 27t15.5 31
q0 21 -11.5 45.5t-28 47.5t-34 42.5t-29.5 31.5q-4 7 -4 14q0 13 2.5 32t6.5 37t9 32t10 18q38 -38 60.5 -72.5t42 -82t19.5 -104.5q0 -25 -6.5 -48.5t-16 -44.5t-20.5 -39t-20 -32q30 -5 56 -10.5t43 -10.5q42 -11 61 -32.5t21 -48.5q-2 -20 -5 -43t-8.5 -46t-13.5 -43
t-20 -33q-15 -17 -46.5 -42t-74.5 -52.5t-95 -55.5t-107.5 -50t-112.5 -35.5t-110 -13.5q-60 0 -112.5 22t-91.5 63.5t-61 102.5t-22 139q0 60 17.5 115t39.5 96t41.5 65.5t24.5 24.5l4 -5q0 -6 -11.5 -27.5t-25.5 -52.5t-25 -68.5t-11 -74.5q1 -73 24 -125t58 -85.5t76 -49
t79 -15.5zM728 977q14 0 22 -14t8 -28q0 -21 -9 -37t-16 -16q-8 0 -15 11q-3 7 -11 9t-16 2t-20.5 -5.5t-24 -13t-19.5 -16.5t-8 -16q0 -11 16 -18t36.5 -11t39 -6t24.5 -2q33 17 50.5 27t51.5 27q7 0 7 -10q-18 -47 -30 -68q-21 -15 -35 -22.5t-31 -16.5l-34 -18
q-20 -11 -41 -23t-39 -22.5t-46 -24.5q-5 0 -5 10t9 20.5t20 20.5t29 28q-23 10 -36.5 18t-25 20t-11.5 27q0 22 16 51t40 55t52 44t52 18z" />
    <glyph glyph-name="uniFC04" unicode="&#xfe8b;&#xfef2;" horiz-adv-x="987" arabic-form="isolated" 
d="M398 -233q78 0 155.5 23t145 54.5t119 65t78.5 55.5q13 11 21.5 26t9.5 21q-28 22 -46 28q-12 4 -34 7.5t-48.5 6.5t-54.5 5.5t-52.5 5t-42 4t-22.5 2.5q-12 1 -12 7q1 5 4.5 13.5t10 26t18.5 48.5q3 6 8 8q19 5 27.5 7.5t28.5 7.5q12 4 30.5 13t36.5 21t31.5 27t15.5 31
q0 21 -11.5 45.5t-28 47.5t-34 42.5t-29.5 31.5q-4 7 -4 14q0 13 2.5 32t6.5 37t9 32t10 18q38 -38 60.5 -72.5t42 -82t19.5 -104.5q0 -25 -6.5 -48.5t-16 -44.5t-20.5 -39t-20 -32q30 -5 56 -10.5t43 -10.5q42 -11 61 -32.5t21 -48.5q-2 -20 -5 -43t-8.5 -46t-13.5 -43
t-20 -33q-15 -17 -46.5 -42t-74.5 -52.5t-95 -55.5t-107.5 -50t-112.5 -35.5t-110 -13.5q-60 0 -112.5 22t-91.5 63.5t-61 102.5t-22 139q0 60 17.5 115t39.5 96t41.5 65.5t24.5 24.5l4 -5q0 -6 -11.5 -27.5t-25.5 -52.5t-25 -68.5t-11 -74.5q1 -73 24 -125t58 -85.5t76 -49
t79 -15.5zM728 977q14 0 22 -14t8 -28q0 -21 -9 -37t-16 -16q-8 0 -15 11q-3 7 -11 9t-16 2t-20.5 -5.5t-24 -13t-19.5 -16.5t-8 -16q0 -11 16 -18t36.5 -11t39 -6t24.5 -2q33 17 50.5 27t51.5 27q7 0 7 -10q-18 -47 -30 -68q-21 -15 -35 -22.5t-31 -16.5l-34 -18
q-20 -11 -41 -23t-39 -22.5t-46 -24.5q-5 0 -5 10t9 20.5t20 20.5t29 28q-23 10 -36.5 18t-25 20t-11.5 27q0 22 16 51t40 55t52 44t52 18zM621 -396l100 -70l-50 -105l-101 70zM455 -427l101 -69l-51 -105l-100 69z" />
    <glyph glyph-name="uniFC05" unicode="&#xfe91;&#xfe9e;" horiz-adv-x="861" arabic-form="isolated" 
d="M524 183q-14 1 -43 3t-61 3.5t-61.5 2.5t-43.5 1q-62 0 -103 -2.5t-66 -5.5t-53 -8q-8 0 -10 1.5t-2 12.5t5.5 33.5t13.5 45.5q11 9 22 14q41 20 87.5 41.5t90.5 45.5t81 50.5t59 55.5q28 37 52.5 73.5t45.5 66t38 48t29 18.5q9 0 17 -12t14 -29.5t9.5 -35.5t3.5 -30
t-2.5 -31.5t-6.5 -38t-9.5 -32.5t-10.5 -14q-6 0 -10.5 18.5t-10.5 40t-14 40t-20 18.5q-8 0 -26.5 -24t-40.5 -56t-44 -63t-35 -46q-15 -17 -43 -38t-64 -44q24 -2 51.5 -3t54.5 -2.5t51 -2t42 -0.5q37 0 86.5 -0.5t94.5 -1t79 -1t40 -0.5t9 -8q-10 -32 -16.5 -50
t-20.5 -52q-27 -8 -51 -15t-60.5 -20.5t-87.5 -35.5q-34 -15 -74.5 -36.5t-81.5 -51t-80 -66.5t-68.5 -83t-47.5 -102t-18 -123q0 -77 27.5 -133t72.5 -95t102 -62.5t117 -37t117 -18t101 -4.5q45 0 101 4.5t109 9.5t95 9.5t59 4.5l8 -3q-48 -28 -84.5 -44.5t-80.5 -35
t-84.5 -34.5t-71.5 -27t-42 -13q-70 0 -140.5 5t-135.5 20t-121.5 42.5t-98 73.5t-65 111.5t-23.5 157.5q0 106 20.5 187t55.5 144.5t81.5 113.5t99.5 94q7 6 19 14.5t24.5 16.5t25.5 16t22 14zM753 93l101 -69l-51 -105l-100 69zM551 -251l101 -69l-51 -105l-100 69z" />
    <glyph glyph-name="uniFC06" unicode="&#xfe91;&#xfea2;" horiz-adv-x="861" arabic-form="isolated" 
d="M524 183q-14 1 -43 3t-61 3.5t-61.5 2.5t-43.5 1q-62 0 -103 -2.5t-66 -5.5t-53 -8q-8 0 -10 1.5t-2 12.5t5.5 33.5t13.5 45.5q11 9 22 14q41 20 87.5 41.5t90.5 45.5t81 50.5t59 55.5q28 37 52.5 73.5t45.5 66t38 48t29 18.5q9 0 17 -12t14 -29.5t9.5 -35.5t3.5 -30
t-2.5 -31.5t-6.5 -38t-9.5 -32.5t-10.5 -14q-6 0 -10.5 18.5t-10.5 40t-14 40t-20 18.5q-8 0 -26.5 -24t-40.5 -56t-44 -63t-35 -46q-15 -17 -43 -38t-64 -44q24 -2 51.5 -3t54.5 -2.5t51 -2t42 -0.5q37 0 86.5 -0.5t94.5 -1t79 -1t40 -0.5t9 -8q-10 -32 -16.5 -50
t-20.5 -52q-27 -8 -51 -15t-60.5 -20.5t-87.5 -35.5q-34 -15 -74.5 -36.5t-81.5 -51t-80 -66.5t-68.5 -83t-47.5 -102t-18 -123q0 -77 27.5 -133t72.5 -95t102 -62.5t117 -37t117 -18t101 -4.5q45 0 101 4.5t109 9.5t95 9.5t59 4.5l8 -3q-48 -28 -84.5 -44.5t-80.5 -35
t-84.5 -34.5t-71.5 -27t-42 -13q-70 0 -140.5 5t-135.5 20t-121.5 42.5t-98 73.5t-65 111.5t-23.5 157.5q0 106 20.5 187t55.5 144.5t81.5 113.5t99.5 94q7 6 19 14.5t24.5 16.5t25.5 16t22 14zM731 102l101 -69l-51 -105l-100 69z" />
    <glyph glyph-name="uniFC07" unicode="&#xfe91;&#xfea6;" horiz-adv-x="861" arabic-form="isolated" 
d="M524 183q-14 1 -43 3t-61 3.5t-61.5 2.5t-43.5 1q-62 0 -103 -2.5t-66 -5.5t-53 -8q-8 0 -10 1.5t-2 12.5t5.5 33.5t13.5 45.5q11 9 22 14q41 20 87.5 41.5t90.5 45.5t81 50.5t59 55.5q28 37 52.5 73.5t45.5 66t38 48t29 18.5q9 0 17 -12t14 -29.5t9.5 -35.5t3.5 -30
t-2.5 -31.5t-6.5 -38t-9.5 -32.5t-10.5 -14q-6 0 -10.5 18.5t-10.5 40t-14 40t-20 18.5q-8 0 -26.5 -24t-40.5 -56t-44 -63t-35 -46q-15 -17 -43 -38t-64 -44q24 -2 51.5 -3t54.5 -2.5t51 -2t42 -0.5q37 0 86.5 -0.5t94.5 -1t79 -1t40 -0.5t9 -8q-10 -32 -16.5 -50
t-20.5 -52q-27 -8 -51 -15t-60.5 -20.5t-87.5 -35.5q-34 -15 -74.5 -36.5t-81.5 -51t-80 -66.5t-68.5 -83t-47.5 -102t-18 -123q0 -77 27.5 -133t72.5 -95t102 -62.5t117 -37t117 -18t101 -4.5q45 0 101 4.5t109 9.5t95 9.5t59 4.5l8 -3q-48 -28 -84.5 -44.5t-80.5 -35
t-84.5 -34.5t-71.5 -27t-42 -13q-70 0 -140.5 5t-135.5 20t-121.5 42.5t-98 73.5t-65 111.5t-23.5 157.5q0 106 20.5 187t55.5 144.5t81.5 113.5t99.5 94q7 6 19 14.5t24.5 16.5t25.5 16t22 14zM731 108l101 -69l-51 -105l-100 69zM173 652l101 -69l-51 -105l-100 69z" />
    <glyph glyph-name="uniFC08" unicode="&#xfe91;&#xfee2;" horiz-adv-x="772" arabic-form="isolated" 
d="M771 511q0 -6 -2 -22.5t-5 -34.5t-9 -52q-2 -5 -8 -5l-6 4q-3 19 -15 29.5t-29.5 15.5t-38 6t-40.5 1q-39 0 -78.5 -10.5t-79 -28t-77.5 -40.5t-74 -50q35 -10 70 -27t62.5 -34t61.5 -49q0 -10 -4 -28.5t-9.5 -37.5t-21.5 -48q-4 -2 -29 -4t-60.5 -5.5t-77 -9t-78 -15
t-63.5 -23.5t-34 -34q-4 -11 -5.5 -19t-1.5 -24q0 -19 4.5 -60t11 -93.5t14.5 -111.5t14.5 -114.5t11 -102.5t4.5 -75q0 -18 -0.5 -38t-2 -37t-4.5 -28t-8 -11t-10 25t-10 58t-9.5 65.5t-7.5 48.5q-11 54 -19.5 113.5t-14.5 116.5t-9.5 106.5t-3.5 84.5q0 52 7.5 92
t18.5 69.5t24 47.5t25 27q18 15 41.5 23.5t44.5 13t50 10.5q-16 7 -27 9t-24 4t-23 2q-15 0 -23.5 -1.5t-14.5 -4t-10.5 -4t-9.5 -1.5q-7 0 -7 14q0 7 2 19t6.5 26t12.5 28t20 26q43 43 95.5 88.5t110 83t119.5 61.5t124 24q20 0 42.5 -1t42 -7t32 -18t12.5 -33zM679 151
l101 -69l-51 -105l-100 69z" />
    <glyph glyph-name="uniFC0A" unicode="&#xfe91;&#xfef2;" horiz-adv-x="987" arabic-form="isolated" 
d="M398 -233q78 0 155.5 23t145 54.5t119 65t78.5 55.5q13 11 21.5 26t9.5 21q-28 22 -46 28q-12 4 -34 7.5t-48.5 6.5t-54.5 5.5t-52.5 5t-42 4t-22.5 2.5q-12 1 -12 7q1 5 4.5 13.5t10 26t18.5 48.5q3 6 8 8q19 5 27.5 7.5t28.5 7.5q12 4 30.5 13t36.5 21t31.5 27t15.5 31
q0 21 -11.5 45.5t-28 47.5t-34 42.5t-29.5 31.5q-4 7 -4 14q0 13 2.5 32t6.5 37t9 32t10 18q38 -38 60.5 -72.5t42 -82t19.5 -104.5q0 -25 -6.5 -48.5t-16 -44.5t-20.5 -39t-20 -32q30 -5 56 -10.5t43 -10.5q42 -11 61 -32.5t21 -48.5q-2 -20 -5 -43t-8.5 -46t-13.5 -43
t-20 -33q-15 -17 -46.5 -42t-74.5 -52.5t-95 -55.5t-107.5 -50t-112.5 -35.5t-110 -13.5q-60 0 -112.5 22t-91.5 63.5t-61 102.5t-22 139q0 60 17.5 115t39.5 96t41.5 65.5t24.5 24.5l4 -5q0 -6 -11.5 -27.5t-25.5 -52.5t-25 -68.5t-11 -74.5q1 -73 24 -125t58 -85.5t76 -49
t79 -15.5zM833 -288l101 -69l-51 -105l-100 69zM621 -402l100 -70l-50 -105l-101 70zM455 -433l101 -69l-51 -105l-100 69z" />
    <glyph glyph-name="uniFC0B" unicode="&#xfe97;&#xfe9e;" horiz-adv-x="861" arabic-form="isolated" 
d="M524 183q-14 1 -43 3t-61 3.5t-61.5 2.5t-43.5 1q-62 0 -103 -2.5t-66 -5.5t-53 -8q-8 0 -10 1.5t-2 12.5t5.5 33.5t13.5 45.5q11 9 22 14q41 20 87.5 41.5t90.5 45.5t81 50.5t59 55.5q28 37 52.5 73.5t45.5 66t38 48t29 18.5q9 0 17 -12t14 -29.5t9.5 -35.5t3.5 -30
t-2.5 -31.5t-6.5 -38t-9.5 -32.5t-10.5 -14q-6 0 -10.5 18.5t-10.5 40t-14 40t-20 18.5q-8 0 -26.5 -24t-40.5 -56t-44 -63t-35 -46q-15 -17 -43 -38t-64 -44q24 -2 51.5 -3t54.5 -2.5t51 -2t42 -0.5q37 0 86.5 -0.5t94.5 -1t79 -1t40 -0.5t9 -8q-10 -32 -16.5 -50
t-20.5 -52q-27 -8 -51 -15t-60.5 -20.5t-87.5 -35.5q-34 -15 -74.5 -36.5t-81.5 -51t-80 -66.5t-68.5 -83t-47.5 -102t-18 -123q0 -77 27.5 -133t72.5 -95t102 -62.5t117 -37t117 -18t101 -4.5q45 0 101 4.5t109 9.5t95 9.5t59 4.5l8 -3q-48 -28 -84.5 -44.5t-80.5 -35
t-84.5 -34.5t-71.5 -27t-42 -13q-70 0 -140.5 5t-135.5 20t-121.5 42.5t-98 73.5t-65 111.5t-23.5 157.5q0 106 20.5 187t55.5 144.5t81.5 113.5t99.5 94q7 6 19 14.5t24.5 16.5t25.5 16t22 14zM620 1018l100 -70l-50 -105l-101 70zM454 987l101 -69l-51 -105l-100 69z
M573 -214l101 -69l-51 -105l-100 69z" />
    <glyph glyph-name="uniFC0C" unicode="&#xfe97;&#xfea2;" horiz-adv-x="861" arabic-form="isolated" 
d="M524 183q-14 1 -43 3t-61 3.5t-61.5 2.5t-43.5 1q-62 0 -103 -2.5t-66 -5.5t-53 -8q-8 0 -10 1.5t-2 12.5t5.5 33.5t13.5 45.5q11 9 22 14q41 20 87.5 41.5t90.5 45.5t81 50.5t59 55.5q28 37 52.5 73.5t45.5 66t38 48t29 18.5q9 0 17 -12t14 -29.5t9.5 -35.5t3.5 -30
t-2.5 -31.5t-6.5 -38t-9.5 -32.5t-10.5 -14q-6 0 -10.5 18.5t-10.5 40t-14 40t-20 18.5q-8 0 -26.5 -24t-40.5 -56t-44 -63t-35 -46q-15 -17 -43 -38t-64 -44q24 -2 51.5 -3t54.5 -2.5t51 -2t42 -0.5q37 0 86.5 -0.5t94.5 -1t79 -1t40 -0.5t9 -8q-10 -32 -16.5 -50
t-20.5 -52q-27 -8 -51 -15t-60.5 -20.5t-87.5 -35.5q-34 -15 -74.5 -36.5t-81.5 -51t-80 -66.5t-68.5 -83t-47.5 -102t-18 -123q0 -77 27.5 -133t72.5 -95t102 -62.5t117 -37t117 -18t101 -4.5q45 0 101 4.5t109 9.5t95 9.5t59 4.5l8 -3q-48 -28 -84.5 -44.5t-80.5 -35
t-84.5 -34.5t-71.5 -27t-42 -13q-70 0 -140.5 5t-135.5 20t-121.5 42.5t-98 73.5t-65 111.5t-23.5 157.5q0 106 20.5 187t55.5 144.5t81.5 113.5t99.5 94q7 6 19 14.5t24.5 16.5t25.5 16t22 14zM603 1002l100 -70l-50 -105l-101 70zM437 971l101 -69l-51 -105l-100 69z" />
    <glyph glyph-name="uniFC0D" unicode="&#xfe97;&#xfea6;" horiz-adv-x="861" arabic-form="isolated" 
d="M524 183q-14 1 -43 3t-61 3.5t-61.5 2.5t-43.5 1q-62 0 -103 -2.5t-66 -5.5t-53 -8q-8 0 -10 1.5t-2 12.5t5.5 33.5t13.5 45.5q11 9 22 14q41 20 87.5 41.5t90.5 45.5t81 50.5t59 55.5q28 37 52.5 73.5t45.5 66t38 48t29 18.5q9 0 17 -12t14 -29.5t9.5 -35.5t3.5 -30
t-2.5 -31.5t-6.5 -38t-9.5 -32.5t-10.5 -14q-6 0 -10.5 18.5t-10.5 40t-14 40t-20 18.5q-8 0 -26.5 -24t-40.5 -56t-44 -63t-35 -46q-15 -17 -43 -38t-64 -44q24 -2 51.5 -3t54.5 -2.5t51 -2t42 -0.5q37 0 86.5 -0.5t94.5 -1t79 -1t40 -0.5t9 -8q-10 -32 -16.5 -50
t-20.5 -52q-27 -8 -51 -15t-60.5 -20.5t-87.5 -35.5q-34 -15 -74.5 -36.5t-81.5 -51t-80 -66.5t-68.5 -83t-47.5 -102t-18 -123q0 -77 27.5 -133t72.5 -95t102 -62.5t117 -37t117 -18t101 -4.5q45 0 101 4.5t109 9.5t95 9.5t59 4.5l8 -3q-48 -28 -84.5 -44.5t-80.5 -35
t-84.5 -34.5t-71.5 -27t-42 -13q-70 0 -140.5 5t-135.5 20t-121.5 42.5t-98 73.5t-65 111.5t-23.5 157.5q0 106 20.5 187t55.5 144.5t81.5 113.5t99.5 94q7 6 19 14.5t24.5 16.5t25.5 16t22 14zM633 996l100 -70l-50 -105l-101 70zM467 965l101 -69l-51 -105l-100 69z
M176 647l101 -69l-51 -105l-100 69z" />
    <glyph glyph-name="uniFC0E" unicode="&#xfe97;&#xfee2;" horiz-adv-x="772" arabic-form="isolated" 
d="M771 511q0 -6 -2 -22.5t-5 -34.5t-9 -52q-2 -5 -8 -5l-6 4q-3 19 -15 29.5t-29.5 15.5t-38 6t-40.5 1q-39 0 -78.5 -10.5t-79 -28t-77.5 -40.5t-74 -50q35 -10 70 -27t62.5 -34t61.5 -49q0 -10 -4 -28.5t-9.5 -37.5t-21.5 -48q-4 -2 -29 -4t-60.5 -5.5t-77 -9t-78 -15
t-63.5 -23.5t-34 -34q-4 -11 -5.5 -19t-1.5 -24q0 -19 4.5 -60t11 -93.5t14.5 -111.5t14.5 -114.5t11 -102.5t4.5 -75q0 -18 -0.5 -38t-2 -37t-4.5 -28t-8 -11t-10 25t-10 58t-9.5 65.5t-7.5 48.5q-11 54 -19.5 113.5t-14.5 116.5t-9.5 106.5t-3.5 84.5q0 52 7.5 92
t18.5 69.5t24 47.5t25 27q18 15 41.5 23.5t44.5 13t50 10.5q-16 7 -27 9t-24 4t-23 2q-15 0 -23.5 -1.5t-14.5 -4t-10.5 -4t-9.5 -1.5q-7 0 -7 14q0 7 2 19t6.5 26t12.5 28t20 26q43 43 95.5 88.5t110 83t119.5 61.5t124 24q20 0 42.5 -1t42 -7t32 -18t12.5 -33zM628 973
l100 -70l-50 -105l-101 70zM462 942l101 -69l-51 -105l-100 69z" />
    <glyph glyph-name="uniFC0F" unicode="&#xfe97;&#xfef0;" horiz-adv-x="987" arabic-form="isolated" 
d="M398 -233q78 0 155.5 23t145 54.5t119 65t78.5 55.5q13 11 21.5 26t9.5 21q-28 22 -46 28q-12 4 -34 7.5t-48.5 6.5t-54.5 5.5t-52.5 5t-42 4t-22.5 2.5q-12 1 -12 7q1 5 4.5 13.5t10 26t18.5 48.5q3 6 8 8q19 5 27.5 7.5t28.5 7.5q12 4 30.5 13t36.5 21t31.5 27t15.5 31
q0 21 -11.5 45.5t-28 47.5t-34 42.5t-29.5 31.5q-4 7 -4 14q0 13 2.5 32t6.5 37t9 32t10 18q38 -38 60.5 -72.5t42 -82t19.5 -104.5q0 -25 -6.5 -48.5t-16 -44.5t-20.5 -39t-20 -32q30 -5 56 -10.5t43 -10.5q42 -11 61 -32.5t21 -48.5q-2 -20 -5 -43t-8.5 -46t-13.5 -43
t-20 -33q-15 -17 -46.5 -42t-74.5 -52.5t-95 -55.5t-107.5 -50t-112.5 -35.5t-110 -13.5q-60 0 -112.5 22t-91.5 63.5t-61 102.5t-22 139q0 60 17.5 115t39.5 96t41.5 65.5t24.5 24.5l4 -5q0 -6 -11.5 -27.5t-25.5 -52.5t-25 -68.5t-11 -74.5q1 -73 24 -125t58 -85.5t76 -49
t79 -15.5zM762 903l100 -70l-50 -105l-101 70zM596 872l101 -69l-51 -105l-100 69z" />
    <glyph glyph-name="uniFC10" unicode="&#xfe97;&#xfef2;" horiz-adv-x="987" arabic-form="isolated" 
d="M398 -233q78 0 155.5 23t145 54.5t119 65t78.5 55.5q13 11 21.5 26t9.5 21q-28 22 -46 28q-12 4 -34 7.5t-48.5 6.5t-54.5 5.5t-52.5 5t-42 4t-22.5 2.5q-12 1 -12 7q1 5 4.5 13.5t10 26t18.5 48.5q3 6 8 8q19 5 27.5 7.5t28.5 7.5q12 4 30.5 13t36.5 21t31.5 27t15.5 31
q0 21 -11.5 45.5t-28 47.5t-34 42.5t-29.5 31.5q-4 7 -4 14q0 13 2.5 32t6.5 37t9 32t10 18q38 -38 60.5 -72.5t42 -82t19.5 -104.5q0 -25 -6.5 -48.5t-16 -44.5t-20.5 -39t-20 -32q30 -5 56 -10.5t43 -10.5q42 -11 61 -32.5t21 -48.5q-2 -20 -5 -43t-8.5 -46t-13.5 -43
t-20 -33q-15 -17 -46.5 -42t-74.5 -52.5t-95 -55.5t-107.5 -50t-112.5 -35.5t-110 -13.5q-60 0 -112.5 22t-91.5 63.5t-61 102.5t-22 139q0 60 17.5 115t39.5 96t41.5 65.5t24.5 24.5l4 -5q0 -6 -11.5 -27.5t-25.5 -52.5t-25 -68.5t-11 -74.5q1 -73 24 -125t58 -85.5t76 -49
t79 -15.5zM762 903l100 -70l-50 -105l-101 70zM596 872l101 -69l-51 -105l-100 69zM621 -396l100 -70l-50 -105l-101 70zM455 -427l101 -69l-51 -105l-100 69z" />
    <glyph glyph-name="uniFC11" unicode="&#xfe9b;&#xfe9e;" horiz-adv-x="861" arabic-form="isolated" 
d="M524 183q-14 1 -43 3t-61 3.5t-61.5 2.5t-43.5 1q-62 0 -103 -2.5t-66 -5.5t-53 -8q-8 0 -10 1.5t-2 12.5t5.5 33.5t13.5 45.5q11 9 22 14q41 20 87.5 41.5t90.5 45.5t81 50.5t59 55.5q28 37 52.5 73.5t45.5 66t38 48t29 18.5q9 0 17 -12t14 -29.5t9.5 -35.5t3.5 -30
t-2.5 -31.5t-6.5 -38t-9.5 -32.5t-10.5 -14q-6 0 -10.5 18.5t-10.5 40t-14 40t-20 18.5q-8 0 -26.5 -24t-40.5 -56t-44 -63t-35 -46q-15 -17 -43 -38t-64 -44q24 -2 51.5 -3t54.5 -2.5t51 -2t42 -0.5q37 0 86.5 -0.5t94.5 -1t79 -1t40 -0.5t9 -8q-10 -32 -16.5 -50
t-20.5 -52q-27 -8 -51 -15t-60.5 -20.5t-87.5 -35.5q-34 -15 -74.5 -36.5t-81.5 -51t-80 -66.5t-68.5 -83t-47.5 -102t-18 -123q0 -77 27.5 -133t72.5 -95t102 -62.5t117 -37t117 -18t101 -4.5q45 0 101 4.5t109 9.5t95 9.5t59 4.5l8 -3q-48 -28 -84.5 -44.5t-80.5 -35
t-84.5 -34.5t-71.5 -27t-42 -13q-70 0 -140.5 5t-135.5 20t-121.5 42.5t-98 73.5t-65 111.5t-23.5 157.5q0 106 20.5 187t55.5 144.5t81.5 113.5t99.5 94q7 6 19 14.5t24.5 16.5t25.5 16t22 14zM621 1007l100 -70l-50 -105l-101 70zM448 980l101 -69l-51 -105l-100 69z
M502 1156l100 -69l-50 -105l-101 69zM570 -203l101 -69l-51 -105l-100 69z" />
    <glyph glyph-name="uniFC12" unicode="&#xfe9b;&#xfee2;" horiz-adv-x="772" arabic-form="isolated" 
d="M771 511q0 -6 -2 -22.5t-5 -34.5t-9 -52q-2 -5 -8 -5l-6 4q-3 19 -15 29.5t-29.5 15.5t-38 6t-40.5 1q-39 0 -78.5 -10.5t-79 -28t-77.5 -40.5t-74 -50q35 -10 70 -27t62.5 -34t61.5 -49q0 -10 -4 -28.5t-9.5 -37.5t-21.5 -48q-4 -2 -29 -4t-60.5 -5.5t-77 -9t-78 -15
t-63.5 -23.5t-34 -34q-4 -11 -5.5 -19t-1.5 -24q0 -19 4.5 -60t11 -93.5t14.5 -111.5t14.5 -114.5t11 -102.5t4.5 -75q0 -18 -0.5 -38t-2 -37t-4.5 -28t-8 -11t-10 25t-10 58t-9.5 65.5t-7.5 48.5q-11 54 -19.5 113.5t-14.5 116.5t-9.5 106.5t-3.5 84.5q0 52 7.5 92
t18.5 69.5t24 47.5t25 27q18 15 41.5 23.5t44.5 13t50 10.5q-16 7 -27 9t-24 4t-23 2q-15 0 -23.5 -1.5t-14.5 -4t-10.5 -4t-9.5 -1.5q-7 0 -7 14q0 7 2 19t6.5 26t12.5 28t20 26q43 43 95.5 88.5t110 83t119.5 61.5t124 24q20 0 42.5 -1t42 -7t32 -18t12.5 -33zM639 976
l100 -70l-50 -105l-101 70zM466 949l101 -69l-51 -105l-100 69zM520 1125l100 -69l-50 -105l-101 69z" />
    <glyph glyph-name="uniFC13" unicode="&#xfe9b;&#xfef0;" horiz-adv-x="987" arabic-form="isolated" 
d="M398 -233q78 0 155.5 23t145 54.5t119 65t78.5 55.5q13 11 21.5 26t9.5 21q-28 22 -46 28q-12 4 -34 7.5t-48.5 6.5t-54.5 5.5t-52.5 5t-42 4t-22.5 2.5q-12 1 -12 7q1 5 4.5 13.5t10 26t18.5 48.5q3 6 8 8q19 5 27.5 7.5t28.5 7.5q12 4 30.5 13t36.5 21t31.5 27t15.5 31
q0 21 -11.5 45.5t-28 47.5t-34 42.5t-29.5 31.5q-4 7 -4 14q0 13 2.5 32t6.5 37t9 32t10 18q38 -38 60.5 -72.5t42 -82t19.5 -104.5q0 -25 -6.5 -48.5t-16 -44.5t-20.5 -39t-20 -32q30 -5 56 -10.5t43 -10.5q42 -11 61 -32.5t21 -48.5q-2 -20 -5 -43t-8.5 -46t-13.5 -43
t-20 -33q-15 -17 -46.5 -42t-74.5 -52.5t-95 -55.5t-107.5 -50t-112.5 -35.5t-110 -13.5q-60 0 -112.5 22t-91.5 63.5t-61 102.5t-22 139q0 60 17.5 115t39.5 96t41.5 65.5t24.5 24.5l4 -5q0 -6 -11.5 -27.5t-25.5 -52.5t-25 -68.5t-11 -74.5q1 -73 24 -125t58 -85.5t76 -49
t79 -15.5zM760 860l100 -70l-50 -105l-101 70zM587 833l101 -69l-51 -105l-100 69zM641 1009l100 -69l-50 -105l-101 69z" />
    <glyph glyph-name="uniFC14" unicode="&#xfe9b;&#xfef2;" horiz-adv-x="987" arabic-form="isolated" 
d="M398 -233q78 0 155.5 23t145 54.5t119 65t78.5 55.5q13 11 21.5 26t9.5 21q-28 22 -46 28q-12 4 -34 7.5t-48.5 6.5t-54.5 5.5t-52.5 5t-42 4t-22.5 2.5q-12 1 -12 7q1 5 4.5 13.5t10 26t18.5 48.5q3 6 8 8q19 5 27.5 7.5t28.5 7.5q12 4 30.5 13t36.5 21t31.5 27t15.5 31
q0 21 -11.5 45.5t-28 47.5t-34 42.5t-29.5 31.5q-4 7 -4 14q0 13 2.5 32t6.5 37t9 32t10 18q38 -38 60.5 -72.5t42 -82t19.5 -104.5q0 -25 -6.5 -48.5t-16 -44.5t-20.5 -39t-20 -32q30 -5 56 -10.5t43 -10.5q42 -11 61 -32.5t21 -48.5q-2 -20 -5 -43t-8.5 -46t-13.5 -43
t-20 -33q-15 -17 -46.5 -42t-74.5 -52.5t-95 -55.5t-107.5 -50t-112.5 -35.5t-110 -13.5q-60 0 -112.5 22t-91.5 63.5t-61 102.5t-22 139q0 60 17.5 115t39.5 96t41.5 65.5t24.5 24.5l4 -5q0 -6 -11.5 -27.5t-25.5 -52.5t-25 -68.5t-11 -74.5q1 -73 24 -125t58 -85.5t76 -49
t79 -15.5zM760 860l100 -70l-50 -105l-101 70zM587 833l101 -69l-51 -105l-100 69zM641 1009l100 -69l-50 -105l-101 69zM621 -402l100 -70l-50 -105l-101 70zM455 -433l101 -69l-51 -105l-100 69z" />
    <glyph glyph-name="uniFC15" unicode="&#xfe9f;&#xfea2;" horiz-adv-x="1120" arabic-form="isolated" 
d="M68 191q4 24 17 48t32 40q31 27 73 53.5t86.5 50t87.5 42.5t78 31t72 22t72.5 17.5t66 12.5t53.5 7q-18 7 -45.5 20t-57.5 26t-60 22.5t-52 9.5q-7 0 -30.5 -4.5t-50.5 -10.5t-50.5 -10.5t-29.5 -4.5t-8 1t-2 6q7 24 12.5 37l11 26t9.5 20q7 14 24 24.5t37 17.5t41 10.5
t37 3.5q18 0 47 -12t62 -28t66 -33.5t58 -27.5q51 -21 99.5 -36t92 -25t79 -15.5t59.5 -6.5l10 -3q-7 -19 -11.5 -30t-10.5 -23.5t-10 -21.5q-5 -11 -6.5 -13t-9.5 -2q-42 9 -68 14t-54.5 9.5t-49.5 4.5q-20 0 -54 -4t-71.5 -10t-73 -13.5t-58.5 -13.5q-31 -9 -69 -21.5
t-78.5 -27.5t-81 -31t-74.5 -32q23 -1 51.5 -2.5t58 -3t56.5 -2.5t47 -1q37 0 86.5 -0.5t94.5 -1t79 -1t40 -0.5t9 -8q-10 -32 -16.5 -50t-20.5 -52q-26 -9 -50 -16.5t-61 -20.5t-88 -34q-38 -16 -79 -41t-80.5 -58t-75.5 -73.5t-62.5 -86.5t-42.5 -97t-16 -106
q0 -77 27.5 -133t72.5 -95t102 -62.5t117 -37t117 -18t101 -4.5q45 0 101 4.5t109 9.5t95 9.5t59 4.5l8 -3q-48 -28 -84.5 -44.5t-80.5 -35t-84.5 -34.5t-71.5 -27t-42 -13q-70 0 -140.5 5t-135.5 20t-121.5 42.5t-98 73.5t-65 111.5t-23.5 157.5q0 91 18 170t50 146
t76.5 122.5t98.5 100.5q10 8 23 17t26 17.5t24 15.5t17 11q-14 1 -42.5 3t-61 3.5t-61.5 2.5t-43 1q-62 0 -103 -2.5t-66 -5.5t-53 -8q-8 0 -10 3t-2 11zM949 275l101 -69l-51 -105l-100 69z" />
    <glyph glyph-name="uniFC16" unicode="&#xfe9f;&#xfee2;" horiz-adv-x="981" arabic-form="isolated" 
d="M254 446q7 24 12.5 37l11 26t9.5 20q7 14 24 24.5t37 17.5t41 10.5t37 3.5q18 0 47 -12t62 -28.5t65.5 -33.5t58.5 -27q103 -42 181.5 -60.5t126.5 -20.5l10 -3q-7 -19 -12 -30t-10.5 -23t-9.5 -22q-5 -11 -7.5 -13t-8.5 -2q-5 0 -27 4.5t-50.5 9.5t-58.5 9.5t-49 4.5
q-21 0 -46 -2t-49.5 -4.5t-46.5 -5.5t-38 -5q-52 -8 -97 -19t-87 -24q24 -11 48.5 -27t45 -31.5t45.5 -42.5q0 -10 -4 -28.5t-9.5 -37.5t-21.5 -48q-4 -2 -28.5 -4t-59.5 -5.5t-75.5 -9t-76.5 -15t-62.5 -23.5t-33.5 -34q-4 -11 -5.5 -19t-1.5 -24q0 -19 5 -57t12 -86
t16 -102t16 -105.5t12 -96t5 -72.5q0 -18 -0.5 -38t-2 -37t-4.5 -28t-8 -11t-10 25t-10 58t-9.5 65.5t-7.5 48.5q-11 53 -20.5 106.5t-17 103.5t-11.5 94t-4 79q0 52 7.5 92t18.5 69.5t24 47.5t25 27q18 15 41.5 23.5t44.5 13t50 10.5q-18 8 -30 11t-25 5.5t-21 2.5
q-29 0 -39 -2.5t-17 -2.5t-7 14q0 8 3 21t9.5 27.5t17.5 29.5t26 26q38 23 84 39t104 29q71 16 124 22t98 10q-18 7 -45.5 20t-57.5 26t-60 22.5t-52 9.5q-7 0 -30.5 -4.5t-50.5 -10.5t-50.5 -10.5t-29.5 -4.5t-8 1t-2 6zM663 -6l101 -69l-51 -105l-100 69z" />
    <glyph glyph-name="uniFC17" unicode="&#xfea3;&#xfe9e;" horiz-adv-x="1120" arabic-form="isolated" 
d="M68 191q4 24 17 48t32 40q31 27 73 53.5t86.5 50t87.5 42.5t78 31t72 22t72.5 17.5t66 12.5t53.5 7q-18 7 -45.5 20t-57.5 26t-60 22.5t-52 9.5q-7 0 -30.5 -4.5t-50.5 -10.5t-50.5 -10.5t-29.5 -4.5t-8 1t-2 6q7 24 12.5 37l11 26t9.5 20q7 14 24 24.5t37 17.5t41 10.5
t37 3.5q18 0 47 -12t62 -28t66 -33.5t58 -27.5q51 -21 99.5 -36t92 -25t79 -15.5t59.5 -6.5l10 -3q-7 -19 -11.5 -30t-10.5 -23.5t-10 -21.5q-5 -11 -6.5 -13t-9.5 -2q-42 9 -68 14t-54.5 9.5t-49.5 4.5q-20 0 -54 -4t-71.5 -10t-73 -13.5t-58.5 -13.5q-31 -9 -69 -21.5
t-78.5 -27.5t-81 -31t-74.5 -32q23 -1 51.5 -2.5t58 -3t56.5 -2.5t47 -1q37 0 86.5 -0.5t94.5 -1t79 -1t40 -0.5t9 -8q-10 -32 -16.5 -50t-20.5 -52q-26 -9 -50 -16.5t-61 -20.5t-88 -34q-38 -16 -79 -41t-80.5 -58t-75.5 -73.5t-62.5 -86.5t-42.5 -97t-16 -106
q0 -77 27.5 -133t72.5 -95t102 -62.5t117 -37t117 -18t101 -4.5q45 0 101 4.5t109 9.5t95 9.5t59 4.5l8 -3q-48 -28 -84.5 -44.5t-80.5 -35t-84.5 -34.5t-71.5 -27t-42 -13q-70 0 -140.5 5t-135.5 20t-121.5 42.5t-98 73.5t-65 111.5t-23.5 157.5q0 91 18 170t50 146
t76.5 122.5t98.5 100.5q10 8 23 17t26 17.5t24 15.5t17 11q-14 1 -42.5 3t-61 3.5t-61.5 2.5t-43 1q-62 0 -103 -2.5t-66 -5.5t-53 -8q-8 0 -10 3t-2 11zM570 -227l101 -69l-51 -105l-100 69z" />
    <glyph glyph-name="uniFC18" unicode="&#xfea3;&#xfee2;" horiz-adv-x="981" arabic-form="isolated" 
d="M254 446q7 24 12.5 37l11 26t9.5 20q7 14 24 24.5t37 17.5t41 10.5t37 3.5q18 0 47 -12t62 -28.5t65.5 -33.5t58.5 -27q103 -42 181.5 -60.5t126.5 -20.5l10 -3q-7 -19 -12 -30t-10.5 -23t-9.5 -22q-5 -11 -7.5 -13t-8.5 -2q-5 0 -27 4.5t-50.5 9.5t-58.5 9.5t-49 4.5
q-21 0 -46 -2t-49.5 -4.5t-46.5 -5.5t-38 -5q-52 -8 -97 -19t-87 -24q24 -11 48.5 -27t45 -31.5t45.5 -42.5q0 -10 -4 -28.5t-9.5 -37.5t-21.5 -48q-4 -2 -28.5 -4t-59.5 -5.5t-75.5 -9t-76.5 -15t-62.5 -23.5t-33.5 -34q-4 -11 -5.5 -19t-1.5 -24q0 -19 5 -57t12 -86
t16 -102t16 -105.5t12 -96t5 -72.5q0 -18 -0.5 -38t-2 -37t-4.5 -28t-8 -11t-10 25t-10 58t-9.5 65.5t-7.5 48.5q-11 53 -20.5 106.5t-17 103.5t-11.5 94t-4 79q0 52 7.5 92t18.5 69.5t24 47.5t25 27q18 15 41.5 23.5t44.5 13t50 10.5q-18 8 -30 11t-25 5.5t-21 2.5
q-29 0 -39 -2.5t-17 -2.5t-7 14q0 8 3 21t9.5 27.5t17.5 29.5t26 26q38 23 84 39t104 29q71 16 124 22t98 10q-18 7 -45.5 20t-57.5 26t-60 22.5t-52 9.5q-7 0 -30.5 -4.5t-50.5 -10.5t-50.5 -10.5t-29.5 -4.5t-8 1t-2 6z" />
    <glyph glyph-name="uniFC19" unicode="&#xfea7;&#xfe9e;" horiz-adv-x="1120" arabic-form="isolated" 
d="M68 191q4 24 17 48t32 40q31 27 73 53.5t86.5 50t87.5 42.5t78 31t72 22t72.5 17.5t66 12.5t53.5 7q-18 7 -45.5 20t-57.5 26t-60 22.5t-52 9.5q-7 0 -30.5 -4.5t-50.5 -10.5t-50.5 -10.5t-29.5 -4.5t-8 1t-2 6q7 24 12.5 37l11 26t9.5 20q7 14 24 24.5t37 17.5t41 10.5
t37 3.5q18 0 47 -12t62 -28t66 -33.5t58 -27.5q51 -21 99.5 -36t92 -25t79 -15.5t59.5 -6.5l10 -3q-7 -19 -11.5 -30t-10.5 -23.5t-10 -21.5q-5 -11 -6.5 -13t-9.5 -2q-42 9 -68 14t-54.5 9.5t-49.5 4.5q-20 0 -54 -4t-71.5 -10t-73 -13.5t-58.5 -13.5q-31 -9 -69 -21.5
t-78.5 -27.5t-81 -31t-74.5 -32q23 -1 51.5 -2.5t58 -3t56.5 -2.5t47 -1q37 0 86.5 -0.5t94.5 -1t79 -1t40 -0.5t9 -8q-10 -32 -16.5 -50t-20.5 -52q-26 -9 -50 -16.5t-61 -20.5t-88 -34q-38 -16 -79 -41t-80.5 -58t-75.5 -73.5t-62.5 -86.5t-42.5 -97t-16 -106
q0 -77 27.5 -133t72.5 -95t102 -62.5t117 -37t117 -18t101 -4.5q45 0 101 4.5t109 9.5t95 9.5t59 4.5l8 -3q-48 -28 -84.5 -44.5t-80.5 -35t-84.5 -34.5t-71.5 -27t-42 -13q-70 0 -140.5 5t-135.5 20t-121.5 42.5t-98 73.5t-65 111.5t-23.5 157.5q0 91 18 170t50 146
t76.5 122.5t98.5 100.5q10 8 23 17t26 17.5t24 15.5t17 11q-14 1 -42.5 3t-61 3.5t-61.5 2.5t-43 1q-62 0 -103 -2.5t-66 -5.5t-53 -8q-8 0 -10 3t-2 11zM570 -208l101 -69l-51 -105l-100 69zM583 1072l101 -69l-51 -105l-100 69z" />
    <glyph glyph-name="uniFC1A" unicode="&#xfea7;&#xfea2;" horiz-adv-x="1120" arabic-form="isolated" 
d="M68 191q4 24 17 48t32 40q31 27 73 53.5t86.5 50t87.5 42.5t78 31t72 22t72.5 17.5t66 12.5t53.5 7q-18 7 -45.5 20t-57.5 26t-60 22.5t-52 9.5q-7 0 -30.5 -4.5t-50.5 -10.5t-50.5 -10.5t-29.5 -4.5t-8 1t-2 6q7 24 12.5 37l11 26t9.5 20q7 14 24 24.5t37 17.5t41 10.5
t37 3.5q18 0 47 -12t62 -28t66 -33.5t58 -27.5q51 -21 99.5 -36t92 -25t79 -15.5t59.5 -6.5l10 -3q-7 -19 -11.5 -30t-10.5 -23.5t-10 -21.5q-5 -11 -6.5 -13t-9.5 -2q-42 9 -68 14t-54.5 9.5t-49.5 4.5q-20 0 -54 -4t-71.5 -10t-73 -13.5t-58.5 -13.5q-31 -9 -69 -21.5
t-78.5 -27.5t-81 -31t-74.5 -32q23 -1 51.5 -2.5t58 -3t56.5 -2.5t47 -1q37 0 86.5 -0.5t94.5 -1t79 -1t40 -0.5t9 -8q-10 -32 -16.5 -50t-20.5 -52q-26 -9 -50 -16.5t-61 -20.5t-88 -34q-38 -16 -79 -41t-80.5 -58t-75.5 -73.5t-62.5 -86.5t-42.5 -97t-16 -106
q0 -77 27.5 -133t72.5 -95t102 -62.5t117 -37t117 -18t101 -4.5q45 0 101 4.5t109 9.5t95 9.5t59 4.5l8 -3q-48 -28 -84.5 -44.5t-80.5 -35t-84.5 -34.5t-71.5 -27t-42 -13q-70 0 -140.5 5t-135.5 20t-121.5 42.5t-98 73.5t-65 111.5t-23.5 157.5q0 91 18 170t50 146
t76.5 122.5t98.5 100.5q10 8 23 17t26 17.5t24 15.5t17 11q-14 1 -42.5 3t-61 3.5t-61.5 2.5t-43 1q-62 0 -103 -2.5t-66 -5.5t-53 -8q-8 0 -10 3t-2 11zM585 1067l101 -69l-51 -105l-100 69z" />
    <glyph glyph-name="uniFC1B" unicode="&#xfea7;&#xfee2;" horiz-adv-x="981" arabic-form="isolated" 
d="M254 446q7 24 12.5 37l11 26t9.5 20q7 14 24 24.5t37 17.5t41 10.5t37 3.5q18 0 47 -12t62 -28.5t65.5 -33.5t58.5 -27q103 -42 181.5 -60.5t126.5 -20.5l10 -3q-7 -19 -12 -30t-10.5 -23t-9.5 -22q-5 -11 -7.5 -13t-8.5 -2q-5 0 -27 4.5t-50.5 9.5t-58.5 9.5t-49 4.5
q-21 0 -46 -2t-49.5 -4.5t-46.5 -5.5t-38 -5q-52 -8 -97 -19t-87 -24q24 -11 48.5 -27t45 -31.5t45.5 -42.5q0 -10 -4 -28.5t-9.5 -37.5t-21.5 -48q-4 -2 -28.5 -4t-59.5 -5.5t-75.5 -9t-76.5 -15t-62.5 -23.5t-33.5 -34q-4 -11 -5.5 -19t-1.5 -24q0 -19 5 -57t12 -86
t16 -102t16 -105.5t12 -96t5 -72.5q0 -18 -0.5 -38t-2 -37t-4.5 -28t-8 -11t-10 25t-10 58t-9.5 65.5t-7.5 48.5q-11 53 -20.5 106.5t-17 103.5t-11.5 94t-4 79q0 52 7.5 92t18.5 69.5t24 47.5t25 27q18 15 41.5 23.5t44.5 13t50 10.5q-18 8 -30 11t-25 5.5t-21 2.5
q-29 0 -39 -2.5t-17 -2.5t-7 14q0 8 3 21t9.5 27.5t17.5 29.5t26 26q38 23 84 39t104 29q71 16 124 22t98 10q-18 7 -45.5 20t-57.5 26t-60 22.5t-52 9.5q-7 0 -30.5 -4.5t-50.5 -10.5t-50.5 -10.5t-29.5 -4.5t-8 1t-2 6zM561 895l101 -69l-51 -105l-100 69z" />
    <glyph glyph-name="uniFC1C" unicode="&#xfeb3;&#xfe9e;" horiz-adv-x="1205" arabic-form="isolated" 
d="M1165 760q16 -33 22 -57t11 -51.5t5 -50.5q0 -34 -7 -66t-19.5 -57t-30 -40t-37.5 -15q-54 0 -103 16.5t-81 39.5q-29 -44 -80.5 -74t-119.5 -30q-41 0 -69 13t-47 33t-30.5 43t-19 43t-12.5 33t-10 13q-8 0 -24.5 -20.5t-35.5 -47.5t-38 -54.5t-32 -42.5
q-15 -17 -43 -38t-64 -44q24 -2 51.5 -3t54.5 -2.5t51 -2t42 -0.5q37 0 86.5 -0.5t94.5 -1t79 -1t40 -0.5t9 -8q-10 -32 -16.5 -50t-20.5 -52q-27 -7 -51 -14.5t-60.5 -20.5t-87.5 -36q-36 -16 -77.5 -39t-83.5 -53t-81 -68t-69 -84t-48 -100.5t-18 -117.5q0 -77 27.5 -133
t72.5 -95t102 -62.5t117 -37t117 -18t101 -4.5q45 0 101 4.5t109 9.5t95 9.5t59 4.5l8 -3q-48 -28 -84.5 -44.5t-80.5 -35t-84.5 -34.5t-71.5 -27t-42 -13q-70 0 -140.5 5t-135.5 20t-121.5 42.5t-98 73.5t-65 111.5t-23.5 157.5q0 102 21 182t57 144t84 115.5t102 97.5
q8 7 20.5 16t25.5 17.5t24.5 16t17.5 11.5q-14 1 -42.5 3t-60 3.5t-60.5 2.5t-43 1q-62 0 -102.5 -2.5t-65.5 -5.5t-37 -5.5t-17 -2.5q-8 0 -10 2t-2 12q0 11 5.5 33.5t13.5 45.5q17 11 22 14q41 20 87.5 41.5t90.5 45.5t81 50.5t59 55.5q24 33 44.5 66.5t38 60.5t33.5 44.5
t33 17.5q16 0 25.5 -12.5t17 -31t16.5 -40t23 -40t36.5 -31t57.5 -12.5q54 0 93 23t58 58q9 16 19 39.5t20 46t19.5 38.5t17.5 16q9 -18 9 -29q0 -22 -4 -47t-13 -57q28 -26 73 -40.5t87 -14.5q17 0 22.5 4t5.5 21q0 15 -4 29.5t-9.5 26.5t-9.5 21t-4 14q0 7 4 25.5t9 37.5
t19 49zM571 -215l101 -69l-51 -105l-100 69z" />
    <glyph glyph-name="uniFC1D" unicode="&#xfeb3;&#xfea2;" horiz-adv-x="1203" arabic-form="isolated" 
d="M1165 760q16 -33 22 -57t11 -51.5t5 -50.5q0 -34 -7 -66t-19.5 -57t-30 -40t-37.5 -15q-54 0 -103 16.5t-81 39.5q-29 -44 -80.5 -74t-119.5 -30q-41 0 -69 13t-47 33t-30.5 43t-19 43t-12.5 33t-10 13q-8 0 -24.5 -20.5t-35.5 -47.5t-38 -54.5t-32 -42.5
q-15 -17 -43 -38t-64 -44q24 -2 51.5 -3t54.5 -2.5t51 -2t42 -0.5q37 0 86.5 -0.5t94.5 -1t79 -1t40 -0.5t9 -8q-10 -32 -16.5 -50t-20.5 -52q-27 -7 -51 -14.5t-60.5 -20.5t-87.5 -36q-36 -16 -77.5 -39t-83.5 -53t-81 -68t-69 -84t-48 -100.5t-18 -117.5q0 -77 27.5 -133
t72.5 -95t102 -62.5t117 -37t117 -18t101 -4.5q45 0 101 4.5t109 9.5t95 9.5t59 4.5l8 -3q-48 -28 -84.5 -44.5t-80.5 -35t-84.5 -34.5t-71.5 -27t-42 -13q-70 0 -140.5 5t-135.5 20t-121.5 42.5t-98 73.5t-65 111.5t-23.5 157.5q0 102 21 182t57 144t84 115.5t102 97.5
q8 7 20.5 16t25.5 17.5t24.5 16t17.5 11.5q-14 1 -42.5 3t-60 3.5t-60.5 2.5t-43 1q-62 0 -102.5 -2.5t-65.5 -5.5t-37 -5.5t-17 -2.5q-8 0 -10 2t-2 12q0 11 5.5 33.5t13.5 45.5q17 11 22 14q41 20 87.5 41.5t90.5 45.5t81 50.5t59 55.5q24 33 44.5 66.5t38 60.5t33.5 44.5
t33 17.5q16 0 25.5 -12.5t17 -31t16.5 -40t23 -40t36.5 -31t57.5 -12.5q54 0 93 23t58 58q9 16 19 39.5t20 46t19.5 38.5t17.5 16q9 -18 9 -29q0 -22 -4 -47t-13 -57q28 -26 73 -40.5t87 -14.5q17 0 22.5 4t5.5 21q0 15 -4 29.5t-9.5 26.5t-9.5 21t-4 14q0 7 4 25.5t9 37.5
t19 49z" />
    <glyph glyph-name="uniFC1E" unicode="&#xfeb3;&#xfea6;" horiz-adv-x="1204" arabic-form="isolated" 
d="M1165 760q16 -33 22 -57t11 -51.5t5 -50.5q0 -34 -7 -66t-19.5 -57t-30 -40t-37.5 -15q-54 0 -103 16.5t-81 39.5q-29 -44 -80.5 -74t-119.5 -30q-41 0 -69 13t-47 33t-30.5 43t-19 43t-12.5 33t-10 13q-8 0 -24.5 -20.5t-35.5 -47.5t-38 -54.5t-32 -42.5
q-15 -17 -43 -38t-64 -44q24 -2 51.5 -3t54.5 -2.5t51 -2t42 -0.5q37 0 86.5 -0.5t94.5 -1t79 -1t40 -0.5t9 -8q-10 -32 -16.5 -50t-20.5 -52q-27 -7 -51 -14.5t-60.5 -20.5t-87.5 -36q-36 -16 -77.5 -39t-83.5 -53t-81 -68t-69 -84t-48 -100.5t-18 -117.5q0 -77 27.5 -133
t72.5 -95t102 -62.5t117 -37t117 -18t101 -4.5q45 0 101 4.5t109 9.5t95 9.5t59 4.5l8 -3q-48 -28 -84.5 -44.5t-80.5 -35t-84.5 -34.5t-71.5 -27t-42 -13q-70 0 -140.5 5t-135.5 20t-121.5 42.5t-98 73.5t-65 111.5t-23.5 157.5q0 102 21 182t57 144t84 115.5t102 97.5
q8 7 20.5 16t25.5 17.5t24.5 16t17.5 11.5q-14 1 -42.5 3t-60 3.5t-60.5 2.5t-43 1q-62 0 -102.5 -2.5t-65.5 -5.5t-37 -5.5t-17 -2.5q-8 0 -10 2t-2 12q0 11 5.5 33.5t13.5 45.5q17 11 22 14q41 20 87.5 41.5t90.5 45.5t81 50.5t59 55.5q24 33 44.5 66.5t38 60.5t33.5 44.5
t33 17.5q16 0 25.5 -12.5t17 -31t16.5 -40t23 -40t36.5 -31t57.5 -12.5q54 0 93 23t58 58q9 16 19 39.5t20 46t19.5 38.5t17.5 16q9 -18 9 -29q0 -22 -4 -47t-13 -57q28 -26 73 -40.5t87 -14.5q17 0 22.5 4t5.5 21q0 15 -4 29.5t-9.5 26.5t-9.5 21t-4 14q0 7 4 25.5t9 37.5
t19 49zM193 859l101 -69l-51 -105l-100 69z" />
    <glyph glyph-name="uniFC1F" unicode="&#xfeb3;&#xfee2;" horiz-adv-x="1265" arabic-form="isolated" 
d="M603 522q25 0 42.5 -10t31.5 -25.5t26 -33t26.5 -33t33 -25.5t45.5 -10q61 0 101.5 24.5t59.5 59.5q9 16 18.5 39.5t19 46t18.5 38.5t17 16q9 -18 9 -29q0 -22 -4 -47t-13 -57q28 -26 73 -40.5t87 -14.5q17 0 22.5 4t5.5 21q0 15 -4 29.5t-9.5 26.5t-9.5 21t-4 14
q0 7 4 25.5t9 37.5t19 49q16 -33 22 -57t11 -52t5 -50q0 -34 -7 -66t-19.5 -57t-30 -40t-37.5 -15q-54 0 -103 16.5t-81 39.5q-32 -48 -84 -76t-136 -28q-30 0 -53 11.5t-41.5 28t-33 36.5t-29 36.5t-29.5 28t-33 11.5q-22 0 -53 -9.5t-63.5 -26t-62.5 -38t-50 -45.5
q31 -8 66.5 -25t66 -35t71.5 -52q0 -10 -4 -28.5t-9.5 -37.5t-21.5 -48q-4 -2 -29 -4t-60.5 -5.5t-77 -9t-78 -15t-63.5 -23.5t-34 -34q-4 -11 -5.5 -19t-1.5 -24q0 -19 5 -57.5t12.5 -87.5t16.5 -103.5t16.5 -106.5t12.5 -96.5t5 -73.5q0 -18 -0.5 -38t-2 -37t-4.5 -28
t-8 -11t-10 25t-10 58t-9.5 65.5t-7.5 48.5q-11 54 -21 108.5t-17.5 105.5t-12 95.5t-4.5 79.5q0 52 7.5 92t18.5 69.5t24 47.5t25 27q18 15 41.5 23.5t44.5 13t50 10.5q-16 7 -27.5 10t-23.5 5t-20 2q-15 0 -22 -1t-11.5 -1.5t-9 -1.5t-13.5 -1q-7 0 -7 14q0 24 21 58
t53 66q24 24 66 59t91 67.5t100.5 55.5t94.5 23z" />
    <glyph glyph-name="uniFC20" unicode="&#xfebb;&#xfea2;" horiz-adv-x="1377" arabic-form="isolated" 
d="M607 660q17 0 23.5 -17t14.5 -44q2 -6 5.5 -15.5t8 -19t9 -18t9.5 -12.5q14 -12 29 -21.5t49 -19.5q32 42 68.5 84.5t68.5 71.5q82 74 165 120.5t158 46.5q34 0 63.5 -14.5t51.5 -35t34.5 -41.5t12.5 -33q0 -53 -27 -108q-17 -35 -47 -74.5t-85.5 -73.5t-142.5 -56
t-218 -22q-95 0 -143 15q-10 -11 -18.5 -23.5t-15.5 -22.5l-11 -10q-10 0 -10 11q0 12 7 28t16 30q-26 13 -44.5 29t-29.5 40q-8 17 -15.5 41.5t-14.5 50.5q-2 7 -9 7q-8 0 -27 -23.5t-40.5 -55t-43 -62t-34.5 -45.5q-15 -17 -43 -38t-64 -44q24 -2 51.5 -3t54.5 -2.5t51 -2
t42 -0.5q37 0 86.5 -0.5t94.5 -1t79 -1t40 -0.5t9 -8q-10 -32 -16.5 -50t-20.5 -52q-27 -8 -51 -15.5t-60.5 -20.5t-87.5 -35q-36 -16 -79.5 -39.5t-87 -54.5t-84.5 -69t-73 -82t-51 -93.5t-19 -103.5q0 -77 27.5 -133t72.5 -95t102 -62.5t117 -37t117 -18t101 -4.5
q45 0 101 4.5t109 9.5t95 9.5t59 4.5l8 -3q-48 -28 -84.5 -44.5t-80.5 -35t-84.5 -34.5t-71.5 -27t-42 -13q-70 0 -140.5 5t-135.5 20t-121.5 42.5t-98 73.5t-65 111.5t-23.5 157.5q0 97 22.5 174t61 139t88.5 111t105 91q9 7 22 16.5t26.5 19t25.5 17.5l18 12
q-14 1 -42.5 3t-60 3.5t-60.5 2.5t-43 1q-62 0 -103 -2.5t-66 -5.5t-53 -8q-8 0 -10 1.5t-2 12.5t5.5 33.5t13.5 45.5q11 9 22 14q41 20 87.5 41.5t90.5 45.5t81 50.5t59 55.5q24 33 46.5 68.5t42.5 65.5t38 49.5t35 19.5zM807 482q15 -2 35 -3t40 -1q75 0 140.5 9t119.5 24
t94.5 35.5t65.5 43.5q-9 14 -21.5 32t-28.5 34t-35.5 27t-43.5 11q-18 0 -46 -6t-59 -18t-63 -28.5t-59 -37.5q-39 -30 -74.5 -61.5t-64.5 -60.5z" />
    <glyph glyph-name="uniFC21" unicode="&#xfebb;&#xfee2;" horiz-adv-x="1416" arabic-form="isolated" 
d="M647 270q-13 20 -22.5 38.5t-20 32t-23 21.5t-31.5 8q-22 0 -53 -9.5t-63.5 -26t-62.5 -38t-50 -45.5q31 -8 66.5 -25t66 -35t71.5 -52q0 -10 -4 -28.5t-9.5 -37.5t-21.5 -48q-4 -2 -29 -4t-60.5 -5.5t-77 -9t-78 -15t-63.5 -23.5t-34 -34q-4 -11 -5.5 -19t-1.5 -24
q0 -19 4 -54t10.5 -78.5t14 -92t14 -95t10.5 -88t4 -69.5q0 -18 -0.5 -38t-2 -37t-4.5 -28t-8 -11t-10 25t-10 58t-9.5 65.5t-7.5 48.5q-22 108 -33 190t-11 151q0 52 7.5 92t18.5 69.5t24 47.5t25 27q18 15 41.5 23.5t44.5 13t50 10.5q-16 7 -27.5 10t-23.5 5t-20 2
q-15 0 -22 -1t-11.5 -1.5t-9 -1.5t-13.5 -1q-7 0 -7 14q0 24 21 58t53 66q24 24 66 59t91.5 67.5t101 55.5t93.5 23q29 0 46.5 -17t33.5 -41t34.5 -49.5t50.5 -41.5q17 -6 25 -9q32 42 68.5 83t67.5 70q40 37 82 68t84 53t82.5 34t78.5 12q33 0 61.5 -15t50 -35.5t34 -42.5
t12.5 -35q0 -49 -27 -104q-17 -35 -47.5 -74.5t-86 -73.5t-143 -56t-217.5 -22q-48 0 -83.5 5t-59.5 13q-15 -20 -25 -35.5t-17 -27.5l-11 -10q-10 0 -10 11q0 12 7.5 32t22.5 42q-19 10 -38 23.5t-34 36.5zM849 307q15 -2 33 -3t38 -1q75 0 141 8t120.5 22.5t95 34.5
t64.5 44q-8 13 -20 31t-28.5 34t-36.5 27.5t-44 11.5q-18 0 -46 -6t-59 -18t-63 -28.5t-59 -37.5q-39 -30 -73 -60t-63 -59z" />
    <glyph glyph-name="uniFC22" unicode="&#xfebf;&#xfe9e;" horiz-adv-x="1375" arabic-form="isolated" 
d="M607 660q17 0 23.5 -17t14.5 -44q2 -6 5.5 -15.5t8 -19t9 -18t9.5 -12.5q14 -12 29 -21.5t49 -19.5q32 42 68.5 84.5t68.5 71.5q82 74 165 120.5t158 46.5q34 0 63.5 -14.5t51.5 -35t34.5 -41.5t12.5 -33q0 -53 -27 -108q-17 -35 -47 -74.5t-85.5 -73.5t-142.5 -56
t-218 -22q-95 0 -143 15q-10 -11 -18.5 -23.5t-15.5 -22.5l-11 -10q-10 0 -10 11q0 12 7 28t16 30q-26 13 -44.5 29t-29.5 40q-8 17 -15.5 41.5t-14.5 50.5q-2 7 -9 7q-8 0 -27 -23.5t-40.5 -55t-43 -62t-34.5 -45.5q-15 -17 -43 -38t-64 -44q24 -2 51.5 -3t54.5 -2.5t51 -2
t42 -0.5q37 0 86.5 -0.5t94.5 -1t79 -1t40 -0.5t9 -8q-10 -32 -16.5 -50t-20.5 -52q-27 -8 -51 -15.5t-60.5 -20.5t-87.5 -35q-36 -16 -79.5 -39.5t-87 -54.5t-84.5 -69t-73 -82t-51 -93.5t-19 -103.5q0 -77 27.5 -133t72.5 -95t102 -62.5t117 -37t117 -18t101 -4.5
q45 0 101 4.5t109 9.5t95 9.5t59 4.5l8 -3q-48 -28 -84.5 -44.5t-80.5 -35t-84.5 -34.5t-71.5 -27t-42 -13q-70 0 -140.5 5t-135.5 20t-121.5 42.5t-98 73.5t-65 111.5t-23.5 157.5q0 97 22.5 174t61 139t88.5 111t105 91q9 7 22 16.5t26.5 19t25.5 17.5l18 12
q-14 1 -42.5 3t-60 3.5t-60.5 2.5t-43 1q-62 0 -103 -2.5t-66 -5.5t-53 -8q-8 0 -10 1.5t-2 12.5t5.5 33.5t13.5 45.5q11 9 22 14q41 20 87.5 41.5t90.5 45.5t81 50.5t59 55.5q24 33 46.5 68.5t42.5 65.5t38 49.5t35 19.5zM807 482q15 -2 35 -3t40 -1q75 0 140.5 9t119.5 24
t94.5 35.5t65.5 43.5q-9 14 -21.5 32t-28.5 34t-35.5 27t-43.5 11q-18 0 -46 -6t-59 -18t-63 -28.5t-59 -37.5q-39 -30 -74.5 -61.5t-64.5 -60.5zM569 -229l101 -69l-51 -105l-100 69zM833 1091l101 -69l-51 -105l-100 69z" />
    <glyph glyph-name="uniFC23" unicode="&#xfebf;&#xfea2;" horiz-adv-x="1375" arabic-form="isolated" 
d="M607 660q17 0 23.5 -17t14.5 -44q2 -6 5.5 -15.5t8 -19t9 -18t9.5 -12.5q14 -12 29 -21.5t49 -19.5q32 42 68.5 84.5t68.5 71.5q82 74 165 120.5t158 46.5q34 0 63.5 -14.5t51.5 -35t34.5 -41.5t12.5 -33q0 -53 -27 -108q-17 -35 -47 -74.5t-85.5 -73.5t-142.5 -56
t-218 -22q-95 0 -143 15q-10 -11 -18.5 -23.5t-15.5 -22.5l-11 -10q-10 0 -10 11q0 12 7 28t16 30q-26 13 -44.5 29t-29.5 40q-8 17 -15.5 41.5t-14.5 50.5q-2 7 -9 7q-8 0 -27 -23.5t-40.5 -55t-43 -62t-34.5 -45.5q-15 -17 -43 -38t-64 -44q24 -2 51.5 -3t54.5 -2.5t51 -2
t42 -0.5q37 0 86.5 -0.5t94.5 -1t79 -1t40 -0.5t9 -8q-10 -32 -16.5 -50t-20.5 -52q-27 -8 -51 -15.5t-60.5 -20.5t-87.5 -35q-36 -16 -79.5 -39.5t-87 -54.5t-84.5 -69t-73 -82t-51 -93.5t-19 -103.5q0 -77 27.5 -133t72.5 -95t102 -62.5t117 -37t117 -18t101 -4.5
q45 0 101 4.5t109 9.5t95 9.5t59 4.5l8 -3q-48 -28 -84.5 -44.5t-80.5 -35t-84.5 -34.5t-71.5 -27t-42 -13q-70 0 -140.5 5t-135.5 20t-121.5 42.5t-98 73.5t-65 111.5t-23.5 157.5q0 97 22.5 174t61 139t88.5 111t105 91q9 7 22 16.5t26.5 19t25.5 17.5l18 12
q-14 1 -42.5 3t-60 3.5t-60.5 2.5t-43 1q-62 0 -103 -2.5t-66 -5.5t-53 -8q-8 0 -10 1.5t-2 12.5t5.5 33.5t13.5 45.5q11 9 22 14q41 20 87.5 41.5t90.5 45.5t81 50.5t59 55.5q24 33 46.5 68.5t42.5 65.5t38 49.5t35 19.5zM807 482q15 -2 35 -3t40 -1q75 0 140.5 9t119.5 24
t94.5 35.5t65.5 43.5q-9 14 -21.5 32t-28.5 34t-35.5 27t-43.5 11q-18 0 -46 -6t-59 -18t-63 -28.5t-59 -37.5q-39 -30 -74.5 -61.5t-64.5 -60.5zM845 1113l101 -69l-51 -105l-100 69z" />
    <glyph glyph-name="uniFC24" unicode="&#xfebf;&#xfea6;" horiz-adv-x="1375" arabic-form="isolated" 
d="M607 660q17 0 23.5 -17t14.5 -44q2 -6 5.5 -15.5t8 -19t9 -18t9.5 -12.5q14 -12 29 -21.5t49 -19.5q32 42 68.5 84.5t68.5 71.5q82 74 165 120.5t158 46.5q34 0 63.5 -14.5t51.5 -35t34.5 -41.5t12.5 -33q0 -53 -27 -108q-17 -35 -47 -74.5t-85.5 -73.5t-142.5 -56
t-218 -22q-95 0 -143 15q-10 -11 -18.5 -23.5t-15.5 -22.5l-11 -10q-10 0 -10 11q0 12 7 28t16 30q-26 13 -44.5 29t-29.5 40q-8 17 -15.5 41.5t-14.5 50.5q-2 7 -9 7q-8 0 -27 -23.5t-40.5 -55t-43 -62t-34.5 -45.5q-15 -17 -43 -38t-64 -44q24 -2 51.5 -3t54.5 -2.5t51 -2
t42 -0.5q37 0 86.5 -0.5t94.5 -1t79 -1t40 -0.5t9 -8q-10 -32 -16.5 -50t-20.5 -52q-27 -8 -51 -15.5t-60.5 -20.5t-87.5 -35q-36 -16 -79.5 -39.5t-87 -54.5t-84.5 -69t-73 -82t-51 -93.5t-19 -103.5q0 -77 27.5 -133t72.5 -95t102 -62.5t117 -37t117 -18t101 -4.5
q45 0 101 4.5t109 9.5t95 9.5t59 4.5l8 -3q-48 -28 -84.5 -44.5t-80.5 -35t-84.5 -34.5t-71.5 -27t-42 -13q-70 0 -140.5 5t-135.5 20t-121.5 42.5t-98 73.5t-65 111.5t-23.5 157.5q0 97 22.5 174t61 139t88.5 111t105 91q9 7 22 16.5t26.5 19t25.5 17.5l18 12
q-14 1 -42.5 3t-60 3.5t-60.5 2.5t-43 1q-62 0 -103 -2.5t-66 -5.5t-53 -8q-8 0 -10 1.5t-2 12.5t5.5 33.5t13.5 45.5q11 9 22 14q41 20 87.5 41.5t90.5 45.5t81 50.5t59 55.5q24 33 46.5 68.5t42.5 65.5t38 49.5t35 19.5zM807 482q15 -2 35 -3t40 -1q75 0 140.5 9t119.5 24
t94.5 35.5t65.5 43.5q-9 14 -21.5 32t-28.5 34t-35.5 27t-43.5 11q-18 0 -46 -6t-59 -18t-63 -28.5t-59 -37.5q-39 -30 -74.5 -61.5t-64.5 -60.5zM185 779l101 -69l-51 -105l-100 69zM875 1092l101 -69l-51 -105l-100 69z" />
    <glyph glyph-name="uniFC25" unicode="&#xfebf;&#xfee2;" horiz-adv-x="1416" arabic-form="isolated" 
d="M647 270q-13 20 -22.5 38.5t-20 32t-23 21.5t-31.5 8q-22 0 -53 -9.5t-63.5 -26t-62.5 -38t-50 -45.5q31 -8 66.5 -25t66 -35t71.5 -52q0 -10 -4 -28.5t-9.5 -37.5t-21.5 -48q-4 -2 -29 -4t-60.5 -5.5t-77 -9t-78 -15t-63.5 -23.5t-34 -34q-4 -11 -5.5 -19t-1.5 -24
q0 -19 4 -54t10.5 -78.5t14 -92t14 -95t10.5 -88t4 -69.5q0 -18 -0.5 -38t-2 -37t-4.5 -28t-8 -11t-10 25t-10 58t-9.5 65.5t-7.5 48.5q-22 108 -33 190t-11 151q0 52 7.5 92t18.5 69.5t24 47.5t25 27q18 15 41.5 23.5t44.5 13t50 10.5q-16 7 -27.5 10t-23.5 5t-20 2
q-15 0 -22 -1t-11.5 -1.5t-9 -1.5t-13.5 -1q-7 0 -7 14q0 24 21 58t53 66q24 24 66 59t91.5 67.5t101 55.5t93.5 23q29 0 46.5 -17t33.5 -41t34.5 -49.5t50.5 -41.5q17 -6 25 -9q32 42 68.5 83t67.5 70q40 37 82 68t84 53t82.5 34t78.5 12q33 0 61.5 -15t50 -35.5t34 -42.5
t12.5 -35q0 -49 -27 -104q-17 -35 -47.5 -74.5t-86 -73.5t-143 -56t-217.5 -22q-48 0 -83.5 5t-59.5 13q-15 -20 -25 -35.5t-17 -27.5l-11 -10q-10 0 -10 11q0 12 7.5 32t22.5 42q-19 10 -38 23.5t-34 36.5zM849 307q15 -2 33 -3t38 -1q75 0 141 8t120.5 22.5t95 34.5
t64.5 44q-8 13 -20 31t-28.5 34t-36.5 27.5t-44 11.5q-18 0 -46 -6t-59 -18t-63 -28.5t-59 -37.5q-39 -30 -73 -60t-63 -59zM993 911l101 -69l-51 -105l-100 69z" />
    <glyph glyph-name="uniFC29" unicode="&#xfecb;&#xfe9e;" horiz-adv-x="906" arabic-form="isolated" 
d="M565 980q30 0 51.5 -3t38.5 -8t31.5 -12.5t30.5 -17.5q32 -20 47.5 -36.5t15.5 -24.5q0 -5 -1 -7t-6 -2q-22 9 -35 14.5t-28 10t-30 4.5q-45 0 -88.5 -11t-79 -26t-59 -30t-28.5 -24l-1 -10q0 -11 4 -22.5t11 -23.5q16 -26 38.5 -46t49 -34.5t55 -23t57.5 -10.5
q30 13 70.5 32.5t79 37.5t67 31t34.5 13q7 0 9 -6q-12 -41 -20 -63t-16 -40.5t-12 -20.5q-33 -16 -86.5 -39t-111 -48t-110 -49t-84.5 -40q-18 -9 -37.5 -18.5t-39.5 -20.5q22 -1 46 -2.5t47.5 -2.5t44.5 -1.5t38 -0.5q37 0 86.5 -0.5t94.5 -1t79 -1t40 -0.5t9 -8
q-10 -32 -16.5 -50t-20.5 -52q-26 -9 -50 -16.5t-61 -20.5t-88 -34q-35 -14 -79 -42.5t-89.5 -68.5t-89.5 -90.5t-78 -108t-54.5 -121.5t-20.5 -131q0 -77 27.5 -133t72.5 -95t102 -62.5t117 -37t117 -18t101 -4.5q45 0 101 4.5t109 9.5t95 9.5t59 4.5l8 -3
q-48 -28 -84.5 -44.5t-80.5 -35t-84.5 -34.5t-71.5 -27t-42 -13q-70 0 -140.5 5t-135.5 20t-121.5 42.5t-98 73.5t-65 111.5t-23.5 157.5q0 107 25.5 201.5t67.5 175t95.5 146.5t109.5 116q6 6 17.5 14.5t24 17.5t24 17t17.5 12q-14 1 -41.5 3t-58.5 3.5t-59 2.5t-42 1
q-62 0 -103 -2.5t-66 -5.5t-53 -8q-8 0 -10 3t-2 11t4.5 20.5t18.5 39.5q9 17 24 29t33 23q25 16 62.5 39t78 47t79.5 46.5t68 37.5q-41 22 -64.5 40.5t-35.5 35.5t-15 34.5t-3 37.5q0 48 17.5 94t44.5 82.5t60 59t65 22.5zM632 -163l101 -69l-51 -105l-100 69z" />
    <glyph glyph-name="uniFC2A" unicode="&#xfecb;&#xfee2;" horiz-adv-x="849" arabic-form="isolated" 
d="M532 792q31 0 52.5 -4t38 -11t30 -16.5t28.5 -20.5q26 -20 42 -39t16 -27t-8 -8q-21 11 -33.5 18t-27 12.5t-29.5 5.5q-52 0 -96 -7.5t-76.5 -17.5t-53.5 -20.5t-26 -17.5l-11 -19q0 -23 12 -47q14 -27 35 -49t46 -38.5t53 -27t57 -14.5q20 7 46 17t53.5 20.5t54.5 21
t48.5 19t55.5 18.5q7 -1 9 -7q-15 -40 -24.5 -61.5t-32.5 -58.5q-35 -15 -86.5 -32t-106 -35t-105 -35.5t-82.5 -33.5q24 -12 44.5 -24.5t35 -23.5t31.5 -30q0 -10 -4 -28.5t-9.5 -37.5t-21.5 -48q-4 -2 -29 -4t-60.5 -5.5t-77 -9t-78 -15t-63.5 -23.5t-34 -34
q-4 -11 -5.5 -19t-1.5 -24q0 -19 4.5 -58.5t11 -89.5t14.5 -106.5t14.5 -109.5t11 -99t4.5 -74q0 -18 -0.5 -38t-2 -37t-4.5 -28t-8 -11t-10 25t-10 58t-9.5 65.5t-7.5 48.5q-11 54 -19.5 110.5t-14.5 109.5t-9.5 99.5t-3.5 81.5q0 52 7.5 92t18.5 69.5t24 47.5t25 27
q18 15 41.5 23.5t44.5 13t50 10.5q-17 8 -29 11t-25 5.5t-22 2.5q-29 0 -56 -5q-7 0 -7 14q0 9 4 23t12.5 29.5t21.5 30t31 23.5q12 6 35 16t50.5 21t56 21.5t51.5 18.5q-39 25 -60 45t-31.5 38t-12.5 35.5t-2 37.5q3 48 23.5 92t50 77.5t64.5 54t67 20.5z" />
    <glyph glyph-name="uniFC2B" unicode="&#xfecf;&#xfe9e;" horiz-adv-x="902" arabic-form="isolated" 
d="M565 980q30 0 51.5 -3t38.5 -8t31.5 -12.5t30.5 -17.5q32 -20 47.5 -36.5t15.5 -24.5q0 -5 -1 -7t-6 -2q-22 9 -35 14.5t-28 10t-30 4.5q-45 0 -88.5 -11t-79 -26t-59 -30t-28.5 -24l-1 -10q0 -11 4 -22.5t11 -23.5q16 -26 38.5 -46t49 -34.5t55 -23t57.5 -10.5
q30 13 70.5 32.5t79 37.5t67 31t34.5 13q7 0 9 -6q-12 -41 -20 -63t-16 -40.5t-12 -20.5q-33 -16 -86.5 -39t-111 -48t-110 -49t-84.5 -40q-18 -9 -37.5 -18.5t-39.5 -20.5q22 -1 46 -2.5t47.5 -2.5t44.5 -1.5t38 -0.5q37 0 86.5 -0.5t94.5 -1t79 -1t40 -0.5t9 -8
q-10 -32 -16.5 -50t-20.5 -52q-26 -9 -50 -16.5t-61 -20.5t-88 -34q-35 -14 -79 -42.5t-89.5 -68.5t-89.5 -90.5t-78 -108t-54.5 -121.5t-20.5 -131q0 -77 27.5 -133t72.5 -95t102 -62.5t117 -37t117 -18t101 -4.5q45 0 101 4.5t109 9.5t95 9.5t59 4.5l8 -3
q-48 -28 -84.5 -44.5t-80.5 -35t-84.5 -34.5t-71.5 -27t-42 -13q-70 0 -140.5 5t-135.5 20t-121.5 42.5t-98 73.5t-65 111.5t-23.5 157.5q0 107 25.5 201.5t67.5 175t95.5 146.5t109.5 116q6 6 17.5 14.5t24 17.5t24 17t17.5 12q-14 1 -41.5 3t-58.5 3.5t-59 2.5t-42 1
q-62 0 -103 -2.5t-66 -5.5t-53 -8q-8 0 -10 3t-2 11t4.5 20.5t18.5 39.5q9 17 24 29t33 23q25 16 62.5 39t78 47t79.5 46.5t68 37.5q-41 22 -64.5 40.5t-35.5 35.5t-15 34.5t-3 37.5q0 48 17.5 94t44.5 82.5t60 59t65 22.5zM632 -163l101 -69l-51 -105l-100 69zM473 1214
l101 -69l-51 -105l-100 69z" />
    <glyph glyph-name="uniFC2C" unicode="&#xfecf;&#xfee2;" horiz-adv-x="847" arabic-form="isolated" 
d="M532 792q31 0 52.5 -4t38 -11t30 -16.5t28.5 -20.5q26 -20 42 -39t16 -27t-8 -8q-21 11 -33.5 18t-27 12.5t-29.5 5.5q-52 0 -96 -7.5t-76.5 -17.5t-53.5 -20.5t-26 -17.5l-11 -19q0 -23 12 -47q14 -27 35 -49t46 -38.5t53 -27t57 -14.5q20 7 46 17t53.5 20.5t54.5 21
t48.5 19t55.5 18.5q7 -1 9 -7q-15 -40 -24.5 -61.5t-32.5 -58.5q-35 -15 -86.5 -32t-106 -35t-105 -35.5t-82.5 -33.5q24 -12 44.5 -24.5t35 -23.5t31.5 -30q0 -10 -4 -28.5t-9.5 -37.5t-21.5 -48q-4 -2 -29 -4t-60.5 -5.5t-77 -9t-78 -15t-63.5 -23.5t-34 -34
q-4 -11 -5.5 -19t-1.5 -24q0 -19 4.5 -58.5t11 -89.5t14.5 -106.5t14.5 -109.5t11 -99t4.5 -74q0 -18 -0.5 -38t-2 -37t-4.5 -28t-8 -11t-10 25t-10 58t-9.5 65.5t-7.5 48.5q-11 54 -19.5 110.5t-14.5 109.5t-9.5 99.5t-3.5 81.5q0 52 7.5 92t18.5 69.5t24 47.5t25 27
q18 15 41.5 23.5t44.5 13t50 10.5q-17 8 -29 11t-25 5.5t-22 2.5q-29 0 -56 -5q-7 0 -7 14q0 9 4 23t12.5 29.5t21.5 30t31 23.5q12 6 35 16t50.5 21t56 21.5t51.5 18.5q-39 25 -60 45t-31.5 38t-12.5 35.5t-2 37.5q3 48 23.5 92t50 77.5t64.5 54t67 20.5zM436 1041l101 -69
l-51 -105l-100 69z" />
    <glyph glyph-name="uniFC2D" unicode="&#xfed3;&#xfe9e;" horiz-adv-x="839" arabic-form="isolated" 
d="M497 551q0 -79 -9 -127.5t-27 -74.5q-8 -6 -17 -13t-20 -15q42 -3 79 -3q72 -2 148.5 -2.5t151.5 -0.5q6 0 9 -8q-10 -32 -16.5 -50t-20.5 -52q-27 -8 -51 -15t-60.5 -20t-87.5 -35q-59 -26 -126 -67t-124.5 -100.5t-95.5 -138t-38 -177.5q0 -77 27.5 -133t72.5 -95
t102 -62.5t117 -37t117 -18t101 -4.5q45 0 101 4.5t109 9.5t95 9.5t59 4.5l8 -3q-48 -28 -84.5 -44.5t-80.5 -35t-84.5 -34.5t-71.5 -27t-42 -13q-70 0 -140.5 5t-135.5 20t-121.5 42.5t-98 73.5t-65 111.5t-23.5 157.5q0 109 22.5 193.5t60 150.5t86.5 118t102 97
q9 7 23 17t28.5 19.5t27 18t18.5 12.5q-14 1 -38 2t-50 1.5t-51 0.5h-38q-62 0 -103 -2.5t-66 -5.5t-53 -8q-8 0 -10 3t-2 11t7.5 29t18.5 49q12 19 43 29q66 15 135.5 41t137.5 72q0 13 -2.5 35t-7.5 43t-12 36.5t-16 15.5l-3 -11q-5 -25 -18.5 -40.5t-31.5 -24.5
t-37.5 -12t-37.5 -3q-15 0 -30.5 8t-28 21.5t-21 31.5t-8.5 38t3.5 41.5t8.5 41.5t10.5 37.5t10.5 29.5q6 12 14.5 25.5t19.5 24.5t25 18t32 7q26 0 49.5 -9.5t40.5 -23.5q12 -10 26.5 -30t27.5 -48t21.5 -61.5t8.5 -70.5zM383 635q-18 19 -34.5 29t-34.5 10t-32 -10.5
t-23.5 -23.5t-18.5 -34q13 -12 27.5 -18t32.5 -6q15 0 29.5 7.5t26.5 17.5t27 28zM243 1084l101 -69l-51 -105l-100 69zM569 -221l101 -69l-51 -105l-100 69z" />
    <glyph glyph-name="uniFC2E" unicode="&#xfed3;&#xfea2;" horiz-adv-x="839" arabic-form="isolated" 
d="M497 551q0 -79 -9 -127.5t-27 -74.5q-8 -6 -17 -13t-20 -15q42 -3 79 -3q72 -2 148.5 -2.5t151.5 -0.5q6 0 9 -8q-10 -32 -16.5 -50t-20.5 -52q-27 -8 -51 -15t-60.5 -20t-87.5 -35q-59 -26 -126 -67t-124.5 -100.5t-95.5 -138t-38 -177.5q0 -77 27.5 -133t72.5 -95
t102 -62.5t117 -37t117 -18t101 -4.5q45 0 101 4.5t109 9.5t95 9.5t59 4.5l8 -3q-48 -28 -84.5 -44.5t-80.5 -35t-84.5 -34.5t-71.5 -27t-42 -13q-70 0 -140.5 5t-135.5 20t-121.5 42.5t-98 73.5t-65 111.5t-23.5 157.5q0 109 22.5 193.5t60 150.5t86.5 118t102 97
q9 7 23 17t28.5 19.5t27 18t18.5 12.5q-14 1 -38 2t-50 1.5t-51 0.5h-38q-62 0 -103 -2.5t-66 -5.5t-53 -8q-8 0 -10 3t-2 11t7.5 29t18.5 49q12 19 43 29q66 15 135.5 41t137.5 72q0 13 -2.5 35t-7.5 43t-12 36.5t-16 15.5l-3 -11q-5 -25 -18.5 -40.5t-31.5 -24.5
t-37.5 -12t-37.5 -3q-15 0 -30.5 8t-28 21.5t-21 31.5t-8.5 38t3.5 41.5t8.5 41.5t10.5 37.5t10.5 29.5q6 12 14.5 25.5t19.5 24.5t25 18t32 7q26 0 49.5 -9.5t40.5 -23.5q12 -10 26.5 -30t27.5 -48t21.5 -61.5t8.5 -70.5zM383 635q-18 19 -34.5 29t-34.5 10t-32 -10.5
t-23.5 -23.5t-18.5 -34q13 -12 27.5 -18t32.5 -6q15 0 29.5 7.5t26.5 17.5t27 28zM240 1084l101 -69l-51 -105l-100 69z" />
    <glyph glyph-name="uniFC2F" unicode="&#xfed3;&#xfea6;" horiz-adv-x="839" arabic-form="isolated" 
d="M497 551q0 -79 -9 -127.5t-27 -74.5q-8 -6 -17 -13t-20 -15q42 -3 79 -3q72 -2 148.5 -2.5t151.5 -0.5q6 0 9 -8q-10 -32 -16.5 -50t-20.5 -52q-27 -8 -51 -15t-60.5 -20t-87.5 -35q-59 -26 -126 -67t-124.5 -100.5t-95.5 -138t-38 -177.5q0 -77 27.5 -133t72.5 -95
t102 -62.5t117 -37t117 -18t101 -4.5q45 0 101 4.5t109 9.5t95 9.5t59 4.5l8 -3q-48 -28 -84.5 -44.5t-80.5 -35t-84.5 -34.5t-71.5 -27t-42 -13q-70 0 -140.5 5t-135.5 20t-121.5 42.5t-98 73.5t-65 111.5t-23.5 157.5q0 109 22.5 193.5t60 150.5t86.5 118t102 97
q9 7 23 17t28.5 19.5t27 18t18.5 12.5q-14 1 -38 2t-50 1.5t-51 0.5h-38q-62 0 -103 -2.5t-66 -5.5t-53 -8q-8 0 -10 3t-2 11t7.5 29t18.5 49q12 19 43 29q66 15 135.5 41t137.5 72q0 13 -2.5 35t-7.5 43t-12 36.5t-16 15.5l-3 -11q-5 -25 -18.5 -40.5t-31.5 -24.5
t-37.5 -12t-37.5 -3q-15 0 -30.5 8t-28 21.5t-21 31.5t-8.5 38t3.5 41.5t8.5 41.5t10.5 37.5t10.5 29.5q6 12 14.5 25.5t19.5 24.5t25 18t32 7q26 0 49.5 -9.5t40.5 -23.5q12 -10 26.5 -30t27.5 -48t21.5 -61.5t8.5 -70.5zM383 635q-18 19 -34.5 29t-34.5 10t-32 -10.5
t-23.5 -23.5t-18.5 -34q13 -12 27.5 -18t32.5 -6q15 0 29.5 7.5t26.5 17.5t27 28zM232 1084l101 -69l-51 -105l-100 69zM27 592l101 -69l-51 -105l-100 69z" />
    <glyph glyph-name="uniFC30" unicode="&#xfed3;&#xfee2;" horiz-adv-x="535" arabic-form="isolated" 
d="M328 801q19 0 42 -7.5t39 -18.5q21 -14 43.5 -37t40.5 -57t29.5 -79t11.5 -103q0 -47 -15.5 -83.5t-36.5 -63.5t-42 -46t-33 -32q21 -13 39.5 -25.5t33 -23.5t31.5 -30q0 -10 -4 -28.5t-9.5 -37.5t-21.5 -48q-4 -2 -28.5 -4t-59.5 -5.5t-75.5 -9t-76.5 -15t-62.5 -23.5
t-33.5 -34q-4 -11 -5.5 -19t-1.5 -24q0 -19 5 -57t12 -86t16 -102t16 -105.5t12 -96t5 -72.5q0 -18 -0.5 -38t-2 -37t-4.5 -28t-8 -11t-10 25t-10 58t-9.5 65.5t-7.5 48.5q-11 53 -20.5 106.5t-17 103.5t-11.5 94t-4 79q0 52 7.5 92t18.5 69.5t24 47.5t25 27
q18 15 41.5 23.5t44.5 13t50 10.5q-18 8 -30 11t-25 5.5t-21 2.5q-29 0 -39 -2.5t-17 -2.5t-7 14q0 8 3 21t9.5 27.5t17.5 29.5t26 26q34 15 77 28t77 27q16 7 35.5 16.5t36.5 21.5t29 26t14 30q0 42 -19.5 81t-50.5 65q-2 -12 -3.5 -24t-3.5 -23q-5 -25 -18 -40.5
t-30.5 -24.5t-36.5 -12t-37 -3q-15 0 -30 8t-28 21.5t-21 31.5t-8 38q0 19 3 41t7.5 42.5t10.5 38t12 28.5q6 12 16 25.5t22 24.5t25.5 18t26.5 7zM391 643q-11 12 -20.5 19t-22.5 12.5t-26 5.5q-18 0 -31.5 -8.5t-23 -19.5t-15 -22t-7.5 -17q13 -12 27.5 -18t32.5 -6
q19 0 34.5 5t27 13t18 17.5t6.5 18.5zM260 1059l101 -69l-51 -105l-100 69z" />
    <glyph glyph-name="uniFC31" unicode="&#xfed3;&#xfef0;" horiz-adv-x="979" arabic-form="isolated" 
d="M707 648q19 0 42 -7.5t39 -18.5q21 -14 43.5 -37t40.5 -57t29.5 -79t11.5 -103q0 -47 -10.5 -77t-25.5 -50t-31.5 -33t-28.5 -25q18 -5 43 -9.5t42 -9.5q44 -12 60.5 -34t18.5 -49q-2 -20 -5 -43t-8.5 -46t-13.5 -43t-20 -33q-15 -17 -46.5 -42t-74.5 -52.5t-95 -55.5
t-107.5 -50t-112.5 -35.5t-110 -13.5q-60 0 -112.5 22t-91.5 63.5t-61 102.5t-22 139q0 57 17 111.5t38.5 96.5t41.5 67.5t25 25.5t5 -5t-11.5 -26.5t-25 -52t-25 -68.5t-11.5 -76q0 -73 23 -125t58 -85.5t76.5 -49t79.5 -15.5q78 0 155.5 23t145 54.5t119 65t78.5 55.5
q13 11 21.5 26t9.5 21q-6 6 -12.5 11t-17 9.5t-27 8.5t-42.5 9q-25 5 -53 9t-53 7.5t-44 6t-25 3.5q-12 1 -12 7q5 18 8.5 28t7.5 21t8 20q6 13 9 19t8 8q28 10 40.5 15t24 9.5t15.5 6.5q16 7 35 16.5t36 20.5t29 25t14 30q0 42 -19.5 81t-50.5 65q-2 -12 -3.5 -24t-3.5 -23
q-5 -25 -18 -40.5t-30.5 -24.5t-36.5 -12t-37 -3q-15 0 -30 8t-28 21.5t-21 31.5t-8 38q0 19 3 41t7.5 42.5t10.5 38t12 28.5q6 12 16 25.5t22 24.5t25.5 18t26.5 7zM770 489q-17 18 -34 28t-37 10q-19 0 -33.5 -10.5t-23.5 -23.5t-17 -34q13 -12 27.5 -18t32.5 -6
q19 0 34.5 7t26.5 16t24 31zM636 933l101 -69l-51 -105l-100 69z" />
    <glyph glyph-name="uniFC32" unicode="&#xfed3;&#xfef2;" horiz-adv-x="982" arabic-form="isolated" 
d="M707 648q19 0 42 -7.5t39 -18.5q21 -14 43.5 -37t40.5 -57t29.5 -79t11.5 -103q0 -47 -10.5 -77t-25.5 -50t-31.5 -33t-28.5 -25q18 -5 43 -9.5t42 -9.5q44 -12 60.5 -34t18.5 -49q-2 -20 -5 -43t-8.5 -46t-13.5 -43t-20 -33q-15 -17 -46.5 -42t-74.5 -52.5t-95 -55.5
t-107.5 -50t-112.5 -35.5t-110 -13.5q-60 0 -112.5 22t-91.5 63.5t-61 102.5t-22 139q0 57 17 111.5t38.5 96.5t41.5 67.5t25 25.5t5 -5t-11.5 -26.5t-25 -52t-25 -68.5t-11.5 -76q0 -73 23 -125t58 -85.5t76.5 -49t79.5 -15.5q78 0 155.5 23t145 54.5t119 65t78.5 55.5
q13 11 21.5 26t9.5 21q-6 6 -12.5 11t-17 9.5t-27 8.5t-42.5 9q-25 5 -53 9t-53 7.5t-44 6t-25 3.5q-12 1 -12 7q5 18 8.5 28t7.5 21t8 20q6 13 9 19t8 8q28 10 40.5 15t24 9.5t15.5 6.5q16 7 35 16.5t36 20.5t29 25t14 30q0 42 -19.5 81t-50.5 65q-2 -12 -3.5 -24t-3.5 -23
q-5 -25 -18 -40.5t-30.5 -24.5t-36.5 -12t-37 -3q-15 0 -30 8t-28 21.5t-21 31.5t-8 38q0 19 3 41t7.5 42.5t10.5 38t12 28.5q6 12 16 25.5t22 24.5t25.5 18t26.5 7zM770 489q-17 18 -34 28t-37 10q-19 0 -33.5 -10.5t-23.5 -23.5t-17 -34q13 -12 27.5 -18t32.5 -6
q19 0 34.5 7t26.5 16t24 31zM661 937l101 -69l-51 -105l-100 69zM616 -396l100 -70l-50 -105l-101 70zM450 -427l101 -69l-51 -105l-100 69z" />
    <glyph glyph-name="uniFC33" unicode="&#xfed7;&#xfea2;" horiz-adv-x="839" arabic-form="isolated" 
d="M497 551q0 -79 -9 -127.5t-27 -74.5q-8 -6 -17 -13t-20 -15q42 -3 79 -3q72 -2 148.5 -2.5t151.5 -0.5q6 0 9 -8q-10 -32 -16.5 -50t-20.5 -52q-27 -8 -51 -15t-60.5 -20t-87.5 -35q-59 -26 -126 -67t-124.5 -100.5t-95.5 -138t-38 -177.5q0 -77 27.5 -133t72.5 -95
t102 -62.5t117 -37t117 -18t101 -4.5q45 0 101 4.5t109 9.5t95 9.5t59 4.5l8 -3q-48 -28 -84.5 -44.5t-80.5 -35t-84.5 -34.5t-71.5 -27t-42 -13q-70 0 -140.5 5t-135.5 20t-121.5 42.5t-98 73.5t-65 111.5t-23.5 157.5q0 109 22.5 193.5t60 150.5t86.5 118t102 97
q9 7 23 17t28.5 19.5t27 18t18.5 12.5q-14 1 -38 2t-50 1.5t-51 0.5h-38q-62 0 -103 -2.5t-66 -5.5t-53 -8q-8 0 -10 3t-2 11t7.5 29t18.5 49q12 19 43 29q66 15 135.5 41t137.5 72q0 13 -2.5 35t-7.5 43t-12 36.5t-16 15.5l-3 -11q-5 -25 -18.5 -40.5t-31.5 -24.5
t-37.5 -12t-37.5 -3q-15 0 -30.5 8t-28 21.5t-21 31.5t-8.5 38t3.5 41.5t8.5 41.5t10.5 37.5t10.5 29.5q6 12 14.5 25.5t19.5 24.5t25 18t32 7q26 0 49.5 -9.5t40.5 -23.5q12 -10 26.5 -30t27.5 -48t21.5 -61.5t8.5 -70.5zM383 635q-18 19 -34.5 29t-34.5 10t-32 -10.5
t-23.5 -23.5t-18.5 -34q13 -12 27.5 -18t32.5 -6q15 0 29.5 7.5t26.5 17.5t27 28zM322 1119l100 -70l-50 -105l-101 70zM156 1088l101 -69l-51 -105l-100 69z" />
    <glyph glyph-name="uniFC34" unicode="&#xfed7;&#xfee2;" horiz-adv-x="535" arabic-form="isolated" 
d="M328 801q19 0 42 -7.5t39 -18.5q21 -14 43.5 -37t40.5 -57t29.5 -79t11.5 -103q0 -47 -15.5 -83.5t-36.5 -63.5t-42 -46t-33 -32q21 -13 39.5 -25.5t33 -23.5t31.5 -30q0 -10 -4 -28.5t-9.5 -37.5t-21.5 -48q-4 -2 -28.5 -4t-59.5 -5.5t-75.5 -9t-76.5 -15t-62.5 -23.5
t-33.5 -34q-4 -11 -5.5 -19t-1.5 -24q0 -19 5 -57t12 -86t16 -102t16 -105.5t12 -96t5 -72.5q0 -18 -0.5 -38t-2 -37t-4.5 -28t-8 -11t-10 25t-10 58t-9.5 65.5t-7.5 48.5q-11 53 -20.5 106.5t-17 103.5t-11.5 94t-4 79q0 52 7.5 92t18.5 69.5t24 47.5t25 27
q18 15 41.5 23.5t44.5 13t50 10.5q-18 8 -30 11t-25 5.5t-21 2.5q-29 0 -39 -2.5t-17 -2.5t-7 14q0 8 3 21t9.5 27.5t17.5 29.5t26 26q34 15 77 28t77 27q16 7 35.5 16.5t36.5 21.5t29 26t14 30q0 42 -19.5 81t-50.5 65q-2 -12 -3.5 -24t-3.5 -23q-5 -25 -18 -40.5
t-30.5 -24.5t-36.5 -12t-37 -3q-15 0 -30 8t-28 21.5t-21 31.5t-8 38q0 19 3 41t7.5 42.5t10.5 38t12 28.5q6 12 16 25.5t22 24.5t25.5 18t26.5 7zM391 643q-11 12 -20.5 19t-22.5 12.5t-26 5.5q-18 0 -31.5 -8.5t-23 -19.5t-15 -22t-7.5 -17q13 -12 27.5 -18t32.5 -6
q19 0 34.5 5t27 13t18 17.5t6.5 18.5zM352 1111l100 -70l-50 -105l-101 70zM186 1080l101 -69l-51 -105l-100 69z" />
    <glyph glyph-name="uniFC35" unicode="&#xfed7;&#xfef0;" horiz-adv-x="982" arabic-form="isolated" 
d="M707 648q19 0 42 -7.5t39 -18.5q21 -14 43.5 -37t40.5 -57t29.5 -79t11.5 -103q0 -47 -10.5 -77t-25.5 -50t-31.5 -33t-28.5 -25q18 -5 43 -9.5t42 -9.5q44 -12 60.5 -34t18.5 -49q-2 -20 -5 -43t-8.5 -46t-13.5 -43t-20 -33q-15 -17 -46.5 -42t-74.5 -52.5t-95 -55.5
t-107.5 -50t-112.5 -35.5t-110 -13.5q-60 0 -112.5 22t-91.5 63.5t-61 102.5t-22 139q0 57 17 111.5t38.5 96.5t41.5 67.5t25 25.5t5 -5t-11.5 -26.5t-25 -52t-25 -68.5t-11.5 -76q0 -73 23 -125t58 -85.5t76.5 -49t79.5 -15.5q78 0 155.5 23t145 54.5t119 65t78.5 55.5
q13 11 21.5 26t9.5 21q-6 6 -12.5 11t-17 9.5t-27 8.5t-42.5 9q-25 5 -53 9t-53 7.5t-44 6t-25 3.5q-12 1 -12 7q5 18 8.5 28t7.5 21t8 20q6 13 9 19t8 8q28 10 40.5 15t24 9.5t15.5 6.5q16 7 35 16.5t36 20.5t29 25t14 30q0 42 -19.5 81t-50.5 65q-2 -12 -3.5 -24t-3.5 -23
q-5 -25 -18 -40.5t-30.5 -24.5t-36.5 -12t-37 -3q-15 0 -30 8t-28 21.5t-21 31.5t-8 38q0 19 3 41t7.5 42.5t10.5 38t12 28.5q6 12 16 25.5t22 24.5t25.5 18t26.5 7zM770 489q-17 18 -34 28t-37 10q-19 0 -33.5 -10.5t-23.5 -23.5t-17 -34q13 -12 27.5 -18t32.5 -6
q19 0 34.5 7t26.5 16t24 31zM732 940l100 -70l-50 -105l-101 70zM566 909l101 -69l-51 -105l-100 69z" />
    <glyph glyph-name="uniFC36" unicode="&#xfed7;&#xfef2;" horiz-adv-x="982" arabic-form="isolated" 
d="M707 648q19 0 42 -7.5t39 -18.5q21 -14 43.5 -37t40.5 -57t29.5 -79t11.5 -103q0 -47 -10.5 -77t-25.5 -50t-31.5 -33t-28.5 -25q18 -5 43 -9.5t42 -9.5q44 -12 60.5 -34t18.5 -49q-2 -20 -5 -43t-8.5 -46t-13.5 -43t-20 -33q-15 -17 -46.5 -42t-74.5 -52.5t-95 -55.5
t-107.5 -50t-112.5 -35.5t-110 -13.5q-60 0 -112.5 22t-91.5 63.5t-61 102.5t-22 139q0 57 17 111.5t38.5 96.5t41.5 67.5t25 25.5t5 -5t-11.5 -26.5t-25 -52t-25 -68.5t-11.5 -76q0 -73 23 -125t58 -85.5t76.5 -49t79.5 -15.5q78 0 155.5 23t145 54.5t119 65t78.5 55.5
q13 11 21.5 26t9.5 21q-6 6 -12.5 11t-17 9.5t-27 8.5t-42.5 9q-25 5 -53 9t-53 7.5t-44 6t-25 3.5q-12 1 -12 7q5 18 8.5 28t7.5 21t8 20q6 13 9 19t8 8q28 10 40.5 15t24 9.5t15.5 6.5q16 7 35 16.5t36 20.5t29 25t14 30q0 42 -19.5 81t-50.5 65q-2 -12 -3.5 -24t-3.5 -23
q-5 -25 -18 -40.5t-30.5 -24.5t-36.5 -12t-37 -3q-15 0 -30 8t-28 21.5t-21 31.5t-8 38q0 19 3 41t7.5 42.5t10.5 38t12 28.5q6 12 16 25.5t22 24.5t25.5 18t26.5 7zM770 489q-17 18 -34 28t-37 10q-19 0 -33.5 -10.5t-23.5 -23.5t-17 -34q13 -12 27.5 -18t32.5 -6
q19 0 34.5 7t26.5 16t24 31zM736 967l100 -70l-50 -105l-101 70zM570 936l101 -69l-51 -105l-100 69zM616 -396l100 -70l-50 -105l-101 70zM450 -427l101 -69l-51 -105l-100 69z" />
    <glyph glyph-name="uniFC37" unicode="&#xfb90;&#xfe8e;" horiz-adv-x="700" arabic-form="isolated" 
d="M135 1068l5 -3q4 -6 8 -19.5t6 -24.5q8 -42 13 -86t9 -86q3 -29 6 -54t5.5 -51.5t5.5 -56.5t6 -69q7 18 13.5 31.5t11.5 23.5q16 28 51 59t84.5 65t111.5 70t133 74q46 25 99 53t105.5 55t101 51t86.5 42.5t91 37.5q0 -6 -3.5 -19.5t-8 -29t-10 -29t-9.5 -19.5
q-41 -24 -74.5 -41.5t-77.5 -40.5t-92 -47.5t-96.5 -50t-91.5 -48.5q-67 -36 -130.5 -75t-114.5 -74.5t-84 -64.5t-39 -45q20 -3 50.5 -14t66 -28.5t72.5 -41.5t70 -53t56.5 -54.5t39.5 -52.5t23.5 -57.5t7.5 -67.5q0 -32 -9 -62.5t-22.5 -56.5t-30 -45.5t-31.5 -28.5
t-36 -17.5t-45 -14.5t-49 -9.5t-49 -3.5q-32 0 -67 9t-58 30q-20 20 -32 49.5t-19 61.5q-5 23 -8 56t-5 59q-3 54 -8 115.5t-11 127.5t-12.5 134t-13.5 135q-4 32 -8 62.5t-9 61.5q-2 12 -6.5 31t-9.5 35q1 12 4 28.5t7.5 33t10 30.5t10.5 20zM293 440q-14 0 -37.5 8
t-44.5 36q5 -66 11.5 -123.5t11.5 -99.5q2 -14 6 -31t10 -33.5t13.5 -30.5t16.5 -23q22 -22 41.5 -28.5t50.5 -6.5q42 0 82 6.5t67 15.5q13 4 27 10.5t25 13.5t18.5 14.5t7.5 13.5q0 37 -28.5 77.5t-83.5 88.5q-26 22 -56 43t-56.5 37.5t-62.5 35.5q0 -5 -3.5 -14.5
t-15.5 -9.5z" />
    <glyph glyph-name="uniFC3B" unicode="&#xfb90;&#xfede;" horiz-adv-x="1301" arabic-form="isolated" 
d="M784 617q21 -3 53 -14t69.5 -29.5t75.5 -43t71 -54.5q33 -29 59.5 -56.5t46 -56.5t30 -61t10.5 -69q0 -32 -9 -62t-23.5 -56t-32.5 -45.5t-37 -29.5q-23 -12 -43.5 -21t-41 -15.5t-43 -9.5t-49.5 -3q-38 0 -73.5 14.5t-70.5 59.5q-11 14 -20 33t-16 41q1 -13 3 -34
t3.5 -45t2.5 -48.5t1 -44.5q-2 -33 -8 -64t-12 -51q-9 -29 -47.5 -66t-94 -70t-122 -55.5t-132.5 -22.5q-69 0 -116 26t-74.5 67.5t-37 87.5t-9.5 96q0 68 14 108.5t26 69t35 62.5q4 6 9 6q6 0 6 -10q0 -9 -9 -29.5t-17 -55.5t-8 -84t13.5 -89.5t42 -69t66.5 -45.5t80 -17
q55 0 113 18.5t107.5 46.5t86 61t49.5 62q0 19 -0.5 34t-1.5 23q-4 40 -11.5 114.5t-16 166t-17.5 192t-16.5 192t-12 166.5t-4.5 116q4 22 12 50.5t24 59.5q6 0 7.5 -5t3.5 -17q1 -10 2.5 -26.5t4.5 -41.5q9 -81 19 -176t20 -189q14 46 30 71q16 28 54 63.5t91 74.5
t118 79.5t135 78.5q46 25 106 56t123.5 63t125 62.5t110.5 54t117 48.5q0 -6 -3.5 -19.5t-8 -29t-8 -26t-11.5 -22.5q-58 -31 -102.5 -53.5t-100.5 -51t-114.5 -58t-114.5 -58.5t-99 -52q-67 -36 -133.5 -77t-121 -79t-91 -69t-42.5 -47zM920 107q42 0 82 8t67 17
q13 4 28.5 10.5t28.5 14t21.5 15.5t8.5 16q0 37 -37.5 82.5t-91.5 93.5q-23 20 -48 36t-46 27t-49 23q0 -5 -2.5 -13.5t-14.5 -8.5q-6 0 -24 6t-39 16.5t-40 23.5t-29 28q4 -35 8 -69t9 -66q3 -21 7 -45t8.5 -47t10.5 -43t12 -32q18 -38 50 -65.5t80 -27.5z" />
    <glyph glyph-name="uniFC3C" unicode="&#xfb90;&#xfee2;" horiz-adv-x="580" arabic-form="isolated" 
d="M145 743q20 -3 47.5 -15.5t57.5 -32t60.5 -44t56.5 -51.5q40 -41 65 -79.5t39.5 -72.5t19.5 -63.5t5 -52.5q0 -48 -19.5 -75t-54.5 -38q25 -12 46.5 -25t38 -24t35.5 -31q0 -10 -4 -28.5t-9.5 -37.5t-21.5 -48q-4 -2 -29 -4t-60.5 -5.5t-77 -9t-78 -15t-63.5 -23.5
t-34 -34q-4 -11 -5.5 -19t-1.5 -24q0 -19 4 -54t10.5 -78.5t14 -92t14 -95t10.5 -88t4 -69.5q0 -18 -0.5 -38t-2 -37t-4.5 -28t-8 -11t-10 25t-10 58t-9.5 65.5t-7.5 48.5q-22 108 -33 190t-11 151q0 52 7.5 92t18.5 69.5t24 47.5t25 27q18 15 41.5 23.5t44.5 13t50 10.5
q-17 8 -29 11t-25 5.5t-22 2.5q-29 0 -56 -5q-7 0 -7 14q0 9 6 25t17.5 32.5t28.5 30t40 16.5q12 1 28.5 3t33.5 4t32 4t23 4q23 4 39.5 11.5t16.5 21.5q0 25 -14 53.5t-35 56.5t-44.5 53.5t-41.5 44.5q-42 43 -103 76q0 -5 -2.5 -13.5t-14.5 -8.5q-11 0 -32.5 6t-43 19
t-37.5 33.5t-16 49.5q0 58 19.5 103.5t65 88.5t120 88.5t184.5 104.5q46 25 96.5 51.5t99.5 52t93.5 47.5t79.5 39t84 33q0 -6 -3.5 -19.5t-8 -29t-10 -29t-9.5 -19.5q-79 -44 -138 -74t-129 -66.5t-135 -71.5q-67 -36 -125.5 -70t-103.5 -63.5t-73 -53.5t-34 -40z" />
    <glyph glyph-name="uniFC3D" unicode="&#xfb90;&#xfbfd;" horiz-adv-x="999" arabic-form="isolated" 
d="M984 33q-2 -20 -4.5 -43t-7.5 -45.5t-13 -43t-20 -33.5q-16 -18 -48 -44t-74.5 -54t-94 -56.5t-106 -50.5t-110.5 -36t-107 -14q-74 0 -129.5 25.5t-92 70.5t-54.5 105.5t-18 130.5q0 57 17.5 111.5t39.5 96.5t42 67.5t25 25.5l4 -5q0 -6 -11.5 -27t-25.5 -52
t-25.5 -68.5t-11.5 -75.5q0 -69 20.5 -121t54 -87t76 -53t86.5 -18q78 0 155 23.5t144 55.5t119 66t79 55q11 8 21 22t12 21q-4 3 -17 11.5t-30 13.5q-14 4 -44 8.5t-62.5 8.5t-60.5 7t-36 3q-13 2 -17 5q0 9 2 21.5t5.5 25t8 23.5t8.5 17q38 12 71 23.5t59 24.5q6 3 13 9
t13.5 12.5t14.5 23.5q0 34 -11 65t-27.5 58.5t-36.5 51t-38 43.5q-21 22 -42 41t-38.5 32.5t-38.5 29.5q0 -5 -2.5 -13.5t-14.5 -8.5q-6 0 -24 6t-39 16.5t-40.5 23.5t-28.5 28q-20 33 -20 70q0 16 4 34t10.5 35.5t13.5 33.5t13 27q16 28 51 59t84.5 65t111.5 70t133 74
q46 25 99 53t105.5 55t101 51t86.5 42.5t91 37.5q0 -6 -3.5 -19.5t-8 -29t-10 -29t-9.5 -19.5q-43 -24 -76.5 -41.5t-77 -40t-91 -47.5t-96 -50.5t-91.5 -48.5q-67 -36 -130.5 -73t-114.5 -70.5t-84 -61t-39 -43.5q20 -3 51.5 -21.5t66.5 -44.5t69.5 -56t61.5 -56
q34 -33 57 -64t37.5 -64.5t21 -71.5t6.5 -84q0 -36 -16.5 -77.5t-40.5 -72.5q23 -2 44 -5t36 -7q36 -8 50 -23.5t14 -45.5z" />
    <glyph glyph-name="uniFC3E" unicode="&#xfb90;&#xfef2;" horiz-adv-x="1004" arabic-form="isolated" 
d="M984 33q-2 -20 -4.5 -43t-7.5 -45.5t-13 -43t-20 -33.5q-16 -18 -48 -44t-74.5 -54t-94 -56.5t-106 -50.5t-110.5 -36t-107 -14q-74 0 -129.5 25.5t-92 70.5t-54.5 105.5t-18 130.5q0 57 17.5 111.5t39.5 96.5t42 67.5t25 25.5l4 -5q0 -6 -11.5 -27t-25.5 -52
t-25.5 -68.5t-11.5 -75.5q0 -69 20.5 -121t54 -87t76 -53t86.5 -18q78 0 155 23.5t144 55.5t119 66t79 55q11 8 21 22t12 21q-4 3 -17 11.5t-30 13.5q-14 4 -44 8.5t-62.5 8.5t-60.5 7t-36 3q-13 2 -17 5q0 9 2 21.5t5.5 25t8 23.5t8.5 17q38 12 71 23.5t59 24.5q6 3 13 9
t13.5 12.5t14.5 23.5q0 34 -11 65t-27.5 58.5t-36.5 51t-38 43.5q-21 22 -42 41t-38.5 32.5t-38.5 29.5q0 -5 -2.5 -13.5t-14.5 -8.5q-6 0 -24 6t-39 16.5t-40.5 23.5t-28.5 28q-20 33 -20 70q0 16 4 34t10.5 35.5t13.5 33.5t13 27q16 28 51 59t84.5 65t111.5 70t133 74
q46 25 99 53t105.5 55t101 51t86.5 42.5t91 37.5q0 -6 -3.5 -19.5t-8 -29t-10 -29t-9.5 -19.5q-43 -24 -76.5 -41.5t-77 -40t-91 -47.5t-96 -50.5t-91.5 -48.5q-67 -36 -130.5 -73t-114.5 -70.5t-84 -61t-39 -43.5q20 -3 51.5 -21.5t66.5 -44.5t69.5 -56t61.5 -56
q34 -33 57 -64t37.5 -64.5t21 -71.5t6.5 -84q0 -36 -16.5 -77.5t-40.5 -72.5q23 -2 44 -5t36 -7q36 -8 50 -23.5t14 -45.5zM565 -396l100 -70l-50 -105l-101 70zM399 -427l101 -69l-51 -105l-100 69z" />
    <glyph glyph-name="uniFC3F" unicode="&#xfedf;&#xfe9e;" horiz-adv-x="855" arabic-form="isolated" 
d="M114 280q7 23 12.5 35.5t12.5 27t14 28.5q3 6 17.5 11t34 9.5t40.5 7.5t36 5q61 8 90 17t29 26q-2 22 -3.5 35.5t-4.5 38.5q-6 50 -16 107.5t-19 115t-16 111.5t-7 96q-11 13 -12 18q-3 5 -4 11t-1 14q0 9 1.5 23.5t6 32t11.5 36.5t22 40l3 -5q4 -20 10.5 -33t16 -23.5
t22 -20t27.5 -22.5q-2 -9 -5.5 -21.5t-7.5 -24.5t-8 -23t-7 -17q-4 -8 -9.5 -9t-10.5 -2q4 -55 12 -106t18 -113q15 -89 19.5 -136.5t4.5 -72.5q0 -32 -3.5 -57t-10.5 -48q32 -2 62 -3.5t53 -1.5q37 0 86.5 -0.5t94.5 -1t79 -1t40 -0.5t9 -8q-10 -32 -16.5 -50t-20.5 -52
q-27 -8 -51 -15t-60.5 -20.5t-87.5 -35.5q-34 -15 -78.5 -42.5t-92 -65.5t-93 -86t-81.5 -104.5t-58 -120.5t-22 -134q0 -77 27.5 -132.5t72.5 -94.5t102 -62.5t117 -36.5t117 -17.5t101 -4.5q45 0 101 4t109 9t95 9t59 4l8 -3q-48 -28 -84.5 -44.5t-80.5 -35t-84.5 -34.5
t-71.5 -27t-42 -13q-70 0 -140.5 5t-135.5 20t-121.5 42.5t-98 73.5t-65 111.5t-23.5 157.5q0 115 29 212.5t74 177t100.5 140t108.5 100.5q10 7 22.5 16t25 17.5t23.5 15.5t19 12q-14 1 -42.5 3t-61 3.5t-61.5 2.5t-43 1q-62 0 -103 -2.5t-66 -5.5t-53 -8q-8 0 -10 3t-2 11
zM562 -212l101 -69l-51 -105l-100 69z" />
    <glyph glyph-name="uniFC40" unicode="&#xfedf;&#xfea2;" horiz-adv-x="984" arabic-form="isolated" 
d="M114 280q7 23 12.5 35.5t12.5 27t14 28.5q3 6 17.5 11t34 9.5t40.5 7.5t36 5q61 8 90 17t29 26q-2 22 -3.5 35.5t-4.5 38.5q-6 50 -16 107.5t-19 115t-16 111.5t-7 96q-11 13 -12 18q-3 5 -4 11t-1 14q0 9 1.5 23.5t6 32t11.5 36.5t22 40l3 -5q4 -20 10.5 -33t16 -23.5
t22 -20t27.5 -22.5q-2 -9 -5.5 -21.5t-7.5 -24.5t-8 -23t-7 -17q-4 -8 -9.5 -9t-10.5 -2q4 -55 12 -106t18 -113q15 -89 19.5 -136.5t4.5 -72.5q0 -32 -3.5 -57t-10.5 -48q32 -2 62 -3.5t53 -1.5q37 0 86.5 -0.5t94.5 -1t79 -1t40 -0.5t9 -8q-10 -32 -16.5 -50t-20.5 -52
q-27 -8 -51 -15t-60.5 -20.5t-87.5 -35.5q-34 -15 -78.5 -42.5t-92 -65.5t-93 -86t-81.5 -104.5t-58 -120.5t-22 -134q0 -77 27.5 -132.5t72.5 -94.5t102 -62.5t117 -36.5t117 -17.5t101 -4.5q45 0 101 4t109 9t95 9t59 4l8 -3q-48 -28 -84.5 -44.5t-80.5 -35t-84.5 -34.5
t-71.5 -27t-42 -13q-70 0 -140.5 5t-135.5 20t-121.5 42.5t-98 73.5t-65 111.5t-23.5 157.5q0 115 29 212.5t74 177t100.5 140t108.5 100.5q10 7 22.5 16t25 17.5t23.5 15.5t19 12q-14 1 -42.5 3t-61 3.5t-61.5 2.5t-43 1q-62 0 -103 -2.5t-66 -5.5t-53 -8q-8 0 -10 3t-2 11
z" />
    <glyph glyph-name="uniFC41" unicode="&#xfedf;&#xfea6;" horiz-adv-x="963" arabic-form="isolated" 
d="M114 280q7 23 12.5 35.5t12.5 27t14 28.5q3 6 17.5 11t34 9.5t40.5 7.5t36 5q61 8 90 17t29 26q-2 22 -3.5 35.5t-4.5 38.5q-6 50 -16 107.5t-19 115t-16 111.5t-7 96q-11 13 -12 18q-3 5 -4 11t-1 14q0 9 1.5 23.5t6 32t11.5 36.5t22 40l3 -5q4 -20 10.5 -33t16 -23.5
t22 -20t27.5 -22.5q-2 -9 -5.5 -21.5t-7.5 -24.5t-8 -23t-7 -17q-4 -8 -9.5 -9t-10.5 -2q4 -55 12 -106t18 -113q15 -89 19.5 -136.5t4.5 -72.5q0 -32 -3.5 -57t-10.5 -48q32 -2 62 -3.5t53 -1.5q37 0 86.5 -0.5t94.5 -1t79 -1t40 -0.5t9 -8q-10 -32 -16.5 -50t-20.5 -52
q-27 -8 -51 -15t-60.5 -20.5t-87.5 -35.5q-34 -15 -78.5 -42.5t-92 -65.5t-93 -86t-81.5 -104.5t-58 -120.5t-22 -134q0 -77 27.5 -132.5t72.5 -94.5t102 -62.5t117 -36.5t117 -17.5t101 -4.5q45 0 101 4t109 9t95 9t59 4l8 -3q-48 -28 -84.5 -44.5t-80.5 -35t-84.5 -34.5
t-71.5 -27t-42 -13q-70 0 -140.5 5t-135.5 20t-121.5 42.5t-98 73.5t-65 111.5t-23.5 157.5q0 115 29 212.5t74 177t100.5 140t108.5 100.5q10 7 22.5 16t25 17.5t23.5 15.5t19 12q-14 1 -42.5 3t-61 3.5t-61.5 2.5t-43 1q-62 0 -103 -2.5t-66 -5.5t-53 -8q-8 0 -10 3t-2 11
zM172 678l101 -69l-51 -105l-100 69z" />
    <glyph glyph-name="uniFC42" unicode="&#xfedf;&#xfee2;" horiz-adv-x="523" arabic-form="isolated" 
d="M399 301q-7 -11 -25 -29q27 -12 53.5 -27t48 -28.5t47.5 -37.5q0 -10 -4 -28.5t-9.5 -37.5t-21.5 -48q-4 -2 -29 -4t-60.5 -5.5t-77 -9t-78 -15t-63.5 -23.5t-34 -34q-4 -11 -5.5 -19t-1.5 -24q0 -19 5 -57t12.5 -86t16 -102t16 -105t12.5 -95.5t5 -72.5q0 -18 -0.5 -38
t-2 -37t-4.5 -28t-8 -11t-10 25t-10 58t-9.5 65.5t-7.5 48.5q-11 54 -20.5 107.5t-17 103t-12 93t-4.5 78.5q0 52 7.5 92t18.5 69.5t24 47.5t25 27q18 15 41.5 23.5t44.5 13t50 10.5q-18 8 -30 11t-25 5.5t-21 2.5q-15 0 -22 -1t-11.5 -1.5t-9 -1.5t-13.5 -1q-7 0 -7 14
q0 10 6.5 26t19 32t31.5 29.5t43 17.5q45 8 74.5 30t41.5 40q-1 11 -1 19v13q0 5 -0.5 11t-1.5 11q-12 85 -22.5 151.5t-19 123.5t-14.5 109.5t-9 109.5q-11 13 -12 18q-5 9 -5 25q0 17 9 52t32 80l3 -5q4 -20 10.5 -33t16 -23.5t22 -20t27.5 -22.5q-2 -9 -5.5 -21.5
t-7.5 -24.5t-8 -23t-7 -17q-4 -8 -9.5 -9t-10.5 -2q0 -54 8.5 -112t19 -115t19.5 -110.5t9 -98.5q0 -23 -2 -45t-4 -36q-4 -24 -10 -38.5t-16 -29.5z" />
    <glyph glyph-name="uniFC43" unicode="&#xfedf;&#xfef0;" horiz-adv-x="982" arabic-form="isolated" 
d="M978 62q-2 -20 -4.5 -43.5t-7.5 -46t-13 -42.5t-20 -33q-16 -18 -48 -43.5t-75 -54t-94 -56.5t-105.5 -50.5t-110.5 -36.5t-107 -14q-74 0 -129.5 25.5t-92 70.5t-54.5 105.5t-18 130.5q0 56 17 110t39 96.5t42 68.5t26 26l4 -5q0 -6 -11.5 -27.5t-25.5 -52.5
t-25.5 -68.5t-11.5 -74.5q0 -69 20.5 -121t54 -87t76 -53t86.5 -18q78 0 155 23.5t144 55.5t119 66t79 55q11 8 21 22t12 21q-4 3 -17 11.5t-30 13.5q-14 4 -44 8.5t-62.5 8.5t-60.5 7t-36 3q-13 2 -17 5q0 9 2 21.5t5.5 25t8 23.5t8.5 17q36 12 64.5 19t48 17t30 25.5
t10.5 45.5q0 21 -5 48t-12.5 57t-16 62t-15.5 64q-12 54 -25 109t-25 105.5t-21.5 92.5t-13.5 70q-8 9 -14.5 18t-8.5 13q-5 8 -5 24q0 8 0.5 15t1.5 12q3 18 9.5 46t25.5 60l2 -5q5 -20 12.5 -33t17 -22.5t22.5 -19t28 -21.5q-1 -9 -4 -21.5t-6.5 -25.5t-7.5 -23.5
t-7 -16.5q-3 -7 -11 -9l4 -28t6 -28q4 -17 12 -48.5t17.5 -71.5t20.5 -85t22 -88q8 -33 16 -68t14.5 -67.5t10.5 -61t4 -48.5q0 -33 -8 -62t-37 -62q24 -2 45 -5t36 -7q35 -8 49.5 -24.5t14.5 -44.5z" />
    <glyph glyph-name="uniFC44" unicode="&#xfedf;&#xfef2;" horiz-adv-x="982" arabic-form="isolated" 
d="M978 62q-2 -20 -4.5 -43.5t-7.5 -46t-13 -42.5t-20 -33q-16 -18 -48 -43.5t-75 -54t-94 -56.5t-105.5 -50.5t-110.5 -36.5t-107 -14q-74 0 -129.5 25.5t-92 70.5t-54.5 105.5t-18 130.5q0 56 17 110t39 96.5t42 68.5t26 26l4 -5q0 -6 -11.5 -27.5t-25.5 -52.5
t-25.5 -68.5t-11.5 -74.5q0 -69 20.5 -121t54 -87t76 -53t86.5 -18q78 0 155 23.5t144 55.5t119 66t79 55q11 8 21 22t12 21q-4 3 -17 11.5t-30 13.5q-14 4 -44 8.5t-62.5 8.5t-60.5 7t-36 3q-13 2 -17 5q0 9 2 21.5t5.5 25t8 23.5t8.5 17q36 12 64.5 19t48 17t30 25.5
t10.5 45.5q0 21 -5 48t-12.5 57t-16 62t-15.5 64q-12 54 -25 109t-25 105.5t-21.5 92.5t-13.5 70q-8 9 -14.5 18t-8.5 13q-5 8 -5 24q0 8 0.5 15t1.5 12q3 18 9.5 46t25.5 60l2 -5q5 -20 12.5 -33t17 -22.5t22.5 -19t28 -21.5q-1 -9 -4 -21.5t-6.5 -25.5t-7.5 -23.5
t-7 -16.5q-3 -7 -11 -9l4 -28t6 -28q4 -17 12 -48.5t17.5 -71.5t20.5 -85t22 -88q8 -33 16 -68t14.5 -67.5t10.5 -61t4 -48.5q0 -33 -8 -62t-37 -62q24 -2 45 -5t36 -7q35 -8 49.5 -24.5t14.5 -44.5zM506 -401l100 -70l-50 -105l-101 70zM340 -432l101 -69l-51 -105l-100 69
z" />
    <glyph glyph-name="uniFC48" unicode="&#xfee3;&#xfee2;" horiz-adv-x="660" arabic-form="isolated" 
d="M660 563q0 -14 -5 -32.5t-12.5 -36.5t-16.5 -33.5t-17 -22.5q-7 -6 -23 -11.5t-40 -13t-55 -19t-68 -29.5q-31 -15 -60 -30.5t-51 -32.5q28 -8 60 -25.5t58.5 -36.5t61.5 -54q0 -10 -4 -28.5t-9.5 -37.5t-21.5 -48q-4 -2 -27 -3.5t-56 -5t-71 -8.5t-72.5 -14t-59.5 -22.5
t-32 -33.5q-4 -11 -5.5 -19t-1.5 -24q0 -19 5 -58t12 -88t16 -104t16 -107.5t12 -97.5t5 -73q0 -18 -0.5 -38t-2 -37t-4.5 -28t-8 -11t-10 25t-10 58t-9.5 65.5t-7.5 48.5q-11 54 -20.5 109t-17 106.5t-11.5 96.5t-4 80q0 52 7.5 92t18.5 69.5t24 47.5t25 27
q18 15 41.5 23.5t44.5 13t50 10.5q-18 8 -30 11t-25 5.5t-21 2.5q-15 0 -22 -1t-11.5 -1.5t-9 -1.5t-13.5 -1q-7 0 -7 14q0 8 12 33.5t30 53.5q38 50 68.5 74.5t60.5 44.5q10 7 24 15.5t30 17t32.5 17t31.5 16.5q-21 23 -26.5 40t-5.5 35q0 9 3.5 23.5t19.5 41.5
q11 19 18.5 32t13.5 21t11.5 11t13.5 3q12 0 38 -13t52.5 -31.5t47 -38.5t20.5 -33z" />
    <glyph glyph-name="uniFC49" unicode="&#xfee3;&#xfef0;" horiz-adv-x="1093" arabic-form="isolated" 
d="M1089 457q0 -14 -7 -33.5t-16.5 -39t-20.5 -35.5t-19 -23q-8 -6 -20.5 -10t-32.5 -10t-47.5 -15.5t-64.5 -27.5q-42 -20 -80 -41.5t-58 -46.5q20 -6 40 -10t34 -6q47 -7 81.5 -13t57 -14.5t34 -22t11.5 -34.5q0 -6 -5 -31.5t-13.5 -55.5t-18 -57t-18.5 -37
q-15 -17 -46 -41.5t-73 -52t-93 -54t-105.5 -48t-111 -35t-109.5 -13.5q-60 0 -112.5 22t-91.5 63.5t-61 102.5t-22 139q0 59 17.5 113t39 95.5t41 66.5t24.5 25t5 -5t-11.5 -25.5t-25 -51t-25 -68.5t-11.5 -77q0 -73 23 -125t58 -85.5t76.5 -49t79.5 -15.5q78 0 155.5 23
t145 54.5t119 65t78.5 55.5q10 8 17.5 20t11.5 20q-4 4 -12.5 9t-23.5 10q-6 1 -19 3t-29 4.5t-33.5 4.5t-32.5 4q-14 1 -34.5 4.5t-41.5 8t-38.5 10t-24.5 11.5q-4 4 -6.5 8t-2.5 10q5 23 9.5 35.5t11.5 27t16 28.5q7 12 22.5 28.5t34 33.5t38 32.5t34.5 26.5
q16 11 44 26.5t52 27.5q-13 16 -22.5 33.5t-9.5 29.5q0 7 0.5 14t2.5 16t7 20t14 27q11 19 18.5 32t13 21t11 11t13.5 3q12 0 38 -13t52.5 -31.5t47 -38.5t20.5 -33z" />
    <glyph glyph-name="uniFC4A" unicode="&#xfee3;&#xfef2;" horiz-adv-x="1087" arabic-form="isolated" 
d="M1089 457q0 -14 -7 -33.5t-16.5 -39t-20.5 -35.5t-19 -23q-8 -6 -20.5 -10t-32.5 -10t-47.5 -15.5t-64.5 -27.5q-42 -20 -80 -41.5t-58 -46.5q20 -6 40 -10t34 -6q47 -7 81.5 -13t57 -14.5t34 -22t11.5 -34.5q0 -6 -5 -31.5t-13.5 -55.5t-18 -57t-18.5 -37
q-15 -17 -46 -41.5t-73 -52t-93 -54t-105.5 -48t-111 -35t-109.5 -13.5q-60 0 -112.5 22t-91.5 63.5t-61 102.5t-22 139q0 59 17.5 113t39 95.5t41 66.5t24.5 25t5 -5t-11.5 -25.5t-25 -51t-25 -68.5t-11.5 -77q0 -73 23 -125t58 -85.5t76.5 -49t79.5 -15.5q78 0 155.5 23
t145 54.5t119 65t78.5 55.5q10 8 17.5 20t11.5 20q-4 4 -12.5 9t-23.5 10q-6 1 -19 3t-29 4.5t-33.5 4.5t-32.5 4q-14 1 -34.5 4.5t-41.5 8t-38.5 10t-24.5 11.5q-4 4 -6.5 8t-2.5 10q5 23 9.5 35.5t11.5 27t16 28.5q7 12 22.5 28.5t34 33.5t38 32.5t34.5 26.5
q16 11 44 26.5t52 27.5q-13 16 -22.5 33.5t-9.5 29.5q0 7 0.5 14t2.5 16t7 20t14 27q11 19 18.5 32t13 21t11 11t13.5 3q12 0 38 -13t52.5 -31.5t47 -38.5t20.5 -33zM616 -396l100 -70l-50 -105l-101 70zM450 -427l101 -69l-51 -105l-100 69z" />
    <glyph glyph-name="uniFC4B" unicode="&#xfee7;&#xfe9e;" horiz-adv-x="861" arabic-form="isolated" 
d="M524 183q-14 1 -43 3t-61 3.5t-61.5 2.5t-43.5 1q-62 0 -103 -2.5t-66 -5.5t-53 -8q-8 0 -10 1.5t-2 12.5t5.5 33.5t13.5 45.5q11 9 22 14q41 20 87.5 41.5t90.5 45.5t81 50.5t59 55.5q28 37 52.5 73.5t45.5 66t38 48t29 18.5q9 0 17 -12t14 -29.5t9.5 -35.5t3.5 -30
t-2.5 -31.5t-6.5 -38t-9.5 -32.5t-10.5 -14q-6 0 -10.5 18.5t-10.5 40t-14 40t-20 18.5q-8 0 -26.5 -24t-40.5 -56t-44 -63t-35 -46q-15 -17 -43 -38t-64 -44q24 -2 51.5 -3t54.5 -2.5t51 -2t42 -0.5q37 0 86.5 -0.5t94.5 -1t79 -1t40 -0.5t9 -8q-10 -32 -16.5 -50
t-20.5 -52q-27 -8 -51 -15t-60.5 -20.5t-87.5 -35.5q-34 -15 -74.5 -36.5t-81.5 -51t-80 -66.5t-68.5 -83t-47.5 -102t-18 -123q0 -77 27.5 -133t72.5 -95t102 -62.5t117 -37t117 -18t101 -4.5q45 0 101 4.5t109 9.5t95 9.5t59 4.5l8 -3q-48 -28 -84.5 -44.5t-80.5 -35
t-84.5 -34.5t-71.5 -27t-42 -13q-70 0 -140.5 5t-135.5 20t-121.5 42.5t-98 73.5t-65 111.5t-23.5 157.5q0 106 20.5 187t55.5 144.5t81.5 113.5t99.5 94q7 6 19 14.5t24.5 16.5t25.5 16t22 14zM538 1004l101 -69l-51 -105l-100 69zM573 -207l101 -69l-51 -105l-100 69z" />
    <glyph glyph-name="uniFC4C" unicode="&#xfee7;&#xfea2;" horiz-adv-x="861" arabic-form="isolated" 
d="M524 183q-14 1 -43 3t-61 3.5t-61.5 2.5t-43.5 1q-62 0 -103 -2.5t-66 -5.5t-53 -8q-8 0 -10 1.5t-2 12.5t5.5 33.5t13.5 45.5q11 9 22 14q41 20 87.5 41.5t90.5 45.5t81 50.5t59 55.5q28 37 52.5 73.5t45.5 66t38 48t29 18.5q9 0 17 -12t14 -29.5t9.5 -35.5t3.5 -30
t-2.5 -31.5t-6.5 -38t-9.5 -32.5t-10.5 -14q-6 0 -10.5 18.5t-10.5 40t-14 40t-20 18.5q-8 0 -26.5 -24t-40.5 -56t-44 -63t-35 -46q-15 -17 -43 -38t-64 -44q24 -2 51.5 -3t54.5 -2.5t51 -2t42 -0.5q37 0 86.5 -0.5t94.5 -1t79 -1t40 -0.5t9 -8q-10 -32 -16.5 -50
t-20.5 -52q-27 -8 -51 -15t-60.5 -20.5t-87.5 -35.5q-34 -15 -74.5 -36.5t-81.5 -51t-80 -66.5t-68.5 -83t-47.5 -102t-18 -123q0 -77 27.5 -133t72.5 -95t102 -62.5t117 -37t117 -18t101 -4.5q45 0 101 4.5t109 9.5t95 9.5t59 4.5l8 -3q-48 -28 -84.5 -44.5t-80.5 -35
t-84.5 -34.5t-71.5 -27t-42 -13q-70 0 -140.5 5t-135.5 20t-121.5 42.5t-98 73.5t-65 111.5t-23.5 157.5q0 106 20.5 187t55.5 144.5t81.5 113.5t99.5 94q7 6 19 14.5t24.5 16.5t25.5 16t22 14zM539 996l101 -69l-51 -105l-100 69z" />
    <glyph glyph-name="uniFC4D" unicode="&#xfee7;&#xfea6;" horiz-adv-x="861" arabic-form="isolated" 
d="M524 183q-14 1 -43 3t-61 3.5t-61.5 2.5t-43.5 1q-62 0 -103 -2.5t-66 -5.5t-53 -8q-8 0 -10 1.5t-2 12.5t5.5 33.5t13.5 45.5q11 9 22 14q41 20 87.5 41.5t90.5 45.5t81 50.5t59 55.5q28 37 52.5 73.5t45.5 66t38 48t29 18.5q9 0 17 -12t14 -29.5t9.5 -35.5t3.5 -30
t-2.5 -31.5t-6.5 -38t-9.5 -32.5t-10.5 -14q-6 0 -10.5 18.5t-10.5 40t-14 40t-20 18.5q-8 0 -26.5 -24t-40.5 -56t-44 -63t-35 -46q-15 -17 -43 -38t-64 -44q24 -2 51.5 -3t54.5 -2.5t51 -2t42 -0.5q37 0 86.5 -0.5t94.5 -1t79 -1t40 -0.5t9 -8q-10 -32 -16.5 -50
t-20.5 -52q-27 -8 -51 -15t-60.5 -20.5t-87.5 -35.5q-34 -15 -74.5 -36.5t-81.5 -51t-80 -66.5t-68.5 -83t-47.5 -102t-18 -123q0 -77 27.5 -133t72.5 -95t102 -62.5t117 -37t117 -18t101 -4.5q45 0 101 4.5t109 9.5t95 9.5t59 4.5l8 -3q-48 -28 -84.5 -44.5t-80.5 -35
t-84.5 -34.5t-71.5 -27t-42 -13q-70 0 -140.5 5t-135.5 20t-121.5 42.5t-98 73.5t-65 111.5t-23.5 157.5q0 106 20.5 187t55.5 144.5t81.5 113.5t99.5 94q7 6 19 14.5t24.5 16.5t25.5 16t22 14zM530 988l101 -69l-51 -105l-100 69zM171 655l101 -69l-51 -105l-100 69z" />
    <glyph glyph-name="uniFC4E" unicode="&#xfee7;&#xfee2;" horiz-adv-x="771" arabic-form="isolated" 
d="M771 511q0 -6 -2 -22.5t-5 -34.5t-9 -52q-2 -5 -8 -5l-6 4q-3 19 -15 29.5t-29.5 15.5t-38 6t-40.5 1q-39 0 -78.5 -10.5t-79 -28t-77.5 -40.5t-74 -50q35 -10 70 -27t62.5 -34t61.5 -49q0 -10 -4 -28.5t-9.5 -37.5t-21.5 -48q-4 -2 -29 -4t-60.5 -5.5t-77 -9t-78 -15
t-63.5 -23.5t-34 -34q-4 -11 -5.5 -19t-1.5 -24q0 -19 4.5 -60t11 -93.5t14.5 -111.5t14.5 -114.5t11 -102.5t4.5 -75q0 -18 -0.5 -38t-2 -37t-4.5 -28t-8 -11t-10 25t-10 58t-9.5 65.5t-7.5 48.5q-11 54 -19.5 113.5t-14.5 116.5t-9.5 106.5t-3.5 84.5q0 52 7.5 92
t18.5 69.5t24 47.5t25 27q18 15 41.5 23.5t44.5 13t50 10.5q-16 7 -27 9t-24 4t-23 2q-15 0 -23.5 -1.5t-14.5 -4t-10.5 -4t-9.5 -1.5q-7 0 -7 14q0 7 2 19t6.5 26t12.5 28t20 26q43 43 95.5 88.5t110 83t119.5 61.5t124 24q20 0 42.5 -1t42 -7t32 -18t12.5 -33zM605 950
l101 -69l-51 -105l-100 69z" />
    <glyph glyph-name="uniFC4F" unicode="&#xfee7;&#xfef0;" horiz-adv-x="987" arabic-form="isolated" 
d="M398 -233q78 0 155.5 23t145 54.5t119 65t78.5 55.5q13 11 21.5 26t9.5 21q-28 22 -46 28q-12 4 -34 7.5t-48.5 6.5t-54.5 5.5t-52.5 5t-42 4t-22.5 2.5q-12 1 -12 7q1 5 4.5 13.5t10 26t18.5 48.5q3 6 8 8q19 5 27.5 7.5t28.5 7.5q12 4 30.5 13t36.5 21t31.5 27t15.5 31
q0 21 -11.5 45.5t-28 47.5t-34 42.5t-29.5 31.5q-4 7 -4 14q0 13 2.5 32t6.5 37t9 32t10 18q38 -38 60.5 -72.5t42 -82t19.5 -104.5q0 -25 -6.5 -48.5t-16 -44.5t-20.5 -39t-20 -32q30 -5 56 -10.5t43 -10.5q42 -11 61 -32.5t21 -48.5q-2 -20 -5 -43t-8.5 -46t-13.5 -43
t-20 -33q-15 -17 -46.5 -42t-74.5 -52.5t-95 -55.5t-107.5 -50t-112.5 -35.5t-110 -13.5q-60 0 -112.5 22t-91.5 63.5t-61 102.5t-22 139q0 60 17.5 115t39.5 96t41.5 65.5t24.5 24.5l4 -5q0 -6 -11.5 -27.5t-25.5 -52.5t-25 -68.5t-11 -74.5q1 -73 24 -125t58 -85.5t76 -49
t79 -15.5zM672 884l101 -69l-51 -105l-100 69z" />
    <glyph glyph-name="uniFC50" unicode="&#xfee7;&#xfef2;" horiz-adv-x="987" arabic-form="isolated" 
d="M398 -233q78 0 155.5 23t145 54.5t119 65t78.5 55.5q13 11 21.5 26t9.5 21q-28 22 -46 28q-12 4 -34 7.5t-48.5 6.5t-54.5 5.5t-52.5 5t-42 4t-22.5 2.5q-12 1 -12 7q1 5 4.5 13.5t10 26t18.5 48.5q3 6 8 8q19 5 27.5 7.5t28.5 7.5q12 4 30.5 13t36.5 21t31.5 27t15.5 31
q0 21 -11.5 45.5t-28 47.5t-34 42.5t-29.5 31.5q-4 7 -4 14q0 13 2.5 32t6.5 37t9 32t10 18q38 -38 60.5 -72.5t42 -82t19.5 -104.5q0 -25 -6.5 -48.5t-16 -44.5t-20.5 -39t-20 -32q30 -5 56 -10.5t43 -10.5q42 -11 61 -32.5t21 -48.5q-2 -20 -5 -43t-8.5 -46t-13.5 -43
t-20 -33q-15 -17 -46.5 -42t-74.5 -52.5t-95 -55.5t-107.5 -50t-112.5 -35.5t-110 -13.5q-60 0 -112.5 22t-91.5 63.5t-61 102.5t-22 139q0 60 17.5 115t39.5 96t41.5 65.5t24.5 24.5l4 -5q0 -6 -11.5 -27.5t-25.5 -52.5t-25 -68.5t-11 -74.5q1 -73 24 -125t58 -85.5t76 -49
t79 -15.5zM672 884l101 -69l-51 -105l-100 69zM621 -402l100 -70l-50 -105l-101 70zM455 -433l101 -69l-51 -105l-100 69z" />
    <glyph glyph-name="uniFC51" unicode="&#xfeeb;&#xfe9e;" horiz-adv-x="907" arabic-form="isolated" 
d="M104 192q0 8 6.5 23t20.5 42q6 10 14 16.5t18 12.5q42 25 86 52.5t85 54.5t75.5 52t57.5 46q-8 4 -18 10t-19 16.5t-15.5 27t-6.5 41.5q0 39 10.5 75t23 63.5t33.5 60.5q-15 28 -15 57q0 54 10.5 80.5t37.5 26.5q48 0 111.5 -30.5t132.5 -90.5q28 -24 55 -56t48.5 -66.5
t34.5 -69t13 -64.5q0 -51 -8.5 -84t-22 -53t-29.5 -28t-31 -8q-19 0 -46 4t-56.5 10t-58 13.5t-51 13.5t-50.5 14q-38 -33 -83 -74t-93 -75q42 -2 86 -4t74 -2q37 0 86.5 -0.5t94.5 -1t79 -1t40 -0.5t9 -8q-10 -32 -16.5 -50t-20.5 -52q-27 -6 -51.5 -13t-61.5 -20.5
t-86 -38.5q-40 -20 -87 -44.5t-94.5 -54.5t-91 -66.5t-77.5 -80t-54.5 -95t-20.5 -111.5q0 -77 27.5 -133t72.5 -95t102 -63.5t117 -38t117 -18t101 -4.5q45 0 101 4.5t109 10.5t95 10.5t59 4.5l8 -3q-48 -28 -84.5 -44.5t-80.5 -35t-84.5 -34.5t-71.5 -27t-42 -13
q-76 0 -149 5.5t-137.5 21.5t-119.5 44.5t-94.5 76t-61.5 115.5t-22 162q0 109 28 187.5t73 138t100.5 104t111.5 84.5q22 16 44.5 32t43.5 30q-14 1 -42.5 3t-60.5 3.5t-61 2.5t-43 1q-62 0 -103 -2.5t-66 -5.5t-53 -8q-8 0 -10 3t-2 11zM450 647q0 -10 10.5 -21.5
t27 -22.5t37 -20t40.5 -14q10 6 22.5 16.5t24 22t19 22.5t7.5 18q0 45 -15 77.5t-43 44.5q-24 -3 -47 -16.5t-41.5 -31.5t-30 -38.5t-11.5 -36.5zM641 550q15 -6 42.5 -13.5t57.5 -14.5t57.5 -11.5t42.5 -4.5q17 0 17 7q0 9 -9 27t-24 40t-33.5 45.5t-38.5 44t-38.5 35.5
t-32.5 19l1 -19q0 -48 -12 -91.5t-30 -63.5zM581 -201l101 -69l-51 -105l-100 69z" />
    <glyph glyph-name="uniFC52" unicode="&#xfeeb;&#xfee2;" horiz-adv-x="876" arabic-form="isolated" 
d="M531 350q-30 -26 -63 -47.5t-68 -40.5q21 -13 40 -26t34 -24.5t32 -30.5q0 -10 -4 -28.5t-9.5 -37.5t-21.5 -48q-4 -2 -28.5 -4t-59.5 -5.5t-75.5 -9t-76.5 -15t-62.5 -23.5t-33.5 -34q-4 -11 -5.5 -19t-1.5 -24q0 -19 5 -57t12 -86t16 -102t16 -105.5t12 -96t5 -72.5
q0 -18 -0.5 -38t-2 -37t-4.5 -28t-8 -11t-10 25t-10 58t-9.5 65.5t-7.5 48.5q-11 53 -20.5 106.5t-17 103.5t-11.5 94t-4 79q0 52 7.5 92t18.5 69.5t24 47.5t25 27q18 15 41.5 23.5t44.5 13t50 10.5q-18 8 -30 11t-25 5.5t-21 2.5q-29 0 -39 -2.5t-17 -2.5t-7 14q0 8 3 21
t9.5 27.5t17.5 29.5t26 26q14 9 34 15t39 11q21 6 43 14t42.5 17.5t38.5 19t30 18.5l-15 10t-18 15.5t-15 24.5t-6 36q0 42 10.5 78.5t23.5 63.5t34 58q-16 27 -16 56q0 54 10.5 80.5t37.5 26.5t66.5 -13.5t82.5 -38t85.5 -59t76 -76.5t54.5 -90t21 -100q0 -51 -8.5 -84
t-22 -53t-29.5 -28t-31 -8q-40 0 -84 9t-81.5 20.5t-88.5 31.5zM433 538q0 -11 12 -23.5t30 -23t38 -19t37 -12.5q9 5 20 14t21 19.5t17 20t7 15.5q0 45 -12 82.5t-40 49.5q-26 -4 -49.5 -17.5t-41.5 -31.5t-28.5 -38t-10.5 -36zM621 440q15 -6 41.5 -13.5t55 -14.5
t55 -11.5t41.5 -4.5q17 0 17 7q0 9 -8.5 27t-22 40t-31.5 45.5t-36.5 44t-36.5 35.5t-32 19l1 -19q0 -48 -11 -90t-33 -65z" />
    <glyph glyph-name="uniFC53" unicode="&#xfeeb;&#xfef0;" horiz-adv-x="1315" arabic-form="isolated" 
d="M394 -203q78 0 155.5 23t145 54.5t119 65t78.5 55.5q13 11 21.5 26t9.5 21q-28 22 -46 28q-12 4 -34 7.5t-48.5 6.5t-54.5 6t-52.5 5t-42 3.5t-22.5 2.5q-12 1 -12 7q1 5 4.5 13.5t10 26t18.5 48.5q3 6 8 8q23 6 33.5 9t20 6t14.5 5q60 20 105 44.5t64 39.5
q-2 4 -11.5 9.5t-20.5 16t-19.5 27t-8.5 41.5q0 42 10.5 78.5t23.5 63.5t34 58q-16 27 -16 56q0 54 10.5 80.5t37.5 26.5q48 0 111.5 -30.5t132.5 -90.5q28 -24 53.5 -56t45 -66.5t31.5 -69t12 -64.5q0 -51 -8.5 -84t-22 -53t-29.5 -28t-31 -8q-40 0 -84.5 9t-82.5 20
t-88 29q-23 -21 -60 -47t-76 -44q21 -4 38.5 -8t29.5 -7q42 -11 61 -32.5t21 -48.5q-2 -20 -5 -43t-8.5 -46t-13.5 -43t-20 -33q-15 -17 -46.5 -42t-74.5 -52.5t-95 -55.5t-107.5 -50t-112.5 -35.5t-110 -13.5q-60 0 -112.5 22t-91.5 63.5t-61 102.5t-22 139q0 58 17 112
t38.5 96t41.5 67.5t25 25.5l4 -7q0 -5 -11.5 -26t-25 -51.5t-24.5 -68t-11 -75.5q0 -73 23 -125t58 -85.5t76.5 -49t79.5 -15.5zM872 464q0 -11 11 -23t28 -22.5t36.5 -19t36.5 -11.5q9 6 21 15t23 18.5t18.5 18.5t7.5 15q0 45 -12 82.5t-40 49.5q-24 -3 -47.5 -16.5
t-42 -31.5t-29.5 -38.5t-11 -36.5zM1060 366q15 -6 41.5 -13.5t55 -14.5t55 -11.5t41.5 -4.5q17 0 17 7q0 9 -8.5 27t-22 40t-31.5 45.5t-36.5 44t-36.5 35.5t-32 19l1 -19q0 -48 -11 -90t-33 -65z" />
    <glyph glyph-name="uniFC54" unicode="&#xfeeb;&#xfef2;" horiz-adv-x="1313" arabic-form="isolated" 
d="M394 -203q78 0 155.5 23t145 54.5t119 65t78.5 55.5q13 11 21.5 26t9.5 21q-28 22 -46 28q-12 4 -34 7.5t-48.5 6.5t-54.5 6t-52.5 5t-42 3.5t-22.5 2.5q-12 1 -12 7q1 5 4.5 13.5t10 26t18.5 48.5q3 6 8 8q23 6 33.5 9t20 6t14.5 5q60 20 105 44.5t64 39.5
q-2 4 -11.5 9.5t-20.5 16t-19.5 27t-8.5 41.5q0 42 10.5 78.5t23.5 63.5t34 58q-16 27 -16 56q0 54 10.5 80.5t37.5 26.5q48 0 111.5 -30.5t132.5 -90.5q28 -24 53.5 -56t45 -66.5t31.5 -69t12 -64.5q0 -51 -8.5 -84t-22 -53t-29.5 -28t-31 -8q-40 0 -84.5 9t-82.5 20
t-88 29q-23 -21 -60 -47t-76 -44q21 -4 38.5 -8t29.5 -7q42 -11 61 -32.5t21 -48.5q-2 -20 -5 -43t-8.5 -46t-13.5 -43t-20 -33q-15 -17 -46.5 -42t-74.5 -52.5t-95 -55.5t-107.5 -50t-112.5 -35.5t-110 -13.5q-60 0 -112.5 22t-91.5 63.5t-61 102.5t-22 139q0 58 17 112
t38.5 96t41.5 67.5t25 25.5l4 -7q0 -5 -11.5 -26t-25 -51.5t-24.5 -68t-11 -75.5q0 -73 23 -125t58 -85.5t76.5 -49t79.5 -15.5zM872 464q0 -11 11 -23t28 -22.5t36.5 -19t36.5 -11.5q9 6 21 15t23 18.5t18.5 18.5t7.5 15q0 45 -12 82.5t-40 49.5q-24 -3 -47.5 -16.5
t-42 -31.5t-29.5 -38.5t-11 -36.5zM1060 366q15 -6 41.5 -13.5t55 -14.5t55 -11.5t41.5 -4.5q17 0 17 7q0 9 -8.5 27t-22 40t-31.5 45.5t-36.5 44t-36.5 35.5t-32 19l1 -19q0 -48 -11 -90t-33 -65zM616 -396l100 -70l-50 -105l-101 70zM450 -427l101 -69l-51 -105l-100 69z
" />
    <glyph glyph-name="uniFC55" unicode="&#xfbfe;&#xfe9e;" horiz-adv-x="861" arabic-form="isolated" 
d="M524 183q-14 1 -43 3t-61 3.5t-61.5 2.5t-43.5 1q-62 0 -103 -2.5t-66 -5.5t-53 -8q-8 0 -10 1.5t-2 12.5t5.5 33.5t13.5 45.5q11 9 22 14q41 20 87.5 41.5t90.5 45.5t81 50.5t59 55.5q28 37 52.5 73.5t45.5 66t38 48t29 18.5q9 0 17 -12t14 -29.5t9.5 -35.5t3.5 -30
t-2.5 -31.5t-6.5 -38t-9.5 -32.5t-10.5 -14q-6 0 -10.5 18.5t-10.5 40t-14 40t-20 18.5q-8 0 -26.5 -24t-40.5 -56t-44 -63t-35 -46q-15 -17 -43 -38t-64 -44q24 -2 51.5 -3t54.5 -2.5t51 -2t42 -0.5q37 0 86.5 -0.5t94.5 -1t79 -1t40 -0.5t9 -8q-10 -32 -16.5 -50
t-20.5 -52q-27 -8 -51 -15t-60.5 -20.5t-87.5 -35.5q-34 -15 -74.5 -36.5t-81.5 -51t-80 -66.5t-68.5 -83t-47.5 -102t-18 -123q0 -77 27.5 -133t72.5 -95t102 -62.5t117 -37t117 -18t101 -4.5q45 0 101 4.5t109 9.5t95 9.5t59 4.5l8 -3q-48 -28 -84.5 -44.5t-80.5 -35
t-84.5 -34.5t-71.5 -27t-42 -13q-70 0 -140.5 5t-135.5 20t-121.5 42.5t-98 73.5t-65 111.5t-23.5 157.5q0 106 20.5 187t55.5 144.5t81.5 113.5t99.5 94q7 6 19 14.5t24.5 16.5t25.5 16t22 14zM803 114l100 -70l-50 -105l-101 70zM637 83l101 -69l-51 -105l-100 69z
M573 -207l101 -69l-51 -105l-100 69z" />
    <glyph glyph-name="uniFC56" unicode="&#xfbfe;&#xfea2;" horiz-adv-x="861" arabic-form="isolated" 
d="M524 183q-14 1 -43 3t-61 3.5t-61.5 2.5t-43.5 1q-62 0 -103 -2.5t-66 -5.5t-53 -8q-8 0 -10 1.5t-2 12.5t5.5 33.5t13.5 45.5q11 9 22 14q41 20 87.5 41.5t90.5 45.5t81 50.5t59 55.5q28 37 52.5 73.5t45.5 66t38 48t29 18.5q9 0 17 -12t14 -29.5t9.5 -35.5t3.5 -30
t-2.5 -31.5t-6.5 -38t-9.5 -32.5t-10.5 -14q-6 0 -10.5 18.5t-10.5 40t-14 40t-20 18.5q-8 0 -26.5 -24t-40.5 -56t-44 -63t-35 -46q-15 -17 -43 -38t-64 -44q24 -2 51.5 -3t54.5 -2.5t51 -2t42 -0.5q37 0 86.5 -0.5t94.5 -1t79 -1t40 -0.5t9 -8q-10 -32 -16.5 -50
t-20.5 -52q-27 -8 -51 -15t-60.5 -20.5t-87.5 -35.5q-34 -15 -74.5 -36.5t-81.5 -51t-80 -66.5t-68.5 -83t-47.5 -102t-18 -123q0 -77 27.5 -133t72.5 -95t102 -62.5t117 -37t117 -18t101 -4.5q45 0 101 4.5t109 9.5t95 9.5t59 4.5l8 -3q-48 -28 -84.5 -44.5t-80.5 -35
t-84.5 -34.5t-71.5 -27t-42 -13q-70 0 -140.5 5t-135.5 20t-121.5 42.5t-98 73.5t-65 111.5t-23.5 157.5q0 106 20.5 187t55.5 144.5t81.5 113.5t99.5 94q7 6 19 14.5t24.5 16.5t25.5 16t22 14zM791 111l100 -70l-50 -105l-101 70zM625 80l101 -69l-51 -105l-100 69z" />
    <glyph glyph-name="uniFC57" unicode="&#xfb68;&#xfea6;" horiz-adv-x="861" arabic-form="isolated" 
d="M524 183q-14 1 -43 3t-61 3.5t-61.5 2.5t-43.5 1q-62 0 -103 -2.5t-66 -5.5t-53 -8q-8 0 -10 1.5t-2 12.5t5.5 33.5t13.5 45.5q11 9 22 14q41 20 87.5 41.5t90.5 45.5t81 50.5t59 55.5q28 37 52.5 73.5t45.5 66t38 48t29 18.5q9 0 17 -12t14 -29.5t9.5 -35.5t3.5 -30
t-2.5 -31.5t-6.5 -38t-9.5 -32.5t-10.5 -14q-6 0 -10.5 18.5t-10.5 40t-14 40t-20 18.5q-8 0 -26.5 -24t-40.5 -56t-44 -63t-35 -46q-15 -17 -43 -38t-64 -44q24 -2 51.5 -3t54.5 -2.5t51 -2t42 -0.5q37 0 86.5 -0.5t94.5 -1t79 -1t40 -0.5t9 -8q-10 -32 -16.5 -50
t-20.5 -52q-27 -8 -51 -15t-60.5 -20.5t-87.5 -35.5q-34 -15 -74.5 -36.5t-81.5 -51t-80 -66.5t-68.5 -83t-47.5 -102t-18 -123q0 -77 27.5 -133t72.5 -95t102 -62.5t117 -37t117 -18t101 -4.5q45 0 101 4.5t109 9.5t95 9.5t59 4.5l8 -3q-48 -28 -84.5 -44.5t-80.5 -35
t-84.5 -34.5t-71.5 -27t-42 -13q-70 0 -140.5 5t-135.5 20t-121.5 42.5t-98 73.5t-65 111.5t-23.5 157.5q0 106 20.5 187t55.5 144.5t81.5 113.5t99.5 94q7 6 19 14.5t24.5 16.5t25.5 16t22 14zM791 97l100 -70l-50 -105l-101 70zM625 66l101 -69l-51 -105l-100 69zM186 656
l101 -69l-51 -105l-100 69z" />
    <glyph glyph-name="uniFC58" unicode="&#xfbfe;&#xfee2;" horiz-adv-x="771" arabic-form="isolated" 
d="M771 511q0 -6 -2 -22.5t-5 -34.5t-9 -52q-2 -5 -8 -5l-6 4q-3 19 -15 29.5t-29.5 15.5t-38 6t-40.5 1q-39 0 -78.5 -10.5t-79 -28t-77.5 -40.5t-74 -50q35 -10 70 -27t62.5 -34t61.5 -49q0 -10 -4 -28.5t-9.5 -37.5t-21.5 -48q-4 -2 -29 -4t-60.5 -5.5t-77 -9t-78 -15
t-63.5 -23.5t-34 -34q-4 -11 -5.5 -19t-1.5 -24q0 -19 4.5 -60t11 -93.5t14.5 -111.5t14.5 -114.5t11 -102.5t4.5 -75q0 -18 -0.5 -38t-2 -37t-4.5 -28t-8 -11t-10 25t-10 58t-9.5 65.5t-7.5 48.5q-11 54 -19.5 113.5t-14.5 116.5t-9.5 106.5t-3.5 84.5q0 52 7.5 92
t18.5 69.5t24 47.5t25 27q18 15 41.5 23.5t44.5 13t50 10.5q-16 7 -27 9t-24 4t-23 2q-15 0 -23.5 -1.5t-14.5 -4t-10.5 -4t-9.5 -1.5q-7 0 -7 14q0 7 2 19t6.5 26t12.5 28t20 26q43 43 95.5 88.5t110 83t119.5 61.5t124 24q20 0 42.5 -1t42 -7t32 -18t12.5 -33zM665 63
l100 -70l-50 -105l-101 70zM499 32l101 -69l-51 -105l-100 69z" />
    <glyph glyph-name="uniFC66" unicode="&#xfe8c;&#xfee2;" horiz-adv-x="786" arabic-form="final" 
d="M786 0q-29 0 -63.5 17.5t-61.5 64.5q-18 31 -28.5 56.5t-21.5 43t-26 27t-41 9.5q-32 0 -65 -5.5t-65 -16t-61 -25t-53 -33.5q31 -9 64 -23t60 -28t44.5 -25t17.5 -14q0 -10 -4 -28.5t-9.5 -37.5t-11.5 -33t-10 -15q-4 -2 -26.5 -4t-54 -6t-68.5 -9.5t-69.5 -15.5
t-57 -24t-31.5 -34q-4 -11 -5.5 -19t-1.5 -24q0 -19 4 -53t9.5 -76t12.5 -88.5t12.5 -91.5t9.5 -85t4 -69q0 -18 -0.5 -38t-2 -37t-4.5 -28t-8 -11t-8.5 13.5t-7 36t-6.5 52t-7 61.5q-2 18 -6.5 47.5t-9.5 64t-10 71.5t-9.5 71t-7 62t-2.5 45q0 52 7.5 92t18.5 69.5t24 47.5
t25 27q18 15 41.5 23.5t44.5 13t35.5 6.5t14.5 4q0 1 -9 3t-21 3t-25 2t-21 1q-15 0 -22 -1.5t-11.5 -3t-9 -2.5t-13.5 -1q-7 0 -7 14q0 9 4.5 23t11 28t14 26.5t14.5 20.5q27 32 67 64.5t89.5 59t106.5 43t118 16.5q34 0 54.5 -24.5t37.5 -57.5t35.5 -66t48.5 -50
q13 -8 26.5 -10t20.5 -2zM607 796q14 0 22 -14t8 -28q0 -21 -9 -37t-16 -16q-8 0 -15 11q-3 7 -11 9t-16 2t-20.5 -5.5t-24 -13t-19.5 -16.5t-8 -16q0 -11 16 -18t36.5 -11t39 -6t24.5 -2q33 17 50.5 27t51.5 27q7 0 7 -10q-18 -47 -30 -68q-21 -15 -35 -22.5t-31 -16.5
l-34 -18q-20 -11 -41 -23t-39 -22.5t-46 -24.5q-5 0 -5 10t9 20.5t20 20.5t29 28q-23 10 -36.5 18t-25 20t-11.5 27q0 22 16 51t40 55t52 44t52 18z" />
    <glyph glyph-name="uniFC68" unicode="&#xfe8c;&#xfef0;" horiz-adv-x="1116" arabic-form="final" 
d="M1116 0q-42 0 -71 19.5t-52 63.5q-12 23 -19 41.5t-16 31t-23 19.5t-40 7q-17 0 -41 -8t-51 -21t-54 -29t-48 -32.5t-34.5 -32t-13.5 -26.5q0 -15 21.5 -24.5t51.5 -15.5t62 -9.5t53 -7.5q31 -5 51 -13t31.5 -18.5t15.5 -24t4 -30.5q0 -23 -6 -49t-15.5 -51.5t-20 -47.5
t-19.5 -36q-23 -26 -72.5 -62t-115.5 -69.5t-144.5 -57t-157.5 -23.5q-61 0 -113.5 22t-91 63.5t-60.5 102.5t-22 139q0 54 14.5 103.5t34 89t38 67t27.5 37.5l8 4q6 0 6 -6l-3 -7q-6 -12 -18 -34.5t-23.5 -52t-20.5 -62.5t-9 -66q0 -73 23 -125t58 -85.5t76.5 -49
t79.5 -15.5q77 0 149 19t133 46.5t107 57.5t72 53q14 11 21.5 27.5t8.5 22.5q-16 11 -36 16q-33 8 -67.5 13.5t-72.5 13.5q-29 6 -49 12.5t-32.5 17.5t-18 28t-5.5 43q0 20 5 42t19 51q16 33 51.5 69.5t80.5 66.5t94 50t92 20q23 0 38 -9t25.5 -23.5t18.5 -32t17.5 -35.5
t22.5 -34.5t33 -27.5q13 -8 26.5 -10t20.5 -2zM934 817q14 0 22 -14t8 -28q0 -21 -9 -37t-16 -16q-8 0 -15 11q-3 7 -11 9t-16 2t-20.5 -5.5t-24 -13t-19.5 -16.5t-8 -16q0 -11 16 -18t36.5 -11t39 -6t24.5 -2q33 17 50.5 27t51.5 27q7 0 7 -10q-18 -47 -30 -68
q-21 -15 -35 -22.5t-31 -16.5l-34 -18q-20 -11 -41 -23t-39 -22.5t-46 -24.5q-5 0 -5 10t9 20.5t20 20.5t29 28q-23 10 -36.5 18t-25 20t-11.5 27q0 22 16 51t40 55t52 44t52 18z" />
    <glyph glyph-name="uniFC69" unicode="&#xfe8c;&#xfef2;" horiz-adv-x="1116" arabic-form="final" 
d="M1116 0q-42 0 -71 19.5t-52 63.5q-12 23 -19 41.5t-16 31t-23 19.5t-40 7q-17 0 -41 -8t-51 -21t-54 -29t-48 -32.5t-34.5 -32t-13.5 -26.5q0 -15 21.5 -24.5t51.5 -15.5t62 -9.5t53 -7.5q31 -5 51 -13t31.5 -18.5t15.5 -24t4 -30.5q0 -23 -6 -49t-15.5 -51.5t-20 -47.5
t-19.5 -36q-23 -26 -72.5 -62t-115.5 -69.5t-144.5 -57t-157.5 -23.5q-61 0 -113.5 22t-91 63.5t-60.5 102.5t-22 139q0 54 14.5 103.5t34 89t38 67t27.5 37.5l8 4q6 0 6 -6l-3 -7q-6 -12 -18 -34.5t-23.5 -52t-20.5 -62.5t-9 -66q0 -73 23 -125t58 -85.5t76.5 -49
t79.5 -15.5q77 0 149 19t133 46.5t107 57.5t72 53q14 11 21.5 27.5t8.5 22.5q-16 11 -36 16q-33 8 -67.5 13.5t-72.5 13.5q-29 6 -49 12.5t-32.5 17.5t-18 28t-5.5 43q0 20 5 42t19 51q16 33 51.5 69.5t80.5 66.5t94 50t92 20q23 0 38 -9t25.5 -23.5t18.5 -32t17.5 -35.5
t22.5 -34.5t33 -27.5q13 -8 26.5 -10t20.5 -2zM943 812q14 0 22 -14t8 -28q0 -21 -9 -37t-16 -16q-8 0 -15 11q-3 7 -11 9t-16 2t-20.5 -5.5t-24 -13t-19.5 -16.5t-8 -16q0 -11 16 -18t36.5 -11t39 -6t24.5 -2q33 17 50.5 27t51.5 27q7 0 7 -10q-18 -47 -30 -68
q-21 -15 -35 -22.5t-31 -16.5l-34 -18q-20 -11 -41 -23t-39 -22.5t-46 -24.5q-5 0 -5 10t9 20.5t20 20.5t29 28q-23 10 -36.5 18t-25 20t-11.5 27q0 22 16 51t40 55t52 44t52 18zM567 -522l100 -70l-50 -105l-101 70zM401 -553l101 -69l-51 -105l-100 69z" />
    <glyph glyph-name="uniFC6C" unicode="&#xfe92;&#xfee2;" horiz-adv-x="786" arabic-form="final" 
d="M786 0q-29 0 -63.5 17.5t-61.5 64.5q-18 31 -28.5 56.5t-21.5 43t-26 27t-41 9.5q-32 0 -65 -5.5t-65 -16t-61 -25t-53 -33.5q31 -9 64 -23t60 -28t44.5 -25t17.5 -14q0 -10 -4 -28.5t-9.5 -37.5t-11.5 -33t-10 -15q-4 -2 -26.5 -4t-54 -6t-68.5 -9.5t-69.5 -15.5
t-57 -24t-31.5 -34q-4 -11 -5.5 -19t-1.5 -24q0 -19 4 -53t9.5 -76t12.5 -88.5t12.5 -91.5t9.5 -85t4 -69q0 -18 -0.5 -38t-2 -37t-4.5 -28t-8 -11t-8.5 13.5t-7 36t-6.5 52t-7 61.5q-2 18 -6.5 47.5t-9.5 64t-10 71.5t-9.5 71t-7 62t-2.5 45q0 52 7.5 92t18.5 69.5t24 47.5
t25 27q18 15 41.5 23.5t44.5 13t35.5 6.5t14.5 4q0 1 -9 3t-21 3t-25 2t-21 1q-15 0 -22 -1.5t-11.5 -3t-9 -2.5t-13.5 -1q-7 0 -7 14q0 9 4.5 23t11 28t14 26.5t14.5 20.5q27 32 67 64.5t89.5 59t106.5 43t118 16.5q34 0 54.5 -24.5t37.5 -57.5t35.5 -66t48.5 -50
q13 -8 26.5 -10t20.5 -2zM565 -137l101 -69l-51 -105l-100 69z" />
    <glyph glyph-name="uniFC72" unicode="&#xfe98;&#xfee2;" horiz-adv-x="786" arabic-form="final" 
d="M786 0q-29 0 -63.5 17.5t-61.5 64.5q-18 31 -28.5 56.5t-21.5 43t-26 27t-41 9.5q-32 0 -65 -5.5t-65 -16t-61 -25t-53 -33.5q31 -9 64 -23t60 -28t44.5 -25t17.5 -14q0 -10 -4 -28.5t-9.5 -37.5t-11.5 -33t-10 -15q-4 -2 -26.5 -4t-54 -6t-68.5 -9.5t-69.5 -15.5
t-57 -24t-31.5 -34q-4 -11 -5.5 -19t-1.5 -24q0 -19 4 -53t9.5 -76t12.5 -88.5t12.5 -91.5t9.5 -85t4 -69q0 -18 -0.5 -38t-2 -37t-4.5 -28t-8 -11t-8.5 13.5t-7 36t-6.5 52t-7 61.5q-2 18 -6.5 47.5t-9.5 64t-10 71.5t-9.5 71t-7 62t-2.5 45q0 52 7.5 92t18.5 69.5t24 47.5
t25 27q18 15 41.5 23.5t44.5 13t35.5 6.5t14.5 4q0 1 -9 3t-21 3t-25 2t-21 1q-15 0 -22 -1.5t-11.5 -3t-9 -2.5t-13.5 -1q-7 0 -7 14q0 9 4.5 23t11 28t14 26.5t14.5 20.5q27 32 67 64.5t89.5 59t106.5 43t118 16.5q34 0 54.5 -24.5t37.5 -57.5t35.5 -66t48.5 -50
q13 -8 26.5 -10t20.5 -2zM621 732l100 -70l-50 -105l-101 70zM455 701l101 -69l-51 -105l-100 69z" />
    <glyph glyph-name="uniFC74" unicode="&#xfe98;&#xfef0;" horiz-adv-x="1116" arabic-form="final" 
d="M1116 0q-42 0 -71 19.5t-52 63.5q-12 23 -19 41.5t-16 31t-23 19.5t-40 7q-17 0 -41 -8t-51 -21t-54 -29t-48 -32.5t-34.5 -32t-13.5 -26.5q0 -15 21.5 -24.5t51.5 -15.5t62 -9.5t53 -7.5q31 -5 51 -13t31.5 -18.5t15.5 -24t4 -30.5q0 -23 -6 -49t-15.5 -51.5t-20 -47.5
t-19.5 -36q-23 -26 -72.5 -62t-115.5 -69.5t-144.5 -57t-157.5 -23.5q-61 0 -113.5 22t-91 63.5t-60.5 102.5t-22 139q0 54 14.5 103.5t34 89t38 67t27.5 37.5l8 4q6 0 6 -6l-3 -7q-6 -12 -18 -34.5t-23.5 -52t-20.5 -62.5t-9 -66q0 -73 23 -125t58 -85.5t76.5 -49
t79.5 -15.5q77 0 149 19t133 46.5t107 57.5t72 53q14 11 21.5 27.5t8.5 22.5q-16 11 -36 16q-33 8 -67.5 13.5t-72.5 13.5q-29 6 -49 12.5t-32.5 17.5t-18 28t-5.5 43q0 20 5 42t19 51q16 33 51.5 69.5t80.5 66.5t94 50t92 20q23 0 38 -9t25.5 -23.5t18.5 -32t17.5 -35.5
t22.5 -34.5t33 -27.5q13 -8 26.5 -10t20.5 -2zM890 753l100 -70l-50 -105l-101 70zM724 722l101 -69l-51 -105l-100 69z" />
    <glyph glyph-name="uniFC75" unicode="&#xfe98;&#xfef2;" horiz-adv-x="1116" arabic-form="final" 
d="M1116 0q-42 0 -71 19.5t-52 63.5q-12 23 -19 41.5t-16 31t-23 19.5t-40 7q-17 0 -41 -8t-51 -21t-54 -29t-48 -32.5t-34.5 -32t-13.5 -26.5q0 -15 21.5 -24.5t51.5 -15.5t62 -9.5t53 -7.5q31 -5 51 -13t31.5 -18.5t15.5 -24t4 -30.5q0 -23 -6 -49t-15.5 -51.5t-20 -47.5
t-19.5 -36q-23 -26 -72.5 -62t-115.5 -69.5t-144.5 -57t-157.5 -23.5q-61 0 -113.5 22t-91 63.5t-60.5 102.5t-22 139q0 54 14.5 103.5t34 89t38 67t27.5 37.5l8 4q6 0 6 -6l-3 -7q-6 -12 -18 -34.5t-23.5 -52t-20.5 -62.5t-9 -66q0 -73 23 -125t58 -85.5t76.5 -49
t79.5 -15.5q77 0 149 19t133 46.5t107 57.5t72 53q14 11 21.5 27.5t8.5 22.5q-16 11 -36 16q-33 8 -67.5 13.5t-72.5 13.5q-29 6 -49 12.5t-32.5 17.5t-18 28t-5.5 43q0 20 5 42t19 51q16 33 51.5 69.5t80.5 66.5t94 50t92 20q23 0 38 -9t25.5 -23.5t18.5 -32t17.5 -35.5
t22.5 -34.5t33 -27.5q13 -8 26.5 -10t20.5 -2zM890 753l100 -70l-50 -105l-101 70zM724 722l101 -69l-51 -105l-100 69zM565 -522l100 -70l-50 -105l-101 70zM399 -553l101 -69l-51 -105l-100 69z" />
    <glyph glyph-name="uniFC78" unicode="&#xfe9c;&#xfee2;" horiz-adv-x="786" arabic-form="final" 
d="M786 0q-29 0 -63.5 17.5t-61.5 64.5q-18 31 -28.5 56.5t-21.5 43t-26 27t-41 9.5q-32 0 -65 -5.5t-65 -16t-61 -25t-53 -33.5q31 -9 64 -23t60 -28t44.5 -25t17.5 -14q0 -10 -4 -28.5t-9.5 -37.5t-11.5 -33t-10 -15q-4 -2 -26.5 -4t-54 -6t-68.5 -9.5t-69.5 -15.5
t-57 -24t-31.5 -34q-4 -11 -5.5 -19t-1.5 -24q0 -19 4 -53t9.5 -76t12.5 -88.5t12.5 -91.5t9.5 -85t4 -69q0 -18 -0.5 -38t-2 -37t-4.5 -28t-8 -11t-8.5 13.5t-7 36t-6.5 52t-7 61.5q-2 18 -6.5 47.5t-9.5 64t-10 71.5t-9.5 71t-7 62t-2.5 45q0 52 7.5 92t18.5 69.5t24 47.5
t25 27q18 15 41.5 23.5t44.5 13t35.5 6.5t14.5 4q0 1 -9 3t-21 3t-25 2t-21 1q-15 0 -22 -1.5t-11.5 -3t-9 -2.5t-13.5 -1q-7 0 -7 14q0 9 4.5 23t11 28t14 26.5t14.5 20.5q27 32 67 64.5t89.5 59t106.5 43t118 16.5q34 0 54.5 -24.5t37.5 -57.5t35.5 -66t48.5 -50
q13 -8 26.5 -10t20.5 -2zM611 699l100 -70l-50 -105l-101 70zM438 672l101 -69l-51 -105l-100 69zM492 848l100 -69l-50 -105l-101 69z" />
    <glyph glyph-name="uniFC7A" unicode="&#xfe9c;&#xfef0;" horiz-adv-x="1116" arabic-form="final" 
d="M1116 0q-42 0 -71 19.5t-52 63.5q-12 23 -19 41.5t-16 31t-23 19.5t-40 7q-17 0 -41 -8t-51 -21t-54 -29t-48 -32.5t-34.5 -32t-13.5 -26.5q0 -15 21.5 -24.5t51.5 -15.5t62 -9.5t53 -7.5q31 -5 51 -13t31.5 -18.5t15.5 -24t4 -30.5q0 -23 -6 -49t-15.5 -51.5t-20 -47.5
t-19.5 -36q-23 -26 -72.5 -62t-115.5 -69.5t-144.5 -57t-157.5 -23.5q-61 0 -113.5 22t-91 63.5t-60.5 102.5t-22 139q0 54 14.5 103.5t34 89t38 67t27.5 37.5l8 4q6 0 6 -6l-3 -7q-6 -12 -18 -34.5t-23.5 -52t-20.5 -62.5t-9 -66q0 -73 23 -125t58 -85.5t76.5 -49
t79.5 -15.5q77 0 149 19t133 46.5t107 57.5t72 53q14 11 21.5 27.5t8.5 22.5q-16 11 -36 16q-33 8 -67.5 13.5t-72.5 13.5q-29 6 -49 12.5t-32.5 17.5t-18 28t-5.5 43q0 20 5 42t19 51q16 33 51.5 69.5t80.5 66.5t94 50t92 20q23 0 38 -9t25.5 -23.5t18.5 -32t17.5 -35.5
t22.5 -34.5t33 -27.5q13 -8 26.5 -10t20.5 -2zM889 756l100 -70l-50 -105l-101 70zM716 729l101 -69l-51 -105l-100 69zM770 905l100 -69l-50 -105l-101 69z" />
    <glyph glyph-name="uniFC7B" unicode="&#xfe9c;&#xfef2;" horiz-adv-x="1116" arabic-form="final" 
d="M1116 0q-42 0 -71 19.5t-52 63.5q-12 23 -19 41.5t-16 31t-23 19.5t-40 7q-17 0 -41 -8t-51 -21t-54 -29t-48 -32.5t-34.5 -32t-13.5 -26.5q0 -15 21.5 -24.5t51.5 -15.5t62 -9.5t53 -7.5q31 -5 51 -13t31.5 -18.5t15.5 -24t4 -30.5q0 -23 -6 -49t-15.5 -51.5t-20 -47.5
t-19.5 -36q-23 -26 -72.5 -62t-115.5 -69.5t-144.5 -57t-157.5 -23.5q-61 0 -113.5 22t-91 63.5t-60.5 102.5t-22 139q0 54 14.5 103.5t34 89t38 67t27.5 37.5l8 4q6 0 6 -6l-3 -7q-6 -12 -18 -34.5t-23.5 -52t-20.5 -62.5t-9 -66q0 -73 23 -125t58 -85.5t76.5 -49
t79.5 -15.5q77 0 149 19t133 46.5t107 57.5t72 53q14 11 21.5 27.5t8.5 22.5q-16 11 -36 16q-33 8 -67.5 13.5t-72.5 13.5q-29 6 -49 12.5t-32.5 17.5t-18 28t-5.5 43q0 20 5 42t19 51q16 33 51.5 69.5t80.5 66.5t94 50t92 20q23 0 38 -9t25.5 -23.5t18.5 -32t17.5 -35.5
t22.5 -34.5t33 -27.5q13 -8 26.5 -10t20.5 -2zM889 756l100 -70l-50 -105l-101 70zM716 729l101 -69l-51 -105l-100 69zM770 905l100 -69l-50 -105l-101 69zM564 -522l100 -70l-50 -105l-101 70zM398 -553l101 -69l-51 -105l-100 69z" />
    <glyph glyph-name="uniFC80" unicode="&#xfb91;&#xfe8e;" horiz-adv-x="939" arabic-form="final" 
d="M938 0q-26 0 -48 10.5t-46 32.5t-54 54.5t-73 76.5q-32 32 -69.5 68t-77.5 65q6 -14 12 -34.5t10.5 -41.5t7.5 -39t3 -27q0 -23 -6.5 -47t-17 -45t-24.5 -38t-29 -26q-19 -12 -42 -20t-47 -13.5t-47 -7.5t-42 -2q-30 0 -58.5 11.5t-51.5 32.5q-20 20 -31 50t-18 62
q-5 23 -8.5 55.5t-5.5 59.5q-3 54 -8.5 127t-12 152.5t-14 159t-14.5 146.5q-4 32 -8 62.5t-9 61.5q-2 12 -6.5 31t-9.5 35q1 12 4 28.5t7.5 33t10 30.5t10.5 20l5 -3q4 -6 8 -19.5t6 -24.5q8 -40 12.5 -83t9.5 -89q3 -29 6.5 -65t7 -75t7 -79t6.5 -76q2 11 5.5 20.5
t7.5 17.5q10 22 45 52t87 65t116.5 73t134.5 76q48 25 104.5 54.5t114.5 58.5l113 56q28 14 52.5 25.5t46.5 21.5q22 11 48 21.5t57 21.5q0 -6 -3.5 -19.5t-8 -29t-10 -29t-9.5 -19.5q-26 -14 -48.5 -25.5t-42.5 -21.5l-89 -45q-37 -18 -77 -38.5t-80 -40.5t-78 -40t-70 -37
q-64 -35 -125.5 -71t-111 -67.5t-83.5 -56.5t-43 -38q89 -41 156.5 -76t122 -68.5t99 -66t86 -69t84.5 -78t94 -92.5q17 -17 42.5 -24t41.5 -7zM273 121q11 -11 20 -18t18 -11t20 -5.5t25 -1.5q18 0 37 2t36.5 4.5t32 6t22.5 6.5q15 5 29.5 13t26 16.5t18.5 17t7 14.5
q0 10 -5 27t-20 40.5t-42.5 54.5t-71.5 70q-24 21 -56.5 42t-64.5 40.5t-59.5 36.5t-43.5 30q7 -78 13.5 -147t12.5 -120q2 -14 6 -31t9.5 -33.5t13 -30.5t16.5 -23z" />
    <glyph glyph-name="uniFC81" unicode="&#xfb91;&#xfede;" horiz-adv-x="1497" arabic-form="final" 
d="M1497 0q-26 0 -48 8.5t-46.5 28t-54 51t-70.5 78.5q-39 45 -84 83.5t-89 80.5q6 -15 11.5 -35.5t10 -41.5t7.5 -38.5t3 -26.5q0 -24 -6 -47.5t-16.5 -44.5t-24.5 -37.5t-30 -26.5q-38 -24 -84 -32.5t-85 -8.5q-35 0 -62.5 15.5t-52.5 55.5q-10 16 -18 35.5t-15 41.5
q1 -13 3 -34t3.5 -45t2.5 -48.5t1 -44.5q0 -33 -7 -64t-13 -51q-9 -29 -47.5 -66t-94 -70t-122 -55.5t-132.5 -22.5q-69 0 -116 26t-75 68q-14 21 -23 40t-15 40.5t-8.5 46t-2.5 56.5q0 46 15 97q17 53 28 80q6 14 15 30t20 33q4 6 9 6q6 0 6 -10q0 -4 -6 -20.5t-12.5 -40.5
t-12.5 -52t-6 -56q0 -48 15.5 -89t43.5 -70t65 -45.5t81 -16.5q55 0 113 18.5t107.5 46.5t86 61t49.5 62q0 19 -0.5 34t-1.5 23q-4 40 -11.5 114.5t-16 166t-17.5 192t-16.5 192t-12 166.5t-4.5 116q4 20 7.5 34.5t6.5 24.5t8.5 22.5t13.5 28.5q6 0 7.5 -5t3.5 -17
q1 -10 2.5 -26.5t4.5 -41.5q9 -81 18 -170t19 -180q4 28 15 48q10 21 49 53.5t96 71t126 79t139 78.5q46 25 106 56t123 62q32 16 62.5 31.5t61.5 29.5q31 15 58.5 28.5t52.5 24.5q49 22 117 48q0 -6 -3.5 -19.5t-8 -29t-10 -29t-9.5 -19.5q-29 -15 -54 -28t-48 -24
l-47 -23.5t-54 -26.5q-41 -21 -85 -43t-87 -44t-83 -42.5t-72 -37.5q-64 -35 -129.5 -73.5t-120.5 -73t-93 -62t-47 -40.5q89 -41 159 -78t127.5 -72.5t104.5 -71t91.5 -74.5t89 -82.5t95.5 -94.5q17 -17 35.5 -24t48.5 -7zM961 381q-24 21 -56.5 42t-65 40.5t-60.5 36.5
t-44 30q5 -42 10 -83.5t10 -79.5q3 -21 7 -45t8.5 -47t10.5 -43t12 -32q8 -17 17.5 -33t21.5 -29t27.5 -21t35.5 -8q35 0 68 5.5t52 12.5q35 12 59.5 29.5t24.5 31.5q0 11 -5 28t-19.5 40.5t-41.5 54.5t-72 70z" />
    <glyph glyph-name="uniFC82" unicode="&#xfb91;&#xfee2;" horiz-adv-x="966" arabic-form="final" 
d="M966 0q-35 0 -62 14t-55.5 41.5t-63.5 68t-85 93.5q-42 44 -93 96t-116 112q6 -16 13.5 -30.5t14.5 -28t11 -25.5t4 -24q-1 -25 -10.5 -43.5t-24 -32t-32 -22.5t-34.5 -14q35 -20 58 -34.5t47 -38.5q-2 -19 -7.5 -46.5t-27.5 -67.5q-4 -2 -29 -4t-60.5 -5.5t-77 -9
t-78 -15t-63.5 -23.5t-34 -34q-4 -11 -5.5 -19t-1.5 -24q0 -19 4 -54t10.5 -78.5t14 -92t14 -95t10.5 -88t4 -69.5q0 -18 -0.5 -38t-2 -37t-4.5 -28t-8 -11t-10 25t-10 58t-9.5 65.5t-7.5 48.5q-22 108 -33 190t-11 151q0 52 7.5 92t18.5 69.5t24 47.5t25 27q31 23 63 30.5
t73 16.5q-24 11 -43 15t-33 4q-15 0 -22 -1t-11.5 -1.5t-9 -1.5t-13.5 -1q-7 0 -7 14q0 9 6.5 24.5t18.5 32t30 30t42 18.5q10 2 27.5 4.5t38 5t41 5.5t36.5 6q33 6 49.5 12.5t16.5 26.5q0 7 -9 24t-26.5 42t-43 55.5t-59.5 65.5q-45 46 -74 74t-45.5 46.5t-23 32.5t-6.5 32
q0 36 5.5 64t21 52.5t42 48.5t69 51t102.5 60.5t142 77.5q46 25 99 53t105 55l101 51l87 42q19 10 42 19t49 19q0 -6 -3.5 -19.5t-8 -29t-10 -29t-9.5 -19.5q-21 -12 -39.5 -22t-36.5 -19.5t-37 -19t-41 -21.5q-32 -16 -67 -34.5t-71 -37.5l-72 -38t-68 -36
q-64 -35 -122 -68.5t-103.5 -62t-76 -50.5t-39.5 -35q95 -71 181 -143t165.5 -145t153.5 -147.5t145 -150.5q16 -17 37 -24t51 -7z" />
    <glyph glyph-name="uniFC83" unicode="&#xfb91;&#xfef0;" horiz-adv-x="1272" arabic-form="final" 
d="M1272 0q-27 0 -47 5t-44 23t-57 52t-85 92q-41 45 -81.5 87t-81.5 84q5 -17 10 -44t5 -59q0 -20 -17.5 -50t-40.5 -56q24 -2 45 -5t36 -7q35 -8 49.5 -25t14.5 -44q0 -20 -2.5 -43.5t-7.5 -46.5t-13.5 -43t-20.5 -33q-16 -18 -48 -44t-75 -54t-94.5 -56t-106.5 -50
t-110.5 -36t-106.5 -14q-74 0 -129.5 25.5t-92 70.5t-54.5 105.5t-18 130.5q0 57 17 111t39 96.5t42.5 68t26.5 25.5l3 -5q0 -6 -11.5 -26t-25.5 -50t-25.5 -67.5t-11.5 -79.5q0 -69 20.5 -121t54 -87t76 -53t86.5 -18q78 0 155 23.5t144 55.5t119 66t79 55q11 8 21 22
t12 21q-4 3 -17 11.5t-30 13.5q-14 4 -44 8.5t-62.5 8.5t-60.5 7t-36 3q-11 1 -17 5q0 9 2 21.5t5.5 25t8 23.5t8.5 17q31 10 62 19t55 18.5t39 21t15 26.5q0 28 -10 54.5t-31 57t-55 67t-82 84.5q-27 27 -54.5 52.5t-50.5 47.5t-37.5 39t-14.5 27q0 13 1 29.5t3 33.5
t6 32.5t9 27.5q10 21 41.5 48.5t79.5 59.5t109.5 67.5t131.5 73.5q46 25 99 53t105 55l101 51l87 42q19 10 42 19t49 19q0 -6 -3.5 -19.5t-8 -29t-10 -29t-9.5 -19.5q-41 -24 -74.5 -42t-77.5 -41q-66 -34 -140.5 -73t-139.5 -74q-64 -35 -122 -68t-103.5 -61t-76 -50
t-39.5 -35q204 -163 363 -309.5t279 -274.5q31 -32 91 -32z" />
    <glyph glyph-name="uniFC84" unicode="&#xfb91;&#xfef2;" horiz-adv-x="1272" arabic-form="final" 
d="M1272 0q-27 0 -47 5t-44 23t-57 52t-85 92q-41 45 -81.5 87t-81.5 84q5 -17 10 -44t5 -59q0 -20 -17.5 -50t-40.5 -56q24 -2 45 -5t36 -7q35 -8 49.5 -25t14.5 -44q0 -20 -2.5 -43.5t-7.5 -46.5t-13.5 -43t-20.5 -33q-16 -18 -48 -44t-75 -54t-94.5 -56t-106.5 -50
t-110.5 -36t-106.5 -14q-74 0 -129.5 25.5t-92 70.5t-54.5 105.5t-18 130.5q0 57 17 111t39 96.5t42.5 68t26.5 25.5l3 -5q0 -6 -11.5 -26t-25.5 -50t-25.5 -67.5t-11.5 -79.5q0 -69 20.5 -121t54 -87t76 -53t86.5 -18q78 0 155 23.5t144 55.5t119 66t79 55q11 8 21 22
t12 21q-4 3 -17 11.5t-30 13.5q-14 4 -44 8.5t-62.5 8.5t-60.5 7t-36 3q-11 1 -17 5q0 9 2 21.5t5.5 25t8 23.5t8.5 17q31 10 62 19t55 18.5t39 21t15 26.5q0 28 -10 54.5t-31 57t-55 67t-82 84.5q-27 27 -54.5 52.5t-50.5 47.5t-37.5 39t-14.5 27q0 13 1 29.5t3 33.5
t6 32.5t9 27.5q10 21 41.5 48.5t79.5 59.5t109.5 67.5t131.5 73.5q46 25 99 53t105 55l101 51l87 42q19 10 42 19t49 19q0 -6 -3.5 -19.5t-8 -29t-10 -29t-9.5 -19.5q-41 -24 -74.5 -42t-77.5 -41q-66 -34 -140.5 -73t-139.5 -74q-64 -35 -122 -68t-103.5 -61t-76 -50
t-39.5 -35q204 -163 363 -309.5t279 -274.5q31 -32 91 -32zM634 -396l100 -70l-50 -105l-101 70zM468 -427l101 -69l-51 -105l-100 69z" />
    <glyph glyph-name="uniFC85" unicode="&#xfee0;&#xfee2;" horiz-adv-x="789" arabic-form="final" 
d="M789 0q-15 0 -37 5.5t-46 17.5t-46.5 30t-38.5 43q-17 27 -28 56.5t-18 56.5t-10.5 48.5t-6.5 33.5h-3q-3 -31 -12 -65.5t-44 -65.5q-11 -9 -30.5 -23.5t-45.5 -28.5q28 -12 55 -26.5t48.5 -27t34.5 -22t13 -11.5q0 -10 -4 -28.5t-9.5 -37.5t-11.5 -33t-10 -15
q-4 -2 -29 -4t-61 -5.5t-77.5 -9t-78.5 -15t-64 -23.5t-34 -34q-4 -11 -5.5 -19t-1.5 -24q0 -19 4.5 -53t11 -76.5t14.5 -89.5t14.5 -92.5t11 -85.5t4.5 -69q0 -18 -0.5 -38t-2 -37t-4.5 -28t-8 -11t-8.5 13.5t-7 36t-7 52t-7.5 61.5q-2 18 -6.5 47.5t-10.5 64.5t-12 72.5
t-11 71.5t-8.5 62.5t-3.5 45.5q0 52 7.5 92t18.5 69.5t24 47.5t25 27q18 15 41.5 23.5t44.5 13t35.5 6.5t14.5 4q0 1 -9 4.5t-21 6.5t-25 5.5t-21 2.5q-15 0 -22 -1t-11.5 -1.5t-9 -1.5t-13.5 -1q-7 0 -7 14q0 6 6 22.5t16.5 34.5t25.5 33t34 18q11 4 32 9t46 12.5t51.5 18
t48 25.5t35 34.5t13.5 45.5q0 7 -0.5 18.5t-1.5 24t-1.5 24.5t-1.5 21q-4 36 -8.5 84t-9 101t-8.5 109.5t-7.5 109.5t-5.5 100.5t-2 82.5q0 4 4 22t10 37.5t12 35t10 15.5q10 0 10.5 -19.5t4.5 -72.5q4 -60 8.5 -112t9.5 -104t11 -108.5t14 -125.5q4 -36 10.5 -82.5t16 -93
t22.5 -88t30 -68.5q16 -22 37.5 -37.5t44.5 -25t44.5 -14t38.5 -4.5z" />
    <glyph glyph-name="uniFC86" unicode="&#xfee0;&#xfef0;" horiz-adv-x="1151" arabic-form="final" 
d="M1151 0q-53 0 -97.5 20.5t-79.5 62.5q-11 14 -21.5 32.5t-24.5 40.5q-5 -32 -18.5 -66.5t-48.5 -64.5q-11 -10 -21 -17.5t-26 -16.5q25 -5 42 -8t32 -7q35 -9 49 -27t14 -43q-2 -19 -4.5 -42.5t-7.5 -46.5t-12.5 -43t-19.5 -33q-25 -27 -81 -65t-128.5 -72.5t-153 -59
t-153.5 -24.5q-74 0 -129.5 26t-92 71t-54.5 105.5t-18 130.5q0 58 17.5 112t39 96t41.5 67t25 25t5 -6q-23 -50 -37 -82t-25.5 -69.5t-11.5 -70.5q0 -68 20.5 -120.5t54 -87.5t76 -53t86.5 -18q73 0 146 18t136.5 44t113.5 54.5t77 49.5q5 4 12.5 10.5l15 13t18.5 20.5
q-4 3 -23.5 11t-37.5 14q-13 4 -40 10t-56 11.5t-54 10t-33 5.5t-10 3.5t-2 8.5q1 9 4 21t7 23.5t8.5 21t9.5 15.5q25 4 61.5 18t70.5 33.5t57.5 42t23.5 44.5q0 14 -1 26t-2 23q-12 88 -26.5 184.5t-27.5 195t-21.5 195.5t-8.5 186q8 40 14 59.5t22 50.5q10 0 10.5 -19.5
t4.5 -72.5q4 -60 9 -114t11 -107.5t13 -110.5t16 -124q5 -36 13 -81.5t20 -90.5t28 -86t36 -68q34 -47 81 -64t101 -17z" />
    <glyph glyph-name="uniFC87" unicode="&#xfee0;&#xfef2;" horiz-adv-x="1151" arabic-form="final" 
d="M1151 0q-53 0 -97.5 20.5t-79.5 62.5q-11 14 -21.5 32.5t-24.5 40.5q-5 -32 -18.5 -66.5t-48.5 -64.5q-11 -10 -21 -17.5t-26 -16.5q25 -5 42 -8t32 -7q35 -9 49 -27t14 -43q-2 -19 -4.5 -42.5t-7.5 -46.5t-12.5 -43t-19.5 -33q-25 -27 -81 -65t-128.5 -72.5t-153 -59
t-153.5 -24.5q-74 0 -129.5 26t-92 71t-54.5 105.5t-18 130.5q0 58 17.5 112t39 96t41.5 67t25 25t5 -6q-23 -50 -37 -82t-25.5 -69.5t-11.5 -70.5q0 -68 20.5 -120.5t54 -87.5t76 -53t86.5 -18q73 0 146 18t136.5 44t113.5 54.5t77 49.5q5 4 12.5 10.5l15 13t18.5 20.5
q-4 3 -23.5 11t-37.5 14q-13 4 -40 10t-56 11.5t-54 10t-33 5.5t-10 3.5t-2 8.5q1 9 4 21t7 23.5t8.5 21t9.5 15.5q25 4 61.5 18t70.5 33.5t57.5 42t23.5 44.5q0 14 -1 26t-2 23q-12 88 -26.5 184.5t-27.5 195t-21.5 195.5t-8.5 186q8 40 14 59.5t22 50.5q10 0 10.5 -19.5
t4.5 -72.5q4 -60 9 -114t11 -107.5t13 -110.5t16 -124q5 -36 13 -81.5t20 -90.5t28 -86t36 -68q34 -47 81 -64t101 -17zM497 -496l100 -70l-50 -105l-101 70zM331 -527l101 -69l-51 -105l-100 69z" />
    <glyph glyph-name="uniFC88" unicode="&#xfee4;&#xfe8e;" horiz-adv-x="564" arabic-form="final" 
d="M564 0q-28 0 -59.5 -3t-58.5 -9t-45 -15.5t-18 -22.5q0 -28 21 -43.5t57 -34.5q12 -6 30 -11.5t34 -12t27.5 -14t11.5 -18.5q0 -13 -4.5 -36t-11.5 -46t-14 -40t-11 -17q-15 0 -45 11.5t-64 30t-68 41t-58 45.5t-43 52.5t-31.5 61t-20 64t-8.5 61.5q-9 190 -24 375
t-34 379q-2 19 -6 45t-8.5 50.5t-9 44t-7.5 27.5q1 12 4 28.5t7.5 32.5t10 29.5t10.5 19.5q3 0 5 -3q4 -6 8 -19.5t6 -24.5q16 -115 28.5 -234.5t23.5 -238t20.5 -234t20.5 -221.5q1 -14 5.5 -32t10.5 -35.5t13 -33t15 -25.5q16 -17 27 -29t36 -26l4 2l-2 26q0 35 13 58
t36 47q21 22 50 34.5t58 18.5t54 7.5t38 1.5z" />
    <glyph glyph-name="uniFC8C" unicode="&#xfee8;&#xfee2;" horiz-adv-x="786" arabic-form="final" 
d="M786 0q-29 0 -63.5 17.5t-61.5 64.5q-18 31 -28.5 56.5t-21.5 43t-26 27t-41 9.5q-32 0 -65 -5.5t-65 -16t-61 -25t-53 -33.5q31 -9 64 -23t60 -28t44.5 -25t17.5 -14q0 -10 -4 -28.5t-9.5 -37.5t-11.5 -33t-10 -15q-4 -2 -26.5 -4t-54 -6t-68.5 -9.5t-69.5 -15.5
t-57 -24t-31.5 -34q-4 -11 -5.5 -19t-1.5 -24q0 -19 4 -53t9.5 -76t12.5 -88.5t12.5 -91.5t9.5 -85t4 -69q0 -18 -0.5 -38t-2 -37t-4.5 -28t-8 -11t-8.5 13.5t-7 36t-6.5 52t-7 61.5q-2 18 -6.5 47.5t-9.5 64t-10 71.5t-9.5 71t-7 62t-2.5 45q0 52 7.5 92t18.5 69.5t24 47.5
t25 27q18 15 41.5 23.5t44.5 13t35.5 6.5t14.5 4q0 1 -9 3t-21 3t-25 2t-21 1q-15 0 -22 -1.5t-11.5 -3t-9 -2.5t-13.5 -1q-7 0 -7 14q0 9 4.5 23t11 28t14 26.5t14.5 20.5q27 32 67 64.5t89.5 59t106.5 43t118 16.5q34 0 54.5 -24.5t37.5 -57.5t35.5 -66t48.5 -50
q13 -8 26.5 -10t20.5 -2zM547 694l101 -69l-51 -105l-100 69z" />
    <glyph glyph-name="uniFC8E" unicode="&#xfee8;&#xfef0;" horiz-adv-x="1116" arabic-form="final" 
d="M1116 0q-42 0 -71 19.5t-52 63.5q-12 23 -19 41.5t-16 31t-23 19.5t-40 7q-17 0 -41 -8t-51 -21t-54 -29t-48 -32.5t-34.5 -32t-13.5 -26.5q0 -15 21.5 -24.5t51.5 -15.5t62 -9.5t53 -7.5q31 -5 51 -13t31.5 -18.5t15.5 -24t4 -30.5q0 -23 -6 -49t-15.5 -51.5t-20 -47.5
t-19.5 -36q-23 -26 -72.5 -62t-115.5 -69.5t-144.5 -57t-157.5 -23.5q-61 0 -113.5 22t-91 63.5t-60.5 102.5t-22 139q0 54 14.5 103.5t34 89t38 67t27.5 37.5l8 4q6 0 6 -6l-3 -7q-6 -12 -18 -34.5t-23.5 -52t-20.5 -62.5t-9 -66q0 -73 23 -125t58 -85.5t76.5 -49
t79.5 -15.5q77 0 149 19t133 46.5t107 57.5t72 53q14 11 21.5 27.5t8.5 22.5q-16 11 -36 16q-33 8 -67.5 13.5t-72.5 13.5q-29 6 -49 12.5t-32.5 17.5t-18 28t-5.5 43q0 20 5 42t19 51q16 33 51.5 69.5t80.5 66.5t94 50t92 20q23 0 38 -9t25.5 -23.5t18.5 -32t17.5 -35.5
t22.5 -34.5t33 -27.5q13 -8 26.5 -10t20.5 -2zM875 730l101 -69l-51 -105l-100 69z" />
    <glyph glyph-name="uniFC8F" unicode="&#xfee8;&#xfef2;" horiz-adv-x="1116" arabic-form="final" 
d="M1116 0q-42 0 -71 19.5t-52 63.5q-12 23 -19 41.5t-16 31t-23 19.5t-40 7q-17 0 -41 -8t-51 -21t-54 -29t-48 -32.5t-34.5 -32t-13.5 -26.5q0 -15 21.5 -24.5t51.5 -15.5t62 -9.5t53 -7.5q31 -5 51 -13t31.5 -18.5t15.5 -24t4 -30.5q0 -23 -6 -49t-15.5 -51.5t-20 -47.5
t-19.5 -36q-23 -26 -72.5 -62t-115.5 -69.5t-144.5 -57t-157.5 -23.5q-61 0 -113.5 22t-91 63.5t-60.5 102.5t-22 139q0 54 14.5 103.5t34 89t38 67t27.5 37.5l8 4q6 0 6 -6l-3 -7q-6 -12 -18 -34.5t-23.5 -52t-20.5 -62.5t-9 -66q0 -73 23 -125t58 -85.5t76.5 -49
t79.5 -15.5q77 0 149 19t133 46.5t107 57.5t72 53q14 11 21.5 27.5t8.5 22.5q-16 11 -36 16q-33 8 -67.5 13.5t-72.5 13.5q-29 6 -49 12.5t-32.5 17.5t-18 28t-5.5 43q0 20 5 42t19 51q16 33 51.5 69.5t80.5 66.5t94 50t92 20q23 0 38 -9t25.5 -23.5t18.5 -32t17.5 -35.5
t22.5 -34.5t33 -27.5q13 -8 26.5 -10t20.5 -2zM875 730l101 -69l-51 -105l-100 69zM565 -519l100 -70l-50 -105l-101 70zM399 -550l101 -69l-51 -105l-100 69z" />
    <glyph glyph-name="uniFC93" unicode="&#xfbff;&#xfee2;" horiz-adv-x="786" arabic-form="final" 
d="M786 0q-29 0 -63.5 17.5t-61.5 64.5q-18 31 -28.5 56.5t-21.5 43t-26 27t-41 9.5q-32 0 -65 -5.5t-65 -16t-61 -25t-53 -33.5q31 -9 64 -23t60 -28t44.5 -25t17.5 -14q0 -10 -4 -28.5t-9.5 -37.5t-11.5 -33t-10 -15q-4 -2 -26.5 -4t-54 -6t-68.5 -9.5t-69.5 -15.5
t-57 -24t-31.5 -34q-4 -11 -5.5 -19t-1.5 -24q0 -19 4 -53t9.5 -76t12.5 -88.5t12.5 -91.5t9.5 -85t4 -69q0 -18 -0.5 -38t-2 -37t-4.5 -28t-8 -11t-8.5 13.5t-7 36t-6.5 52t-7 61.5q-2 18 -6.5 47.5t-9.5 64t-10 71.5t-9.5 71t-7 62t-2.5 45q0 52 7.5 92t18.5 69.5t24 47.5
t25 27q18 15 41.5 23.5t44.5 13t35.5 6.5t14.5 4q0 1 -9 3t-21 3t-25 2t-21 1q-15 0 -22 -1.5t-11.5 -3t-9 -2.5t-13.5 -1q-7 0 -7 14q0 9 4.5 23t11 28t14 26.5t14.5 20.5q27 32 67 64.5t89.5 59t106.5 43t118 16.5q34 0 54.5 -24.5t37.5 -57.5t35.5 -66t48.5 -50
q13 -8 26.5 -10t20.5 -2zM649 -117l100 -70l-50 -105l-101 70zM483 -148l101 -69l-51 -105l-100 69z" />
    <glyph glyph-name="uniFC97" unicode="&#xfe8b;&#xfea0;" horiz-adv-x="790" arabic-form="initial" 
d="M425 225q-18 7 -44.5 17.5t-56 20t-58.5 16t-51 6.5q-38 0 -65.5 -2t-46.5 -5t-30 -5t-17 -2q-7 0 -10 7q8 22 13.5 34t11.5 25t11 22t21 16q41 19 88.5 37.5t92 38.5t82 43t59.5 52q28 37 52.5 73.5t45.5 66t38 48t29 18.5q9 0 17 -12t14 -29.5t9.5 -35.5t3.5 -30
t-2.5 -31t-6.5 -38t-9 -32.5t-10 -13.5q-6 0 -11 18t-11 40t-14 40t-20 18q-7 0 -26 -24t-41.5 -55.5t-44 -63t-34.5 -46.5q-16 -18 -46.5 -37t-70.5 -37q22 -6 46 -14.5t47.5 -17t45.5 -17t40 -14.5q32 -11 71.5 -19.5t81.5 -14.5t83.5 -9.5t77.5 -3.5l10 -3
q-7 -19 -12 -30t-10.5 -23t-9.5 -22q-5 -11 -7.5 -13t-8.5 -2q-37 2 -57 3.5t-39.5 2.5t-28.5 1q-31 0 -73.5 -10t-87.5 -37q-121 -75 -234 -107.5t-222 -32.5q-22 0 -35.5 13.5t-13.5 35.5q0 29 25 46.5t58 18.5q75 2 146.5 15t131.5 41q24 11 56 26.5t57 28.5zM610 1135
q14 0 22 -14t8 -28q0 -21 -9 -37t-16 -16q-8 0 -15 11q-3 7 -11 9t-16 2t-20.5 -5.5t-24 -13t-19.5 -16.5t-8 -16q0 -11 16 -18t36.5 -11t39 -6t24.5 -2q33 17 50.5 27t51.5 27q7 0 7 -10q-18 -47 -30 -68q-21 -15 -35 -22.5t-31 -16.5l-34 -18q-20 -11 -41 -23t-39 -22.5
t-46 -24.5q-5 0 -5 10t9 20.5t20 20.5t29 28q-23 10 -36.5 18t-25 20t-11.5 27q0 22 16 51t40 55t52 44t52 18zM294 -104l101 -69l-51 -105l-100 69z" />
    <glyph glyph-name="uniFC98" unicode="&#xfe8b;&#xfea4;" horiz-adv-x="790" arabic-form="initial" 
d="M425 225q-18 7 -44.5 17.5t-56 20t-58.5 16t-51 6.5q-38 0 -65.5 -2t-46.5 -5t-30 -5t-17 -2q-7 0 -10 7q8 22 13.5 34t11.5 25t11 22t21 16q41 19 88.5 37.5t92 38.5t82 43t59.5 52q28 37 52.5 73.5t45.5 66t38 48t29 18.5q9 0 17 -12t14 -29.5t9.5 -35.5t3.5 -30
t-2.5 -31t-6.5 -38t-9 -32.5t-10 -13.5q-6 0 -11 18t-11 40t-14 40t-20 18q-7 0 -26 -24t-41.5 -55.5t-44 -63t-34.5 -46.5q-16 -18 -46.5 -37t-70.5 -37q22 -6 46 -14.5t47.5 -17t45.5 -17t40 -14.5q32 -11 71.5 -19.5t81.5 -14.5t83.5 -9.5t77.5 -3.5l10 -3
q-7 -19 -12 -30t-10.5 -23t-9.5 -22q-5 -11 -7.5 -13t-8.5 -2q-37 2 -57 3.5t-39.5 2.5t-28.5 1q-31 0 -73.5 -10t-87.5 -37q-121 -75 -234 -107.5t-222 -32.5q-22 0 -35.5 13.5t-13.5 35.5q0 29 25 46.5t58 18.5q75 2 146.5 15t131.5 41q24 11 56 26.5t57 28.5zM610 1135
q14 0 22 -14t8 -28q0 -21 -9 -37t-16 -16q-8 0 -15 11q-3 7 -11 9t-16 2t-20.5 -5.5t-24 -13t-19.5 -16.5t-8 -16q0 -11 16 -18t36.5 -11t39 -6t24.5 -2q33 17 50.5 27t51.5 27q7 0 7 -10q-18 -47 -30 -68q-21 -15 -35 -22.5t-31 -16.5l-34 -18q-20 -11 -41 -23t-39 -22.5
t-46 -24.5q-5 0 -5 10t9 20.5t20 20.5t29 28q-23 10 -36.5 18t-25 20t-11.5 27q0 22 16 51t40 55t52 44t52 18z" />
    <glyph glyph-name="uniFC99" unicode="&#xfe8b;&#xfea8;" horiz-adv-x="790" arabic-form="initial" 
d="M425 225q-18 7 -44.5 17.5t-56 20t-58.5 16t-51 6.5q-38 0 -65.5 -2t-46.5 -5t-30 -5t-17 -2q-7 0 -10 7q8 22 13.5 34t11.5 25t11 22t21 16q41 19 88.5 37.5t92 38.5t82 43t59.5 52q28 37 52.5 73.5t45.5 66t38 48t29 18.5q9 0 17 -12t14 -29.5t9.5 -35.5t3.5 -30
t-2.5 -31t-6.5 -38t-9 -32.5t-10 -13.5q-6 0 -11 18t-11 40t-14 40t-20 18q-7 0 -26 -24t-41.5 -55.5t-44 -63t-34.5 -46.5q-16 -18 -46.5 -37t-70.5 -37q22 -6 46 -14.5t47.5 -17t45.5 -17t40 -14.5q32 -11 71.5 -19.5t81.5 -14.5t83.5 -9.5t77.5 -3.5l10 -3
q-7 -19 -12 -30t-10.5 -23t-9.5 -22q-5 -11 -7.5 -13t-8.5 -2q-37 2 -57 3.5t-39.5 2.5t-28.5 1q-31 0 -73.5 -10t-87.5 -37q-121 -75 -234 -107.5t-222 -32.5q-22 0 -35.5 13.5t-13.5 35.5q0 29 25 46.5t58 18.5q75 2 146.5 15t131.5 41q24 11 56 26.5t57 28.5zM610 1135
q14 0 22 -14t8 -28q0 -21 -9 -37t-16 -16q-8 0 -15 11q-3 7 -11 9t-16 2t-20.5 -5.5t-24 -13t-19.5 -16.5t-8 -16q0 -11 16 -18t36.5 -11t39 -6t24.5 -2q33 17 50.5 27t51.5 27q7 0 7 -10q-18 -47 -30 -68q-21 -15 -35 -22.5t-31 -16.5l-34 -18q-20 -11 -41 -23t-39 -22.5
t-46 -24.5q-5 0 -5 10t9 20.5t20 20.5t29 28q-23 10 -36.5 18t-25 20t-11.5 27q0 22 16 51t40 55t52 44t52 18zM165 764l101 -69l-51 -105l-100 69z" />
    <glyph glyph-name="uniFC9A" unicode="&#xfe8b;&#xfee4;" horiz-adv-x="425" arabic-form="initial" 
d="M336 558q17 0 33.5 -5.5t29.5 -15t21 -21.5t8 -25t-5 -27.5t-12 -26.5t-14.5 -20t-13.5 -8q-5 0 -11.5 8.5t-15.5 18t-21 18t-27 8.5q-17 0 -40 -8t-43.5 -24t-35 -38.5t-14.5 -50.5q0 -25 13 -51t31 -50t38.5 -43t35.5 -29q25 -7 50.5 -16t46.5 -22t28 -30.5t7 -40.5
q0 -11 -4.5 -28t-11 -33.5t-13.5 -28.5t-11 -12q-17 0 -39.5 10.5t-45.5 26.5t-43 34.5t-30 33.5q-21 -2 -51.5 -12t-63.5 -21t-63 -20t-49 -9q-26 0 -37 9.5t-11 23.5q0 13 7.5 27t19 26t26 20t29.5 8q10 0 27 5t36.5 11t40 11.5t36.5 7.5q-5 7 -12.5 20.5t-15 31t-13 37
t-5.5 38.5q0 53 19 104t49 90.5t67 63.5t73 24zM290 1031q14 0 22 -14t8 -28q0 -21 -9 -37t-16 -16q-8 0 -15 11q-3 7 -11 9t-16 2t-20.5 -5.5t-24 -13t-19.5 -16.5t-8 -16q0 -11 16 -18t36.5 -11t39 -6t24.5 -2q33 17 50.5 27t51.5 27q7 0 7 -10q-18 -47 -30 -68
q-21 -15 -35 -22.5t-31 -16.5l-34 -18q-20 -11 -41 -23t-39 -22.5t-46 -24.5q-5 0 -5 10t9 20.5t20 20.5t29 28q-23 10 -36.5 18t-25 20t-11.5 27q0 22 16 51t40 55t52 44t52 18z" />
    <glyph glyph-name="uniFC9B" unicode="&#xfe8b;&#xfeec;" horiz-adv-x="654" arabic-form="initial" 
d="M261 287q5 0 6 -5.5t1 -19.5q0 -60 -18.5 -105t-37.5 -77q-12 -24 -17.5 -41t-10 -39.5t-4.5 -47.5q0 -39 8 -73.5t19 -60t22 -40t17 -14.5q-4 25 -6 46.5t-2 42.5q0 19 5 41.5t12.5 45t17 44t18.5 38.5q21 39 48.5 71.5t60.5 56t70 36.5t77 13q24 0 47.5 -8.5
t45.5 -27.5q13 -10 13 -20q-8 -41 -13 -63.5t-18 -58.5q-5 0 -6 3.5t-1.5 9t-3 13t-10.5 16.5q-20 22 -40.5 28t-43.5 6q-105 0 -176 -77q-30 -33 -52.5 -79.5t-22.5 -103.5q0 -36 10.5 -62.5t23 -44.5t33.5 -40q0 -5 -4.5 -23t-10 -37.5t-18.5 -50.5q-18 0 -44.5 19.5
t-51 59t-42 98.5t-17.5 139q0 29 3.5 56t7.5 48.5t12 53.5q-14 -14 -34.5 -24t-43.5 -16.5t-46.5 -9.5t-43.5 -3q-22 0 -35 16t-13 38q0 10 7 21t18 19.5t26 14t31 5.5q10 0 32.5 3.5t49.5 13t54.5 26.5t47.5 45q3 4 9.5 18t13 29t20.5 38zM537 727q14 0 22 -14t8 -28
q0 -21 -9 -37t-16 -16q-8 0 -15 11q-3 7 -11 9t-16 2t-20.5 -5.5t-24 -13t-19.5 -16.5t-8 -16q0 -11 16 -18t36.5 -11t39 -6t24.5 -2q33 17 50.5 27t51.5 27q7 0 7 -10q-18 -47 -30 -68q-21 -15 -35 -22.5t-31 -16.5l-34 -18q-20 -11 -41 -23t-39 -22.5t-46 -24.5
q-5 0 -5 10t9 20.5t20 20.5t29 28q-23 10 -36.5 18t-25 20t-11.5 27q0 22 16 51t40 55t52 44t52 18z" />
    <glyph glyph-name="uniFC9C" unicode="&#xfe91;&#xfea0;" horiz-adv-x="790" arabic-form="initial" 
d="M425 225q-18 7 -44.5 17.5t-56 20t-58.5 16t-51 6.5q-38 0 -65.5 -2t-46.5 -5t-30 -5t-17 -2q-7 0 -10 7q8 22 13.5 34t11.5 25t11 22t21 16q41 19 88.5 37.5t92 38.5t82 43t59.5 52q28 37 52.5 73.5t45.5 66t38 48t29 18.5q9 0 17 -12t14 -29.5t9.5 -35.5t3.5 -30
t-2.5 -31t-6.5 -38t-9 -32.5t-10 -13.5q-6 0 -11 18t-11 40t-14 40t-20 18q-7 0 -26 -24t-41.5 -55.5t-44 -63t-34.5 -46.5q-16 -18 -46.5 -37t-70.5 -37q22 -6 46 -14.5t47.5 -17t45.5 -17t40 -14.5q32 -11 71.5 -19.5t81.5 -14.5t83.5 -9.5t77.5 -3.5l10 -3
q-7 -19 -12 -30t-10.5 -23t-9.5 -22q-5 -11 -7.5 -13t-8.5 -2q-37 2 -57 3.5t-39.5 2.5t-28.5 1q-31 0 -73.5 -10t-87.5 -37q-121 -75 -234 -107.5t-222 -32.5q-22 0 -35.5 13.5t-13.5 35.5q0 29 25 46.5t58 18.5q75 2 146.5 15t131.5 41q24 11 56 26.5t57 28.5zM650 1
l101 -69l-51 -105l-100 69zM294 -104l101 -69l-51 -105l-100 69z" />
    <glyph glyph-name="uniFC9D" unicode="&#xfe91;&#xfea4;" horiz-adv-x="790" arabic-form="initial" 
d="M425 225q-18 7 -44.5 17.5t-56 20t-58.5 16t-51 6.5q-38 0 -65.5 -2t-46.5 -5t-30 -5t-17 -2q-7 0 -10 7q8 22 13.5 34t11.5 25t11 22t21 16q41 19 88.5 37.5t92 38.5t82 43t59.5 52q28 37 52.5 73.5t45.5 66t38 48t29 18.5q9 0 17 -12t14 -29.5t9.5 -35.5t3.5 -30
t-2.5 -31t-6.5 -38t-9 -32.5t-10 -13.5q-6 0 -11 18t-11 40t-14 40t-20 18q-7 0 -26 -24t-41.5 -55.5t-44 -63t-34.5 -46.5q-16 -18 -46.5 -37t-70.5 -37q22 -6 46 -14.5t47.5 -17t45.5 -17t40 -14.5q32 -11 71.5 -19.5t81.5 -14.5t83.5 -9.5t77.5 -3.5l10 -3
q-7 -19 -12 -30t-10.5 -23t-9.5 -22q-5 -11 -7.5 -13t-8.5 -2q-37 2 -57 3.5t-39.5 2.5t-28.5 1q-31 0 -73.5 -10t-87.5 -37q-121 -75 -234 -107.5t-222 -32.5q-22 0 -35.5 13.5t-13.5 35.5q0 29 25 46.5t58 18.5q75 2 146.5 15t131.5 41q24 11 56 26.5t57 28.5zM610 2
l101 -69l-51 -105l-100 69z" />
    <glyph glyph-name="uniFC9E" unicode="&#xfe91;&#xfea8;" horiz-adv-x="790" arabic-form="initial" 
d="M425 225q-18 7 -44.5 17.5t-56 20t-58.5 16t-51 6.5q-38 0 -65.5 -2t-46.5 -5t-30 -5t-17 -2q-7 0 -10 7q8 22 13.5 34t11.5 25t11 22t21 16q41 19 88.5 37.5t92 38.5t82 43t59.5 52q28 37 52.5 73.5t45.5 66t38 48t29 18.5q9 0 17 -12t14 -29.5t9.5 -35.5t3.5 -30
t-2.5 -31t-6.5 -38t-9 -32.5t-10 -13.5q-6 0 -11 18t-11 40t-14 40t-20 18q-7 0 -26 -24t-41.5 -55.5t-44 -63t-34.5 -46.5q-16 -18 -46.5 -37t-70.5 -37q22 -6 46 -14.5t47.5 -17t45.5 -17t40 -14.5q32 -11 71.5 -19.5t81.5 -14.5t83.5 -9.5t77.5 -3.5l10 -3
q-7 -19 -12 -30t-10.5 -23t-9.5 -22q-5 -11 -7.5 -13t-8.5 -2q-37 2 -57 3.5t-39.5 2.5t-28.5 1q-31 0 -73.5 -10t-87.5 -37q-121 -75 -234 -107.5t-222 -32.5q-22 0 -35.5 13.5t-13.5 35.5q0 29 25 46.5t58 18.5q75 2 146.5 15t131.5 41q24 11 56 26.5t57 28.5zM610 2
l101 -69l-51 -105l-100 69zM165 764l101 -69l-51 -105l-100 69z" />
    <glyph glyph-name="uniFC9F" unicode="&#xfe91;&#xfee4;" horiz-adv-x="425" arabic-form="initial" 
d="M336 558q17 0 33.5 -5.5t29.5 -15t21 -21.5t8 -25t-5 -27.5t-12 -26.5t-14.5 -20t-13.5 -8q-5 0 -11.5 8.5t-15.5 18t-21 18t-27 8.5q-17 0 -40 -8t-43.5 -24t-35 -38.5t-14.5 -50.5q0 -25 13 -51t31 -50t38.5 -43t35.5 -29q25 -7 50.5 -16t46.5 -22t28 -30.5t7 -40.5
q0 -11 -4.5 -28t-11 -33.5t-13.5 -28.5t-11 -12q-17 0 -39.5 10.5t-45.5 26.5t-43 34.5t-30 33.5q-21 -2 -51.5 -12t-63.5 -21t-63 -20t-49 -9q-26 0 -37 9.5t-11 23.5q0 13 7.5 27t19 26t26 20t29.5 8q10 0 27 5t36.5 11t40 11.5t36.5 7.5q-5 7 -12.5 20.5t-15 31t-13 37
t-5.5 38.5q0 53 19 104t49 90.5t67 63.5t73 24zM366 -134l101 -69l-51 -105l-100 69z" />
    <glyph glyph-name="uniFCA0" unicode="&#xfe91;&#xfeec;" horiz-adv-x="654" arabic-form="initial" 
d="M261 287q5 0 6 -5.5t1 -19.5q0 -60 -18.5 -105t-37.5 -77q-12 -24 -17.5 -41t-10 -39.5t-4.5 -47.5q0 -39 8 -73.5t19 -60t22 -40t17 -14.5q-4 25 -6 46.5t-2 42.5q0 19 5 41.5t12.5 45t17 44t18.5 38.5q21 39 48.5 71.5t60.5 56t70 36.5t77 13q24 0 47.5 -8.5
t45.5 -27.5q13 -10 13 -20q-8 -41 -13 -63.5t-18 -58.5q-5 0 -6 3.5t-1.5 9t-3 13t-10.5 16.5q-20 22 -40.5 28t-43.5 6q-105 0 -176 -77q-30 -33 -52.5 -79.5t-22.5 -103.5q0 -36 10.5 -62.5t23 -44.5t33.5 -40q0 -5 -4.5 -23t-10 -37.5t-18.5 -50.5q-18 0 -44.5 19.5
t-51 59t-42 98.5t-17.5 139q0 29 3.5 56t7.5 48.5t12 53.5q-14 -14 -34.5 -24t-43.5 -16.5t-46.5 -9.5t-43.5 -3q-22 0 -35 16t-13 38q0 10 7 21t18 19.5t26 14t31 5.5q10 0 32.5 3.5t49.5 13t54.5 26.5t47.5 45q3 4 9.5 18t13 29t20.5 38zM486 -134l101 -69l-51 -105
l-100 69z" />
    <glyph glyph-name="uniFCA1" unicode="&#xfe97;&#xfea0;" horiz-adv-x="790" arabic-form="initial" 
d="M425 225q-18 7 -44.5 17.5t-56 20t-58.5 16t-51 6.5q-38 0 -65.5 -2t-46.5 -5t-30 -5t-17 -2q-7 0 -10 7q8 22 13.5 34t11.5 25t11 22t21 16q41 19 88.5 37.5t92 38.5t82 43t59.5 52q28 37 52.5 73.5t45.5 66t38 48t29 18.5q9 0 17 -12t14 -29.5t9.5 -35.5t3.5 -30
t-2.5 -31t-6.5 -38t-9 -32.5t-10 -13.5q-6 0 -11 18t-11 40t-14 40t-20 18q-7 0 -26 -24t-41.5 -55.5t-44 -63t-34.5 -46.5q-16 -18 -46.5 -37t-70.5 -37q22 -6 46 -14.5t47.5 -17t45.5 -17t40 -14.5q32 -11 71.5 -19.5t81.5 -14.5t83.5 -9.5t77.5 -3.5l10 -3
q-7 -19 -12 -30t-10.5 -23t-9.5 -22q-5 -11 -7.5 -13t-8.5 -2q-37 2 -57 3.5t-39.5 2.5t-28.5 1q-31 0 -73.5 -10t-87.5 -37q-121 -75 -234 -107.5t-222 -32.5q-22 0 -35.5 13.5t-13.5 35.5q0 29 25 46.5t58 18.5q75 2 146.5 15t131.5 41q24 11 56 26.5t57 28.5zM294 -104
l101 -69l-51 -105l-100 69zM626 1069l100 -70l-50 -105l-101 70zM460 1038l101 -69l-51 -105l-100 69z" />
    <glyph glyph-name="uniFCA2" unicode="&#xfe97;&#xfea4;" horiz-adv-x="790" arabic-form="initial" 
d="M425 225q-18 7 -44.5 17.5t-56 20t-58.5 16t-51 6.5q-38 0 -65.5 -2t-46.5 -5t-30 -5t-17 -2q-7 0 -10 7q8 22 13.5 34t11.5 25t11 22t21 16q41 19 88.5 37.5t92 38.5t82 43t59.5 52q28 37 52.5 73.5t45.5 66t38 48t29 18.5q9 0 17 -12t14 -29.5t9.5 -35.5t3.5 -30
t-2.5 -31t-6.5 -38t-9 -32.5t-10 -13.5q-6 0 -11 18t-11 40t-14 40t-20 18q-7 0 -26 -24t-41.5 -55.5t-44 -63t-34.5 -46.5q-16 -18 -46.5 -37t-70.5 -37q22 -6 46 -14.5t47.5 -17t45.5 -17t40 -14.5q32 -11 71.5 -19.5t81.5 -14.5t83.5 -9.5t77.5 -3.5l10 -3
q-7 -19 -12 -30t-10.5 -23t-9.5 -22q-5 -11 -7.5 -13t-8.5 -2q-37 2 -57 3.5t-39.5 2.5t-28.5 1q-31 0 -73.5 -10t-87.5 -37q-121 -75 -234 -107.5t-222 -32.5q-22 0 -35.5 13.5t-13.5 35.5q0 29 25 46.5t58 18.5q75 2 146.5 15t131.5 41q24 11 56 26.5t57 28.5zM626 1069
l100 -70l-50 -105l-101 70zM460 1038l101 -69l-51 -105l-100 69z" />
    <glyph glyph-name="uniFCA3" unicode="&#xfe97;&#xfea8;" horiz-adv-x="790" arabic-form="initial" 
d="M425 225q-18 7 -44.5 17.5t-56 20t-58.5 16t-51 6.5q-38 0 -65.5 -2t-46.5 -5t-30 -5t-17 -2q-7 0 -10 7q8 22 13.5 34t11.5 25t11 22t21 16q41 19 88.5 37.5t92 38.5t82 43t59.5 52q28 37 52.5 73.5t45.5 66t38 48t29 18.5q9 0 17 -12t14 -29.5t9.5 -35.5t3.5 -30
t-2.5 -31t-6.5 -38t-9 -32.5t-10 -13.5q-6 0 -11 18t-11 40t-14 40t-20 18q-7 0 -26 -24t-41.5 -55.5t-44 -63t-34.5 -46.5q-16 -18 -46.5 -37t-70.5 -37q22 -6 46 -14.5t47.5 -17t45.5 -17t40 -14.5q32 -11 71.5 -19.5t81.5 -14.5t83.5 -9.5t77.5 -3.5l10 -3
q-7 -19 -12 -30t-10.5 -23t-9.5 -22q-5 -11 -7.5 -13t-8.5 -2q-37 2 -57 3.5t-39.5 2.5t-28.5 1q-31 0 -73.5 -10t-87.5 -37q-121 -75 -234 -107.5t-222 -32.5q-22 0 -35.5 13.5t-13.5 35.5q0 29 25 46.5t58 18.5q75 2 146.5 15t131.5 41q24 11 56 26.5t57 28.5zM626 1069
l100 -70l-50 -105l-101 70zM460 1038l101 -69l-51 -105l-100 69zM165 764l101 -69l-51 -105l-100 69z" />
    <glyph glyph-name="uniFCA4" unicode="&#xfe97;&#xfee4;" horiz-adv-x="425" arabic-form="initial" 
d="M336 558q17 0 33.5 -5.5t29.5 -15t21 -21.5t8 -25t-5 -27.5t-12 -26.5t-14.5 -20t-13.5 -8q-5 0 -11.5 8.5t-15.5 18t-21 18t-27 8.5q-17 0 -40 -8t-43.5 -24t-35 -38.5t-14.5 -50.5q0 -25 13 -51t31 -50t38.5 -43t35.5 -29q25 -7 50.5 -16t46.5 -22t28 -30.5t7 -40.5
q0 -11 -4.5 -28t-11 -33.5t-13.5 -28.5t-11 -12q-17 0 -39.5 10.5t-45.5 26.5t-43 34.5t-30 33.5q-21 -2 -51.5 -12t-63.5 -21t-63 -20t-49 -9q-26 0 -37 9.5t-11 23.5q0 13 7.5 27t19 26t26 20t29.5 8q10 0 27 5t36.5 11t40 11.5t36.5 7.5q-5 7 -12.5 20.5t-15 31t-13 37
t-5.5 38.5q0 53 19 104t49 90.5t67 63.5t73 24zM309 870l100 -70l-50 -105l-101 70zM143 839l101 -69l-51 -105l-100 69z" />
    <glyph glyph-name="uniFCA5" unicode="&#xfe97;&#xfeec;" horiz-adv-x="657" arabic-form="initial" 
d="M261 287q5 0 6 -5.5t1 -19.5q0 -60 -18.5 -105t-37.5 -77q-12 -24 -17.5 -41t-10 -39.5t-4.5 -47.5q0 -39 8 -73.5t19 -60t22 -40t17 -14.5q-4 25 -6 46.5t-2 42.5q0 19 5 41.5t12.5 45t17 44t18.5 38.5q21 39 48.5 71.5t60.5 56t70 36.5t77 13q24 0 47.5 -8.5
t45.5 -27.5q13 -10 13 -20q-8 -41 -13 -63.5t-18 -58.5q-5 0 -6 3.5t-1.5 9t-3 13t-10.5 16.5q-20 22 -40.5 28t-43.5 6q-105 0 -176 -77q-30 -33 -52.5 -79.5t-22.5 -103.5q0 -36 10.5 -62.5t23 -44.5t33.5 -40q0 -5 -4.5 -23t-10 -37.5t-18.5 -50.5q-18 0 -44.5 19.5
t-51 59t-42 98.5t-17.5 139q0 29 3.5 56t7.5 48.5t12 53.5q-14 -14 -34.5 -24t-43.5 -16.5t-46.5 -9.5t-43.5 -3q-22 0 -35 16t-13 38q0 10 7 21t18 19.5t26 14t31 5.5q10 0 32.5 3.5t49.5 13t54.5 26.5t47.5 45q3 4 9.5 18t13 29t20.5 38zM534 565l100 -70l-50 -105
l-101 70zM368 534l101 -69l-51 -105l-100 69z" />
    <glyph glyph-name="uniFCA6" unicode="&#xfe9b;&#xfee4;" horiz-adv-x="425" arabic-form="initial" 
d="M336 558q17 0 33.5 -5.5t29.5 -15t21 -21.5t8 -25t-5 -27.5t-12 -26.5t-14.5 -20t-13.5 -8q-5 0 -11.5 8.5t-15.5 18t-21 18t-27 8.5q-17 0 -40 -8t-43.5 -24t-35 -38.5t-14.5 -50.5q0 -25 13 -51t31 -50t38.5 -43t35.5 -29q25 -7 50.5 -16t46.5 -22t28 -30.5t7 -40.5
q0 -11 -4.5 -28t-11 -33.5t-13.5 -28.5t-11 -12q-17 0 -39.5 10.5t-45.5 26.5t-43 34.5t-30 33.5q-21 -2 -51.5 -12t-63.5 -21t-63 -20t-49 -9q-26 0 -37 9.5t-11 23.5q0 13 7.5 27t19 26t26 20t29.5 8q10 0 27 5t36.5 11t40 11.5t36.5 7.5q-5 7 -12.5 20.5t-15 31t-13 37
t-5.5 38.5q0 53 19 104t49 90.5t67 63.5t73 24zM320 864l100 -70l-50 -105l-101 70zM147 837l101 -69l-51 -105l-100 69zM201 1013l100 -69l-50 -105l-101 69z" />
    <glyph glyph-name="uniFCA7" unicode="&#xfe9f;&#xfea4;" horiz-adv-x="1004" arabic-form="initial" 
d="M46 278q0 6 12 25.5t26 36.5q27 27 65 50t82 42.5t91.5 35t92.5 27.5q72 19 124.5 23.5t97.5 8.5q-18 7 -45.5 20t-57.5 26t-60 22.5t-52 9.5q-7 0 -30.5 -4.5t-50.5 -10.5t-50.5 -10.5t-29.5 -4.5t-8 1t-2 6q7 24 12.5 37l11 26t9.5 20q7 14 24 24.5t37 17.5t41 10.5
t37 3.5q18 0 47 -12t62 -28.5t65.5 -33.5t58.5 -27q50 -21 99 -36t92.5 -25t79 -15.5t59.5 -6.5l10 -3q-7 -19 -12 -30t-10.5 -23t-9.5 -22q-5 -11 -7.5 -13t-8.5 -2q-42 9 -68 14t-54.5 9.5t-49.5 4.5q-20 0 -48.5 -1t-59 -3t-59.5 -4.5t-48 -5.5q-79 -13 -151.5 -35
t-123.5 -40q45 -12 94 -31t86 -32q32 -11 71.5 -19.5t81.5 -14.5t83.5 -9.5t77.5 -3.5l10 -3q-7 -19 -12 -30t-10.5 -23t-9.5 -22q-5 -11 -7.5 -13t-8.5 -2q-37 2 -57 3.5t-39.5 2.5t-28.5 1q-31 0 -73.5 -10t-87.5 -37q-121 -75 -234 -107.5t-222 -32.5q-22 0 -35.5 13.5
t-13.5 35.5q0 29 25 46.5t58 18.5q75 2 146.5 15t131.5 41q24 11 56 26.5t57 28.5q-18 7 -44.5 17.5t-56 20t-58.5 16t-51 6.5q-38 0 -65.5 -2t-46.5 -5t-30 -5t-17 -2t-8 1t-2 6zM777 87l101 -69l-51 -105l-100 69z" />
    <glyph glyph-name="uniFCA8" unicode="&#xfe9f;&#xfee4;" horiz-adv-x="939" arabic-form="initial" 
d="M936 399q-10 -26 -17.5 -42t-14.5 -33q-5 -11 -8 -13t-8 -2q-19 2 -34 4.5t-26 4.5q-74 11 -112 15t-57 4q-37 0 -81.5 -4.5t-88.5 -12t-85 -17t-71 -18.5q26 -8 45.5 -22.5t32 -32t19 -37t6.5 -35.5q0 -35 -8.5 -59t-22 -39t-30.5 -21.5t-33 -6.5q-26 0 -53 5t-52 15
t-45 26t-31 37q-11 -18 -26.5 -40.5t-32.5 -36.5q-23 -20 -50.5 -29t-51.5 -9q-22 0 -34 14.5t-12 35.5t19 42.5t61 21.5q30 0 58.5 13.5t47.5 42.5q7 10 14.5 25.5t15.5 31t15.5 29t13.5 21.5q27 36 66.5 54t90.5 31t106.5 21t112.5 14q-18 7 -44 20.5t-54.5 27t-57.5 23.5
t-53 10q-37 0 -57.5 -4.5t-32 -10.5t-17 -10.5t-11.5 -4.5q-10 0 -10 9t4 20t10.5 22t14 21t14.5 18q26 27 48 38t63 11q27 0 56 -10.5t58.5 -25.5t58 -31.5t54.5 -28.5q48 -23 92.5 -39t84.5 -27t73 -16.5t57 -6.5zM373 149q0 6 -10.5 17.5t-28 23t-39 19.5t-43.5 8t-31 -5
t-9 -14q0 -14 20.5 -29t41.5 -24q13 -5 28 -7.5t29 -2.5q17 0 29.5 3.5t12.5 10.5zM623 67l101 -69l-51 -105l-100 69z" />
    <glyph glyph-name="uniFCA9" unicode="&#xfea3;&#xfea0;" horiz-adv-x="1004" arabic-form="initial" 
d="M46 278q0 6 12 25.5t26 36.5q27 27 65 50t82 42.5t91.5 35t92.5 27.5q72 19 124.5 23.5t97.5 8.5q-18 7 -45.5 20t-57.5 26t-60 22.5t-52 9.5q-7 0 -30.5 -4.5t-50.5 -10.5t-50.5 -10.5t-29.5 -4.5t-8 1t-2 6q7 24 12.5 37l11 26t9.5 20q7 14 24 24.5t37 17.5t41 10.5
t37 3.5q18 0 47 -12t62 -28.5t65.5 -33.5t58.5 -27q50 -21 99 -36t92.5 -25t79 -15.5t59.5 -6.5l10 -3q-7 -19 -12 -30t-10.5 -23t-9.5 -22q-5 -11 -7.5 -13t-8.5 -2q-42 9 -68 14t-54.5 9.5t-49.5 4.5q-20 0 -48.5 -1t-59 -3t-59.5 -4.5t-48 -5.5q-79 -13 -151.5 -35
t-123.5 -40q45 -12 94 -31t86 -32q32 -11 71.5 -19.5t81.5 -14.5t83.5 -9.5t77.5 -3.5l10 -3q-7 -19 -12 -30t-10.5 -23t-9.5 -22q-5 -11 -7.5 -13t-8.5 -2q-37 2 -57 3.5t-39.5 2.5t-28.5 1q-31 0 -73.5 -10t-87.5 -37q-121 -75 -234 -107.5t-222 -32.5q-22 0 -35.5 13.5
t-13.5 35.5q0 29 25 46.5t58 18.5q75 2 146.5 15t131.5 41q24 11 56 26.5t57 28.5q-18 7 -44.5 17.5t-56 20t-58.5 16t-51 6.5q-38 0 -65.5 -2t-46.5 -5t-30 -5t-17 -2t-8 1t-2 6zM261 -101l101 -69l-51 -105l-100 69z" />
    <glyph glyph-name="uniFCAA" unicode="&#xfea3;&#xfee4;" horiz-adv-x="937" arabic-form="initial" 
d="M936 399q-10 -26 -17.5 -42t-14.5 -33q-5 -11 -8 -13t-8 -2q-19 2 -34 4.5t-26 4.5q-74 11 -112 15t-57 4q-37 0 -81.5 -4.5t-88.5 -12t-85 -17t-71 -18.5q26 -8 45.5 -22.5t32 -32t19 -37t6.5 -35.5q0 -35 -8.5 -59t-22 -39t-30.5 -21.5t-33 -6.5q-26 0 -53 5t-52 15
t-45 26t-31 37q-11 -18 -26.5 -40.5t-32.5 -36.5q-23 -20 -50.5 -29t-51.5 -9q-22 0 -34 14.5t-12 35.5t19 42.5t61 21.5q30 0 58.5 13.5t47.5 42.5q7 10 14.5 25.5t15.5 31t15.5 29t13.5 21.5q27 36 66.5 54t90.5 31t106.5 21t112.5 14q-18 7 -44 20.5t-54.5 27t-57.5 23.5
t-53 10q-37 0 -57.5 -4.5t-32 -10.5t-17 -10.5t-11.5 -4.5q-10 0 -10 9t4 20t10.5 22t14 21t14.5 18q26 27 48 38t63 11q27 0 56 -10.5t58.5 -25.5t58 -31.5t54.5 -28.5q48 -23 92.5 -39t84.5 -27t73 -16.5t57 -6.5zM373 149q0 6 -10.5 17.5t-28 23t-39 19.5t-43.5 8t-31 -5
t-9 -14q0 -14 20.5 -29t41.5 -24q13 -5 28 -7.5t29 -2.5q17 0 29.5 3.5t12.5 10.5z" />
    <glyph glyph-name="uniFCAB" unicode="&#xfea7;&#xfea0;" horiz-adv-x="1004" arabic-form="initial" 
d="M46 278q0 6 12 25.5t26 36.5q27 27 65 50t82 42.5t91.5 35t92.5 27.5q72 19 124.5 23.5t97.5 8.5q-18 7 -45.5 20t-57.5 26t-60 22.5t-52 9.5q-7 0 -30.5 -4.5t-50.5 -10.5t-50.5 -10.5t-29.5 -4.5t-8 1t-2 6q7 24 12.5 37l11 26t9.5 20q7 14 24 24.5t37 17.5t41 10.5
t37 3.5q18 0 47 -12t62 -28.5t65.5 -33.5t58.5 -27q50 -21 99 -36t92.5 -25t79 -15.5t59.5 -6.5l10 -3q-7 -19 -12 -30t-10.5 -23t-9.5 -22q-5 -11 -7.5 -13t-8.5 -2q-42 9 -68 14t-54.5 9.5t-49.5 4.5q-20 0 -48.5 -1t-59 -3t-59.5 -4.5t-48 -5.5q-79 -13 -151.5 -35
t-123.5 -40q45 -12 94 -31t86 -32q32 -11 71.5 -19.5t81.5 -14.5t83.5 -9.5t77.5 -3.5l10 -3q-7 -19 -12 -30t-10.5 -23t-9.5 -22q-5 -11 -7.5 -13t-8.5 -2q-37 2 -57 3.5t-39.5 2.5t-28.5 1q-31 0 -73.5 -10t-87.5 -37q-121 -75 -234 -107.5t-222 -32.5q-22 0 -35.5 13.5
t-13.5 35.5q0 29 25 46.5t58 18.5q75 2 146.5 15t131.5 41q24 11 56 26.5t57 28.5q-18 7 -44.5 17.5t-56 20t-58.5 16t-51 6.5q-38 0 -65.5 -2t-46.5 -5t-30 -5t-17 -2t-8 1t-2 6zM261 -109l101 -69l-51 -105l-100 69zM453 1056l101 -69l-51 -105l-100 69z" />
    <glyph glyph-name="uniFCAC" unicode="&#xfea7;&#xfee4;" horiz-adv-x="939" arabic-form="initial" 
d="M936 399q-10 -26 -17.5 -42t-14.5 -33q-5 -11 -8 -13t-8 -2q-19 2 -34 4.5t-26 4.5q-74 11 -112 15t-57 4q-37 0 -81.5 -4.5t-88.5 -12t-85 -17t-71 -18.5q26 -8 45.5 -22.5t32 -32t19 -37t6.5 -35.5q0 -35 -8.5 -59t-22 -39t-30.5 -21.5t-33 -6.5q-26 0 -53 5t-52 15
t-45 26t-31 37q-11 -18 -26.5 -40.5t-32.5 -36.5q-23 -20 -50.5 -29t-51.5 -9q-22 0 -34 14.5t-12 35.5t19 42.5t61 21.5q30 0 58.5 13.5t47.5 42.5q7 10 14.5 25.5t15.5 31t15.5 29t13.5 21.5q27 36 66.5 54t90.5 31t106.5 21t112.5 14q-18 7 -44 20.5t-54.5 27t-57.5 23.5
t-53 10q-37 0 -57.5 -4.5t-32 -10.5t-17 -10.5t-11.5 -4.5q-10 0 -10 9t4 20t10.5 22t14 21t14.5 18q26 27 48 38t63 11q27 0 56 -10.5t58.5 -25.5t58 -31.5t54.5 -28.5q48 -23 92.5 -39t84.5 -27t73 -16.5t57 -6.5zM373 149q0 6 -10.5 17.5t-28 23t-39 19.5t-43.5 8t-31 -5
t-9 -14q0 -14 20.5 -29t41.5 -24q13 -5 28 -7.5t29 -2.5q17 0 29.5 3.5t12.5 10.5zM491 959l101 -69l-51 -105l-100 69z" />
    <glyph glyph-name="uniFCAD" unicode="&#xfeb3;&#xfea0;" horiz-adv-x="1185" arabic-form="initial" 
d="M1146 757q16 -33 22 -57t11 -52t5 -50q0 -34 -7 -66t-19.5 -57t-30 -40t-37.5 -15q-54 0 -103 16.5t-81 39.5q-34 -51 -84 -78t-120 -27q-43 0 -71 13.5t-45.5 34.5t-26 44.5t-13 44.5t-7.5 34.5t-8 13.5q-7 0 -20 -13t-28.5 -31t-31.5 -38t-29 -35q-15 -17 -41 -31
t-68 -33q39 -13 80.5 -28t72.5 -26q32 -11 71.5 -20t81.5 -15t83.5 -9.5t77.5 -3.5l10 -3q-7 -19 -12 -30t-10.5 -23t-9.5 -22q-5 -11 -7.5 -13t-8.5 -2q-37 2 -57 3.5t-39.5 2.5t-28.5 1q-31 0 -73.5 -10t-87.5 -37q-121 -75 -234 -107.5t-222 -32.5q-22 0 -35.5 13.5
t-13.5 35.5q0 29 25 46.5t58 18.5q75 2 146.5 15t131.5 41q24 11 56 26.5t57 28.5q-18 7 -44.5 17.5t-56 20t-58.5 16t-51 6.5q-38 0 -65.5 -2t-46.5 -5t-30 -5t-17 -2q-7 0 -10 7q9 25 15 38.5t13 27t15 23.5q10 6 14 8q41 19 91 34.5t98 32t88.5 37t62.5 49.5
q27 36 45.5 63.5t32.5 45.5t26 27.5t27 9.5q14 0 21.5 -13.5t13 -33t12.5 -43t20 -43t34.5 -33t56.5 -13.5q57 0 97 23.5t59 58.5q9 16 18.5 39.5t19 46t18.5 38.5t17 16q9 -18 9 -29q0 -22 -4 -47t-13 -57q28 -26 73 -40.5t87 -14.5q17 0 22.5 4t5.5 21q0 15 -4 29.5
t-9.5 26.5t-9.5 21t-4 14q0 7 4 25.5t9 37.5t19 49zM385 -101l101 -69l-51 -105l-100 69z" />
    <glyph glyph-name="uniFCAE" unicode="&#xfeb3;&#xfea4;" horiz-adv-x="1188" arabic-form="initial" 
d="M1146 757q16 -33 22 -57t11 -52t5 -50q0 -34 -7 -66t-19.5 -57t-30 -40t-37.5 -15q-54 0 -103 16.5t-81 39.5q-34 -51 -84 -78t-120 -27q-43 0 -71 13.5t-45.5 34.5t-26 44.5t-13 44.5t-7.5 34.5t-8 13.5q-7 0 -20 -13t-28.5 -31t-31.5 -38t-29 -35q-15 -17 -41 -31
t-68 -33q39 -13 80.5 -28t72.5 -26q32 -11 71.5 -20t81.5 -15t83.5 -9.5t77.5 -3.5l10 -3q-7 -19 -12 -30t-10.5 -23t-9.5 -22q-5 -11 -7.5 -13t-8.5 -2q-37 2 -57 3.5t-39.5 2.5t-28.5 1q-31 0 -73.5 -10t-87.5 -37q-121 -75 -234 -107.5t-222 -32.5q-22 0 -35.5 13.5
t-13.5 35.5q0 29 25 46.5t58 18.5q75 2 146.5 15t131.5 41q24 11 56 26.5t57 28.5q-18 7 -44.5 17.5t-56 20t-58.5 16t-51 6.5q-38 0 -65.5 -2t-46.5 -5t-30 -5t-17 -2q-7 0 -10 7q9 25 15 38.5t13 27t15 23.5q10 6 14 8q41 19 91 34.5t98 32t88.5 37t62.5 49.5
q27 36 45.5 63.5t32.5 45.5t26 27.5t27 9.5q14 0 21.5 -13.5t13 -33t12.5 -43t20 -43t34.5 -33t56.5 -13.5q57 0 97 23.5t59 58.5q9 16 18.5 39.5t19 46t18.5 38.5t17 16q9 -18 9 -29q0 -22 -4 -47t-13 -57q28 -26 73 -40.5t87 -14.5q17 0 22.5 4t5.5 21q0 15 -4 29.5
t-9.5 26.5t-9.5 21t-4 14q0 7 4 25.5t9 37.5t19 49z" />
    <glyph glyph-name="uniFCAF" unicode="&#xfeb3;&#xfea8;" horiz-adv-x="1188" arabic-form="initial" 
d="M1146 757q16 -33 22 -57t11 -52t5 -50q0 -34 -7 -66t-19.5 -57t-30 -40t-37.5 -15q-54 0 -103 16.5t-81 39.5q-34 -51 -84 -78t-120 -27q-43 0 -71 13.5t-45.5 34.5t-26 44.5t-13 44.5t-7.5 34.5t-8 13.5q-7 0 -20 -13t-28.5 -31t-31.5 -38t-29 -35q-15 -17 -41 -31
t-68 -33q39 -13 80.5 -28t72.5 -26q32 -11 71.5 -20t81.5 -15t83.5 -9.5t77.5 -3.5l10 -3q-7 -19 -12 -30t-10.5 -23t-9.5 -22q-5 -11 -7.5 -13t-8.5 -2q-37 2 -57 3.5t-39.5 2.5t-28.5 1q-31 0 -73.5 -10t-87.5 -37q-121 -75 -234 -107.5t-222 -32.5q-22 0 -35.5 13.5
t-13.5 35.5q0 29 25 46.5t58 18.5q75 2 146.5 15t131.5 41q24 11 56 26.5t57 28.5q-18 7 -44.5 17.5t-56 20t-58.5 16t-51 6.5q-38 0 -65.5 -2t-46.5 -5t-30 -5t-17 -2q-7 0 -10 7q9 25 15 38.5t13 27t15 23.5q10 6 14 8q41 19 91 34.5t98 32t88.5 37t62.5 49.5
q27 36 45.5 63.5t32.5 45.5t26 27.5t27 9.5q14 0 21.5 -13.5t13 -33t12.5 -43t20 -43t34.5 -33t56.5 -13.5q57 0 97 23.5t59 58.5q9 16 18.5 39.5t19 46t18.5 38.5t17 16q9 -18 9 -29q0 -22 -4 -47t-13 -57q28 -26 73 -40.5t87 -14.5q17 0 22.5 4t5.5 21q0 15 -4 29.5
t-9.5 26.5t-9.5 21t-4 14q0 7 4 25.5t9 37.5t19 49zM160 760l101 -69l-51 -105l-100 69z" />
    <glyph glyph-name="uniFCB0" unicode="&#xfeb3;&#xfee4;" horiz-adv-x="1012" arabic-form="initial" 
d="M338 561q26 0 44.5 -10t33.5 -25t28.5 -32.5t29 -32.5t35 -25t46.5 -10q61 0 101.5 24.5t59.5 59.5q9 16 18.5 39.5t19 46t18.5 38.5t17 16q9 -18 9 -29q0 -22 -4 -47t-13 -57q28 -26 73 -40.5t87 -14.5q17 0 22.5 4t5.5 21q0 15 -4 29.5t-9.5 26.5t-9.5 21t-4 14
q0 7 4 25.5t9 37.5t19 49q16 -33 22 -57t11 -52t5 -50q0 -34 -7 -66t-19.5 -57t-30 -40t-37.5 -15q-54 0 -103 16.5t-81 39.5q-32 -48 -82.5 -76t-133.5 -28q-30 0 -53 11.5t-41 29t-32.5 37.5t-28.5 37.5t-29 29t-33 11.5q-17 0 -38.5 -8.5t-41 -24.5t-33 -38t-13.5 -49
q0 -25 13 -51t31 -50t38.5 -43t35.5 -29q15 -6 30 -12.5t28.5 -12.5t24 -11t14.5 -8q17 -12 26 -27t9 -38q0 -11 -4 -27t-10 -31t-22 -36q-15 0 -38 11.5t-46 27.5t-43 32.5t-29 26.5q-21 -2 -52.5 -12t-65.5 -21.5t-65 -20.5t-50 -9q-26 0 -37 9.5t-11 23.5q0 13 7.5 27
t19 26t26 20t29.5 8q7 0 23.5 5t37 11t42 11.5t37.5 7.5q-5 7 -12.5 20.5t-15 31t-13 37t-5.5 38.5q0 53 19.5 104.5t50 91.5t67.5 64.5t73 24.5z" />
    <glyph glyph-name="uniFCB1" unicode="&#xfebb;&#xfea4;" horiz-adv-x="1357" arabic-form="initial" 
d="M587 686q15 0 24 -15.5t16 -37t13.5 -44.5t16.5 -37q11 -16 29.5 -26.5t48.5 -14.5q32 42 68.5 84.5t68.5 71.5q82 74 165 120.5t158 46.5q34 0 63.5 -14.5t51.5 -35t34.5 -41.5t12.5 -33q0 -53 -27 -108q-17 -35 -47 -74.5t-85.5 -73.5t-142.5 -56t-218 -22
q-95 0 -143 15q-11 -13 -21 -26.5t-17 -23.5l-11 -10q-10 0 -10 11q0 12 8.5 30t18.5 32q-26 13 -46 29t-33 40q-9 17 -16.5 39.5t-12.5 47.5q-2 8 -10 8q-7 0 -20 -13t-28.5 -31t-31.5 -38t-29 -35q-15 -17 -47.5 -37t-74.5 -39q39 -13 80.5 -28t72.5 -26q32 -11 71.5 -20
t81.5 -15t83.5 -9.5t77.5 -3.5l10 -3q-7 -19 -12 -30t-10.5 -23t-9.5 -22q-5 -11 -7.5 -13t-8.5 -2q-37 2 -57 3.5t-39.5 2.5t-28.5 1q-31 0 -73.5 -10t-87.5 -37q-121 -75 -234 -107.5t-222 -32.5q-22 0 -35.5 13.5t-13.5 35.5q0 29 25 46.5t58 18.5q75 2 146.5 15
t131.5 41q24 11 56 26.5t57 28.5q-18 7 -44.5 17.5t-56 20t-58.5 16t-51 6.5q-38 0 -65.5 -2t-46.5 -5t-30 -5t-17 -2q-7 0 -10 7q9 25 15 38.5t13 27t12 21.5q10 6 17 10q41 19 93.5 36.5t102.5 36.5t92.5 41t64.5 51q27 36 45.5 63.5t32.5 45.5t26 27.5t27 9.5zM787 500
q15 -2 35 -3t40 -1q75 0 140.5 9t119.5 24t94.5 35.5t65.5 43.5q-9 14 -21.5 32t-28.5 34t-35.5 27t-43.5 11q-18 0 -46 -6t-59 -18t-63 -28.5t-59 -37.5q-39 -30 -74.5 -61.5t-64.5 -60.5z" />
    <glyph glyph-name="uniFCB2" unicode="&#xfebb;&#xfea8;" horiz-adv-x="1357" arabic-form="initial" 
d="M587 686q15 0 24 -15.5t16 -37t13.5 -44.5t16.5 -37q11 -16 29.5 -26.5t48.5 -14.5q32 42 68.5 84.5t68.5 71.5q82 74 165 120.5t158 46.5q34 0 63.5 -14.5t51.5 -35t34.5 -41.5t12.5 -33q0 -53 -27 -108q-17 -35 -47 -74.5t-85.5 -73.5t-142.5 -56t-218 -22
q-95 0 -143 15q-11 -13 -21 -26.5t-17 -23.5l-11 -10q-10 0 -10 11q0 12 8.5 30t18.5 32q-26 13 -46 29t-33 40q-9 17 -16.5 39.5t-12.5 47.5q-2 8 -10 8q-7 0 -20 -13t-28.5 -31t-31.5 -38t-29 -35q-15 -17 -47.5 -37t-74.5 -39q39 -13 80.5 -28t72.5 -26q32 -11 71.5 -20
t81.5 -15t83.5 -9.5t77.5 -3.5l10 -3q-7 -19 -12 -30t-10.5 -23t-9.5 -22q-5 -11 -7.5 -13t-8.5 -2q-37 2 -57 3.5t-39.5 2.5t-28.5 1q-31 0 -73.5 -10t-87.5 -37q-121 -75 -234 -107.5t-222 -32.5q-22 0 -35.5 13.5t-13.5 35.5q0 29 25 46.5t58 18.5q75 2 146.5 15
t131.5 41q24 11 56 26.5t57 28.5q-18 7 -44.5 17.5t-56 20t-58.5 16t-51 6.5q-38 0 -65.5 -2t-46.5 -5t-30 -5t-17 -2q-7 0 -10 7q9 25 15 38.5t13 27t12 21.5q10 6 17 10q41 19 93.5 36.5t102.5 36.5t92.5 41t64.5 51q27 36 45.5 63.5t32.5 45.5t26 27.5t27 9.5zM787 500
q15 -2 35 -3t40 -1q75 0 140.5 9t119.5 24t94.5 35.5t65.5 43.5q-9 14 -21.5 32t-28.5 34t-35.5 27t-43.5 11q-18 0 -46 -6t-59 -18t-63 -28.5t-59 -37.5q-39 -30 -74.5 -61.5t-64.5 -60.5zM160 760l101 -69l-51 -105l-100 69z" />
    <glyph glyph-name="uniFCB3" unicode="&#xfebb;&#xfee4;" horiz-adv-x="1131" arabic-form="initial" 
d="M611 306q-59 0 -101 6q-20 0 -42 9q-21 -28 -32.5 -45t-23.5 -39l-11 -10q-10 0 -10 11q0 24 46 100q-16 6 -31 26t-30.5 41.5t-33.5 38.5t-41 17q-17 0 -38.5 -8.5t-41 -24.5t-33 -38t-13.5 -49q0 -25 13 -51t31 -50t38.5 -43t35.5 -29q15 -6 30 -12.5t28.5 -12.5
t24 -11t14.5 -8q17 -12 26 -27t9 -38q0 -11 -4 -27t-10 -31t-22 -36q-15 0 -38 11.5t-46 27.5t-43 32.5t-29 26.5q-21 -2 -52.5 -12t-65.5 -21.5t-65 -20.5t-50 -9q-26 0 -37 9.5t-11 23.5q0 13 7.5 27t19 26t26 20t29.5 8q7 0 23.5 5t37 11t42 11.5t37.5 7.5
q-5 7 -12.5 20.5t-15 31t-13 37t-5.5 38.5q0 53 19.5 104.5t50 91.5t67.5 64.5t73 24.5q35 0 54.5 -14t35 -33.5t32 -40.5t45.5 -36q32 42 70.5 86t70.5 74q82 74 165 120.5t158 46.5q34 0 63.5 -14.5t51.5 -35t34.5 -41.5t12.5 -33q0 -53 -27 -108q-17 -35 -47 -74.5
t-85.5 -73.5t-142.5 -56t-218 -22zM561 430q15 -2 35 -3t40 -1q75 0 140.5 9t119.5 24t94.5 35.5t65.5 43.5q-9 14 -21.5 32t-28.5 34t-35.5 27t-43.5 11q-18 0 -46 -6t-59 -18t-63 -28.5t-59 -37.5q-39 -30 -74.5 -61.5t-64.5 -60.5z" />
    <glyph glyph-name="uniFCB4" unicode="&#xfebf;&#xfea0;" horiz-adv-x="1357" arabic-form="initial" 
d="M587 686q15 0 24 -15.5t16 -37t13.5 -44.5t16.5 -37q11 -16 29.5 -26.5t48.5 -14.5q32 42 68.5 84.5t68.5 71.5q82 74 165 120.5t158 46.5q34 0 63.5 -14.5t51.5 -35t34.5 -41.5t12.5 -33q0 -53 -27 -108q-17 -35 -47 -74.5t-85.5 -73.5t-142.5 -56t-218 -22
q-95 0 -143 15q-11 -13 -21 -26.5t-17 -23.5l-11 -10q-10 0 -10 11q0 12 8.5 30t18.5 32q-26 13 -46 29t-33 40q-9 17 -16.5 39.5t-12.5 47.5q-2 8 -10 8q-7 0 -20 -13t-28.5 -31t-31.5 -38t-29 -35q-15 -17 -47.5 -37t-74.5 -39q39 -13 80.5 -28t72.5 -26q32 -11 71.5 -20
t81.5 -15t83.5 -9.5t77.5 -3.5l10 -3q-7 -19 -12 -30t-10.5 -23t-9.5 -22q-5 -11 -7.5 -13t-8.5 -2q-37 2 -57 3.5t-39.5 2.5t-28.5 1q-31 0 -73.5 -10t-87.5 -37q-121 -75 -234 -107.5t-222 -32.5q-22 0 -35.5 13.5t-13.5 35.5q0 29 25 46.5t58 18.5q75 2 146.5 15
t131.5 41q24 11 56 26.5t57 28.5q-18 7 -44.5 17.5t-56 20t-58.5 16t-51 6.5q-38 0 -65.5 -2t-46.5 -5t-30 -5t-17 -2q-7 0 -10 7q9 25 15 38.5t13 27t12 21.5q10 6 17 10q41 19 93.5 36.5t102.5 36.5t92.5 41t64.5 51q27 36 45.5 63.5t32.5 45.5t26 27.5t27 9.5zM787 500
q15 -2 35 -3t40 -1q75 0 140.5 9t119.5 24t94.5 35.5t65.5 43.5q-9 14 -21.5 32t-28.5 34t-35.5 27t-43.5 11q-18 0 -46 -6t-59 -18t-63 -28.5t-59 -37.5q-39 -30 -74.5 -61.5t-64.5 -60.5zM332 -97l101 -69l-51 -105l-100 69zM996 1076l101 -69l-51 -105l-100 69z" />
    <glyph glyph-name="uniFCB5" unicode="&#xfebf;&#xfea4;" horiz-adv-x="1357" arabic-form="initial" 
d="M587 686q15 0 24 -15.5t16 -37t13.5 -44.5t16.5 -37q11 -16 29.5 -26.5t48.5 -14.5q32 42 68.5 84.5t68.5 71.5q82 74 165 120.5t158 46.5q34 0 63.5 -14.5t51.5 -35t34.5 -41.5t12.5 -33q0 -53 -27 -108q-17 -35 -47 -74.5t-85.5 -73.5t-142.5 -56t-218 -22
q-95 0 -143 15q-11 -13 -21 -26.5t-17 -23.5l-11 -10q-10 0 -10 11q0 12 8.5 30t18.5 32q-26 13 -46 29t-33 40q-9 17 -16.5 39.5t-12.5 47.5q-2 8 -10 8q-7 0 -20 -13t-28.5 -31t-31.5 -38t-29 -35q-15 -17 -47.5 -37t-74.5 -39q39 -13 80.5 -28t72.5 -26q32 -11 71.5 -20
t81.5 -15t83.5 -9.5t77.5 -3.5l10 -3q-7 -19 -12 -30t-10.5 -23t-9.5 -22q-5 -11 -7.5 -13t-8.5 -2q-37 2 -57 3.5t-39.5 2.5t-28.5 1q-31 0 -73.5 -10t-87.5 -37q-121 -75 -234 -107.5t-222 -32.5q-22 0 -35.5 13.5t-13.5 35.5q0 29 25 46.5t58 18.5q75 2 146.5 15
t131.5 41q24 11 56 26.5t57 28.5q-18 7 -44.5 17.5t-56 20t-58.5 16t-51 6.5q-38 0 -65.5 -2t-46.5 -5t-30 -5t-17 -2q-7 0 -10 7q9 25 15 38.5t13 27t12 21.5q10 6 17 10q41 19 93.5 36.5t102.5 36.5t92.5 41t64.5 51q27 36 45.5 63.5t32.5 45.5t26 27.5t27 9.5zM787 500
q15 -2 35 -3t40 -1q75 0 140.5 9t119.5 24t94.5 35.5t65.5 43.5q-9 14 -21.5 32t-28.5 34t-35.5 27t-43.5 11q-18 0 -46 -6t-59 -18t-63 -28.5t-59 -37.5q-39 -30 -74.5 -61.5t-64.5 -60.5zM993 1072l101 -69l-51 -105l-100 69z" />
    <glyph glyph-name="uniFCB6" unicode="&#xfebf;&#xfea8;" horiz-adv-x="1357" arabic-form="initial" 
d="M587 686q15 0 24 -15.5t16 -37t13.5 -44.5t16.5 -37q11 -16 29.5 -26.5t48.5 -14.5q32 42 68.5 84.5t68.5 71.5q82 74 165 120.5t158 46.5q34 0 63.5 -14.5t51.5 -35t34.5 -41.5t12.5 -33q0 -53 -27 -108q-17 -35 -47 -74.5t-85.5 -73.5t-142.5 -56t-218 -22
q-95 0 -143 15q-11 -13 -21 -26.5t-17 -23.5l-11 -10q-10 0 -10 11q0 12 8.5 30t18.5 32q-26 13 -46 29t-33 40q-9 17 -16.5 39.5t-12.5 47.5q-2 8 -10 8q-7 0 -20 -13t-28.5 -31t-31.5 -38t-29 -35q-15 -17 -47.5 -37t-74.5 -39q39 -13 80.5 -28t72.5 -26q32 -11 71.5 -20
t81.5 -15t83.5 -9.5t77.5 -3.5l10 -3q-7 -19 -12 -30t-10.5 -23t-9.5 -22q-5 -11 -7.5 -13t-8.5 -2q-37 2 -57 3.5t-39.5 2.5t-28.5 1q-31 0 -73.5 -10t-87.5 -37q-121 -75 -234 -107.5t-222 -32.5q-22 0 -35.5 13.5t-13.5 35.5q0 29 25 46.5t58 18.5q75 2 146.5 15
t131.5 41q24 11 56 26.5t57 28.5q-18 7 -44.5 17.5t-56 20t-58.5 16t-51 6.5q-38 0 -65.5 -2t-46.5 -5t-30 -5t-17 -2q-7 0 -10 7q9 25 15 38.5t13 27t12 21.5q10 6 17 10q41 19 93.5 36.5t102.5 36.5t92.5 41t64.5 51q27 36 45.5 63.5t32.5 45.5t26 27.5t27 9.5zM787 500
q15 -2 35 -3t40 -1q75 0 140.5 9t119.5 24t94.5 35.5t65.5 43.5q-9 14 -21.5 32t-28.5 34t-35.5 27t-43.5 11q-18 0 -46 -6t-59 -18t-63 -28.5t-59 -37.5q-39 -30 -74.5 -61.5t-64.5 -60.5zM160 760l101 -69l-51 -105l-100 69zM996 1072l101 -69l-51 -105l-100 69z" />
    <glyph glyph-name="uniFCB7" unicode="&#xfebf;&#xfee4;" horiz-adv-x="1132" arabic-form="initial" 
d="M611 306q-59 0 -101 6q-20 0 -42 9q-21 -28 -32.5 -45t-23.5 -39l-11 -10q-10 0 -10 11q0 24 46 100q-16 6 -31 26t-30.5 41.5t-33.5 38.5t-41 17q-17 0 -38.5 -8.5t-41 -24.5t-33 -38t-13.5 -49q0 -25 13 -51t31 -50t38.5 -43t35.5 -29q15 -6 30 -12.5t28.5 -12.5
t24 -11t14.5 -8q17 -12 26 -27t9 -38q0 -11 -4 -27t-10 -31t-22 -36q-15 0 -38 11.5t-46 27.5t-43 32.5t-29 26.5q-21 -2 -52.5 -12t-65.5 -21.5t-65 -20.5t-50 -9q-26 0 -37 9.5t-11 23.5q0 13 7.5 27t19 26t26 20t29.5 8q7 0 23.5 5t37 11t42 11.5t37.5 7.5
q-5 7 -12.5 20.5t-15 31t-13 37t-5.5 38.5q0 53 19.5 104.5t50 91.5t67.5 64.5t73 24.5q35 0 54.5 -14t35 -33.5t32 -40.5t45.5 -36q32 42 70.5 86t70.5 74q82 74 165 120.5t158 46.5q34 0 63.5 -14.5t51.5 -35t34.5 -41.5t12.5 -33q0 -53 -27 -108q-17 -35 -47 -74.5
t-85.5 -73.5t-142.5 -56t-218 -22zM561 430q15 -2 35 -3t40 -1q75 0 140.5 9t119.5 24t94.5 35.5t65.5 43.5q-9 14 -21.5 32t-28.5 34t-35.5 27t-43.5 11q-18 0 -46 -6t-59 -18t-63 -28.5t-59 -37.5q-39 -30 -74.5 -61.5t-64.5 -60.5zM633 1071l101 -69l-51 -105l-100 69z
" />
    <glyph glyph-name="uniFCBA" unicode="&#xfecb;&#xfea0;" horiz-adv-x="793" arabic-form="initial" 
d="M46 278q11 27 19 42t17 29.5t16 22.5q19 24 47 43q51 35 113 73.5t122 69.5q-41 22 -64.5 40.5t-35.5 35.5t-15 34.5t-3 37.5q0 48 17.5 94t44.5 82.5t60 59t65 22.5q30 0 51.5 -3t38.5 -8t31.5 -12.5t30.5 -17.5q32 -20 47.5 -36.5t15.5 -24.5q0 -5 -1 -7t-6 -2
q-22 9 -35 14.5t-28 10t-30 4.5q-45 0 -88.5 -11t-79 -26t-59 -30t-28.5 -24l-1 -10q0 -11 4 -22.5t11 -23.5q16 -26 38.5 -46t49 -34.5t55 -23t57.5 -10.5q30 13 71 32.5t79 37.5t66.5 31t34.5 13q7 0 9 -6q-12 -41 -20 -63t-16 -40.5t-12 -20.5q-33 -17 -82 -38.5
t-101 -44.5t-100.5 -45t-80.5 -39q-23 -12 -47 -25t-48 -27q22 -6 47.5 -15t51 -18.5t49 -18.5t42.5 -15q32 -11 71.5 -19.5t81.5 -14.5t83.5 -9t77.5 -3l10 -3q-7 -19 -12 -30t-10.5 -23t-9.5 -22q-5 -11 -7.5 -13t-8.5 -2q-37 2 -57 3.5t-39.5 2.5t-28.5 1
q-31 0 -73.5 -10t-87.5 -37q-121 -75 -234 -107.5t-222 -32.5q-22 0 -35.5 13.5t-13.5 35.5q0 29 25 46.5t58 18.5q75 2 146.5 15t131.5 41q24 11 56 26.5t57 28.5q-18 7 -44.5 17.5t-56 20t-58.5 16t-51 6.5q-38 0 -65.5 -2t-46.5 -5t-30 -5t-17 -2t-8 1t-2 6zM282 -100
l101 -69l-51 -105l-100 69z" />
    <glyph glyph-name="uniFCBB" unicode="&#xfecb;&#xfee4;" horiz-adv-x="915" arabic-form="initial" 
d="M616 780q25 0 45 -5t37.5 -12.5t32 -17t28.5 -19.5q29 -22 41.5 -41t12.5 -27t-8 -8q-15 15 -50.5 28t-74.5 13t-76 -7t-66.5 -17t-49.5 -21t-25 -18q-2 -6 -3 -9.5t-1 -8.5q0 -18 10 -37q13 -27 33.5 -50t45 -41t52 -30t55.5 -17q25 9 65.5 23.5t79.5 29t69.5 24.5
t35.5 10q7 0 8 -7q-17 -39 -27 -60q-5 -10 -13.5 -24t-19.5 -31q-36 -13 -84 -27.5t-99.5 -29t-102.5 -28t-93 -24.5q-9 -3 -24 -6.5t-30.5 -8t-30.5 -8t-24 -6.5q32 -18 54 -53t22 -75q0 -33 -10 -56t-24.5 -37.5t-32 -21.5t-32.5 -7q-73 0 -119.5 28.5t-72.5 71.5
q-14 -26 -29.5 -44.5t-41.5 -39.5q-22 -17 -42 -22.5t-37 -5.5t-29 15.5t-12 37.5q0 21 20 41t55 20q13 0 33.5 5t34.5 15q4 3 10 10t12.5 16t12.5 18t10 16q15 23 33.5 50t32.5 45q15 19 44 30t55 18l169 45q-27 23 -44.5 42t-28 36.5t-14.5 34t-4 33.5q0 44 21.5 89t55 81
t73.5 59t76 23zM369 138q0 6 -10.5 18t-27 23t-38 19.5t-43.5 8.5t-31 -5t-9 -14q0 -7 6 -15t16 -16t21 -14.5t22 -10.5q12 -5 26 -7t27 -2q17 0 29 3.5t12 11.5z" />
    <glyph glyph-name="uniFCBC" unicode="&#xfecf;&#xfea0;" horiz-adv-x="793" arabic-form="initial" 
d="M46 278q11 27 19 42t17 29.5t16 22.5q19 24 47 43q51 35 113 73.5t122 69.5q-41 22 -64.5 40.5t-35.5 35.5t-15 34.5t-3 37.5q0 48 17.5 94t44.5 82.5t60 59t65 22.5q30 0 51.5 -3t38.5 -8t31.5 -12.5t30.5 -17.5q32 -20 47.5 -36.5t15.5 -24.5q0 -5 -1 -7t-6 -2
q-22 9 -35 14.5t-28 10t-30 4.5q-45 0 -88.5 -11t-79 -26t-59 -30t-28.5 -24l-1 -10q0 -11 4 -22.5t11 -23.5q16 -26 38.5 -46t49 -34.5t55 -23t57.5 -10.5q30 13 71 32.5t79 37.5t66.5 31t34.5 13q7 0 9 -6q-12 -41 -20 -63t-16 -40.5t-12 -20.5q-33 -17 -82 -38.5
t-101 -44.5t-100.5 -45t-80.5 -39q-23 -12 -47 -25t-48 -27q22 -6 47.5 -15t51 -18.5t49 -18.5t42.5 -15q32 -11 71.5 -19.5t81.5 -14.5t83.5 -9t77.5 -3l10 -3q-7 -19 -12 -30t-10.5 -23t-9.5 -22q-5 -11 -7.5 -13t-8.5 -2q-37 2 -57 3.5t-39.5 2.5t-28.5 1
q-31 0 -73.5 -10t-87.5 -37q-121 -75 -234 -107.5t-222 -32.5q-22 0 -35.5 13.5t-13.5 35.5q0 29 25 46.5t58 18.5q75 2 146.5 15t131.5 41q24 11 56 26.5t57 28.5q-18 7 -44.5 17.5t-56 20t-58.5 16t-51 6.5q-38 0 -65.5 -2t-46.5 -5t-30 -5t-17 -2t-8 1t-2 6zM282 -100
l101 -69l-51 -105l-100 69zM364 1228l101 -69l-51 -105l-100 69z" />
    <glyph glyph-name="uniFCBD" unicode="&#xfecf;&#xfee4;" horiz-adv-x="913" arabic-form="initial" 
d="M616 780q25 0 45 -5t37.5 -12.5t32 -17t28.5 -19.5q29 -22 41.5 -41t12.5 -27t-8 -8q-15 15 -50.5 28t-74.5 13t-76 -7t-66.5 -17t-49.5 -21t-25 -18q-2 -6 -3 -9.5t-1 -8.5q0 -18 10 -37q13 -27 33.5 -50t45 -41t52 -30t55.5 -17q25 9 65.5 23.5t79.5 29t69.5 24.5
t35.5 10q7 0 8 -7q-17 -39 -27 -60q-5 -10 -13.5 -24t-19.5 -31q-36 -13 -84 -27.5t-99.5 -29t-102.5 -28t-93 -24.5q-9 -3 -24 -6.5t-30.5 -8t-30.5 -8t-24 -6.5q32 -18 54 -53t22 -75q0 -33 -10 -56t-24.5 -37.5t-32 -21.5t-32.5 -7q-73 0 -119.5 28.5t-72.5 71.5
q-14 -26 -29.5 -44.5t-41.5 -39.5q-22 -17 -42 -22.5t-37 -5.5t-29 15.5t-12 37.5q0 21 20 41t55 20q13 0 33.5 5t34.5 15q4 3 10 10t12.5 16t12.5 18t10 16q15 23 33.5 50t32.5 45q15 19 44 30t55 18l169 45q-27 23 -44.5 42t-28 36.5t-14.5 34t-4 33.5q0 44 21.5 89t55 81
t73.5 59t76 23zM369 138q0 6 -10.5 18t-27 23t-38 19.5t-43.5 8.5t-31 -5t-9 -14q0 -7 6 -15t16 -16t21 -14.5t22 -10.5q12 -5 26 -7t27 -2q17 0 29 3.5t12 11.5zM536 1052l101 -69l-51 -105l-100 69z" />
    <glyph glyph-name="uniFCBE" unicode="&#xfed3;&#xfea0;" horiz-adv-x="772" arabic-form="initial" 
d="M29 254q8 27 14 42t13.5 29t14.5 22q5 6 18 12t24 8q21 4 44.5 10.5t39.5 11.5q54 17 102 40.5t104 63.5q0 13 -2.5 35t-7.5 43t-12 36.5t-16 15.5l-3 -11q-5 -25 -18.5 -40.5t-31.5 -24.5t-37.5 -12t-37.5 -3q-15 0 -30.5 8t-28 21.5t-21 31.5t-8.5 38t3.5 41.5
t8.5 41.5t10.5 37.5t10.5 29.5q6 12 14.5 25.5t19.5 24.5t25 18t32 7q26 0 49.5 -9.5t40.5 -23.5q12 -10 26.5 -30t27.5 -48t21.5 -61.5t8.5 -70.5q0 -79 -12.5 -136.5t-30.5 -83.5q-14 -11 -33.5 -25t-43.5 -28q35 -10 65.5 -18.5t56.5 -15.5q33 -9 73 -15.5t81.5 -10
t82.5 -5.5t77 -2l10 -3q-7 -19 -12 -30t-10.5 -23t-9.5 -22q-5 -11 -7.5 -13t-8.5 -2q-37 2 -57 3.5t-39.5 2.5t-28.5 1q-31 0 -73.5 -10t-87.5 -37q-121 -75 -234 -107.5t-222 -32.5q-22 0 -35.5 13.5t-13.5 35.5q0 29 25 46.5t58 18.5q75 2 146.5 15t131.5 41
q24 11 56 26.5t57 28.5q-18 7 -44.5 13.5t-56 11.5t-58.5 8t-51 3q-38 0 -65.5 -2t-46.5 -5t-30 -5t-17 -2t-8 1t-2 6zM333 696q-18 19 -34.5 29t-34.5 10q-20 0 -34 -10.5t-23 -23.5t-17 -34q13 -12 27.5 -18t32.5 -6q21 0 36.5 7t26 16t20.5 30zM204 1163l101 -69
l-51 -105l-100 69zM261 -104l101 -69l-51 -105l-100 69z" />
    <glyph glyph-name="uniFCBF" unicode="&#xfed3;&#xfea4;" horiz-adv-x="772" arabic-form="initial" 
d="M29 254q8 27 14 42t13.5 29t14.5 22q5 6 18 12t24 8q21 4 44.5 10.5t39.5 11.5q54 17 102 40.5t104 63.5q0 13 -2.5 35t-7.5 43t-12 36.5t-16 15.5l-3 -11q-5 -25 -18.5 -40.5t-31.5 -24.5t-37.5 -12t-37.5 -3q-15 0 -30.5 8t-28 21.5t-21 31.5t-8.5 38t3.5 41.5
t8.5 41.5t10.5 37.5t10.5 29.5q6 12 14.5 25.5t19.5 24.5t25 18t32 7q26 0 49.5 -9.5t40.5 -23.5q12 -10 26.5 -30t27.5 -48t21.5 -61.5t8.5 -70.5q0 -79 -12.5 -136.5t-30.5 -83.5q-14 -11 -33.5 -25t-43.5 -28q35 -10 65.5 -18.5t56.5 -15.5q33 -9 73 -15.5t81.5 -10
t82.5 -5.5t77 -2l10 -3q-7 -19 -12 -30t-10.5 -23t-9.5 -22q-5 -11 -7.5 -13t-8.5 -2q-37 2 -57 3.5t-39.5 2.5t-28.5 1q-31 0 -73.5 -10t-87.5 -37q-121 -75 -234 -107.5t-222 -32.5q-22 0 -35.5 13.5t-13.5 35.5q0 29 25 46.5t58 18.5q75 2 146.5 15t131.5 41
q24 11 56 26.5t57 28.5q-18 7 -44.5 13.5t-56 11.5t-58.5 8t-51 3q-38 0 -65.5 -2t-46.5 -5t-30 -5t-17 -2t-8 1t-2 6zM333 696q-18 19 -34.5 29t-34.5 10q-20 0 -34 -10.5t-23 -23.5t-17 -34q13 -12 27.5 -18t32.5 -6q21 0 36.5 7t26 16t20.5 30zM202 1169l101 -69
l-51 -105l-100 69z" />
    <glyph glyph-name="uniFCC0" unicode="&#xfed3;&#xfea8;" horiz-adv-x="772" arabic-form="initial" 
d="M29 254q8 27 14 42t13.5 29t14.5 22q5 6 18 12t24 8q21 4 44.5 10.5t39.5 11.5q54 17 102 40.5t104 63.5q0 13 -2.5 35t-7.5 43t-12 36.5t-16 15.5l-3 -11q-5 -25 -18.5 -40.5t-31.5 -24.5t-37.5 -12t-37.5 -3q-15 0 -30.5 8t-28 21.5t-21 31.5t-8.5 38t3.5 41.5
t8.5 41.5t10.5 37.5t10.5 29.5q6 12 14.5 25.5t19.5 24.5t25 18t32 7q26 0 49.5 -9.5t40.5 -23.5q12 -10 26.5 -30t27.5 -48t21.5 -61.5t8.5 -70.5q0 -79 -12.5 -136.5t-30.5 -83.5q-14 -11 -33.5 -25t-43.5 -28q35 -10 65.5 -18.5t56.5 -15.5q33 -9 73 -15.5t81.5 -10
t82.5 -5.5t77 -2l10 -3q-7 -19 -12 -30t-10.5 -23t-9.5 -22q-5 -11 -7.5 -13t-8.5 -2q-37 2 -57 3.5t-39.5 2.5t-28.5 1q-31 0 -73.5 -10t-87.5 -37q-121 -75 -234 -107.5t-222 -32.5q-22 0 -35.5 13.5t-13.5 35.5q0 29 25 46.5t58 18.5q75 2 146.5 15t131.5 41
q24 11 56 26.5t57 28.5q-18 7 -44.5 13.5t-56 11.5t-58.5 8t-51 3q-38 0 -65.5 -2t-46.5 -5t-30 -5t-17 -2t-8 1t-2 6zM333 696q-18 19 -34.5 29t-34.5 10q-20 0 -34 -10.5t-23 -23.5t-17 -34q13 -12 27.5 -18t32.5 -6q21 0 36.5 7t26 16t20.5 30zM210 1169l101 -69
l-51 -105l-100 69zM17 635l101 -69l-51 -105l-100 69z" />
    <glyph glyph-name="uniFCC1" unicode="&#xfed3;&#xfee4;" horiz-adv-x="559" arabic-form="initial" 
d="M352 802q19 0 42 -7.5t39 -18.5q21 -14 43.5 -37t40.5 -57t29.5 -79t11.5 -103q0 -8 -0.5 -15t-1.5 -14q-2 -23 -10.5 -42t-20.5 -36q-23 -31 -66 -65t-90 -59q31 -15 47.5 -51t16.5 -81q0 -25 -5.5 -46.5t-17 -37.5t-29.5 -25.5t-42 -9.5q-27 0 -53.5 4t-51.5 15
t-47 29.5t-39 47.5q-9 -19 -27.5 -45t-47.5 -46q-20 -14 -41 -18.5t-32 -4.5q-15 0 -25.5 15t-10.5 36q0 22 19 42.5t51 20.5q10 0 23.5 4t27.5 13t28 22t25 31q14 22 27 44.5t30 44.5q11 14 31.5 27t38.5 21q24 10 50.5 22t51.5 25t47.5 25.5t37.5 23.5q22 15 39.5 35
t19.5 43q-17 67 -66 110q-2 -12 -3.5 -24t-3.5 -23q-5 -25 -18 -40.5t-30.5 -24.5t-36.5 -12t-37 -3q-15 0 -30 8t-28 21.5t-21 31.5t-8 38q0 19 3 41t7.5 42.5t10.5 38t12 28.5q6 12 16 25.5t22 24.5t25.5 18t26.5 7zM368 139q0 6 -10.5 17.5t-28 23t-39 19.5t-43.5 8
q-40 0 -40 -19q0 -14 20.5 -29.5t41.5 -23.5q17 -7 31 -9.5t25 -2.5q20 0 31.5 5.5t11.5 10.5zM415 644q-14 16 -31 26.5t-38 10.5q-16 -2 -27 -6t-20 -11.5t-16 -19.5t-14 -30q25 -24 60 -24q19 0 35 6t27.5 15t17.5 18t6 15zM277 1051l101 -69l-51 -105l-100 69z" />
    <glyph glyph-name="uniFCC2" unicode="&#xfed7;&#xfea4;" horiz-adv-x="772" arabic-form="initial" 
d="M29 254q8 27 14 42t13.5 29t14.5 22q5 6 18 12t24 8q21 4 44.5 10.5t39.5 11.5q54 17 102 40.5t104 63.5q0 13 -2.5 35t-7.5 43t-12 36.5t-16 15.5l-3 -11q-5 -25 -18.5 -40.5t-31.5 -24.5t-37.5 -12t-37.5 -3q-15 0 -30.5 8t-28 21.5t-21 31.5t-8.5 38t3.5 41.5
t8.5 41.5t10.5 37.5t10.5 29.5q6 12 14.5 25.5t19.5 24.5t25 18t32 7q26 0 49.5 -9.5t40.5 -23.5q12 -10 26.5 -30t27.5 -48t21.5 -61.5t8.5 -70.5q0 -79 -12.5 -136.5t-30.5 -83.5q-14 -11 -33.5 -25t-43.5 -28q35 -10 65.5 -18.5t56.5 -15.5q33 -9 73 -15.5t81.5 -10
t82.5 -5.5t77 -2l10 -3q-7 -19 -12 -30t-10.5 -23t-9.5 -22q-5 -11 -7.5 -13t-8.5 -2q-37 2 -57 3.5t-39.5 2.5t-28.5 1q-31 0 -73.5 -10t-87.5 -37q-121 -75 -234 -107.5t-222 -32.5q-22 0 -35.5 13.5t-13.5 35.5q0 29 25 46.5t58 18.5q75 2 146.5 15t131.5 41
q24 11 56 26.5t57 28.5q-18 7 -44.5 13.5t-56 11.5t-58.5 8t-51 3q-38 0 -65.5 -2t-46.5 -5t-30 -5t-17 -2t-8 1t-2 6zM333 696q-18 19 -34.5 29t-34.5 10q-20 0 -34 -10.5t-23 -23.5t-17 -34q13 -12 27.5 -18t32.5 -6q21 0 36.5 7t26 16t20.5 30zM309 1186l100 -70
l-50 -105l-101 70zM143 1155l101 -69l-51 -105l-100 69z" />
    <glyph glyph-name="uniFCC3" unicode="&#xfed7;&#xfee4;" horiz-adv-x="559" arabic-form="initial" 
d="M352 802q19 0 42 -7.5t39 -18.5q21 -14 43.5 -37t40.5 -57t29.5 -79t11.5 -103q0 -8 -0.5 -15t-1.5 -14q-2 -23 -10.5 -42t-20.5 -36q-23 -31 -66 -65t-90 -59q31 -15 47.5 -51t16.5 -81q0 -25 -5.5 -46.5t-17 -37.5t-29.5 -25.5t-42 -9.5q-27 0 -53.5 4t-51.5 15
t-47 29.5t-39 47.5q-9 -19 -27.5 -45t-47.5 -46q-20 -14 -41 -18.5t-32 -4.5q-15 0 -25.5 15t-10.5 36q0 22 19 42.5t51 20.5q10 0 23.5 4t27.5 13t28 22t25 31q14 22 27 44.5t30 44.5q11 14 31.5 27t38.5 21q24 10 50.5 22t51.5 25t47.5 25.5t37.5 23.5q22 15 39.5 35
t19.5 43q-17 67 -66 110q-2 -12 -3.5 -24t-3.5 -23q-5 -25 -18 -40.5t-30.5 -24.5t-36.5 -12t-37 -3q-15 0 -30 8t-28 21.5t-21 31.5t-8 38q0 19 3 41t7.5 42.5t10.5 38t12 28.5q6 12 16 25.5t22 24.5t25.5 18t26.5 7zM368 139q0 6 -10.5 17.5t-28 23t-39 19.5t-43.5 8
q-40 0 -40 -19q0 -14 20.5 -29.5t41.5 -23.5q17 -7 31 -9.5t25 -2.5q20 0 31.5 5.5t11.5 10.5zM415 644q-14 16 -31 26.5t-38 10.5q-16 -2 -27 -6t-20 -11.5t-16 -19.5t-14 -30q25 -24 60 -24q19 0 35 6t27.5 15t17.5 18t6 15zM392 1082l100 -70l-50 -105l-101 70zM226 1051
l101 -69l-51 -105l-100 69z" />
    <glyph glyph-name="uniFCC7" unicode="&#xfb90;&#xfee0;" horiz-adv-x="755" arabic-form="initial" 
d="M273 621q21 -3 54.5 -15t72.5 -31t79 -44.5t73 -54.5t59.5 -56.5t46 -56.5t30 -61t10.5 -69q0 -32 -9 -62.5t-23.5 -56t-33 -45t-36.5 -29.5q-41 -23 -80 -36t-94 -13q-28 0 -49 7.5t-37.5 20t-29 29.5t-23.5 36q-16 27 -28.5 67.5t-23.5 83.5q0 -16 -3.5 -40t-11 -50.5
t-20 -51t-31.5 -42.5q-18 -17 -35.5 -26.5t-34.5 -14.5q-9 -3 -23 -5t-28.5 -3t-26.5 -1.5t-17 -0.5q-16 0 -27.5 15t-11.5 37q0 21 19 41.5t54 20.5q9 0 31 1.5t46 7.5t46 18.5t31 34.5q-1 21 -2.5 49t-4 58l-5 60t-5.5 56q-6 63 -13 135t-13 146t-10.5 146t-6.5 134
q8 40 14 59.5t22 50.5q8 0 9 -19.5t5 -72.5q3 -34 7 -77t9 -90.5t10.5 -96t11.5 -93.5q6 19 13.5 36t14.5 28q16 28 51 62t84 71t111 76t132 77q46 25 107 57t125.5 65.5t127.5 65l113 56.5t120 52q0 -6 -3.5 -19.5t-8 -29t-10 -29t-9.5 -19.5q-59 -33 -105 -56.5
t-104 -53.5t-117.5 -61t-116 -61t-99.5 -53q-67 -36 -130.5 -75.5t-114.5 -76t-84.5 -66.5t-39.5 -46zM356 432q-7 0 -23 5t-35 14t-37.5 21t-30.5 26q3 -20 6 -37.5t5 -31.5q4 -27 10 -60t13.5 -66t17 -63t20.5 -51q22 -44 47 -62.5t67 -18.5q46 0 88.5 8.5t69.5 17.5
q13 4 27.5 10t26.5 13.5t19.5 15t7.5 15.5q0 37 -37.5 82.5t-91.5 93.5q-23 20 -49.5 36.5t-49.5 28.5t-54 23q-5 -20 -17 -20z" />
    <glyph glyph-name="uniFCC8" unicode="&#xfb90;&#xfee4;" horiz-adv-x="728" arabic-form="initial" 
d="M134 760q20 -3 47.5 -15.5t57.5 -32t60.5 -44t56.5 -51.5q37 -38 60 -73t36 -66.5t17.5 -59t4.5 -50.5q0 -21 -8 -39.5t-20.5 -33t-29 -25t-34.5 -15.5q26 -18 42 -51.5t16 -72.5q0 -33 -9 -57t-23 -39t-31.5 -22t-33.5 -7q-26 0 -53.5 5.5t-53 16.5t-47 29t-35.5 44
q-26 -42 -66 -71.5t-88 -29.5q-23 0 -31.5 14t-8.5 35q0 11 5.5 22.5t15.5 21t23.5 15.5t29.5 6q33 0 55.5 9t38 24t26.5 34t21 39q12 23 24 37t25 22.5t28 12.5t34 7q20 4 45.5 6.5t45.5 8.5q46 13 46 41q0 22 -10 44t-26.5 43.5t-36.5 42.5t-40 41q-22 21 -47 40t-56 36
q0 -5 -2.5 -13.5t-14.5 -8.5q-11 0 -32 6t-43 18.5t-38 31t-16 44.5q0 61 17 106.5t61 88t119.5 89t191.5 110.5q46 25 96.5 51.5t99.5 51.5l93 47q22 11 41.5 20.5t38.5 18.5t39.5 17t44.5 16q0 -6 -3.5 -19.5t-8 -29t-10 -29t-9.5 -19.5q-40 -22 -74.5 -40.5t-63.5 -33.5
q-60 -30 -129 -66.5t-135 -71.5q-67 -36 -125.5 -70t-103.5 -63.5t-73 -53.5t-34 -40zM374 126q0 6 -10.5 17.5t-28 23t-39 19.5t-43.5 8q-40 0 -40 -19q0 -14 20.5 -29.5t41.5 -23.5q13 -5 28 -7.5t29 -2.5q17 0 29.5 3.5t12.5 10.5z" />
    <glyph glyph-name="uniFCC9" unicode="&#xfedf;&#xfea0;" horiz-adv-x="782" arabic-form="initial" 
d="M425 225q-18 7 -44.5 17.5t-56 20t-58.5 16t-51 6.5h-149q-6 0 -8 1t-2 6q7 25 12 38.5t10.5 26t10.5 19.5q5 6 18.5 9.5t27.5 4.5l76 6q58 5 88.5 13.5t30.5 25.5q-2 22 -4.5 42.5t-5.5 43.5q-7 50 -26 165t-25.5 169t-6.5 96q-11 13 -12 18q-5 9 -5 25q0 8 1.5 22.5
t5.5 32.5t11.5 37t19.5 37l4 3l2 -5q4 -20 10.5 -33t16 -23.5t22 -20t27.5 -22.5q-2 -9 -5.5 -21.5t-7.5 -24.5t-8 -23t-7 -17q-4 -8 -9.5 -9t-10.5 -2q4 -55 12 -106t18 -113q8 -47 13 -83t8 -62.5t4 -45.5t1 -32q0 -35 -6 -67t-23 -58q33 -10 65 -20t57 -18
q32 -11 70.5 -19.5t79 -14.5t80.5 -9.5t76 -3.5l10 -3q-7 -19 -12 -30t-10.5 -23t-9.5 -22q-5 -11 -8 -13t-8 -2q-35 2 -53.5 3.5t-36.5 2.5t-27 1q-31 0 -73.5 -10t-87.5 -37q-121 -75 -234 -107.5t-222 -32.5q-22 0 -35.5 13.5t-13.5 35.5q0 29 25 46.5t58 18.5
q75 2 146.5 15t131.5 41q24 11 56 26.5t57 28.5zM264 -105l101 -69l-51 -105l-100 69z" />
    <glyph glyph-name="uniFCCA" unicode="&#xfedf;&#xfea4;" horiz-adv-x="783" arabic-form="initial" 
d="M425 225q-18 7 -44.5 17.5t-56 20t-58.5 16t-51 6.5h-149q-6 0 -8 1t-2 6q7 25 12 38.5t10.5 26t10.5 19.5q5 6 18.5 9.5t27.5 4.5l76 6q58 5 88.5 13.5t30.5 25.5q-2 22 -4.5 42.5t-5.5 43.5q-7 50 -26 165t-25.5 169t-6.5 96q-11 13 -12 18q-5 9 -5 25q0 8 1.5 22.5
t5.5 32.5t11.5 37t19.5 37l4 3l2 -5q4 -20 10.5 -33t16 -23.5t22 -20t27.5 -22.5q-2 -9 -5.5 -21.5t-7.5 -24.5t-8 -23t-7 -17q-4 -8 -9.5 -9t-10.5 -2q4 -55 12 -106t18 -113q8 -47 13 -83t8 -62.5t4 -45.5t1 -32q0 -35 -6 -67t-23 -58q33 -10 65 -20t57 -18
q32 -11 70.5 -19.5t79 -14.5t80.5 -9.5t76 -3.5l10 -3q-7 -19 -12 -30t-10.5 -23t-9.5 -22q-5 -11 -8 -13t-8 -2q-35 2 -53.5 3.5t-36.5 2.5t-27 1q-31 0 -73.5 -10t-87.5 -37q-121 -75 -234 -107.5t-222 -32.5q-22 0 -35.5 13.5t-13.5 35.5q0 29 25 46.5t58 18.5
q75 2 146.5 15t131.5 41q24 11 56 26.5t57 28.5z" />
    <glyph glyph-name="uniFCCB" unicode="&#xfedf;&#xfea8;" horiz-adv-x="783" arabic-form="initial" 
d="M425 225q-18 7 -44.5 17.5t-56 20t-58.5 16t-51 6.5h-149q-6 0 -8 1t-2 6q7 25 12 38.5t10.5 26t10.5 19.5q5 6 18.5 9.5t27.5 4.5l76 6q58 5 88.5 13.5t30.5 25.5q-2 22 -4.5 42.5t-5.5 43.5q-7 50 -26 165t-25.5 169t-6.5 96q-11 13 -12 18q-5 9 -5 25q0 8 1.5 22.5
t5.5 32.5t11.5 37t19.5 37l4 3l2 -5q4 -20 10.5 -33t16 -23.5t22 -20t27.5 -22.5q-2 -9 -5.5 -21.5t-7.5 -24.5t-8 -23t-7 -17q-4 -8 -9.5 -9t-10.5 -2q4 -55 12 -106t18 -113q8 -47 13 -83t8 -62.5t4 -45.5t1 -32q0 -35 -6 -67t-23 -58q33 -10 65 -20t57 -18
q32 -11 70.5 -19.5t79 -14.5t80.5 -9.5t76 -3.5l10 -3q-7 -19 -12 -30t-10.5 -23t-9.5 -22q-5 -11 -8 -13t-8 -2q-35 2 -53.5 3.5t-36.5 2.5t-27 1q-31 0 -73.5 -10t-87.5 -37q-121 -75 -234 -107.5t-222 -32.5q-22 0 -35.5 13.5t-13.5 35.5q0 29 25 46.5t58 18.5
q75 2 146.5 15t131.5 41q24 11 56 26.5t57 28.5zM50 692l101 -69l-51 -105l-100 69z" />
    <glyph glyph-name="uniFCCC" unicode="&#xfedf;&#xfee4;" horiz-adv-x="427" arabic-form="initial" 
d="M34 114q7 0 23.5 4.5t36.5 10t41.5 11.5t37.5 9q-11 15 -16 32.5t-10 43.5q-5 23 -10 53.5t-7 56.5q-10 111 -19 216.5t-18 213.5q-4 43 -6 76t-5 60q-11 12 -14 19q-5 10 -5 25q0 7 1.5 21.5t6 32.5t11.5 37.5t19 37.5l3 3q1 0 3 -5q4 -20 10.5 -33t16 -23.5t22 -20
t27.5 -22.5q-2 -9 -5.5 -21.5t-7.5 -24.5t-8 -23t-7 -17q-4 -6 -8.5 -7.5t-9.5 -2.5l3 -37q11 -132 22 -257t25 -240q2 -14 6 -32t9.5 -35.5t12.5 -33t15 -25.5q10 -12 17.5 -19t14.5 -12t14.5 -9t16.5 -9q15 -6 30 -12.5t28.5 -12.5t24 -11t14.5 -8q17 -12 26 -27t9 -38
q0 -11 -5 -29t-11.5 -35t-13.5 -29.5t-11 -12.5q-15 0 -38.5 12.5t-47.5 30t-44.5 36t-29.5 30.5q-20 -2 -50.5 -12t-62.5 -21t-62 -20t-49 -9q-26 0 -37 9.5t-11 23.5q0 13 7.5 27t19 26t26 20t29.5 8z" />
    <glyph glyph-name="uniFCCE" unicode="&#xfee3;&#xfea0;" horiz-adv-x="774" arabic-form="initial" 
d="M677 649q-1 -15 -7.5 -35.5t-16 -40t-21.5 -35t-24 -18.5q-23 -7 -59 -16.5t-76.5 -20t-81.5 -22.5t-75.5 -23.5t-58 -22t-27.5 -19.5q24 -5 53.5 -15t59.5 -21t57.5 -22t48.5 -18q32 -11 71.5 -19.5t81.5 -14.5t83.5 -9.5t77.5 -3.5l10 -3q-7 -19 -12 -30.5t-10.5 -23.5
t-9.5 -21q-5 -11 -7.5 -13t-8.5 -2q-37 2 -57 3.5t-39.5 2.5t-28.5 1q-31 0 -73.5 -11t-87.5 -36q-65 -36 -121.5 -62.5t-109 -43.5t-103.5 -25.5t-105 -8.5q-24 0 -38 17t-14 35q0 12 7 23t19 20t27.5 14t32.5 5q40 0 73.5 3.5t64 10t60.5 17t63 25.5q23 10 55.5 26
t57.5 29q-17 7 -43.5 17.5t-56 20t-59 16t-51.5 6.5q-7 0 -30.5 -4.5t-50.5 -10.5t-50.5 -10.5t-29.5 -4.5t-8 1t-2 6q7 27 11.5 41t9.5 28t8 22q4 8 10 14.5t16 14.5q38 36 87.5 65.5t127.5 58.5q12 4 35.5 12.5t49.5 18t49.5 18t35.5 13.5q-20 26 -27.5 44.5t-7.5 38.5
q0 9 3.5 24t19.5 41q12 19 20.5 31t15.5 18.5t13.5 9t14.5 2.5q12 0 38 -15t53 -35.5t47 -42.5t20 -35zM321 -105l101 -69l-51 -105l-100 69z" />
    <glyph glyph-name="uniFCCF" unicode="&#xfee3;&#xfea4;" horiz-adv-x="773" arabic-form="initial" 
d="M677 649q-1 -15 -7.5 -35.5t-16 -40t-21.5 -35t-24 -18.5q-23 -7 -59 -16.5t-76.5 -20t-81.5 -22.5t-75.5 -23.5t-58 -22t-27.5 -19.5q24 -5 53.5 -15t59.5 -21t57.5 -22t48.5 -18q32 -11 71.5 -19.5t81.5 -14.5t83.5 -9.5t77.5 -3.5l10 -3q-7 -19 -12 -30.5t-10.5 -23.5
t-9.5 -21q-5 -11 -7.5 -13t-8.5 -2q-37 2 -57 3.5t-39.5 2.5t-28.5 1q-31 0 -73.5 -11t-87.5 -36q-65 -36 -121.5 -62.5t-109 -43.5t-103.5 -25.5t-105 -8.5q-24 0 -38 17t-14 35q0 12 7 23t19 20t27.5 14t32.5 5q40 0 73.5 3.5t64 10t60.5 17t63 25.5q23 10 55.5 26
t57.5 29q-17 7 -43.5 17.5t-56 20t-59 16t-51.5 6.5q-7 0 -30.5 -4.5t-50.5 -10.5t-50.5 -10.5t-29.5 -4.5t-8 1t-2 6q7 27 11.5 41t9.5 28t8 22q4 8 10 14.5t16 14.5q38 36 87.5 65.5t127.5 58.5q12 4 35.5 12.5t49.5 18t49.5 18t35.5 13.5q-20 26 -27.5 44.5t-7.5 38.5
q0 9 3.5 24t19.5 41q12 19 20.5 31t15.5 18.5t13.5 9t14.5 2.5q12 0 38 -15t53 -35.5t47 -42.5t20 -35z" />
    <glyph glyph-name="uniFCD0" unicode="&#xfee3;&#xfea8;" horiz-adv-x="773" arabic-form="initial" 
d="M677 649q-1 -15 -7.5 -35.5t-16 -40t-21.5 -35t-24 -18.5q-23 -7 -59 -16.5t-76.5 -20t-81.5 -22.5t-75.5 -23.5t-58 -22t-27.5 -19.5q24 -5 53.5 -15t59.5 -21t57.5 -22t48.5 -18q32 -11 71.5 -19.5t81.5 -14.5t83.5 -9.5t77.5 -3.5l10 -3q-7 -19 -12 -30.5t-10.5 -23.5
t-9.5 -21q-5 -11 -7.5 -13t-8.5 -2q-37 2 -57 3.5t-39.5 2.5t-28.5 1q-31 0 -73.5 -11t-87.5 -36q-65 -36 -121.5 -62.5t-109 -43.5t-103.5 -25.5t-105 -8.5q-24 0 -38 17t-14 35q0 12 7 23t19 20t27.5 14t32.5 5q40 0 73.5 3.5t64 10t60.5 17t63 25.5q23 10 55.5 26
t57.5 29q-17 7 -43.5 17.5t-56 20t-59 16t-51.5 6.5q-7 0 -30.5 -4.5t-50.5 -10.5t-50.5 -10.5t-29.5 -4.5t-8 1t-2 6q7 27 11.5 41t9.5 28t8 22q4 8 10 14.5t16 14.5q38 36 87.5 65.5t127.5 58.5q12 4 35.5 12.5t49.5 18t49.5 18t35.5 13.5q-20 26 -27.5 44.5t-7.5 38.5
q0 9 3.5 24t19.5 41q12 19 20.5 31t15.5 18.5t13.5 9t14.5 2.5q12 0 38 -15t53 -35.5t47 -42.5t20 -35zM165 799l101 -69l-51 -105l-100 69z" />
    <glyph glyph-name="uniFCD1" unicode="&#xfee3;&#xfee4;" horiz-adv-x="494" arabic-form="initial" 
d="M491 599q0 -14 -5 -32.5t-12.5 -36.5t-16.5 -33.5t-17 -22.5q-7 -6 -22.5 -12t-37.5 -15t-50.5 -22t-61.5 -33q-27 -17 -43 -29.5t-24.5 -23.5t-10.5 -22t-2 -24q0 -17 11 -35t26.5 -34.5t34 -31t33.5 -24.5q15 -6 30 -12.5t28.5 -12.5t24 -11t14.5 -8q17 -12 26 -27
t9 -38q0 -11 -4 -27t-10 -31t-22 -36q-15 0 -38 11.5t-46 27.5t-43 32.5t-29 26.5q-21 -2 -52.5 -12t-65.5 -21.5t-65 -20.5t-50 -9q-26 0 -37 9.5t-11 23.5q0 13 7.5 27t19 26t26 20t29.5 8q7 0 23.5 5t37 11t42 11.5t37.5 7.5q-11 13 -25 36.5t-14 60.5q0 20 1.5 35
t5.5 30t11.5 32t18.5 40q16 32 43.5 64.5t69.5 60.5q-21 23 -26.5 40t-5.5 35q0 9 3.5 23.5t19.5 41.5q11 19 18.5 32t13.5 21t11.5 11t13.5 3q12 0 38 -13t52.5 -31.5t47 -38.5t20.5 -33z" />
    <glyph glyph-name="uniFCD2" unicode="&#xfee7;&#xfea0;" horiz-adv-x="790" arabic-form="initial" 
d="M425 225q-18 7 -44.5 17.5t-56 20t-58.5 16t-51 6.5q-38 0 -65.5 -2t-46.5 -5t-30 -5t-17 -2q-7 0 -10 7q8 22 13.5 34t11.5 25t11 22t21 16q41 19 88.5 37.5t92 38.5t82 43t59.5 52q28 37 52.5 73.5t45.5 66t38 48t29 18.5q9 0 17 -12t14 -29.5t9.5 -35.5t3.5 -30
t-2.5 -31t-6.5 -38t-9 -32.5t-10 -13.5q-6 0 -11 18t-11 40t-14 40t-20 18q-7 0 -26 -24t-41.5 -55.5t-44 -63t-34.5 -46.5q-16 -18 -46.5 -37t-70.5 -37q22 -6 46 -14.5t47.5 -17t45.5 -17t40 -14.5q32 -11 71.5 -19.5t81.5 -14.5t83.5 -9.5t77.5 -3.5l10 -3
q-7 -19 -12 -30t-10.5 -23t-9.5 -22q-5 -11 -7.5 -13t-8.5 -2q-37 2 -57 3.5t-39.5 2.5t-28.5 1q-31 0 -73.5 -10t-87.5 -37q-121 -75 -234 -107.5t-222 -32.5q-22 0 -35.5 13.5t-13.5 35.5q0 29 25 46.5t58 18.5q75 2 146.5 15t131.5 41q24 11 56 26.5t57 28.5zM550 1054
l101 -69l-51 -105l-100 69zM294 -104l101 -69l-51 -105l-100 69z" />
    <glyph glyph-name="uniFCD3" unicode="&#xfee7;&#xfea4;" horiz-adv-x="790" arabic-form="initial" 
d="M425 225q-18 7 -44.5 17.5t-56 20t-58.5 16t-51 6.5q-38 0 -65.5 -2t-46.5 -5t-30 -5t-17 -2q-7 0 -10 7q8 22 13.5 34t11.5 25t11 22t21 16q41 19 88.5 37.5t92 38.5t82 43t59.5 52q28 37 52.5 73.5t45.5 66t38 48t29 18.5q9 0 17 -12t14 -29.5t9.5 -35.5t3.5 -30
t-2.5 -31t-6.5 -38t-9 -32.5t-10 -13.5q-6 0 -11 18t-11 40t-14 40t-20 18q-7 0 -26 -24t-41.5 -55.5t-44 -63t-34.5 -46.5q-16 -18 -46.5 -37t-70.5 -37q22 -6 46 -14.5t47.5 -17t45.5 -17t40 -14.5q32 -11 71.5 -19.5t81.5 -14.5t83.5 -9.5t77.5 -3.5l10 -3
q-7 -19 -12 -30t-10.5 -23t-9.5 -22q-5 -11 -7.5 -13t-8.5 -2q-37 2 -57 3.5t-39.5 2.5t-28.5 1q-31 0 -73.5 -10t-87.5 -37q-121 -75 -234 -107.5t-222 -32.5q-22 0 -35.5 13.5t-13.5 35.5q0 29 25 46.5t58 18.5q75 2 146.5 15t131.5 41q24 11 56 26.5t57 28.5zM550 1054
l101 -69l-51 -105l-100 69z" />
    <glyph glyph-name="uniFCD4" unicode="&#xfee7;&#xfea8;" horiz-adv-x="790" arabic-form="initial" 
d="M425 225q-18 7 -44.5 17.5t-56 20t-58.5 16t-51 6.5q-38 0 -65.5 -2t-46.5 -5t-30 -5t-17 -2q-7 0 -10 7q8 22 13.5 34t11.5 25t11 22t21 16q41 19 88.5 37.5t92 38.5t82 43t59.5 52q28 37 52.5 73.5t45.5 66t38 48t29 18.5q9 0 17 -12t14 -29.5t9.5 -35.5t3.5 -30
t-2.5 -31t-6.5 -38t-9 -32.5t-10 -13.5q-6 0 -11 18t-11 40t-14 40t-20 18q-7 0 -26 -24t-41.5 -55.5t-44 -63t-34.5 -46.5q-16 -18 -46.5 -37t-70.5 -37q22 -6 46 -14.5t47.5 -17t45.5 -17t40 -14.5q32 -11 71.5 -19.5t81.5 -14.5t83.5 -9.5t77.5 -3.5l10 -3
q-7 -19 -12 -30t-10.5 -23t-9.5 -22q-5 -11 -7.5 -13t-8.5 -2q-37 2 -57 3.5t-39.5 2.5t-28.5 1q-31 0 -73.5 -10t-87.5 -37q-121 -75 -234 -107.5t-222 -32.5q-22 0 -35.5 13.5t-13.5 35.5q0 29 25 46.5t58 18.5q75 2 146.5 15t131.5 41q24 11 56 26.5t57 28.5zM550 1054
l101 -69l-51 -105l-100 69zM165 764l101 -69l-51 -105l-100 69z" />
    <glyph glyph-name="uniFCD5" unicode="&#xfee7;&#xfee4;" horiz-adv-x="425" arabic-form="initial" 
d="M336 558q17 0 33.5 -5.5t29.5 -15t21 -21.5t8 -25t-5 -27.5t-12 -26.5t-14.5 -20t-13.5 -8q-5 0 -11.5 8.5t-15.5 18t-21 18t-27 8.5q-17 0 -40 -8t-43.5 -24t-35 -38.5t-14.5 -50.5q0 -25 13 -51t31 -50t38.5 -43t35.5 -29q25 -7 50.5 -16t46.5 -22t28 -30.5t7 -40.5
q0 -11 -4.5 -28t-11 -33.5t-13.5 -28.5t-11 -12q-17 0 -39.5 10.5t-45.5 26.5t-43 34.5t-30 33.5q-21 -2 -51.5 -12t-63.5 -21t-63 -20t-49 -9q-26 0 -37 9.5t-11 23.5q0 13 7.5 27t19 26t26 20t29.5 8q10 0 27 5t36.5 11t40 11.5t36.5 7.5q-5 7 -12.5 20.5t-15 31t-13 37
t-5.5 38.5q0 53 19 104t49 90.5t67 63.5t73 24zM255 872l101 -69l-51 -105l-100 69z" />
    <glyph glyph-name="uniFCD6" unicode="&#xfee7;&#xfeec;" horiz-adv-x="654" arabic-form="initial" 
d="M261 287q5 0 6 -5.5t1 -19.5q0 -60 -18.5 -105t-37.5 -77q-12 -24 -17.5 -41t-10 -39.5t-4.5 -47.5q0 -39 8 -73.5t19 -60t22 -40t17 -14.5q-4 25 -6 46.5t-2 42.5q0 19 5 41.5t12.5 45t17 44t18.5 38.5q21 39 48.5 71.5t60.5 56t70 36.5t77 13q24 0 47.5 -8.5
t45.5 -27.5q13 -10 13 -20q-8 -41 -13 -63.5t-18 -58.5q-5 0 -6 3.5t-1.5 9t-3 13t-10.5 16.5q-20 22 -40.5 28t-43.5 6q-105 0 -176 -77q-30 -33 -52.5 -79.5t-22.5 -103.5q0 -36 10.5 -62.5t23 -44.5t33.5 -40q0 -5 -4.5 -23t-10 -37.5t-18.5 -50.5q-18 0 -44.5 19.5
t-51 59t-42 98.5t-17.5 139q0 29 3.5 56t7.5 48.5t12 53.5q-14 -14 -34.5 -24t-43.5 -16.5t-46.5 -9.5t-43.5 -3q-22 0 -35 16t-13 38q0 10 7 21t18 19.5t26 14t31 5.5q10 0 32.5 3.5t49.5 13t54.5 26.5t47.5 45q3 4 9.5 18t13 29t20.5 38zM506 542l101 -69l-51 -105
l-100 69z" />
    <glyph glyph-name="uniFCD7" unicode="&#xfeeb;&#xfea0;" horiz-adv-x="791" arabic-form="initial" 
d="M46 266q9 22 15.5 34t14 24t14.5 20q3 4 30.5 19t65 36.5t76 46.5t64.5 49q-7 3 -16 8.5t-17.5 16t-14.5 26.5t-6 42q0 39 10.5 75t23 63.5t33.5 60.5q-15 28 -15 57q0 54 10.5 80.5t37.5 26.5q48 0 111.5 -30.5t132.5 -90.5q28 -24 55 -56t48.5 -66.5t34.5 -69t13 -64.5
q0 -51 -8.5 -84t-22 -53t-29.5 -28t-31 -8q-19 0 -46 4t-56.5 10t-58 13.5t-51 13.5t-50.5 14q-32 -29 -58 -49t-57 -40q42 -12 88 -29.5t79 -29.5q32 -11 71.5 -19.5t81.5 -14.5t83.5 -9.5t77.5 -3.5l10 -3q-7 -19 -12 -30t-10.5 -23t-9.5 -22q-5 -11 -7.5 -13t-8.5 -2
q-37 2 -57 3.5t-39.5 2.5t-28.5 1q-31 0 -77 -12t-91 -39q-60 -37 -117.5 -61t-113 -38t-110 -19.5t-108.5 -5.5q-22 0 -35.5 13.5t-13.5 35.5q0 29 25 46.5t58 18.5q75 2 143 12t131 35q25 10 58.5 24.5t58.5 27.5q-18 7 -44.5 17.5t-56 20t-58.5 16t-51 6.5
q-38 0 -65.5 -2t-46.5 -5t-30 -5t-17 -2t-8 1t-2 6zM314 649q0 -10 9.5 -21t25.5 -21.5t35.5 -19.5t39.5 -14q10 5 23.5 15t25.5 21.5t20.5 22.5t8.5 18q0 45 -15 77.5t-43 44.5q-24 -3 -47 -16.5t-41.5 -31.5t-30 -38.5t-11.5 -36.5zM505 552q15 -6 42.5 -13.5t57.5 -14.5
t57.5 -11.5t42.5 -4.5q17 0 17 7q0 9 -9 27t-24 40t-33.5 45.5t-38.5 44t-38.5 35.5t-32.5 19l1 -19q0 -48 -12 -91.5t-30 -63.5zM263 -102l101 -69l-51 -105l-100 69z" />
    <glyph glyph-name="uniFCD8" unicode="&#xfeeb;&#xfee4;" horiz-adv-x="814" arabic-form="initial" 
d="M474 330q-26 -20 -55.5 -36t-53.5 -30q9 -5 19 -17t18.5 -29t13.5 -38t5 -43q0 -58 -24 -90.5t-69 -32.5q-65 0 -111.5 21t-84.5 72q-6 -12 -16.5 -30t-27 -35t-38.5 -29.5t-50 -12.5q-23 0 -37.5 12.5t-14.5 33.5q0 10 7.5 22t19.5 21.5t27.5 16.5t31.5 8q21 0 38.5 11
t32 28.5t26.5 38t22 38.5q11 21 24.5 36t27.5 24.5t27 15.5t24 10q42 14 73.5 29t51.5 28q-6 3 -15 8.5t-17.5 16t-14.5 26t-6 36.5q0 44 10 78q11 37 24 64t34 58q-16 26 -16 56q0 54 10.5 80.5t37.5 26.5t66.5 -13.5t82.5 -38t85.5 -59t76 -76.5t54.5 -90t21 -100
q0 -51 -8.5 -84t-22 -53t-29.5 -28t-31 -8q-41 0 -84 9q-44 9 -80.5 19.5t-84.5 28.5zM371 522q0 -11 12 -23.5t30 -23t38 -19t37 -12.5q9 5 20 14t21 19.5t17 20t7 15.5q0 45 -12 82.5t-40 49.5q-26 -4 -49.5 -17.5t-41.5 -31.5t-28.5 -38t-10.5 -36zM559 424
q15 -6 41.5 -13.5t55 -14.5t55 -11.5t41.5 -4.5q17 0 17 7q0 9 -8.5 27t-22 40t-31.5 45.5t-36.5 44t-36.5 35.5t-32 19l1 -19q0 -48 -11 -90t-33 -65zM356 139q0 6 -10.5 17.5t-28 23t-39 19.5t-43.5 8q-40 0 -40 -19q0 -14 17.5 -27.5t42.5 -24.5q18 -8 31.5 -10.5
t27.5 -2.5q20 0 31 5.5t11 10.5z" />
    <glyph glyph-name="uniFCDA" unicode="&#xfbfe;&#xfea0;" horiz-adv-x="790" arabic-form="initial" 
d="M425 225q-18 7 -44.5 17.5t-56 20t-58.5 16t-51 6.5q-38 0 -65.5 -2t-46.5 -5t-30 -5t-17 -2q-7 0 -10 7q8 22 13.5 34t11.5 25t11 22t21 16q41 19 88.5 37.5t92 38.5t82 43t59.5 52q28 37 52.5 73.5t45.5 66t38 48t29 18.5q9 0 17 -12t14 -29.5t9.5 -35.5t3.5 -30
t-2.5 -31t-6.5 -38t-9 -32.5t-10 -13.5q-6 0 -11 18t-11 40t-14 40t-20 18q-7 0 -26 -24t-41.5 -55.5t-44 -63t-34.5 -46.5q-16 -18 -46.5 -37t-70.5 -37q22 -6 46 -14.5t47.5 -17t45.5 -17t40 -14.5q32 -11 71.5 -19.5t81.5 -14.5t83.5 -9.5t77.5 -3.5l10 -3
q-7 -19 -12 -30t-10.5 -23t-9.5 -22q-5 -11 -7.5 -13t-8.5 -2q-37 2 -57 3.5t-39.5 2.5t-28.5 1q-31 0 -73.5 -10t-87.5 -37q-121 -75 -234 -107.5t-222 -32.5q-22 0 -35.5 13.5t-13.5 35.5q0 29 25 46.5t58 18.5q75 2 146.5 15t131.5 41q24 11 56 26.5t57 28.5zM706 22
l100 -70l-50 -105l-101 70zM540 -9l101 -69l-51 -105l-100 69zM294 -104l101 -69l-51 -105l-100 69z" />
    <glyph glyph-name="uniFCDB" unicode="&#xfbfe;&#xfea4;" horiz-adv-x="790" arabic-form="initial" 
d="M425 225q-18 7 -44.5 17.5t-56 20t-58.5 16t-51 6.5q-38 0 -65.5 -2t-46.5 -5t-30 -5t-17 -2q-7 0 -10 7q8 22 13.5 34t11.5 25t11 22t21 16q41 19 88.5 37.5t92 38.5t82 43t59.5 52q28 37 52.5 73.5t45.5 66t38 48t29 18.5q9 0 17 -12t14 -29.5t9.5 -35.5t3.5 -30
t-2.5 -31t-6.5 -38t-9 -32.5t-10 -13.5q-6 0 -11 18t-11 40t-14 40t-20 18q-7 0 -26 -24t-41.5 -55.5t-44 -63t-34.5 -46.5q-16 -18 -46.5 -37t-70.5 -37q22 -6 46 -14.5t47.5 -17t45.5 -17t40 -14.5q32 -11 71.5 -19.5t81.5 -14.5t83.5 -9.5t77.5 -3.5l10 -3
q-7 -19 -12 -30t-10.5 -23t-9.5 -22q-5 -11 -7.5 -13t-8.5 -2q-37 2 -57 3.5t-39.5 2.5t-28.5 1q-31 0 -73.5 -10t-87.5 -37q-121 -75 -234 -107.5t-222 -32.5q-22 0 -35.5 13.5t-13.5 35.5q0 29 25 46.5t58 18.5q75 2 146.5 15t131.5 41q24 11 56 26.5t57 28.5zM686 22
l100 -70l-50 -105l-101 70zM520 -9l101 -69l-51 -105l-100 69z" />
    <glyph glyph-name="uniFCDC" unicode="&#xfbfe;&#xfea8;" horiz-adv-x="790" arabic-form="initial" 
d="M425 225q-18 7 -44.5 17.5t-56 20t-58.5 16t-51 6.5q-38 0 -65.5 -2t-46.5 -5t-30 -5t-17 -2q-7 0 -10 7q8 22 13.5 34t11.5 25t11 22t21 16q41 19 88.5 37.5t92 38.5t82 43t59.5 52q28 37 52.5 73.5t45.5 66t38 48t29 18.5q9 0 17 -12t14 -29.5t9.5 -35.5t3.5 -30
t-2.5 -31t-6.5 -38t-9 -32.5t-10 -13.5q-6 0 -11 18t-11 40t-14 40t-20 18q-7 0 -26 -24t-41.5 -55.5t-44 -63t-34.5 -46.5q-16 -18 -46.5 -37t-70.5 -37q22 -6 46 -14.5t47.5 -17t45.5 -17t40 -14.5q32 -11 71.5 -19.5t81.5 -14.5t83.5 -9.5t77.5 -3.5l10 -3
q-7 -19 -12 -30t-10.5 -23t-9.5 -22q-5 -11 -7.5 -13t-8.5 -2q-37 2 -57 3.5t-39.5 2.5t-28.5 1q-31 0 -73.5 -10t-87.5 -37q-121 -75 -234 -107.5t-222 -32.5q-22 0 -35.5 13.5t-13.5 35.5q0 29 25 46.5t58 18.5q75 2 146.5 15t131.5 41q24 11 56 26.5t57 28.5zM686 22
l100 -70l-50 -105l-101 70zM520 -9l101 -69l-51 -105l-100 69zM165 764l101 -69l-51 -105l-100 69z" />
    <glyph glyph-name="uniFCDD" unicode="&#xfbfe;&#xfee4;" horiz-adv-x="481" arabic-form="initial" 
d="M336 558q17 0 33.5 -5.5t29.5 -15t21 -21.5t8 -25t-5 -27.5t-12 -26.5t-14.5 -20t-13.5 -8q-5 0 -11.5 8.5t-15.5 18t-21 18t-27 8.5q-17 0 -40 -8t-43.5 -24t-35 -38.5t-14.5 -50.5q0 -25 13 -51t31 -50t38.5 -43t35.5 -29q25 -7 50.5 -16t46.5 -22t28 -30.5t7 -40.5
q0 -11 -4.5 -28t-11 -33.5t-13.5 -28.5t-11 -12q-17 0 -39.5 10.5t-45.5 26.5t-43 34.5t-30 33.5q-21 -2 -51.5 -12t-63.5 -21t-63 -20t-49 -9q-26 0 -37 9.5t-11 23.5q0 13 7.5 27t19 26t26 20t29.5 8q10 0 27 5t36.5 11t40 11.5t36.5 7.5q-5 7 -12.5 20.5t-15 31t-13 37
t-5.5 38.5q0 53 19 104t49 90.5t67 63.5t73 24zM415 -117l100 -70l-50 -105l-101 70zM249 -148l101 -69l-51 -105l-100 69z" />
    <glyph glyph-name="uniFCDE" unicode="&#xfbfe;&#xfeec;" horiz-adv-x="665" arabic-form="initial" 
d="M261 287q5 0 6 -5.5t1 -19.5q0 -60 -18.5 -105t-37.5 -77q-12 -24 -17.5 -41t-10 -39.5t-4.5 -47.5q0 -39 8 -73.5t19 -60t22 -40t17 -14.5q-4 25 -6 46.5t-2 42.5q0 19 5 41.5t12.5 45t17 44t18.5 38.5q21 39 48.5 71.5t60.5 56t70 36.5t77 13q24 0 47.5 -8.5
t45.5 -27.5q13 -10 13 -20q-8 -41 -13 -63.5t-18 -58.5q-5 0 -6 3.5t-1.5 9t-3 13t-10.5 16.5q-20 22 -40.5 28t-43.5 6q-105 0 -176 -77q-30 -33 -52.5 -79.5t-22.5 -103.5q0 -36 10.5 -62.5t23 -44.5t33.5 -40q0 -5 -4.5 -23t-10 -37.5t-18.5 -50.5q-18 0 -44.5 19.5
t-51 59t-42 98.5t-17.5 139q0 29 3.5 56t7.5 48.5t12 53.5q-14 -14 -34.5 -24t-43.5 -16.5t-46.5 -9.5t-43.5 -3q-22 0 -35 16t-13 38q0 10 7 21t18 19.5t26 14t31 5.5q10 0 32.5 3.5t49.5 13t54.5 26.5t47.5 45q3 4 9.5 18t13 29t20.5 38zM555 -117l100 -70l-50 -105
l-101 70zM389 -148l101 -69l-51 -105l-100 69z" />
    <glyph glyph-name="uniFCDF" unicode="&#xfe8c;&#xfee4;" horiz-adv-x="518" arabic-form="medial" 
d="M518 312q-28 0 -60 13.5t-66 60.5q-17 23 -28 37.5t-20.5 22.5t-19.5 11t-23 4q-18 -2 -39.5 -10.5t-41 -24t-32.5 -37t-13 -48.5q0 -25 13 -51t31 -50t38.5 -43t35.5 -29q15 -5 31 -10.5t29.5 -11t24 -10t14.5 -7.5q20 -13 26.5 -30t6.5 -40q0 -11 -4.5 -28t-11 -33.5
t-13 -28.5t-10.5 -12q-17 0 -40.5 11t-47 27t-44 34t-30.5 33q-21 -2 -51 -12t-62.5 -21t-62 -20t-48.5 -9q-26 0 -37 9.5t-11 23.5q0 26 20 46.5t62 34.5q10 3 27.5 8.5t37 10.5t39.5 9.5t36 6.5q-5 7 -12.5 20.5t-15 31t-13 37t-5.5 38.5q0 53 19.5 104.5t50 91.5
t67.5 64.5t73 24.5q34 0 53 -12.5t34 -30.5t31 -39.5t44 -39.5q13 -8 29 -10.5t23 -2.5zM335 943q14 0 22 -14t8 -28q0 -21 -9 -37t-16 -16q-8 0 -15 11q-3 7 -11 9t-16 2t-20.5 -5.5t-24 -13t-19.5 -16.5t-8 -16q0 -11 16 -18t36.5 -11t39 -6t24.5 -2q33 17 50.5 27
t51.5 27q7 0 7 -10q-18 -47 -30 -68q-21 -15 -35 -22.5t-31 -16.5l-34 -18q-20 -11 -41 -23t-39 -22.5t-46 -24.5q-5 0 -5 10t9 20.5t20 20.5t29 28q-23 10 -36.5 18t-25 20t-11.5 27q0 22 16 51t40 55t52 44t52 18z" />
    <glyph glyph-name="uniFCE0" unicode="&#xfe8c;&#xfeec;" horiz-adv-x="654" arabic-form="medial" 
d="M654 0q-14 0 -30 6.5t-33 24.5q-14 15 -25 27t-21 20.5t-21.5 13.5t-26.5 5q-48 0 -85 -20t-71 -57q-30 -33 -52.5 -79.5t-22.5 -103.5q0 -36 10.5 -62.5t23 -44.5t33.5 -40q0 -5 -4.5 -23t-10 -37.5t-18.5 -50.5q-18 0 -44.5 19.5t-51 59t-42 98.5t-17.5 139
q0 29 3.5 57t8 50t11.5 51q-14 -14 -34.5 -24t-43.5 -16.5t-46.5 -9.5t-43.5 -3q-22 0 -35 16t-13 38q0 10 7 21t18 19.5t26 14t31 5.5q10 0 32.5 3.5t49.5 13t54.5 26.5t47.5 45q3 4 9.5 18t13 29t20.5 38q5 0 6 -5.5t1 -19.5q0 -60 -18.5 -105t-37.5 -77
q-12 -24 -17.5 -41t-10 -39.5t-4.5 -47.5q0 -39 8 -73.5t19 -60t22 -40t17 -14.5q-4 25 -6 46.5t-2 42.5q0 19 5 41.5t12.5 45t17.5 43.5t19 38q21 37 47.5 69.5t58 56.5t67 38t74.5 14q14 0 25.5 -7t22 -17t21 -22t21.5 -22q13 -13 32 -15t27 -2zM547 764q14 0 22 -14
t8 -28q0 -21 -9 -37t-16 -16q-8 0 -15 11q-3 7 -11 9t-16 2t-20.5 -5.5t-24 -13t-19.5 -16.5t-8 -16q0 -11 16 -18t36.5 -11t39 -6t24.5 -2q33 17 50.5 27t51.5 27q7 0 7 -10q-18 -47 -30 -68q-21 -15 -35 -22.5t-31 -16.5l-34 -18q-20 -11 -41 -23t-39 -22.5t-46 -24.5
q-5 0 -5 10t9 20.5t20 20.5t29 28q-23 10 -36.5 18t-25 20t-11.5 27q0 22 16 51t40 55t52 44t52 18z" />
    <glyph glyph-name="uniFCE1" unicode="&#xfe92;&#xfee4;" horiz-adv-x="518" arabic-form="medial" 
d="M518 312q-28 0 -60 13.5t-66 60.5q-17 23 -28 37.5t-20.5 22.5t-19.5 11t-23 4q-18 -2 -39.5 -10.5t-41 -24t-32.5 -37t-13 -48.5q0 -25 13 -51t31 -50t38.5 -43t35.5 -29q15 -5 31 -10.5t29.5 -11t24 -10t14.5 -7.5q20 -13 26.5 -30t6.5 -40q0 -11 -4.5 -28t-11 -33.5
t-13 -28.5t-10.5 -12q-17 0 -40.5 11t-47 27t-44 34t-30.5 33q-21 -2 -51 -12t-62.5 -21t-62 -20t-48.5 -9q-26 0 -37 9.5t-11 23.5q0 26 20 46.5t62 34.5q10 3 27.5 8.5t37 10.5t39.5 9.5t36 6.5q-5 7 -12.5 20.5t-15 31t-13 37t-5.5 38.5q0 53 19.5 104.5t50 91.5
t67.5 64.5t73 24.5q34 0 53 -12.5t34 -30.5t31 -39.5t44 -39.5q13 -8 29 -10.5t23 -2.5zM376 -95l101 -69l-51 -105l-100 69z" />
    <glyph glyph-name="uniFCE2" unicode="&#xfe92;&#xfeec;" horiz-adv-x="654" arabic-form="medial" 
d="M654 0q-14 0 -30 6.5t-33 24.5q-14 15 -25 27t-21 20.5t-21.5 13.5t-26.5 5q-48 0 -85 -20t-71 -57q-30 -33 -52.5 -79.5t-22.5 -103.5q0 -36 10.5 -62.5t23 -44.5t33.5 -40q0 -5 -4.5 -23t-10 -37.5t-18.5 -50.5q-18 0 -44.5 19.5t-51 59t-42 98.5t-17.5 139
q0 29 3.5 57t8 50t11.5 51q-14 -14 -34.5 -24t-43.5 -16.5t-46.5 -9.5t-43.5 -3q-22 0 -35 16t-13 38q0 10 7 21t18 19.5t26 14t31 5.5q10 0 32.5 3.5t49.5 13t54.5 26.5t47.5 45q3 4 9.5 18t13 29t20.5 38q5 0 6 -5.5t1 -19.5q0 -60 -18.5 -105t-37.5 -77
q-12 -24 -17.5 -41t-10 -39.5t-4.5 -47.5q0 -39 8 -73.5t19 -60t22 -40t17 -14.5q-4 25 -6 46.5t-2 42.5q0 19 5 41.5t12.5 45t17.5 43.5t19 38q21 37 47.5 69.5t58 56.5t67 38t74.5 14q14 0 25.5 -7t22 -17t21 -22t21.5 -22q13 -13 32 -15t27 -2zM486 -134l101 -69
l-51 -105l-100 69z" />
    <glyph glyph-name="uniFCE3" unicode="&#xfe98;&#xfee4;" horiz-adv-x="518" arabic-form="medial" 
d="M518 312q-28 0 -60 13.5t-66 60.5q-17 23 -28 37.5t-20.5 22.5t-19.5 11t-23 4q-18 -2 -39.5 -10.5t-41 -24t-32.5 -37t-13 -48.5q0 -25 13 -51t31 -50t38.5 -43t35.5 -29q15 -5 31 -10.5t29.5 -11t24 -10t14.5 -7.5q20 -13 26.5 -30t6.5 -40q0 -11 -4.5 -28t-11 -33.5
t-13 -28.5t-10.5 -12q-17 0 -40.5 11t-47 27t-44 34t-30.5 33q-21 -2 -51 -12t-62.5 -21t-62 -20t-48.5 -9q-26 0 -37 9.5t-11 23.5q0 26 20 46.5t62 34.5q10 3 27.5 8.5t37 10.5t39.5 9.5t36 6.5q-5 7 -12.5 20.5t-15 31t-13 37t-5.5 38.5q0 53 19.5 104.5t50 91.5
t67.5 64.5t73 24.5q34 0 53 -12.5t34 -30.5t31 -39.5t44 -39.5q13 -8 29 -10.5t23 -2.5zM342 857l100 -70l-50 -105l-101 70zM176 826l101 -69l-51 -105l-100 69z" />
    <glyph glyph-name="uniFCE4" unicode="&#xfe98;&#xfeec;" horiz-adv-x="654" arabic-form="medial" 
d="M654 0q-14 0 -30 6.5t-33 24.5q-14 15 -25 27t-21 20.5t-21.5 13.5t-26.5 5q-48 0 -85 -20t-71 -57q-30 -33 -52.5 -79.5t-22.5 -103.5q0 -36 10.5 -62.5t23 -44.5t33.5 -40q0 -5 -4.5 -23t-10 -37.5t-18.5 -50.5q-18 0 -44.5 19.5t-51 59t-42 98.5t-17.5 139
q0 29 3.5 57t8 50t11.5 51q-14 -14 -34.5 -24t-43.5 -16.5t-46.5 -9.5t-43.5 -3q-22 0 -35 16t-13 38q0 10 7 21t18 19.5t26 14t31 5.5q10 0 32.5 3.5t49.5 13t54.5 26.5t47.5 45q3 4 9.5 18t13 29t20.5 38q5 0 6 -5.5t1 -19.5q0 -60 -18.5 -105t-37.5 -77
q-12 -24 -17.5 -41t-10 -39.5t-4.5 -47.5q0 -39 8 -73.5t19 -60t22 -40t17 -14.5q-4 25 -6 46.5t-2 42.5q0 19 5 41.5t12.5 45t17.5 43.5t19 38q21 37 47.5 69.5t58 56.5t67 38t74.5 14q14 0 25.5 -7t22 -17t21 -22t21.5 -22q13 -13 32 -15t27 -2zM547 622l100 -70l-50 -105
l-101 70zM381 591l101 -69l-51 -105l-100 69z" />
    <glyph glyph-name="uniFCE5" unicode="&#xfe9c;&#xfee4;" horiz-adv-x="518" arabic-form="medial" 
d="M518 312q-28 0 -60 13.5t-66 60.5q-17 23 -28 37.5t-20.5 22.5t-19.5 11t-23 4q-18 -2 -39.5 -10.5t-41 -24t-32.5 -37t-13 -48.5q0 -25 13 -51t31 -50t38.5 -43t35.5 -29q15 -5 31 -10.5t29.5 -11t24 -10t14.5 -7.5q20 -13 26.5 -30t6.5 -40q0 -11 -4.5 -28t-11 -33.5
t-13 -28.5t-10.5 -12q-17 0 -40.5 11t-47 27t-44 34t-30.5 33q-21 -2 -51 -12t-62.5 -21t-62 -20t-48.5 -9q-26 0 -37 9.5t-11 23.5q0 26 20 46.5t62 34.5q10 3 27.5 8.5t37 10.5t39.5 9.5t36 6.5q-5 7 -12.5 20.5t-15 31t-13 37t-5.5 38.5q0 53 19.5 104.5t50 91.5
t67.5 64.5t73 24.5q34 0 53 -12.5t34 -30.5t31 -39.5t44 -39.5q13 -8 29 -10.5t23 -2.5zM350 852l100 -70l-50 -105l-101 70zM177 825l101 -69l-51 -105l-100 69zM231 1001l100 -69l-50 -105l-101 69z" />
    <glyph glyph-name="uniFCE6" unicode="&#xfe9c;&#xfeec;" horiz-adv-x="654" arabic-form="medial" 
d="M654 0q-14 0 -30 6.5t-33 24.5q-14 15 -25 27t-21 20.5t-21.5 13.5t-26.5 5q-48 0 -85 -20t-71 -57q-30 -33 -52.5 -79.5t-22.5 -103.5q0 -36 10.5 -62.5t23 -44.5t33.5 -40q0 -5 -4.5 -23t-10 -37.5t-18.5 -50.5q-18 0 -44.5 19.5t-51 59t-42 98.5t-17.5 139
q0 29 3.5 57t8 50t11.5 51q-14 -14 -34.5 -24t-43.5 -16.5t-46.5 -9.5t-43.5 -3q-22 0 -35 16t-13 38q0 10 7 21t18 19.5t26 14t31 5.5q10 0 32.5 3.5t49.5 13t54.5 26.5t47.5 45q3 4 9.5 18t13 29t20.5 38q5 0 6 -5.5t1 -19.5q0 -60 -18.5 -105t-37.5 -77
q-12 -24 -17.5 -41t-10 -39.5t-4.5 -47.5q0 -39 8 -73.5t19 -60t22 -40t17 -14.5q-4 25 -6 46.5t-2 42.5q0 19 5 41.5t12.5 45t17.5 43.5t19 38q21 37 47.5 69.5t58 56.5t67 38t74.5 14q14 0 25.5 -7t22 -17t21 -22t21.5 -22q13 -13 32 -15t27 -2zM551 594l100 -70l-50 -105
l-101 70zM378 567l101 -69l-51 -105l-100 69zM432 743l100 -69l-50 -105l-101 69z" />
    <glyph glyph-name="uniFCEB" unicode="&#xfb91;&#xfee0;" horiz-adv-x="988" arabic-form="medial" 
d="M988 0q-26 0 -48 10t-46.5 31.5t-55 55t-73.5 80.5q-35 39 -79 76t-86 72q4 -13 9 -32.5t9.5 -40t7 -38t2.5 -26.5q1 -24 -5 -47.5t-17 -44.5t-25.5 -38t-29.5 -26q-38 -24 -77 -33t-73 -9q-43 0 -73 19t-53 55q-17 28 -28.5 66t-20.5 83q0 -17 -1.5 -37.5t-7 -42.5
t-16.5 -43t-30 -39q-35 -32 -70 -43q-13 -5 -36.5 -6.5t-40.5 -1.5h-18q-38 0 -38 43q0 35 22.5 53t49.5 18q8 0 30 3t47 10t46.5 18.5t28.5 29.5q-1 21 -2.5 49t-3 58.5t-4 61t-5.5 55.5q-6 63 -13.5 140.5t-14 158.5t-12 158.5t-7.5 139.5q4 20 7.5 34.5t6.5 24.5
t8.5 22.5t13.5 28.5q8 0 9 -19.5t6 -72.5q2 -35 6 -82t9 -99t10.5 -105t10.5 -99q2 12 5.5 22.5t8.5 19.5q10 21 49.5 54t96.5 71t126 79t139 79q46 25 105.5 55.5t122.5 61.5l63 31.5t62 29.5q31 15 58 28.5t52 24.5t53.5 23t62.5 25q0 -6 -3.5 -19.5t-8 -29t-10 -29
t-9.5 -19.5q-28 -15 -53 -28t-47 -24l-47 -23.5t-54 -26.5q-41 -21 -85.5 -43t-87 -44t-82.5 -42.5t-72 -37.5q-64 -35 -129.5 -73.5t-120.5 -73t-93.5 -62t-47.5 -40.5q87 -40 156.5 -76.5t126.5 -72t105.5 -71.5t94 -75.5t91 -83t97.5 -94.5q17 -17 33.5 -24t46.5 -7z
M452 381q-23 21 -54.5 41.5t-63 39.5t-60 35.5t-45.5 29.5q4 -27 7 -52t7 -46q4 -27 9.5 -60.5t13 -67t16 -63.5t18.5 -49q16 -31 41 -55.5t60 -24.5q28 0 56.5 5.5t48.5 12.5q14 5 29 12t27 15.5t20 17t8 16.5q1 11 -4 28t-20 40.5t-42.5 54.5t-71.5 70z" />
    <glyph glyph-name="uniFCEC" unicode="&#xfb91;&#xfee4;" horiz-adv-x="950" arabic-form="medial" 
d="M950 0q-32 0 -56.5 11.5t-49.5 34.5t-54.5 57t-71.5 79q-47 51 -109.5 114.5t-149.5 141.5q3 -6 6.5 -16t7 -21.5t6 -22.5t2.5 -19q0 -21 -9 -38t-22.5 -30t-31 -22.5t-33.5 -15.5q23 -17 39 -50t16 -72q0 -33 -9 -57t-23 -39t-31.5 -22t-33.5 -7q-26 0 -53.5 5.5
t-53 16.5t-47 29t-35.5 44q-29 -45 -65.5 -73t-88.5 -28q-25 0 -34.5 14t-9.5 35q0 11 6 22.5t16.5 21t24.5 15.5t31 6q33 0 55.5 9t38.5 24t27 34t20 39q11 23 22.5 37t25 22.5t29 12.5t34.5 7q6 1 16 2.5t22 3.5l24 4t22 5q27 8 48 17t21 21q0 7 -5.5 20t-18.5 32.5
t-35 45.5t-55 61q-36 37 -61.5 62.5t-42 44.5t-24 33t-7.5 28q0 36 5.5 64t21 52.5t42 48.5t69 51t102.5 60.5t142 77.5q46 25 99 53t105 55l101 51l87 42q19 10 42 19t49 19q0 -6 -3.5 -19.5t-8 -29t-10 -29t-9.5 -19.5q-41 -24 -74.5 -42t-77.5 -41q-66 -32 -140.5 -71.5
t-139.5 -74.5q-64 -35 -122 -68t-103.5 -61.5t-76 -50.5t-39.5 -35q98 -73 184.5 -144.5t164.5 -144t150 -146t143 -150.5q16 -17 38.5 -24.5t52.5 -7.5zM374 126q0 6 -10.5 17.5t-28 22.5t-39 19.5t-43.5 8.5q-40 0 -40 -19q0 -7 8 -18t23.5 -21t37.5 -17t50 -7
q17 0 29.5 4.5t12.5 9.5z" />
    <glyph glyph-name="uniFCEE" unicode="&#xfee8;&#xfee4;" horiz-adv-x="518" arabic-form="medial" 
d="M518 312q-28 0 -60 13.5t-66 60.5q-17 23 -28 37.5t-20.5 22.5t-19.5 11t-23 4q-18 -2 -39.5 -10.5t-41 -24t-32.5 -37t-13 -48.5q0 -25 13 -51t31 -50t38.5 -43t35.5 -29q15 -5 31 -10.5t29.5 -11t24 -10t14.5 -7.5q20 -13 26.5 -30t6.5 -40q0 -11 -4.5 -28t-11 -33.5
t-13 -28.5t-10.5 -12q-17 0 -40.5 11t-47 27t-44 34t-30.5 33q-21 -2 -51 -12t-62.5 -21t-62 -20t-48.5 -9q-26 0 -37 9.5t-11 23.5q0 26 20 46.5t62 34.5q10 3 27.5 8.5t37 10.5t39.5 9.5t36 6.5q-5 7 -12.5 20.5t-15 31t-13 37t-5.5 38.5q0 53 19.5 104.5t50 91.5
t67.5 64.5t73 24.5q34 0 53 -12.5t34 -30.5t31 -39.5t44 -39.5q13 -8 29 -10.5t23 -2.5zM252 850l101 -69l-51 -105l-100 69z" />
    </font>
</defs>
</svg>
