<?xml version="1.0" standalone="no"?>
<!DOCTYPE svg PUBLIC "-//W3C//DTD SVG 1.1//EN" "http://www.w3.org/Graphics/SVG/1.1/DTD/svg11.dtd">
<svg xmlns="http://www.w3.org/2000/svg">
<metadata>Generated by Fontastic.me</metadata>
<defs>
<font id="banuria-new" horiz-adv-x="512">
<font-face font-family="banuria-new" units-per-em="512" ascent="480" descent="-32"/>
<missing-glyph horiz-adv-x="512" />

<glyph glyph-name="docs-bold" unicode="&#97;" d="M160 358c-2 0-5 0-8 3l-19 22c-5 5-5 10 0 16 3 5 11 5 17 0l10-14 33 35c5 6 10 6 16 0 5-5 5-10 0-16l-41-43c0-3-2-3-8-3z m211 22l-119 0c-5 0-11 5-11 13 0 6 6 11 11 11l121 0c6 0 11-5 11-13-3-6-5-11-13-11z m-211-202c-2 0-5 0-8 3l-21 21c-6 5-6 11 0 16 5 6 10 6 16 0l11-13 35 35c5 5 10 5 16 0 5-6 5-11 0-16l-41-41c0-2-2-5-8-5z m211 21l-119 0c-5 0-11 6-11 14 0 5 6 11 11 11l121 0c6 0 11-6 11-14-3-5-5-11-13-11z m-211-110c-2 0-5 0-8 3l-21 21c-6 6-6 11 0 16 5 6 10 6 16 0l11-13 35 35c5 5 10 5 16 0 5-5 5-11 0-16l-41-41c0-5-2-5-8-5z m211 21l-119 0c-5 0-11 6-11 11 0 6 6 11 11 11l121 0c6 0 11-5 11-11 0-8-5-11-13-11z m-211 159c-2 0-5 0-8 3l-19 22c-5 2-5 11 0 16 6 5 11 5 17 0l10-14 33 35c5 6 10 6 16 0 5-5 5-10 0-16l-41-43c0-3-2-3-8-3z m211 19l-119 0c-5 0-11 6-11 11 0 6 6 11 11 11l121 0c6 0 11-5 11-11 0-5-5-11-13-11z m67-288l-364 0c-8 0-16 8-16 19l0 474c0 11 8 19 16 19l361 0c11 0 16-8 16-19l0-477c3-8-5-16-13-16z m-345 35l329 0 0 442-329 0z"/>
<glyph glyph-name="download-btn-1" unicode="&#98;" d="M265 95l0 209-18 0 0-209-61 61-16-13 87-85 87 85-15 13z m58 417l-211 0c-21 0-39-16-39-37l0-438c0-21 18-37 39-37l290 0c22 0 40 16 40 37l0 343z m0-29l90-106-71 0c-11 3-19 11-19 22z m95-446c0-11-8-19-18-19l-290 0c-11 0-19 8-19 19l0 438c0 11 8 19 19 19l192 0 0-95c0-22 19-37 40-37l76 0z"/>
<glyph glyph-name="mazameen-icon" unicode="&#99;" d="M363 237l64 0c8 0 17 8 17 17l0 143c0 8-9 17-17 17l-64 0c-9 0-17-9-17-17l0-145c0-9 8-15 17-15z m17 143l30 0 0-111-30 0z m47-254l-237 0c-9 0-17-11-15-19 0-9 6-15 15-15l237 0c8 0 17 8 17 17 0 8-7 17-17 17z m-237 111l119 0c9 0 17 8 17 17 0 8-8 17-17 17l-119 0c-9 0-17-9-17-17 0-11 8-17 17-17z m0 143l119 0c9 0 17 8 17 17 0 8-8 17-17 17l-119 0c-9 0-15-9-15-19 0-7 6-13 15-15z m305 121l-371 0c-11 0-17-8-19-17l0-21-35 0c-8 0-17-9-17-17l0-21-36 0c-8-3-17-9-17-20l0-324c0-38 32-70 70-70l372 0c38 0 70 32 70 70l0 403c0 9-6 17-17 17z m-390-420c0-19-15-36-37-36-19 0-36 15-36 36l0 307 19 0 0-311c0-9 9-17 17-17 9 0 17 8 17 17l0 350 20 0z m373 0c0-19-17-36-36-36l-312 0c2 2 2 4 4 6 3 2 3 4 3 9 0 0 0 2 0 2 0 2 2 4 2 6 0 0 0 2 0 2 0 3 0 7 0 9l0 388 337 0 0-386z m-288 83l237 0c8 0 17 9 17 17 0 9-9 17-17 17l-237 0c-9 0-17-8-17-17 0-10 8-17 17-17z m136 162c0 9-8 17-17 17l-119 0c-9-2-15-10-13-21 0-6 6-13 13-15l119 0c9 0 17 9 17 19z"/>
<glyph glyph-name="pdf-icon-1" unicode="&#100;" d="M223 263l-50 0 0-114 16 0 0 50 34 0c18 0 34 14 34 32 0 18-14 32-34 32z m0-48l-34 0 0 32 34 0c9 0 16-7 18-16 2-9-7-16-18-16z m100 48l-50 0 0-114 50 0c18 0 34 14 34 32l0 50c-2 18-16 32-34 32z m16-82c0-9-7-16-13-16 0 0-3 0-3 0l-34 0 0 82 34 0c9 0 16-7 16-14 0 0 0-2 0-2z m116 132l-132 0 0 50-100 114-182 0c-19 0-35-14-35-32l0-378c0-18 16-32 35-32l248 0c18 0 34 14 34 32l0 32 132 0c28 0 51 20 51 48 0 0 0 2 0 2l0 114c0 27-23 50-51 50z m-232 139l77-91-61 0c-9 2-16 9-16 18z m82-385c0-9-7-16-16-16l-248 0c-10 0-16 7-16 16l0 378c0 9 6 16 16 16l166 0 0-82c0-18 16-32 34-32l66 0 0-32-134 0c-28 0-50-20-50-48 0 0 0-2 0-2l0-114c0-27 20-48 48-50 0 0 2 0 2 0l132 0z m185 82c0-18-16-32-35-32l-282 0c-18 0-32 14-32 32l0 114c0 18 16 32 32 32l282 0c19 0 35-14 35-32z m-117 0l16 0 0 50 50 0 0 16-50 0 0 32 66 0 0 16-82 0z"/>
<glyph glyph-name="pointer-2" unicode="&#101;" d="M259 290c-6 0-6 0-11 0-17 0-34-17-34-40 0 0 0-5 0-5 0-23 22-34 39-34 0 0 0 0 6 0l-34 45z m22 180l-39 39-242-253 242-253 39 39-202 214z m192-175c-17 0-34-16-34-39 0 0 0-6 0-6 0-22 22-33 39-33 23 0 34 22 34 39 0 17-17 39-39 39z m33 175l-39 39-208-219c17-6 28-17 28-34 0-17-11-34-28-39l208-214 39 39-202 214z"/>
<glyph glyph-name="print" unicode="&#102;" d="M182 141l146 0c10 0 18 7 18 18 0 10-8 18-18 18 0 0 0 0-3 0l-141 0c-10 0-18-8-18-18-2-11 6-18 16-18z m299 248l-56 0 0 79c-3 18-15 31-33 31l-272 0c-18 0-30-13-30-31l0-79-59 0c-16 0-31-13-31-31l0-176c0-18 15-31 31-31l56 0 0-110c3-15 15-28 33-28l272 0c18 0 30 13 30 31l0 110 57 0c18 0 30 12 30 30l0 174c3 18-12 31-28 31z m-356 74l259 0 0-71-259 0z m262-414l-259 0 0 158 259 0z m87 140l-52 0 0 54-332 0 0-54-52 0 0 164 436 0z m-52 105c11 0 16 8 16 18 0 11-8 16-18 16-10 0-16-8-16-18 3-8 11-16 18-16z m-48 8c5 0 10 5 10 10 0 5-5 11-10 11-5 0-10-6-10-11 0-5 5-10 10-10z m-192-223l84 0c10 0 18 8 18 18 0 11-8 18-18 18 0 0 0 0-2 0l-80 0c-10 0-18-7-18-18-2-7 6-18 16-18z"/>
<glyph glyph-name="question-sm" unicode="&#103;" d="M256 178c-11 0-19 8-19 19 0 10 8 21 19 21 11 0 19-8 19-19l0-2c0-8-8-19-19-19z m-221-178c-19 0-35 16-35 35l0 402c0 21 8 40 22 53 13 14 32 22 51 22l366 0c41 0 73-32 73-75l0-267c0-41-32-73-73-73l-229 0c-38 0-73-13-100-38l-51-48c-5-8-16-11-24-11z m38 480c-24 0-43-19-43-43l0-413 59 54c32 30 75 49 121 49l229 0c24 0 43 19 43 43l0 269c0 24-19 43-43 43z m183-237c-11 0-19 8-19 18l0 27c0 19 11 35 30 43 16 6 24 22 21 35-2 14-10 22-24 25-3 0-5 0-5 0-8 0-16-3-22-6-8-5-13-16-11-24 0-11-10-21-21-21-11 0-19 10-19 21 0 22 11 43 27 57 11 8 27 13 43 13 5 0 11 0 16 0 27-5 49-27 54-54 8-32-8-67-40-81l-8-2 0-30c-3-13-11-21-22-21z"/>
<glyph glyph-name="questions" unicode="&#104;" d="M208 466c-31 2-60-19-69-49-1-6 2-13 8-14 5-2 12 1 14 7 0 0 0 1 0 1 7 20 26 32 46 32 23 2 44-14 47-39 2-21-7-42-24-54-22-18-34-43-34-69 0-7 5-13 12-13 7 0 13 6 13 11-2 21 9 41 24 53 22 18 34 44 34 72-2 37-34 64-71 62z m2-210c-7 0-12-5-12-12 0-7 5-13 12-13 7 0 12 6 12 13-1 7-7 12-12 12z m265 23l-34 0 0 177c0 31-24 56-56 56l-329 0c-31 0-56-25-56-56l0-214c0-32 25-57 56-57l34 0 0-104c0-7 5-12 12-12 4 0 7 2 9 5l87 111 53 0 0-90c0-21 16-37 37-39l97 0 56-54c6-6 13-6 16 0 2 2 4 5 4 9l0 47 14 0c21 0 37 18 37 39l0 145c0 19-16 37-37 37z m-224-37l0-32-59 0c-3 0-7-2-8-5l-69-90 0 83c0 7-6 12-13 12l-46 0c-17 0-33 14-33 32l0 214c0 17 14 33 33 33l329 0c18 0 33-14 33-32l0-176-130 0c-21-2-37-20-37-39z m238 0l0-145c0-7-5-14-14-14l-25 0c-7 0-12-5-12-12l0-30-41 38c-2 2-5 4-9 4l-102 0c-7 0-14 7-14 14l0 99c0 2 0 2 0 4l0 42c0 7 5 14 14 14l141 0c2 0 4 0 6 0l42 0c7 0 14-7 14-14z m-108-125c-7 0-12-6-12-13 0-7 5-12 12-12 7 0 13 5 13 10-2 9-6 15-13 15z m0 128c-7 0-12-5-12-10l0-94c0-7 5-12 11-12 5 0 12 5 12 10l0 94c2 7-4 12-11 12z"/>
<glyph glyph-name="search-icon" unicode="&#105;" d="M289 512c-120 0-220-99-220-220 0-51 18-102 51-141l-111-112c-9-9-9-21 0-30 9-9 21-9 30 0l112 111c93-78 235-63 313 31 78 93 63 235-30 313-42 30-91 48-145 48z m0-401c-99 0-178 82-178 178 0 100 82 178 178 178 100 0 178-81 178-178 3-96-78-178-178-178z m118 202c-12 0-21-9-21-21 0-51-43-93-94-93-12 0-21-9-21-21 0-12 9-21 21-21 75 0 139 60 139 138-3 6-12 18-24 18z"/>
<glyph glyph-name="share" unicode="&#106;" d="M407 512c-46-3-82-41-79-84 0-8 0-16 2-24l-128-79c-20 23-46 39-77 39-58-6-102-57-99-116 2-53 46-97 99-100 29 0 57 13 75 36l128-79c-3-8-3-15-3-23 3-44 41-77 85-74 43 2 76 41 74 84-3 44-39 74-80 74-23 0-43-10-56-25l-128 79c8 21 8 44 0 67l128 79c16-15 36-26 56-26 47 0 85 39 85 85 3 49-36 87-82 87z m0-44c23 3 44-15 46-40 0-21-18-41-41-44-23-3-43 15-46 41 0 0 0 3 0 3 0 20 18 40 41 40z m-282-148c36 3 67-26 70-59 2-36-26-66-59-69-36-3-67 26-69 59 0 2 0 2 0 5-3 33 25 64 58 64z m282-192c23 3 44-15 46-41 3-23-15-43-41-46-25-3-43 15-46 41 0 0 0 2 0 2 0 24 18 44 41 44z"/>
<glyph glyph-name="talash-icon" unicode="&#107;" d="M43 300l95 0c8 13 17 25 26 36l-103 0c-10 0-18 8-18 17l0 104c0 9 8 17 18 17l105 0c9 0 17-8 19-17l0-106c10 8 23 16 35 21l0 104c0 20-15 35-35 35l-142 0c-20-1-35-17-35-35l0-140c0-20 15-36 35-36z m283 84l0 73c0 9 8 17 17 17l105 0c10 0 17-8 17-17l0-106c0-9-7-17-17-17l-32 0c11-11 20-21 26-35l23 0c21 0 36 15 36 35l0 140c0 20-15 36-36 36l-141 0c-20 0-35-16-35-34l0-87c14-2 26-3 37-5z m-141-310c0-10-8-17-19-17l-105 0c-10 0-18 7-18 17l0 105c0 10 8 17 18 17l54 0c0 6-2 13-2 17 0 7 0 13 2 17l-72 0c-20 0-35-15-35-35l0-140c0-20 15-36 35-36l142 0c18 0 34 14 35 33-12 6-25 14-35 22z m313-41l-95 95c19 25 30 54 30 85 1 78-62 142-140 143-77 2-141-62-143-140-1-77 63-141 140-142 31 0 62 9 87 29l95-94c7-7 18-7 26 0 8 6 8 18 0 24z m-206 75c-58 1-104 48-104 105 1 58 48 104 105 104 58-1 104-48 104-105 0-58-48-104-105-104z"/>
<glyph glyph-name="tareekh" unicode="&#108;" d="M197 182l-61 0c-7 0-14-7-14-14 0-7 7-14 14-14l61 0c7 0 14 7 14 14 0 7-7 14-14 14z m0 60l-61 0c-7 0-14-7-14-14 0-7 7-14 14-14l61 0c7 0 14 7 14 14 0 7-7 14-14 14z m298 58l-45 0 0 44c0 10-7 14-14 14l-44 0 0 105c-2 7-9 14-16 14-61 0-112-58-128-137-14 11-33 18-51 18l-119 0c-7 0-14-7-14-14l0-44-47 0c-7 0-14-7-14-14l0-235c0-9 7-16 14-16l180 0c7 0 14 7 14 14 0 7-7 14-14 14l-163 0 0 207 30 0 0-163c0-7 7-14 14-14l119 0c25 0 44-19 44-44 0-7 7-14 14-14 9 0 14 7 14 14 0 23 21 44 44 44l119 0c9 0 14 7 14 14l0 163 30 0 0-207-163 0c-7 0-14-7-14-14 0-7 7-14 14-14l179 0c7 0 14 7 14 14l0 237c3 7-4 14-11 14z m-254-14l0-177c-14 10-28 14-44 14l-105 0 0 207 105 0c25 0 44-20 44-44z m30 0c0 82 40 149 89 161l0-205c-40-9-73-35-89-70z m149-163l-105 0c-11 0-25-2-37-9 5 19 12 35 21 49 2-7 7-12 14-12l63 0c7 0 14 7 14 14 0 7-7 14-14 14l-61 0c14 19 38 28 61 30 9 0 14 7 14 14l0 107 30 0z m-223 177l-59 0c-7 0-13-7-13-14 0-7 6-14 13-14l61 0c7 0 14 7 14 14-2 7-7 14-16 14z"/>
<glyph glyph-name="angle-left" unicode="&#109;" d="M352 384l-32 32-160-160 160-160 32 32-127 128z"/>
<glyph glyph-name="angle-right" unicode="&#110;" d="M160 384l32 32 160-160-160-160-32 32 127 128z"/>
<glyph glyph-name="angle-down" unicode="&#111;" d="M344 317c8 9 16 9 25 0 9-7 9-15 0-24 0 0-101-98-101-98-7-8-15-8-24 0 0 0-101 98-101 98-9 9-9 17 0 24 9 9 17 9 26 0 0 0 87-79 87-79 0 0 88 79 88 79"/>
<glyph glyph-name="search" unicode="&#113;" d="M468-4c-4 0-4 0-7 0-4 0-8 4-8 8l-138 172c-4 3-4 11-4 14 0 7 4 11 7 15 29 25 48 62 51 102 4 40-11 81-36 110-29 33-70 51-114 51-36 0-69-11-95-36-29-26-47-63-51-103-4-40 11-80 37-110 29-32 69-51 113-51 7 0 18 0 26 4 0 0 3 0 3 0 11 0 19-7 22-18 4-11-7-22-18-26-11-4-22-4-33-4-58 0-110 26-146 70-33 40-48 88-44 139 4 51 29 99 66 131 33 30 77 44 124 44 55 0 110-25 146-69 63-73 59-183-3-256l128-157c3-4 3-11 3-15 0-7-3-11-7-15-11 4-18 0-22 0z"/>
<glyph glyph-name="google-plus" unicode="&#112;" d="M269 93c0 4-1 8-2 12-1 4-1 7-2 10-1 3-3 7-5 10-3 4-5 6-6 9-2 2-5 5-8 8-3 4-6 6-8 8-2 1-5 4-9 7-4 3-7 5-9 6-1 2-5 4-9 7-5 3-8 5-9 6-3 0-8 1-14 1-11 0-21-1-31-2-9-2-20-4-30-8-11-3-20-7-28-13-8-5-15-12-20-21-5-9-8-19-8-31 0-13 4-24 10-34 7-11 16-19 27-24 11-6 22-11 34-13 12-3 24-5 37-5 11 0 22 1 32 4 10 2 19 6 28 11 9 5 16 12 22 21 5 9 8 19 8 31z m-35 247c0 11-1 23-4 36-4 13-8 25-14 37-6 12-14 22-24 30-10 8-21 12-34 12-18 0-31-7-41-20-10-13-15-29-15-47 0-9 1-18 4-28 2-10 5-20 10-30 4-10 10-19 16-27 6-8 13-14 22-19 9-5 18-7 28-7 18 0 32 5 40 17 8 11 12 27 12 46z m-37 135l125 0-39-22-38 0c13-9 24-21 31-36 7-16 11-32 11-48 0-15-2-27-6-38-5-11-10-20-16-26-7-7-13-13-19-19-7-5-12-11-16-17-5-6-7-13-7-20 0-5 2-9 5-14 3-5 7-9 12-14 5-4 11-9 17-14 6-4 12-10 18-15 6-6 12-13 17-19 5-7 9-15 12-25 3-9 5-19 5-30 0-30-13-57-40-81-29-25-69-37-120-37-11 0-23 1-34 3-12 2-23 5-35 9-12 5-22 10-31 17-9 7-16 15-22 25-6 11-9 22-9 35 0 12 4 25 11 39 6 12 15 22 27 31 12 9 26 16 42 21 15 4 30 8 44 10 14 2 28 3 43 4-12 16-18 30-18 42 0 3 0 5 0 7 1 2 1 4 2 6 0 1 1 3 2 6 1 2 1 4 2 6-8-1-14-2-20-2-29 0-53 10-73 28-20 19-31 43-31 71 0 26 9 50 28 71 18 21 40 35 66 41 18 4 36 5 54 5z m297-73l0-36-73 0 0-73-37 0 0 73-73 0 0 36 73 0 0 73 37 0 0-73z"/>
<glyph glyph-name="twitter" unicode="&#114;" d="M481 395c-13-18-28-34-46-47 0-3 0-7 0-12 0-25-3-50-11-74-7-25-18-49-33-71-14-23-32-43-52-61-21-17-45-31-74-41-29-11-60-16-92-16-52 0-99 14-142 42 7-1 14-2 22-2 43 0 81 14 115 40-20 0-38 6-54 18-16 12-27 27-33 46 7-1 13-2 18-2 8 0 16 1 24 4-21 4-39 15-53 31-14 17-21 37-21 59l0 1c13-7 27-11 42-11-13 8-23 19-30 32-8 14-11 29-11 44 0 17 4 33 12 47 23-28 51-51 84-68 33-17 69-27 107-29-2 8-3 15-3 22 0 25 9 47 27 65 18 18 40 27 66 27 26 0 49-10 67-29 21 4 40 11 59 22-7-22-21-39-41-51 18 2 35 7 53 14z"/>
<glyph glyph-name="facebook" unicode="&#115;" d="M384 509l0-76-45 0c-17 0-28-3-33-10-6-7-9-17-9-31l0-54 84 0-11-85-73 0 0-216-87 0 0 216-73 0 0 85 73 0 0 62c0 36 10 63 29 83 20 19 47 29 80 29 28 0 49-1 65-3z"/>
<glyph glyph-name="angle-up" unicode="&#116;" d="M399 174c0-3-1-5-3-7l-15-14c-1-2-4-3-6-3-3 0-5 1-7 3l-112 112-112-112c-2-2-4-3-7-3-2 0-5 1-6 3l-15 14c-2 2-3 4-3 7 0 2 1 4 3 6l133 133c2 2 5 3 7 3 2 0 5-1 7-3l133-133c2-2 3-4 3-6z"/>
<glyph glyph-name="android-add" unicode="&#117;" d="M416 235l-139 0 0-139-42 0 0 139-139 0 0 42 139 0 0 139 42 0 0-139 139 0z"/>
<glyph glyph-name="android-remove" unicode="&#118;" d="M96 277l320 0 0-42-320 0z"/>
</font>
</defs>
</svg>
